<svg width="60" height="60" viewBox="0 0 60 60" fill="none" xmlns="http://www.w3.org/2000/svg">
<path d="M58.5689 22.8602L53.0114 28.4177C52.9331 28.4878 52.8316 28.5265 52.7264 28.5265C52.6213 28.5265 52.5198 28.4878 52.4414 28.4177L46.8612 22.8602C46.7911 22.7818 46.7523 22.6803 46.7523 22.5752C46.7523 22.47 46.7911 22.3685 46.8612 22.2902C46.9383 22.2176 47.0402 22.1772 47.1462 22.1772C47.2521 22.1772 47.354 22.2176 47.4312 22.2902L52.2704 27.1295C52.2824 20.527 49.6798 14.1883 45.0315 9.49938C40.4997 4.82654 34.2976 2.14478 27.789 2.04379V5.04769C27.789 5.10281 27.778 5.15739 27.7568 5.20825C27.7355 5.25911 27.7044 5.30524 27.6651 5.34395C27.6259 5.38266 27.5793 5.41319 27.5282 5.43377C27.477 5.45434 27.4223 5.46454 27.3672 5.46379C27.2563 5.4638 27.1499 5.42014 27.0709 5.34227C26.992 5.26439 26.9469 5.15857 26.9454 5.04769V2.04379C13.8525 2.34019 2.88573 13.3583 2.65203 26.4455H5.64453C5.70365 26.4385 5.76356 26.4442 5.82033 26.4621C5.8771 26.48 5.92943 26.5097 5.9739 26.5493C6.01836 26.5889 6.05394 26.6374 6.07831 26.6917C6.10268 26.746 6.11528 26.8049 6.11528 26.8644C6.11528 26.9239 6.10268 26.9828 6.07831 27.0371C6.05394 27.0914 6.01836 27.1399 5.9739 27.1795C5.92943 27.2191 5.8771 27.2488 5.82033 27.2667C5.76356 27.2846 5.70365 27.2903 5.64453 27.2833H2.65203C2.88573 40.2394 13.5789 51.1549 26.6376 51.685L26.5977 52.5286C19.9574 52.2537 13.6791 49.428 9.07022 44.6398C4.45154 39.9197 1.84596 33.5907 1.80273 26.987V26.8502C1.8512 20.0948 4.54347 13.6271 9.30275 8.83262C14.062 4.03818 20.5098 1.29838 27.2646 1.2002L27.4356 1.2002C30.8307 1.2037 34.1907 1.88801 37.3168 3.21266C40.4429 4.53731 43.2716 6.47539 45.6357 8.91228C50.4393 13.7489 53.134 20.2899 53.1311 27.1067L57.9704 22.2902C58.0482 22.2189 58.1499 22.1793 58.2554 22.1793C58.361 22.1793 58.4626 22.2189 58.5404 22.2902C58.6169 22.3636 58.6625 22.4636 58.6678 22.5695C58.6731 22.6754 58.6377 22.7794 58.5689 22.8602Z" fill="#E21016" stroke="#E21016" stroke-width="1.5"/>
<path d="M40.0098 14.0709C39.9326 13.9984 39.8307 13.958 39.7248 13.958C39.6189 13.958 39.5169 13.9984 39.4398 14.0709L28.8207 24.4278C28.3894 24.1716 27.8973 24.0358 27.3957 24.0345C26.6923 24.0335 26.0122 24.2865 25.4805 24.747L20.4759 19.617C20.3981 19.5457 20.2964 19.5062 20.1909 19.5062C20.0854 19.5062 19.9837 19.5457 19.9059 19.617C19.8334 19.6942 19.793 19.7961 19.793 19.902C19.793 20.0079 19.8334 20.1099 19.9059 20.187L24.9618 25.3683C24.6478 25.8391 24.4812 26.3927 24.483 26.9586C24.4825 27.4396 24.5999 27.9134 24.8251 28.3385C25.0503 28.7635 25.3762 29.1269 25.7744 29.3967C26.1727 29.6665 26.631 29.8345 27.1092 29.886C27.5875 29.9375 28.071 29.871 28.5176 29.6921C28.9641 29.5133 29.36 29.2277 29.6705 28.8604C29.981 28.493 30.1967 28.0551 30.2986 27.585C30.4005 27.1149 30.3856 26.627 30.2551 26.164C30.1247 25.701 29.8826 25.2771 29.5503 24.9294L40.0668 14.6694C40.1027 14.6266 40.1298 14.577 40.1464 14.5236C40.1631 14.4701 40.1689 14.4139 40.1636 14.3582C40.1583 14.3025 40.142 14.2485 40.1156 14.1991C40.0891 14.1498 40.0532 14.1062 40.0098 14.0709ZM27.3957 29.079C27.0654 29.0781 26.74 28.9995 26.4458 28.8495C26.1516 28.6995 25.8969 28.4823 25.7022 28.2155C25.5075 27.9488 25.3784 27.6399 25.3253 27.3139C25.2722 26.988 25.2966 26.6541 25.3965 26.3393C25.4964 26.0246 25.6691 25.7378 25.9004 25.5021C26.1318 25.2665 26.4154 25.0886 26.7283 24.983C27.0412 24.8773 27.3746 24.8468 27.7015 24.894C28.0283 24.9411 28.3395 25.0646 28.6098 25.2543C28.6278 25.2762 28.649 25.2954 28.6725 25.3113C28.9302 25.5054 29.139 25.7569 29.2825 26.0458C29.426 26.3347 29.5001 26.6531 29.499 26.9757C29.499 27.5335 29.2774 28.0685 28.8829 28.463C28.4885 28.8574 27.9535 29.079 27.3957 29.079Z" fill="#E21016" stroke="#E21016" stroke-width="1.5"/>
<path d="M1.80248 26.8501V26.9128C1.79924 26.8978 1.79924 26.8822 1.80248 26.8672V26.8501Z" fill="#E21016" stroke="#E21016" stroke-width="1.5"/>
<path d="M40.9271 58.2003H26.8596C26.7792 58.2 26.7005 58.1769 26.6328 58.1334C26.5652 58.09 26.5113 58.0282 26.4777 57.9552C26.443 57.8835 26.43 57.8033 26.4401 57.7244C26.4502 57.6454 26.4831 57.5712 26.5347 57.5106L37.7864 43.8648C38.4225 43.0944 38.8554 42.1769 39.0456 41.1961C39.2358 40.2154 39.1772 39.2026 38.8751 38.2503C38.6126 37.3556 38.1279 36.542 37.4661 35.8851C36.8043 35.2283 35.987 34.7498 35.0903 34.494C34.5127 34.3273 33.9129 34.2504 33.3119 34.266C32.4979 34.3023 31.6991 34.4993 30.9615 34.8456C30.2239 35.1919 29.5621 35.6807 29.0142 36.2838C28.4232 36.9234 27.9673 37.6755 27.6735 38.4952C27.3797 39.3149 27.2541 40.1854 27.3042 41.0547C27.2981 41.1586 27.2537 41.2567 27.1797 41.3299C27.1057 41.4031 27.0072 41.4464 26.9031 41.4513C26.7991 41.4563 26.697 41.4226 26.6163 41.3567C26.5357 41.2909 26.4822 41.1975 26.4663 41.0946C26.4133 40.1132 26.5581 39.1312 26.8919 38.2069C27.2258 37.2826 27.7421 36.4348 28.41 35.7138C29.0352 35.0294 29.7898 34.4756 30.6301 34.0842C31.4705 33.6929 32.38 33.4719 33.3062 33.4338C33.9936 33.4165 34.6796 33.503 35.3411 33.6903C36.3717 33.9844 37.3113 34.5342 38.0726 35.2885C38.8339 36.0429 39.3923 36.9773 39.6959 38.0052C40.0329 39.0872 40.0958 40.236 39.8789 41.3483C39.662 42.4606 39.1722 43.5016 38.4533 44.3778L27.7488 57.3567H40.9271C41.039 57.3567 41.1463 57.4011 41.2254 57.4802C41.3045 57.5593 41.3489 57.6666 41.3489 57.7785C41.3489 57.8903 41.3045 57.9976 41.2254 58.0767C41.1463 58.1558 41.039 58.2003 40.9271 58.2003Z" fill="#E21016" stroke="#E21016" stroke-width="1.5"/>
<path d="M58.2724 53.3094H54.6928V33.8667C54.6929 33.7767 54.6642 33.6889 54.6109 33.6163C54.5575 33.5437 54.4823 33.4901 54.3963 33.4634C54.3103 33.4366 54.218 33.4381 54.1329 33.4676C54.0477 33.4971 53.9743 33.5531 53.9233 33.6273L40.5796 53.412C40.5392 53.477 40.5178 53.5521 40.5178 53.6286C40.5178 53.7052 40.5392 53.7802 40.5796 53.8452C40.6151 53.9126 40.6684 53.969 40.7338 54.0082C40.7991 54.0474 40.8739 54.0679 40.9501 54.0675L53.872 54.1245V57.7782C53.872 57.8901 53.9165 57.9974 53.9956 58.0765C54.0747 58.1556 54.1819 58.2 54.2938 58.2C54.4057 58.2 54.513 58.1556 54.5921 58.0765C54.6712 57.9974 54.7156 57.8901 54.7156 57.7782V54.1302H58.2895C58.4014 54.1302 58.5087 54.0858 58.5878 54.0067C58.6669 53.9276 58.7113 53.8203 58.7113 53.7084C58.7099 53.653 58.6973 53.5984 58.6742 53.548C58.6512 53.4976 58.6181 53.4524 58.5771 53.4151C58.5361 53.3779 58.4879 53.3493 58.4356 53.3311C58.3832 53.3129 58.3277 53.3055 58.2724 53.3094ZM53.8492 53.3094L41.7139 53.2524L53.8492 35.2404V53.3094Z" fill="#E21016" stroke="#E21016" stroke-width="1.5"/>
</svg>
