<svg class="hoverable" width="43" height="16" viewBox="0 0 43 16" fill="none" xmlns="http://www.w3.org/2000/svg">
  <style>
    .hoverable:hover  {
      fill: red; /* Change color on hover */
    }
    .hoverable:hover {
      transform: scale(1.2); /* Increase size on hover */
    }
  </style>
<path d="M1.75049 6.71436C1.1982 6.71436 0.750488 7.16207 0.750488 7.71436C0.750488 8.26664 1.1982 8.71436 1.75049 8.71436V6.71436ZM41.9565 8.42146C42.347 8.03094 42.347 7.39777 41.9565 7.00725L35.5925 0.643288C35.202 0.252763 34.5688 0.252763 34.1783 0.643288C33.7878 1.03381 33.7878 1.66698 34.1783 2.0575L39.8351 7.71436L34.1783 13.3712C33.7878 13.7617 33.7878 14.3949 34.1783 14.7854C34.5688 15.1759 35.202 15.1759 35.5925 14.7854L41.9565 8.42146ZM1.75049 8.71436H41.2493V6.71436H1.75049V8.71436Z" fill="white"/>
</svg>
