<svg width="90" height="90" viewBox="0 0 90 90" fill="none" xmlns="http://www.w3.org/2000/svg">
<g clip-path="url(#clip0_634_2227)">
<path d="M43.6141 31.4274H12.1141C11.7577 31.399 11.4251 31.2373 11.1825 30.9746C10.9399 30.7119 10.8052 30.3675 10.8052 30.0099C10.8052 29.6523 10.9399 29.3079 11.1825 29.0452C11.4251 28.7825 11.7577 28.6208 12.1141 28.5924H43.6141C43.8098 28.5768 44.0065 28.6019 44.192 28.666C44.3775 28.7302 44.5477 28.832 44.6919 28.9652C44.8361 29.0983 44.9511 29.2599 45.0298 29.4397C45.1085 29.6195 45.1492 29.8136 45.1492 30.0099C45.1492 30.2062 45.1085 30.4003 45.0298 30.5801C44.9511 30.7599 44.8361 30.9214 44.6919 31.0546C44.5477 31.1877 44.3775 31.2896 44.192 31.3538C44.0065 31.4179 43.8098 31.443 43.6141 31.4274Z" fill="white"/>
<path d="M36.1801 42.7672H12.1141C11.7577 42.7388 11.4251 42.5771 11.1825 42.3144C10.9399 42.0518 10.8052 41.7073 10.8052 41.3497C10.8052 40.9922 10.9399 40.6477 11.1825 40.385C11.4251 40.1223 11.7577 39.9607 12.1141 39.9322H36.1801C36.3758 39.9166 36.5725 39.9417 36.758 40.0059C36.9435 40.07 37.1137 40.1719 37.2579 40.305C37.4021 40.4382 37.5171 40.5997 37.5958 40.7795C37.6745 40.9593 37.7152 41.1535 37.7152 41.3497C37.7152 41.546 37.6745 41.7401 37.5958 41.9199C37.5171 42.0997 37.4021 42.2613 37.2579 42.3944C37.1137 42.5276 36.9435 42.6295 36.758 42.6936C36.5725 42.7578 36.3758 42.7828 36.1801 42.7672Z" fill="white"/>
<path d="M36.1801 54.1071H12.1141C11.7577 54.0787 11.4251 53.917 11.1825 53.6543C10.9399 53.3916 10.8052 53.0471 10.8052 52.6896C10.8052 52.332 10.9399 51.9876 11.1825 51.7249C11.4251 51.4622 11.7577 51.3005 12.1141 51.2721H36.1801C36.3758 51.2565 36.5725 51.2815 36.758 51.3457C36.9435 51.4099 37.1137 51.5117 37.2579 51.6449C37.4021 51.778 37.5171 51.9396 37.5958 52.1194C37.6745 52.2992 37.7152 52.4933 37.7152 52.6896C37.7152 52.8858 37.6745 53.08 37.5958 53.2598C37.5171 53.4396 37.4021 53.6011 37.2579 53.7343C37.1137 53.8674 36.9435 53.9693 36.758 54.0335C36.5725 54.0976 36.3758 54.1227 36.1801 54.1071Z" fill="white"/>
<path d="M36.1801 65.4489H12.1141C11.7577 65.4205 11.4251 65.2588 11.1825 64.9961C10.9399 64.7334 10.8052 64.3889 10.8052 64.0314C10.8052 63.6738 10.9399 63.3294 11.1825 63.0667C11.4251 62.804 11.7577 62.6423 12.1141 62.6139H36.1801C36.3758 62.5983 36.5725 62.6233 36.758 62.6875C36.9435 62.7517 37.1137 62.8535 37.2579 62.9867C37.4021 63.1198 37.5171 63.2814 37.5958 63.4612C37.6745 63.641 37.7152 63.8351 37.7152 64.0314C37.7152 64.2276 37.6745 64.4218 37.5958 64.6016C37.5171 64.7814 37.4021 64.9429 37.2579 65.0761C37.1137 65.2092 36.9435 65.3111 36.758 65.3753C36.5725 65.4394 36.3758 65.4645 36.1801 65.4489Z" fill="white"/>
<path d="M89.1541 74.925L76.6981 62.469C78.6532 60.2751 80.0485 57.6408 80.765 54.7908C81.4814 51.9408 81.4977 48.9598 80.8125 46.1022C80.1272 43.2445 78.7608 40.5951 76.8298 38.3799C74.8988 36.1648 72.4606 34.4497 69.7231 33.381V20.988L66.8881 18.153L51.5881 2.853L48.7441 0H1.84513C1.47038 0 1.11098 0.148869 0.845987 0.413858C0.580998 0.678847 0.432129 1.03825 0.432129 1.413V88.587C0.432129 88.9617 0.580998 89.3212 0.845987 89.5861C1.11098 89.8511 1.47038 90 1.84513 90H68.3101C68.6849 90 69.0443 89.8511 69.3093 89.5861C69.5743 89.3212 69.7231 88.9617 69.7231 88.587V67.338C71.5237 66.6387 73.2032 65.6608 74.7001 64.44L87.1471 76.932C87.4159 77.1967 87.7779 77.3454 88.1551 77.346C88.3409 77.3475 88.5251 77.3116 88.6967 77.2404C88.8683 77.1693 89.0238 77.0644 89.1541 76.932C89.2866 76.8006 89.3918 76.6443 89.4636 76.4721C89.5354 76.2998 89.5724 76.1151 89.5724 75.9285C89.5724 75.7419 89.5354 75.5572 89.4636 75.3849C89.3918 75.2127 89.2866 75.0564 89.1541 74.925ZM48.6901 3.951L65.8891 21.159H48.6901V3.951ZM66.8881 87.165H3.26713V2.835H45.9001V22.572C45.9001 22.9476 46.0487 23.3079 46.3134 23.5743C46.5782 23.8408 46.9376 23.9916 47.3131 23.994H66.9331V32.526C64.2722 31.9525 61.5167 31.9817 58.8686 32.6115C56.2204 33.2413 53.7468 34.4557 51.629 36.1657C49.5112 37.8757 47.8028 40.038 46.6292 42.494C45.4556 44.95 44.8465 47.6375 44.8465 50.3595C44.8465 53.0815 45.4556 55.769 46.6292 58.225C47.8028 60.681 49.5112 62.8433 51.629 64.5533C53.7468 66.2633 56.2204 67.4777 58.8686 68.1075C61.5167 68.7373 64.2722 68.7665 66.9331 68.193L66.8881 87.165ZM69.7231 64.251C68.8148 64.6891 67.8651 65.0358 66.8881 65.286C65.6436 65.6012 64.3649 65.7614 63.0811 65.763C59.0603 65.6658 55.2369 64.0003 52.4275 61.1221C49.6181 58.244 48.0455 54.3815 48.0455 50.3595C48.0455 46.3375 49.6181 42.475 52.4275 39.5969C55.2369 36.7187 59.0603 35.0532 63.0811 34.956C65.3822 34.9405 67.6555 35.458 69.7231 36.468C72.3442 37.7218 74.5571 39.6915 76.1061 42.1496C77.6552 44.6078 78.4772 47.454 78.4772 50.3595C78.4772 53.265 77.6552 56.1112 76.1061 58.5694C74.5571 61.0275 72.3442 62.9972 69.7231 64.251Z" fill="white"/>
</g>
<defs>
<clipPath id="clip0_634_2227">
<rect width="90" height="90" fill="white"/>
</clipPath>
</defs>
</svg>
