<svg width="80" height="81" viewBox="0 0 80 81" fill="none" xmlns="http://www.w3.org/2000/svg">
<path d="M42.1276 5.20998C34.917 5.20221 27.8558 7.26531 21.7836 11.154L23.5516 12.898C30.9627 8.33165 39.7926 6.64577 48.3648 8.16047C56.937 9.67516 64.6545 14.2849 70.0519 21.1145C75.4494 27.9441 78.1511 36.518 77.6439 45.2082C77.1367 53.8983 73.456 62.0997 67.3006 68.255C61.1453 74.4104 52.9439 78.0911 44.2538 78.5983C35.5636 79.1055 26.9897 76.4038 20.1601 71.0064C13.3305 65.6089 8.72076 57.8914 7.20607 49.3192C5.69138 40.747 7.37725 31.9171 11.9436 24.506L10.1916 22.73C5.67324 29.8207 3.64296 38.2134 4.42073 46.5853C5.19851 54.9572 8.74011 62.8323 14.4873 68.9693C20.2346 75.1063 27.8606 79.1563 36.1636 80.481C44.4666 81.8057 52.9742 80.3297 60.3458 76.2857C67.7173 72.2417 73.5336 65.8596 76.8778 58.1453C80.222 50.431 80.904 41.8232 78.8164 33.6786C76.7287 25.5339 71.9901 18.3155 65.3474 13.1611C58.7046 8.00671 50.5355 5.20937 42.1276 5.20998Z" fill="white"/>
<path d="M42.1277 13.2745C35.6253 13.2699 29.3024 15.4066 24.1357 19.3545V22.4665C29.5001 17.7887 36.4718 15.3776 43.5799 15.7419C50.6881 16.1062 57.3768 19.2173 62.2349 24.4189C67.093 29.6206 69.7406 36.5059 69.6191 43.6224C69.4977 50.7388 66.6166 57.5298 61.5838 62.5626C56.551 67.5954 49.76 70.4765 42.6436 70.5979C35.5272 70.7194 28.6418 68.0718 23.4402 63.2137C18.2385 58.3556 15.1274 51.6669 14.7631 44.5587C14.3988 37.4506 16.8099 30.4789 21.4877 25.1145H18.3997C14.3479 30.4777 12.2278 37.0529 12.3835 43.7728C12.5392 50.4927 14.9615 56.9627 19.2573 62.1326C23.5531 67.3024 29.4702 70.8685 36.0479 72.2521C42.6257 73.6357 49.478 72.7554 55.4925 69.7543C61.5069 66.7531 66.3305 61.8072 69.1802 55.7195C72.0298 49.6318 72.7383 42.7596 71.1905 36.2185C69.6427 29.6775 65.9295 23.8516 60.6537 19.6865C55.378 15.5215 48.8494 13.2619 42.1277 13.2745Z" fill="white"/>
<path d="M42.1278 21.3379C36.7799 21.3358 31.62 23.3103 27.6398 26.8819L29.3518 28.5939C33.1283 25.2622 38.0532 23.531 43.0837 23.767C48.1143 24.0029 52.8556 26.1875 56.3036 29.858C59.7517 33.5286 61.6359 38.397 61.5572 43.4325C61.4785 48.468 59.4432 53.2752 55.8821 56.8363C52.3211 60.3973 47.5139 62.4327 42.4784 62.5113C37.4429 62.59 32.5745 60.7058 28.9039 57.2578C25.2333 53.8097 23.0488 49.0684 22.8129 44.0379C22.5769 39.0073 24.308 34.0824 27.6398 30.3059L25.9278 28.5939C22.6124 32.3055 20.6712 37.0423 20.4283 42.013C20.1854 46.9838 21.6556 51.8873 24.5932 55.9044C27.5309 59.9215 31.7581 62.8089 36.5686 64.0842C41.3791 65.3594 46.4815 64.9453 51.0234 62.911C55.5653 60.8767 59.2715 57.3454 61.5229 52.9071C63.7743 48.4688 64.4345 43.3924 63.3932 38.5259C62.3519 33.6594 59.6721 29.2976 55.8017 26.1692C51.9312 23.0409 47.1044 21.3355 42.1278 21.3379Z" fill="white"/>
<path d="M19.9996 19.2022L18.3036 17.4902L17.9836 17.1782L16.2396 15.4662L12.5996 11.8262L16.2476 15.4582L17.9516 17.1702L18.2716 17.4742L19.9756 19.1862L21.7196 20.9542L19.9996 19.2022ZM19.9996 19.2022L18.3036 17.4902L17.9836 17.1782L16.2396 15.4662L12.5996 11.8262L16.2476 15.4582L17.9516 17.1702L18.2716 17.4742L19.9756 19.1862L21.7196 20.9542L19.9996 19.2022Z" fill="white"/>
<path d="M16.6075 19.2583L16.2395 18.8823L14.5275 17.1783L10.9355 13.5703L14.5355 17.1703L16.2475 18.8743L16.6155 19.2503L18.3115 20.9543L16.6075 19.2583Z" fill="white"/>
<path d="M42.9837 42.2261L27.6396 26.8821L24.1356 23.3541V13.9781C24.1366 13.7356 24.0641 13.4985 23.9276 13.2981C23.8838 13.2314 23.8329 13.1697 23.7756 13.1141L23.5516 12.8981L21.7836 11.1541L18.0556 7.48208L16.2876 5.75408L11.7596 1.29808C11.5924 1.13744 11.3828 1.02795 11.1554 0.982537C10.928 0.937121 10.6924 0.957666 10.4763 1.04175C10.2602 1.12583 10.0726 1.26995 9.93573 1.45711C9.79884 1.64427 9.71831 1.86667 9.70365 2.09808L9.22365 10.1861L1.13565 10.6581C0.902567 10.6798 0.680185 10.7662 0.493594 10.9075C0.307003 11.0489 0.163629 11.2396 0.0796488 11.4581C-0.00276323 11.6744 -0.0216991 11.9098 0.0250671 12.1366C0.0718333 12.3633 0.182358 12.572 0.343649 12.7381L5.07165 17.5381L6.82365 19.3301L10.1916 22.7541L11.9436 24.5301L12.1596 24.7541C12.3453 24.9453 12.591 25.0668 12.8556 25.0981C12.9114 25.1057 12.9679 25.1057 13.0237 25.0981H22.3996L25.8956 28.6021L30.8956 33.6021L30.9356 33.6501L32.9356 35.6421L41.2716 43.9381C41.4994 44.1638 41.807 44.2904 42.1277 44.2904C42.4483 44.2904 42.7559 44.1638 42.9837 43.9381C43.0964 43.8258 43.1858 43.6924 43.2468 43.5455C43.3079 43.3986 43.3393 43.2411 43.3393 43.0821C43.3393 42.923 43.3079 42.7655 43.2468 42.6186C43.1858 42.4717 43.0964 42.3383 42.9837 42.2261ZM13.5276 22.6741L13.3116 22.4501L11.5916 20.6981L8.13565 17.1861L6.39965 15.4261L3.94365 12.9541L8.54365 12.6741L9.85565 12.5941L10.9036 13.6341L14.4957 17.2421L16.2076 18.9461L16.5756 19.3221L18.3196 20.9541L19.9996 22.6741H13.5276ZM21.7196 20.9541L19.9517 19.2101L18.2476 17.4981L17.9276 17.1941L16.2236 15.4821L12.5756 11.8501L11.5996 10.8181L11.6876 9.35408L11.9996 4.89008L14.3276 7.17808L15.9996 8.89008L19.7196 12.5461L21.4636 14.2661L21.6877 14.4821L21.7196 20.9541Z" fill="white"/>
</svg>
