<svg width="90" height="87" viewBox="0 0 90 87" fill="none" xmlns="http://www.w3.org/2000/svg">
<path d="M45.163 35.776C42.9532 35.8219 40.7518 35.4844 38.654 34.7781C35.9419 33.7654 35.3706 32.3199 35.3706 31.278C35.4678 28.7167 36.5389 26.2933 38.3593 24.5161C40.1797 22.7389 42.6078 21.7461 45.1341 21.7461C47.6604 21.7461 50.0884 22.7389 51.9088 24.5161C53.7292 26.2933 54.8004 28.7167 54.8976 31.278C54.9265 34.3892 50.023 35.776 45.163 35.776ZM45.163 22.7149C42.9245 22.7168 40.7781 23.6194 39.1946 25.2246C37.6111 26.8299 36.7196 29.0068 36.7158 31.278C36.7158 33.083 40.3319 34.4405 45.163 34.4405C49.9941 34.4405 53.6102 33.083 53.6102 31.278C53.6064 29.0068 52.715 26.8299 51.1314 25.2246C49.5479 23.6194 47.4015 22.7168 45.163 22.7149Z" fill="white" stroke="white" stroke-width="1.5" stroke-miterlimit="10"/>
<path d="M45.1629 20.844C44.0858 20.844 43.0329 20.52 42.1373 19.9129C41.2418 19.3057 40.5438 18.4428 40.1316 17.4332C39.7194 16.4236 39.6116 15.3126 39.8217 14.2408C40.0318 13.169 40.5505 12.1845 41.3121 11.4118C42.0737 10.6391 43.0441 10.1128 44.1005 9.89962C45.1569 9.68643 46.2518 9.79586 47.2469 10.2141C48.242 10.6322 49.0926 11.3404 49.691 12.2491C50.2894 13.1577 50.6087 14.2259 50.6087 15.3187C50.6068 16.7835 50.0325 18.1878 49.0116 19.2236C47.9907 20.2593 46.6066 20.8421 45.1629 20.844ZM45.1629 11.1289C44.3461 11.1289 43.5477 11.3747 42.8686 11.835C42.1895 12.2954 41.6602 12.9498 41.3477 13.7154C41.0351 14.481 40.9533 15.3234 41.1127 16.1361C41.272 16.9489 41.6653 17.6954 42.2428 18.2814C42.8204 18.8674 43.5562 19.2664 44.3572 19.4281C45.1583 19.5897 45.9886 19.5068 46.7432 19.1896C47.4978 18.8725 48.1428 18.3355 48.5965 17.6465C49.0503 16.9575 49.2925 16.1474 49.2925 15.3187C49.2934 14.7676 49.1874 14.2216 48.9804 13.712C48.7733 13.2024 48.4694 12.7392 48.0859 12.3488C47.7025 11.9583 47.247 11.6484 46.7454 11.4365C46.2439 11.2247 45.7061 11.1152 45.1629 11.1142V11.1289Z" fill="white" stroke="white" stroke-width="1.5" stroke-miterlimit="10"/>
<path d="M70.6709 26.2813L65.6083 29.9501C65.4972 30.0327 65.3627 30.0764 65.225 30.0749H65.1238C65.0372 30.0619 64.9543 30.0303 64.8807 29.9822C64.8071 29.9341 64.7445 29.8706 64.6971 29.796L61.081 24.6596C61.0209 24.5896 60.9758 24.5077 60.9487 24.419C60.9215 24.3303 60.9129 24.2368 60.9234 24.1446C60.9339 24.0524 60.9632 23.9633 61.0095 23.8832C61.0558 23.8031 61.118 23.7337 61.1923 23.6794C61.2665 23.6251 61.3511 23.5871 61.4406 23.5678C61.5301 23.5486 61.6226 23.5485 61.7122 23.5675C61.8018 23.5866 61.8865 23.6243 61.9608 23.6785C62.0352 23.7326 62.0976 23.8019 62.1441 23.8818L64.8562 27.7195C65.5164 23.2506 64.7003 18.6857 62.5351 14.7368C60.37 10.788 56.9775 7.6772 52.8869 5.88981C51.9507 5.47864 50.9832 5.14491 49.994 4.89188C49.8242 4.84712 49.679 4.73578 49.5901 4.58235C49.5013 4.42891 49.4762 4.24595 49.5203 4.07373C49.5644 3.9015 49.6741 3.7541 49.8254 3.66397C49.9766 3.57384 50.1569 3.54835 50.3267 3.59311C51.3774 3.87267 52.407 4.22823 53.4076 4.65707C57.7669 6.56272 61.3818 9.87882 63.6883 14.0879C65.9948 18.2971 66.8632 23.1624 66.158 27.9249L69.9115 25.1953C70.0544 25.0921 70.2318 25.0508 70.4047 25.0804C70.5777 25.11 70.7319 25.2081 70.8336 25.353C70.9352 25.498 70.976 25.678 70.9468 25.8535C70.9176 26.0289 70.821 26.1855 70.6781 26.2886L70.6709 26.2813Z" fill="white" stroke="white" stroke-width="1.5" stroke-miterlimit="10"/>
<path d="M60.0756 40.0396C56.2638 43.8897 51.1651 46.1458 45.7906 46.3605C40.4161 46.5753 35.1584 44.733 31.06 41.1989L31.2986 45.851C31.3076 45.9411 31.2984 46.0321 31.2716 46.1184C31.2448 46.2047 31.201 46.2847 31.1428 46.3533C31.0846 46.4219 31.0133 46.4778 30.9332 46.5176C30.853 46.5574 30.7658 46.5803 30.6767 46.5848C30.508 46.5815 30.3468 46.514 30.2249 46.3958C30.103 46.2775 30.0294 46.1172 30.0185 45.9464L29.6858 39.636C29.679 39.5458 29.6898 39.455 29.7178 39.3691C29.7459 39.2831 29.7904 39.2037 29.849 39.1354C29.9075 39.0671 29.9789 39.0114 30.0589 38.9713C30.1389 38.9313 30.226 38.9078 30.315 38.9022L36.5347 38.5647C36.7009 38.5705 36.8589 38.6392 36.9776 38.7572C37.0963 38.8753 37.1672 39.0341 37.1763 39.2025C37.1853 39.3709 37.1319 39.5367 37.0266 39.6672C36.9213 39.7976 36.7716 39.8834 36.6071 39.9075L31.9278 40.1643C35.7692 43.4828 40.6988 45.2166 45.7404 45.0223C50.7819 44.8279 55.5677 42.7197 59.1498 39.115C59.211 39.0527 59.2837 39.0032 59.3637 38.9694C59.4438 38.9357 59.5296 38.9183 59.6163 38.9183C59.703 38.9183 59.7888 38.9357 59.8689 38.9694C59.9489 39.0032 60.0216 39.0527 60.0828 39.115C60.1422 39.1762 60.1892 39.2486 60.221 39.3282C60.2528 39.4078 60.2689 39.4929 60.2682 39.5788C60.2675 39.6647 60.2502 39.7496 60.2171 39.8287C60.184 39.9077 60.1359 39.9794 60.0756 40.0396Z" fill="white" stroke="white" stroke-width="1.5" stroke-miterlimit="10"/>
<path d="M38.9069 5.03153L36.2599 10.7476C36.2037 10.8602 36.1179 10.9548 36.0119 11.0208C35.906 11.0869 35.784 11.1218 35.6596 11.1218C35.5625 11.1236 35.4662 11.1036 35.3776 11.0631C35.2206 10.9868 35.0994 10.8511 35.0399 10.6851C34.9804 10.5191 34.9874 10.3361 35.0594 10.1753L37.0555 5.8827C32.5473 7.84054 28.9001 11.4031 26.8008 15.8995C24.7015 20.3958 24.2949 25.5158 25.6575 30.2952C25.6819 30.3795 25.6896 30.4679 25.6802 30.5552C25.6709 30.6426 25.6446 30.7272 25.6029 30.8042C25.5613 30.8812 25.5051 30.9492 25.4375 31.0041C25.3699 31.0591 25.2923 31.0999 25.2091 31.1244C25.1469 31.1352 25.0833 31.1352 25.0211 31.1244C24.8784 31.1256 24.7391 31.0798 24.6243 30.9938C24.5095 30.9077 24.4254 30.7862 24.3846 30.6474C22.9373 25.5486 23.3765 20.0889 25.6195 15.2956C27.8624 10.5022 31.7546 6.70582 36.5637 4.62061L32.3979 2.6321C32.2521 2.54938 32.1428 2.41351 32.0921 2.25204C32.0414 2.09057 32.0531 1.91556 32.1248 1.76252C32.1966 1.60948 32.323 1.48984 32.4785 1.42786C32.6339 1.36587 32.8068 1.36618 32.962 1.42872L38.5959 4.12165C38.6771 4.15845 38.7501 4.21174 38.8102 4.27824C38.8703 4.34474 38.9164 4.42304 38.9455 4.5083C38.9747 4.59356 38.9863 4.68398 38.9796 4.77397C38.973 4.86396 38.9482 4.95162 38.9069 5.03153Z" fill="white" stroke="white" stroke-width="1.5" stroke-miterlimit="10"/>
<path d="M38.531 75.5684H36.9905C36.5493 73.9248 35.0884 68.3922 33.9602 63.674C32.7597 58.7138 29.4184 57.6058 26.9739 56.806C26.4387 56.6225 25.9252 56.4537 25.5275 56.2703C24.2612 55.5481 23.0838 54.6762 22.0198 53.6728C21.0914 52.8222 20.0947 52.0515 19.0402 51.3687C18.1992 50.8568 17.2163 50.6378 16.2413 50.745C15.4168 48.3603 12.2274 39.445 10.0216 36.7007C9.26508 35.8103 8.20863 35.2381 7.05856 35.0956C5.90849 34.9532 4.74737 35.2507 3.80193 35.9302C2.41334 36.8254 0.988597 38.6378 2.05896 42.2186C2.38441 43.3193 2.78218 44.6474 3.16549 46.1149C5.02416 52.7922 7.57714 61.9423 10.8316 66.0588C12.1768 67.7538 16.0388 70.1165 18.5918 71.6721C19.4596 72.2004 20.3492 72.7508 20.4938 72.8682C20.7957 73.744 20.9593 74.6628 20.9784 75.5905H19.532C18.8894 75.5905 18.2732 75.8494 17.8188 76.3104C17.3644 76.7714 17.1092 77.3966 17.1092 78.0486V83.185C17.1092 83.8369 17.3644 84.4621 17.8188 84.9231C18.2732 85.3841 18.8894 85.6431 19.532 85.6431H38.5237C39.165 85.6412 39.7794 85.3813 40.2322 84.9205C40.685 84.4598 40.9393 83.8356 40.9393 83.185V78.0486C40.9421 77.7252 40.8821 77.4043 40.7625 77.1045C40.6429 76.8047 40.4662 76.5318 40.2425 76.3014C40.0188 76.071 39.7524 75.8876 39.4587 75.7619C39.165 75.6361 38.8497 75.5704 38.531 75.5684ZM21.434 71.8996C20.7455 71.375 20.0203 70.9017 19.2644 70.4834C16.9501 69.0672 13.0592 66.6972 11.8658 65.1856C8.77769 61.2819 6.26811 52.2859 4.43836 45.7113C4.02613 44.2438 3.65728 42.9083 3.3246 41.793C2.64477 39.533 3.02808 37.9774 4.50345 37.0235C5.17471 36.5123 6.01191 36.278 6.84656 36.3679C7.6812 36.4578 8.45131 36.865 9.00188 37.5078C11.0197 40.032 14.1295 48.6758 14.9684 51.0825C14.4561 51.3369 13.9912 51.6795 13.5943 52.0952C11.5982 54.113 12.7409 56.8353 13.9921 58.1708C15.9954 60.3134 23.1264 64.8554 23.394 65.0535C23.5418 65.1464 23.7198 65.1762 23.8892 65.1363C24.0586 65.0964 24.2056 64.9902 24.298 64.8407C24.3454 64.7665 24.3777 64.6833 24.3928 64.5961C24.408 64.509 24.4057 64.4196 24.3861 64.3334C24.3666 64.2471 24.3301 64.1658 24.2789 64.0941C24.2278 64.0224 24.1629 63.9619 24.0883 63.9162C24.0232 63.8722 16.7982 59.2714 14.9106 57.2462C14.9106 57.2462 12.7409 54.8174 14.4839 53.0417C14.8481 52.6522 15.2961 52.3534 15.7929 52.1685C15.8615 52.1635 15.9294 52.1512 15.9954 52.1318L16.1039 52.0805C16.8803 51.9339 17.6827 52.08 18.3604 52.4914C19.3384 53.1513 20.2645 53.8873 21.1303 54.6927C22.2831 55.7824 23.5602 56.7283 24.9344 57.5104C25.419 57.7158 25.9542 57.9066 26.5327 58.09C28.9194 58.8825 31.5953 59.7704 32.6367 64.0042C33.7071 68.4435 35.0595 73.5946 35.5802 75.5831H22.2947C22.2079 74.2183 21.9909 72.4866 21.434 71.9143V71.8996ZM39.6303 83.1189C39.6284 83.4141 39.5119 83.6967 39.3062 83.9055C39.1004 84.1142 38.8219 84.2323 38.531 84.2343H19.5392C19.247 84.2343 18.9666 84.117 18.7593 83.908C18.552 83.6991 18.4346 83.4154 18.4327 83.1189V77.9825C18.4346 77.6861 18.552 77.4024 18.7593 77.1934C18.9666 76.9845 19.247 76.8672 19.5392 76.8672H38.531C38.8219 76.8691 39.1004 76.9873 39.3062 77.196C39.5119 77.4048 39.6284 77.6873 39.6303 77.9825V83.1189Z" fill="white" stroke="white" stroke-width="1.5" stroke-miterlimit="10"/>
<path d="M86.3504 35.9082C85.405 35.2287 84.2438 34.9312 83.0938 35.0737C81.9437 35.2161 80.8873 35.7884 80.1307 36.6787C77.9249 39.423 74.7427 48.3383 73.9183 50.723C72.941 50.6164 71.956 50.8353 71.1122 51.3467C70.0614 52.0316 69.0673 52.8022 68.1397 53.6508C67.0836 54.6604 65.9135 55.5397 64.6538 56.2703C64.2343 56.4538 63.7208 56.6226 63.2074 56.806C60.7629 57.6058 57.4216 58.7138 56.2355 63.6741C55.0856 68.3922 53.6391 73.9468 53.198 75.5685H51.6503C51.009 75.5704 50.3946 75.8303 49.9418 76.291C49.489 76.7518 49.2347 77.3759 49.2347 78.0266V83.163C49.2347 83.8137 49.489 84.4378 49.9418 84.8986C50.3946 85.3593 51.009 85.6192 51.6503 85.6211H70.6204C71.2629 85.6211 71.8792 85.3621 72.3335 84.9012C72.7879 84.4402 73.0431 83.8149 73.0431 83.163V78.0266C73.0431 77.3747 72.7879 76.7494 72.3335 76.2885C71.8792 75.8275 71.2629 75.5685 70.6204 75.5685H69.1739C69.19 74.6496 69.3461 73.7387 69.6368 72.8682C69.7959 72.7288 70.6927 72.1785 71.5605 71.6428C74.1063 70.0872 77.9683 67.7318 79.3135 66.0368C82.568 61.9204 85.0992 52.7703 86.9796 46.1003C87.3846 44.6327 87.7534 43.2973 88.0933 42.1966C89.1637 38.6158 87.739 36.7961 86.3504 35.9082ZM70.6204 76.9113C70.9119 76.9113 71.1915 77.0288 71.3977 77.238C71.6038 77.4471 71.7197 77.7308 71.7197 78.0266V83.163C71.7197 83.4588 71.6038 83.7425 71.3977 83.9517C71.1915 84.1608 70.9119 84.2783 70.6204 84.2783H51.6214C51.3311 84.2764 51.0533 84.158 50.8487 83.9491C50.6441 83.7401 50.5293 83.4575 50.5293 83.163V78.0266C50.5293 77.7321 50.6441 77.4495 50.8487 77.2405C51.0533 77.0316 51.3311 76.9132 51.6214 76.9113H70.6204ZM86.8277 41.8077C86.5023 42.9231 86.1045 44.2585 85.7212 45.7407C83.8914 52.3006 81.3819 61.2967 78.2937 65.2003C77.0932 66.7119 73.2312 69.082 70.888 70.4981C70.132 70.9164 69.4069 71.3897 68.7183 71.9143C68.1614 72.4866 67.9444 74.2477 67.8577 75.5832H54.5359C55.0567 73.5946 56.4091 68.4436 57.4794 64.0043C58.492 59.7704 61.204 58.8679 63.5907 58.0901C64.162 57.9066 64.6972 57.7159 65.189 57.5104C66.5608 56.7281 67.8355 55.7822 68.9859 54.6927C69.8504 53.8858 70.7766 53.1497 71.7558 52.4914C72.4337 52.0807 73.2359 51.9346 74.0123 52.0805L74.128 52.1319C74.1916 52.1512 74.2571 52.1635 74.3233 52.1686C74.8201 52.3534 75.268 52.6523 75.6323 53.0417C77.3897 54.8175 75.2345 57.2242 75.2128 57.2462C73.318 59.2715 66.1002 63.8502 66.0279 63.9162C65.9543 63.9644 65.8908 64.0268 65.841 64.0999C65.7911 64.173 65.756 64.2553 65.7375 64.3422C65.719 64.4291 65.7176 64.5188 65.7333 64.6062C65.749 64.6937 65.7815 64.7771 65.829 64.8518C65.8765 64.9265 65.938 64.9909 66.0101 65.0415C66.0821 65.092 66.1633 65.1277 66.2489 65.1464C66.3345 65.1652 66.4229 65.1666 66.5091 65.1507C66.5953 65.1347 66.6775 65.1017 66.7511 65.0536C67.0549 64.8554 74.1858 60.3134 76.1964 58.1708C77.4403 56.8353 78.5902 54.1131 76.5942 52.0952C76.192 51.6826 75.7252 51.3404 75.2128 51.0826C76.0517 48.6758 79.1616 40.032 81.1866 37.5078C81.7359 36.8656 82.5048 36.4585 83.3382 36.3687C84.1717 36.2788 85.0077 36.5128 85.6778 37.0236C87.1242 37.9921 87.5075 39.5477 86.8277 41.8077Z" fill="white" stroke="white" stroke-width="1.5" stroke-miterlimit="10"/>
</svg>
