<svg width="90" height="90" viewBox="0 0 90 90" fill="none" xmlns="http://www.w3.org/2000/svg">
<path d="M19.8545 47.707C17.6392 47.707 15.5146 48.5864 13.9473 50.152C12.3801 51.7176 11.4984 53.8414 11.4961 56.0566V60.2578C11.498 61.4913 11.7724 62.7092 12.2996 63.8244C12.8269 64.9396 13.5939 65.9246 14.5459 66.709C16.0364 67.9236 17.8967 68.5933 19.8193 68.6074C21.7249 68.6278 23.5789 67.9881 25.0664 66.7969C26.0431 66.0136 26.8313 65.0209 27.3728 63.8921C27.9144 62.7634 28.1955 61.5274 28.1953 60.2754V56.0566C28.193 53.8444 27.3138 51.7233 25.7503 50.1582C24.1869 48.5931 22.0667 47.7117 19.8545 47.707ZM25.4883 60.2578C25.5183 61.0205 25.3941 61.7813 25.1229 62.4948C24.8518 63.2083 24.4394 63.8596 23.9104 64.4098C23.3815 64.9601 22.7468 65.3978 22.0446 65.6968C21.3424 65.9958 20.587 66.1499 19.8237 66.1499C19.0605 66.1499 18.3051 65.9958 17.6029 65.6968C16.9006 65.3978 16.266 64.9601 15.737 64.4098C15.2081 63.8596 14.7957 63.2083 14.5245 62.4948C14.2534 61.7813 14.1291 61.0205 14.1592 60.2578V56.0566C14.2168 54.5929 14.8389 53.2083 15.8949 52.1931C16.9509 51.1779 18.3589 50.6109 19.8237 50.6109C21.2886 50.6109 22.6966 51.1779 23.7526 52.1931C24.8086 53.2083 25.4306 54.5929 25.4883 56.0566V60.2578Z" fill="white"/>
<path d="M35.1563 76.5791V80.5957C35.1523 81.3668 34.9506 82.1239 34.5705 82.7948C34.1905 83.4657 33.6447 84.0279 32.9854 84.4277L28.3008 87.249C27.6027 87.6685 26.8037 87.8903 25.9893 87.8906H12.6738C11.8184 87.8862 10.9812 87.6426 10.2568 87.1875L5.94141 84.4189C5.31164 84.0137 4.79346 83.457 4.43419 82.7999C4.07493 82.1428 3.88603 81.4061 3.88477 80.6572V76.2627C3.88602 75.5311 4.06702 74.8111 4.41185 74.1659C4.75668 73.5206 5.25476 72.97 5.8623 72.5625L14.5459 66.7266C15.3248 67.375 16.2195 67.8701 17.1826 68.1856L7.35645 74.7686C7.11378 74.9304 6.91522 75.1502 6.77866 75.4079C6.64211 75.6657 6.57185 75.9534 6.57422 76.2451V80.6397C6.57362 80.9384 6.64916 81.2323 6.79372 81.4938C6.93827 81.7552 7.14707 81.9755 7.40039 82.1338L11.707 84.9023C11.995 85.0884 12.331 85.1861 12.6738 85.1836H25.9893C26.3142 85.1834 26.6331 85.0953 26.9121 84.9287L31.6406 82.125C31.9089 81.9701 32.1314 81.7471 32.2858 81.4786C32.4401 81.21 32.5208 80.9054 32.5195 80.5957V76.5791C32.5176 76.3041 32.4533 76.033 32.3315 75.7864C32.2097 75.5398 32.0336 75.324 31.8164 75.1553L22.4648 68.1943C23.4205 67.8823 24.3133 67.4032 25.1016 66.7793L33.3984 73.0195C33.9502 73.4333 34.3968 73.9711 34.7022 74.5895C35.0076 75.2079 35.1631 75.8895 35.1563 76.5791Z" fill="white"/>
<path d="M68.7041 47.707C66.4888 47.707 64.3642 48.5864 62.7969 50.152C61.2297 51.7176 60.348 53.8414 60.3457 56.0566V60.2578C60.344 61.492 60.6167 62.7111 61.1442 63.8268C61.6717 64.9426 62.4407 65.9271 63.3955 66.709C64.1769 67.3539 65.0708 67.8485 66.0322 68.168C66.8807 68.4596 67.7718 68.6081 68.6689 68.6074C70.5746 68.6278 72.4285 67.9881 73.916 66.7969C74.8927 66.0136 75.6809 65.0209 76.2225 63.8921C76.764 62.7634 77.0451 61.5274 77.0449 60.2754V56.0566C77.0426 53.8444 76.1634 51.7233 74.5999 50.1582C73.0365 48.5931 70.9163 47.7117 68.7041 47.707ZM74.3555 60.2578C74.3555 61.0011 74.2091 61.7371 73.9246 62.4239C73.6402 63.1106 73.2232 63.7346 72.6977 64.2602C72.1721 64.7857 71.5481 65.2027 70.8614 65.4871C70.1746 65.7716 69.4386 65.918 68.6953 65.918C67.952 65.918 67.216 65.7716 66.5293 65.4871C65.8425 65.2027 65.2186 64.7857 64.693 64.2602C64.1674 63.7346 63.7505 63.1106 63.466 62.4239C63.1816 61.7371 63.0352 61.0011 63.0352 60.2578V56.0566C63.0352 55.3133 63.1816 54.5773 63.466 53.8906C63.7505 53.2039 64.1674 52.5799 64.693 52.0543C65.2186 51.5287 65.8425 51.1118 66.5293 50.8273C67.216 50.5429 67.952 50.3965 68.6953 50.3965C69.4386 50.3965 70.1746 50.5429 70.8614 50.8273C71.5481 51.1118 72.1721 51.5287 72.6977 52.0543C73.2232 52.5799 73.6402 53.2039 73.9246 53.8906C74.2091 54.5773 74.3555 55.3133 74.3555 56.0566V60.2578Z" fill="white"/>
<path d="M84.0059 76.5791V80.5957C84.0036 81.3671 83.8026 82.1249 83.4224 82.7961C83.0421 83.4673 82.4954 84.0292 81.835 84.4277L77.1416 87.249C76.4471 87.6695 75.6507 87.8914 74.8389 87.8906H61.5234C60.6683 87.8839 59.8318 87.6405 59.1064 87.1875L54.7998 84.4189C54.1684 84.0147 53.6485 83.4585 53.2877 82.8013C52.9268 82.1441 52.7366 81.4069 52.7344 80.6572V76.2627C52.7356 75.5311 52.9166 74.8111 53.2615 74.1659C53.6063 73.5206 54.1044 72.97 54.7119 72.5625L63.3955 66.7266C64.1769 67.3714 65.0708 67.8661 66.0322 68.1856L56.25 74.7686C56.0073 74.9304 55.8088 75.1502 55.6722 75.4079C55.5357 75.6657 55.4654 75.9534 55.4678 76.2451V80.6397C55.4662 80.9376 55.5404 81.231 55.6834 81.4923C55.8264 81.7537 56.0335 81.9744 56.2852 82.1338L60.5918 84.9023C60.8818 85.0839 61.2165 85.1813 61.5586 85.1836H74.8389C75.1492 85.1777 75.4524 85.0898 75.7178 84.9287L80.4199 82.1074C80.6841 81.948 80.9034 81.7239 81.0571 81.4564C81.2109 81.1889 81.294 80.8867 81.2988 80.5781V76.5791C81.2969 76.3041 81.2326 76.033 81.1108 75.7864C80.989 75.5398 80.8129 75.324 80.5957 75.1553L71.3145 68.1943C72.2701 67.8823 73.1629 67.4032 73.9512 66.7793L82.2568 73.0195C82.8039 73.4371 83.2466 73.9759 83.5501 74.5936C83.8536 75.2112 84.0096 75.8909 84.0059 76.5791Z" fill="white"/>
<path d="M10.6612 47.6465C10.4869 47.6442 10.3144 47.6115 10.1514 47.5498C9.90622 47.4461 9.69706 47.2724 9.55011 47.0504C9.40316 46.8284 9.32494 46.568 9.32523 46.3018V38.4443H8.44632C7.23958 38.442 6.08292 37.9616 5.22962 37.1083C4.37632 36.255 3.89591 35.0983 3.89359 33.8916V11.4268C3.89128 10.8277 4.00697 10.2341 4.23408 9.67979C4.46118 9.12548 4.79524 8.62132 5.21719 8.19611C5.63913 7.77091 6.1407 7.43297 6.69325 7.2016C7.2458 6.97023 7.83851 6.84996 8.43753 6.84766H29.6807C30.0373 6.84766 30.3794 6.98933 30.6316 7.24152C30.8837 7.4937 31.0254 7.83574 31.0254 8.19238C31.0254 8.54903 30.8837 8.89106 30.6316 9.14325C30.3794 9.39543 30.0373 9.53711 29.6807 9.53711H8.43753C8.19061 9.53708 7.94614 9.58614 7.71834 9.68142C7.49054 9.77671 7.28395 9.91632 7.11058 10.0921C6.93721 10.268 6.80052 10.4765 6.70845 10.7056C6.61637 10.9347 6.57076 11.1799 6.57425 11.4268V33.8916C6.57425 34.3858 6.77056 34.8597 7.12 35.2091C7.46943 35.5586 7.94336 35.7549 8.43753 35.7549H10.6612C10.8381 35.7537 11.0135 35.7877 11.1771 35.8549C11.3408 35.922 11.4895 36.021 11.6146 36.1461C11.7397 36.2712 11.8387 36.4199 11.9059 36.5836C11.9731 36.7473 12.0071 36.9227 12.0059 37.0996V43.0674L18.5889 36.4932C18.841 36.2416 19.182 36.0995 19.5381 36.0977H47.8828C48.3695 36.0978 48.8369 35.9075 49.1851 35.5675C49.5333 35.2276 49.7346 34.7648 49.7461 34.2783V11.4268C49.7461 10.9326 49.5498 10.4587 49.2004 10.1092C48.8509 9.75979 48.377 9.56348 47.8828 9.56348H44.1914C43.8348 9.56348 43.4928 9.4218 43.2406 9.16962C42.9884 8.91743 42.8467 8.57539 42.8467 8.21875C42.8467 7.86211 42.9884 7.52007 43.2406 7.26788C43.4928 7.0157 43.8348 6.87402 44.1914 6.87402H47.8828C49.0903 6.87402 50.2483 7.35369 51.1021 8.20749C51.9559 9.06129 52.4356 10.2193 52.4356 11.4268V34.2783C52.4333 35.4843 51.9526 36.64 51.099 37.4919C50.2455 38.3438 49.0888 38.8223 47.8828 38.8223H20.0918L11.6192 47.2949C11.3584 47.5334 11.0143 47.6597 10.6612 47.6465Z" fill="white"/>
<path d="M77.5024 38.9795C77.3266 38.9807 77.1522 38.9472 76.9893 38.8808C76.8264 38.8144 76.6782 38.7165 76.5532 38.5928L69.6626 31.7021H59.4585C59.1019 31.7021 58.7598 31.5605 58.5076 31.3083C58.2554 31.0561 58.1138 30.7141 58.1138 30.3574C58.1138 30.0008 58.2554 29.6587 58.5076 29.4066C58.7598 29.1544 59.1019 29.0127 59.4585 29.0127H70.2163C70.5724 29.0145 70.9135 29.1566 71.1655 29.4082L76.1577 34.4004V30.3574C76.1566 30.1801 76.1905 30.0043 76.2575 29.8401C76.3246 29.676 76.4235 29.5267 76.5485 29.4009C76.6734 29.2751 76.8221 29.1752 76.9858 29.1071C77.1495 29.039 77.3251 29.0039 77.5024 29.0039H79.7788C80.1867 29.0039 80.578 28.8419 80.8664 28.5534C81.1548 28.265 81.3169 27.8737 81.3169 27.4658V4.21875C81.3169 4.01718 81.277 3.81759 81.1996 3.63148C81.1222 3.44536 81.0088 3.27638 80.8659 3.13425C80.7229 2.99213 80.5533 2.87967 80.3667 2.80333C80.1802 2.727 79.9804 2.68829 79.7788 2.68945H40.1665C39.767 2.69864 39.387 2.86381 39.1078 3.14962C38.8285 3.43543 38.6723 3.81917 38.6724 4.21875V27.4746C38.6723 27.8742 38.8285 28.2579 39.1078 28.5437C39.387 28.8296 39.767 28.9947 40.1665 29.0039H44.895C45.2517 29.0039 45.5937 29.1456 45.8459 29.3978C46.0981 29.65 46.2397 29.992 46.2397 30.3486C46.2397 30.7053 46.0981 31.0473 45.8459 31.2995C45.5937 31.5517 45.2517 31.6934 44.895 31.6934H40.1665C39.0475 31.6887 37.9758 31.2416 37.1854 30.4495C36.395 29.6574 35.9501 28.5848 35.9478 27.4658V4.21875C35.9501 3.10058 36.3953 2.02887 37.186 1.23821C37.9766 0.447542 39.0483 0.00232227 40.1665 0L79.7788 0C80.8978 0.00231192 81.9704 0.44725 82.7625 1.23767C83.5545 2.02808 84.0017 3.09978 84.0063 4.21875V27.4746C84.004 28.5951 83.5579 29.6691 82.7656 30.4614C81.9733 31.2537 80.8993 31.6998 79.7788 31.7021H78.8472V37.6436C78.8439 37.909 78.7631 38.1677 78.6148 38.3879C78.4664 38.608 78.257 38.7801 78.0122 38.8828C77.8504 38.9487 77.6771 38.9816 77.5024 38.9795Z" fill="white"/>
<path d="M37.7925 47.6445H35.5864C35.135 47.6445 34.769 48.0105 34.769 48.4619V50.668C34.769 51.1194 35.135 51.4854 35.5864 51.4854H37.7925C38.2439 51.4854 38.6099 51.1194 38.6099 50.668V48.4619C38.6099 48.0105 38.2439 47.6445 37.7925 47.6445Z" fill="white"/>
<path d="M45.2983 47.6445H43.0923C42.6409 47.6445 42.2749 48.0105 42.2749 48.4619V50.668C42.2749 51.1194 42.6409 51.4854 43.0923 51.4854H45.2983C45.7498 51.4854 46.1157 51.1194 46.1157 50.668V48.4619C46.1157 48.0105 45.7498 47.6445 45.2983 47.6445Z" fill="white"/>
<path d="M52.7959 47.6445H50.5898C50.1384 47.6445 49.7725 48.0105 49.7725 48.4619V50.668C49.7725 51.1194 50.1384 51.4854 50.5898 51.4854H52.7959C53.2473 51.4854 53.6133 51.1194 53.6133 50.668V48.4619C53.6133 48.0105 53.2473 47.6445 52.7959 47.6445Z" fill="white"/>
</svg>
