<svg width="90" height="90" viewBox="0 0 90 90" fill="none" xmlns="http://www.w3.org/2000/svg">
<g clip-path="url(#clip0_809_3213)">
<path d="M81.5225 33.2097V31.8057C81.5178 27.0291 79.6213 22.4489 76.2479 19.0671C72.8746 15.6853 68.2991 13.7774 63.5225 13.7607H58.8965C58.4811 11.7613 57.39 9.9658 55.8068 8.67595C54.2236 7.38609 52.2446 6.6805 50.2025 6.67773H48.4025C46.2164 6.67769 44.1073 7.48541 42.4805 8.94573V15.5517C42.4829 13.9827 43.1079 12.4787 44.2182 11.3701C45.3285 10.2614 46.8335 9.63873 48.4025 9.63873H50.2025C51.77 9.64111 53.2726 10.2649 54.381 11.3732C55.4894 12.4816 56.1131 13.9842 56.1155 15.5517V16.7217H63.4955C67.4937 16.7265 71.3267 18.3175 74.1531 21.1455C76.9794 23.9736 78.5681 27.8075 78.5705 31.8057V36.0897H80.3075C80.7154 36.0877 81.1225 36.1269 81.5225 36.2067C83.0695 36.4924 84.4678 37.31 85.4754 38.5181C86.4829 39.7262 87.0363 41.2486 87.0395 42.8217V46.7997C87.0301 48.5823 86.3178 50.2891 85.0573 51.5495C83.7969 52.81 82.09 53.5223 80.3075 53.5317H78.5705V57.8247C78.5634 61.8207 76.9728 65.6509 74.1473 68.4765C71.3217 71.3021 67.4915 72.8926 63.4955 72.8997H56.1155V74.9877C56.1217 75.2894 56.0976 75.5909 56.0435 75.8877C55.8365 77.2896 55.1328 78.5704 54.0608 79.4971C52.9888 80.4238 51.6196 80.9347 50.2025 80.9367H48.4025C46.9839 80.9368 45.6126 80.4269 44.5386 79.5001C43.4647 78.5732 42.7598 77.2911 42.5525 75.8877C42.5034 75.5903 42.4793 75.2892 42.4805 74.9877V81.6297C44.1096 83.0864 46.2172 83.8936 48.4025 83.8977H50.2025C52.4038 83.8928 54.5249 83.0706 56.1545 81.5907C57.7841 80.1107 58.8062 78.0784 59.0225 75.8877H63.5225C68.292 75.8735 72.8621 73.9725 76.2347 70.5999C79.6073 67.2273 81.5083 62.6572 81.5225 57.8877V56.4387C83.8681 56.1424 86.0244 54.999 87.5858 53.2238C89.1472 51.4486 90.006 49.1639 90.0005 46.7997V42.8217C89.9975 40.4627 89.1351 38.1857 87.5746 36.4165C86.0142 34.6474 83.8627 33.5073 81.5225 33.2097Z" fill="white"/>
<path d="M41.031 5.65237H31.248C31.0534 5.65119 30.8605 5.68849 30.6804 5.76213C30.5003 5.83578 30.3365 5.94431 30.1985 6.08149C30.0605 6.21866 29.951 6.38178 29.8762 6.56144C29.8015 6.74111 29.763 6.93378 29.763 7.12837V13.9054C27.2134 14.8533 24.7942 16.1204 22.563 17.6764L17.613 12.7264C17.476 12.5892 17.3132 12.4804 17.1341 12.4062C16.9549 12.332 16.7629 12.2938 16.569 12.2938C16.3751 12.2938 16.1831 12.332 16.004 12.4062C15.8248 12.4804 15.6621 12.5892 15.525 12.7264L6.11103 22.1134C5.97359 22.2502 5.86464 22.4129 5.79049 22.5921C5.71634 22.7713 5.67845 22.9634 5.67903 23.1574C5.67745 23.3515 5.71487 23.5439 5.78908 23.7232C5.86329 23.9026 5.97277 24.0652 6.11103 24.2014L11.889 29.9794C10.8205 32.1211 9.99633 34.3763 9.43203 36.7024H1.47603C1.28186 36.7012 1.08939 36.7385 0.909776 36.8123C0.73016 36.886 0.566972 36.9947 0.429674 37.132C0.292376 37.2693 0.1837 37.4325 0.109948 37.6121C0.036195 37.7917 -0.00116711 37.9842 2.77807e-05 38.1784V51.4534C2.0576e-05 51.8457 0.155239 52.222 0.431787 52.5003C0.708335 52.7785 1.08374 52.936 1.47603 52.9384H9.57603C10.2033 55.2486 11.0847 57.4823 12.204 59.5984L6.11103 65.7004C5.97399 65.8375 5.8653 66.0003 5.79118 66.1794C5.71706 66.3585 5.67895 66.5505 5.67903 66.7444C5.67845 66.9383 5.71634 67.1304 5.79049 67.3096C5.86464 67.4888 5.97359 67.6516 6.11103 67.7884L15.507 77.2114C15.6429 77.3501 15.8055 77.4598 15.9849 77.534C16.1643 77.6083 16.3569 77.6455 16.551 77.6434C16.942 77.6406 17.3165 77.4857 17.595 77.2114L23.175 71.6314C25.2374 72.9904 27.4476 74.1105 29.763 74.9704V82.8724C29.763 83.067 29.8015 83.2596 29.8762 83.4393C29.951 83.619 30.0605 83.7821 30.1985 83.9193C30.3365 84.0564 30.5003 84.165 30.6804 84.2386C30.8605 84.3123 31.0534 84.3496 31.248 84.3484H41.031C41.2252 84.3496 41.4177 84.3122 41.5973 84.2385C41.7769 84.1647 41.9401 84.056 42.0774 83.9187C42.2147 83.7814 42.3234 83.6182 42.3971 83.4386C42.4709 83.259 42.5082 83.0665 42.507 82.8724V7.12837C42.5082 6.93421 42.4709 6.74174 42.3971 6.56212C42.3234 6.3825 42.2147 6.21932 42.0774 6.08202C41.9401 5.94472 41.7769 5.83604 41.5973 5.76229C41.4177 5.68854 41.2252 5.65118 41.031 5.65237ZM39.6 81.3874H32.724V72.8374C31.7184 72.5447 30.7298 72.1962 29.763 71.7934C28.2159 71.152 26.7256 70.3812 25.308 69.4894C24.461 68.9587 23.6437 68.3818 22.86 67.7614L20.754 69.8674L16.551 74.0794L9.25203 66.7804L15.948 60.0934C15.3974 59.2235 14.8985 58.3219 14.454 57.3934C13.742 55.9471 13.1578 54.4414 12.708 52.8934C12.4047 51.9229 12.1642 50.9338 11.988 49.9324H2.98803V39.6544H11.871C12.0316 38.659 12.2479 37.6735 12.519 36.7024C12.9278 35.1583 13.4698 33.6527 14.139 32.2024C14.5566 31.2547 15.0346 30.3348 15.57 29.4484L9.27003 23.1484L16.569 15.8584L20.169 19.4584L22.266 21.6004C23.0355 20.9594 23.8376 20.3586 24.669 19.8004C26.2754 18.7373 27.9815 17.833 29.763 17.1004C30.7314 16.7015 31.7197 16.353 32.724 16.0564V8.61337H39.6V81.3874Z" fill="white"/>
<path d="M53.8649 57.8528C53.469 57.7651 53.0644 57.7228 52.6589 57.7268C52.0658 57.7272 51.4766 57.8214 50.9129 58.0058C49.5644 58.4354 48.4185 59.3415 47.6894 60.5545C46.9604 61.7676 46.6981 63.2047 46.9516 64.5971C47.2051 65.9895 47.9571 67.242 49.0669 68.1202C50.1767 68.9985 51.5684 69.4425 52.9818 69.3693C54.3952 69.296 55.7336 68.7105 56.7467 67.7222C57.7597 66.7339 58.3782 65.4104 58.4864 63.9993C58.5946 62.5881 58.1852 61.1859 57.3346 60.0546C56.4841 58.9234 55.2506 58.1407 53.8649 57.8528ZM52.6589 66.4298C52.0889 66.4298 51.5317 66.2607 51.0579 65.9438C50.5841 65.627 50.215 65.1766 49.9973 64.6499C49.7796 64.1231 49.7231 63.5436 49.8349 62.9846C49.9468 62.4257 50.222 61.9126 50.6256 61.5102C51.0293 61.1078 51.5433 60.8342 52.1026 60.7241C52.6618 60.614 53.2412 60.6723 53.7673 60.8916C54.2934 61.111 54.7425 61.4815 55.0579 61.9563C55.3733 62.4311 55.5407 62.9888 55.5389 63.5588C55.5389 63.9366 55.4644 64.3107 55.3195 64.6596C55.1747 65.0085 54.9624 65.3254 54.6948 65.5921C54.4273 65.8588 54.1097 66.0701 53.7604 66.2139C53.411 66.3576 53.0367 66.431 52.6589 66.4298Z" fill="white"/>
<path d="M23.8859 45.2891C23.8925 49.5409 25.5229 53.6295 28.4437 56.7193C31.3645 59.8091 35.3552 61.6666 39.5999 61.9121V64.8731C34.5837 64.6096 29.8599 62.4314 26.4024 58.7875C22.945 55.1437 21.0176 50.3121 21.0176 45.2891C21.0176 40.266 22.945 35.4344 26.4024 31.7906C29.8599 28.1468 34.5837 25.9686 39.5999 25.7051V28.6571C35.3544 28.9048 31.3637 30.7642 28.4431 33.8554C25.5225 36.9466 23.8924 41.0364 23.8859 45.2891Z" fill="white"/>
<path d="M64.629 46.8995H53.829V57.8525C53.4331 57.7648 53.0284 57.7225 52.623 57.7265C52.0299 57.7269 51.4406 57.8211 50.877 58.0055V33.2285C51.4406 33.413 52.0299 33.5071 52.623 33.5075C53.0284 33.5115 53.4331 33.4693 53.829 33.3815V43.9475H64.422C64.3498 44.303 64.3136 44.6648 64.314 45.0275C64.3116 45.6649 64.4181 46.298 64.629 46.8995Z" fill="white"/>
<path d="M52.659 21.8342C51.2667 21.8361 49.9211 22.336 48.8653 23.2436C47.8094 24.1512 47.1132 25.4065 46.9023 26.7828C46.6914 28.159 46.9798 29.5653 47.7154 30.7474C48.451 31.9295 49.5852 32.8094 50.913 33.2282C51.4767 33.4126 52.066 33.5068 52.659 33.5072C53.0645 33.5112 53.4691 33.4689 53.865 33.3812C55.2855 33.0925 56.5476 32.2851 57.4052 31.1165C58.2629 29.948 58.6546 28.5019 58.504 27.0602C58.3534 25.6185 57.6714 24.2845 56.5908 23.3184C55.5102 22.3522 54.1085 21.8231 52.659 21.8342ZM52.659 30.5462C52.089 30.5462 51.5319 30.377 51.0581 30.0602C50.5842 29.7433 50.2151 29.293 49.9974 28.7662C49.7797 28.2394 49.7232 27.6599 49.835 27.101C49.9469 26.5421 50.2221 26.0289 50.6258 25.6265C51.0294 25.2241 51.5435 24.9505 52.1027 24.8404C52.662 24.7303 53.2413 24.7886 53.7674 25.008C54.2935 25.2273 54.7427 25.5979 55.058 26.0727C55.3734 26.5475 55.5408 27.1052 55.539 27.6752C55.5402 28.0533 55.4665 28.4279 55.3221 28.7773C55.1776 29.1268 54.9654 29.4442 54.6976 29.7111C54.4298 29.9781 54.1118 30.1893 53.7619 30.3326C53.412 30.476 53.0371 30.5485 52.659 30.5462Z" fill="white"/>
<path d="M70.1465 39.1953C68.7884 39.197 67.4734 39.6726 66.4284 40.5401C65.3834 41.4076 64.674 42.6127 64.4225 43.9473C64.3503 44.3028 64.3141 44.6646 64.3145 45.0273C64.3122 45.6647 64.4187 46.2978 64.6295 46.8993C64.9738 47.9153 65.5917 48.8165 66.4151 49.504C67.2385 50.1915 68.2356 50.6386 69.2967 50.7961C70.3577 50.9536 71.4417 50.8154 72.4293 50.3967C73.4169 49.978 74.2699 49.295 74.8945 48.4229C75.519 47.5507 75.8909 46.5232 75.9693 45.4534C76.0477 44.3836 75.8295 43.3128 75.3387 42.359C74.8479 41.4052 74.1035 40.6052 73.1875 40.047C72.2714 39.4888 71.2192 39.1941 70.1465 39.1953ZM70.1465 47.9073C69.5777 47.9091 69.021 47.7423 68.5469 47.4281C68.0727 47.1139 67.7021 46.6664 67.482 46.1418C67.2619 45.6173 67.202 45.0394 67.3099 44.4809C67.4179 43.9223 67.6888 43.4083 68.0885 43.0036C68.4882 42.5989 68.9988 42.3216 69.556 42.2067C70.1131 42.0918 70.6917 42.1445 71.2189 42.358C71.7462 42.5716 72.1983 42.9365 72.5184 43.4068C72.8385 43.877 73.0122 44.4315 73.0175 45.0003C73.0223 45.3804 72.9515 45.7576 72.8094 46.1101C72.6672 46.4626 72.4565 46.7833 72.1894 47.0537C71.9224 47.3242 71.6042 47.5389 71.2536 47.6854C70.9029 47.8319 70.5266 47.9073 70.1465 47.9073Z" fill="white"/>
</g>
<defs>
<clipPath id="clip0_809_3213">
<rect width="90" height="90" fill="white"/>
</clipPath>
</defs>
</svg>
