<svg width="90" height="90" viewBox="0 0 90 90" fill="none" xmlns="http://www.w3.org/2000/svg">
<g clip-path="url(#clip0_634_1966)">
<path d="M62.1001 55.8008C62.2171 55.7288 62.3341 55.6388 62.4601 55.5488C62.3328 55.6219 62.2123 55.7062 62.1001 55.8008Z" fill="white"/>
<path d="M30.0595 53.7945C29.6275 53.5155 29.2045 53.2275 28.7905 52.8945H28.8355C29.2643 53.1653 29.6733 53.466 30.0595 53.7945Z" fill="white"/>
<path d="M60.957 53.1016C60.687 53.2996 60.426 53.4976 60.147 53.6776C60.406 53.4706 60.6765 53.2783 60.957 53.1016Z" fill="white"/>
<path d="M44.9997 1.31467C38.5877 1.3096 32.3437 3.36484 27.1882 7.1774C22.0328 10.9899 18.2387 16.3581 16.3653 22.4903C14.492 28.6226 14.6385 35.1945 16.7832 41.2372C18.928 47.2799 22.9575 52.4736 28.2777 56.0527C30.5403 57.9654 32.036 60.6309 32.4897 63.5587C31.5523 63.7688 30.714 64.2911 30.1122 65.04C29.5105 65.7889 29.181 66.72 29.1777 67.6807V76.0057C29.1801 77.126 29.6268 78.1996 30.4198 78.9909C31.2128 79.7823 32.2874 80.2267 33.4077 80.2267H35.8467C36.0235 82.5211 37.0598 84.6643 38.7484 86.2278C40.437 87.7913 42.6534 88.6599 44.9547 88.6599C47.256 88.6599 49.4724 87.7913 51.161 86.2278C52.8496 84.6643 53.8859 82.5211 54.0627 80.2267H56.5107C57.6295 80.2243 58.7017 79.7788 59.4928 78.9877C60.2839 78.1967 60.7293 77.1244 60.7317 76.0057V67.7077C60.7284 66.747 60.3989 65.8159 59.7972 65.067C59.1955 64.3181 58.3572 63.7958 57.4197 63.5857C57.8697 60.5649 59.445 57.8258 61.8297 55.9177L62.0997 55.8007C62.2119 55.7061 62.3324 55.6218 62.4597 55.5487L62.6307 55.4317L62.8827 55.2427L62.9367 55.1977C67.9901 51.4442 71.7294 46.1911 73.6214 40.1873C75.5135 34.1836 75.4617 27.7357 73.4735 21.7631C71.4853 15.7905 67.6622 10.5981 62.5492 6.9262C57.4362 3.25434 51.2945 1.29049 44.9997 1.31467ZM44.9997 85.8247C43.4618 85.8152 41.9804 85.2435 40.8348 84.2173C39.6893 83.1911 38.9586 81.7813 38.7807 80.2537H51.2187C51.0408 81.7813 50.3102 83.1911 49.1646 84.2173C48.019 85.2435 46.5377 85.8152 44.9997 85.8247ZM57.9147 67.7077V76.0327C57.9147 76.3939 57.7718 76.7405 57.5172 76.9968C57.2626 77.2531 56.917 77.3983 56.5557 77.4007H33.4527C33.0914 77.4007 32.7448 77.2578 32.4886 77.0032C32.2323 76.7486 32.0871 76.4029 32.0847 76.0417V67.7077C32.0859 67.5292 32.1222 67.3527 32.1916 67.1883C32.261 67.0239 32.3621 66.8747 32.4891 66.7494C32.6161 66.624 32.7666 66.5249 32.932 66.4577C33.0973 66.3905 33.2742 66.3565 33.4527 66.3577H56.5557C56.9146 66.3577 57.2589 66.4996 57.5135 66.7525C57.7681 67.0054 57.9123 67.3488 57.9147 67.7077ZM61.0557 52.9837L60.9567 53.0557C60.6867 53.2537 60.4257 53.4517 60.1467 53.6317L60.0837 53.6857C58.273 55.1323 56.8247 56.9813 55.8537 59.0857C55.2141 60.4688 54.7863 61.9402 54.5847 63.4507H35.4147C34.8952 59.6564 32.9676 56.1963 30.0147 53.7577C29.5827 53.4787 29.1597 53.1907 28.7457 52.8577C24.1725 49.4535 20.7894 44.6937 19.0778 39.2555C17.3663 33.8174 17.4134 27.978 19.2125 22.5682C21.0117 17.1584 24.4711 12.4538 29.0987 9.12389C33.7263 5.79395 39.2862 4.00831 44.9873 4.02103C50.6884 4.03375 56.2402 5.84419 60.8529 9.19475C65.4655 12.5453 68.904 17.2653 70.679 22.683C72.4539 28.1008 72.475 33.9404 70.7392 39.3708C69.0034 44.8013 65.5991 49.5459 61.0107 52.9297L61.0557 52.9837Z" fill="white"/>
<path d="M46.5933 48.8522C46.5704 48.6638 46.5704 48.4735 46.5933 48.2852C46.5933 48.4832 46.6023 48.6722 46.5933 48.8522Z" fill="white"/>
<path d="M63.8999 32.0039C64.5752 31.2666 65.0783 30.3886 65.3728 29.4332C65.6674 28.4778 65.746 27.4689 65.603 26.4794C65.4601 25.4899 65.0991 24.5445 64.5462 23.7115C63.9933 22.8785 63.2622 22.1788 62.4059 21.6629C62.452 20.6173 62.2473 19.5758 61.8089 18.6255C61.3706 17.6751 60.7112 16.8434 59.8859 16.1999C58.6506 15.2404 57.1095 14.7608 55.5479 14.8499C54.4813 13.1394 52.7976 11.9049 50.8455 11.4023C48.8935 10.8996 46.8229 11.1673 45.0629 12.1499C44.0056 11.6367 42.8451 11.372 41.6699 11.3759C40.3331 11.3783 39.0191 11.7218 37.8521 12.3738C36.6851 13.0258 35.7037 13.9648 35.0009 15.1019C33.4386 15.0078 31.8959 15.4879 30.6629 16.4519C29.8374 17.1019 29.1801 17.9406 28.7463 18.8975C28.3124 19.8545 28.1148 20.9016 28.1699 21.9509C27.3139 22.4681 26.5833 23.1686 26.0304 24.002C25.4776 24.8354 25.1163 25.781 24.9726 26.7707C24.8289 27.7604 24.9063 28.7697 25.1992 29.7259C25.4922 30.6821 25.9934 31.5615 26.6669 32.3009C26.2246 32.8681 25.8835 33.5075 25.6589 34.1909C25.1418 35.7821 25.2512 37.5106 25.9649 39.0239C26.6144 40.4207 27.7274 41.5496 29.1149 42.2189C28.8046 43.6639 29.0192 45.1723 29.7201 46.4735C30.421 47.7748 31.5625 48.7838 32.9399 49.3199C33.1624 49.4036 33.3911 49.4698 33.6239 49.5179C33.7402 50.9162 34.4071 52.2111 35.4779 53.1179C36.042 53.6902 36.7146 54.1443 37.4564 54.4533C38.1982 54.7624 38.9943 54.9203 39.7979 54.9179C41.7206 54.8853 43.5522 54.0925 44.8919 52.7129C45.0636 52.545 45.2258 52.3677 45.3779 52.1819C45.4589 52.2809 45.5579 52.3889 45.6569 52.4879C46.8837 53.742 48.5176 54.5175 50.2649 54.6749H50.7779C51.5773 54.6758 52.3688 54.517 53.106 54.2079C53.8432 53.8988 54.5112 53.4456 55.0709 52.8749C56.1417 51.9681 56.8086 50.6732 56.9249 49.2749C57.1574 49.2255 57.386 49.1594 57.6089 49.0769C58.9874 48.5423 60.13 47.5335 60.8311 46.2319C61.5323 44.9302 61.746 43.421 61.4339 41.9759C62.8374 41.2895 63.9531 40.1292 64.5839 38.6999C65.3021 37.1877 65.4116 35.4575 64.8899 33.8669C64.6679 33.1942 64.3331 32.5642 63.8999 32.0039ZM43.0379 50.7689C41.5259 52.2809 38.9789 52.8479 37.3319 51.2009C36.766 50.7512 36.3823 50.1117 36.2519 49.4009C37.2896 49.1465 38.2501 48.644 39.0507 47.9363C39.8512 47.2287 40.4679 46.3372 40.8478 45.3385C41.2276 44.3399 41.3591 43.2639 41.2311 42.2031C41.1031 41.1423 40.7194 40.1285 40.1129 39.2489C39.9125 38.9726 39.6118 38.7859 39.2753 38.7287C38.9388 38.6715 38.5933 38.7483 38.3129 38.9429C38.0404 39.1461 37.8566 39.4465 37.7996 39.7816C37.7426 40.1168 37.8169 40.461 38.0069 40.7429C38.3632 41.2638 38.5893 41.8627 38.666 42.4891C38.7427 43.1156 38.6679 43.7513 38.4479 44.3429C38.2018 45.0586 37.7488 45.6852 37.1465 46.1433C36.5441 46.6015 35.8193 46.8707 35.0639 46.9169H34.9019C34.5438 46.9377 34.1848 46.8982 33.8399 46.7999C32.9496 46.4293 32.2419 45.7219 31.871 44.8317C31.5001 43.9416 31.4961 42.9409 31.8599 42.0479C31.8599 41.9849 31.9049 41.9309 31.9229 41.8769C32.0007 41.701 32.0388 41.5102 32.0343 41.3179C32.0298 41.1257 31.9829 40.9368 31.8969 40.7649C31.8109 40.5929 31.6879 40.442 31.5368 40.3231C31.3858 40.2041 31.2102 40.1201 31.0229 40.0769C30.4901 39.9461 29.9899 39.7073 29.5533 39.3752C29.1166 39.0431 28.7528 38.6249 28.4845 38.1464C28.2162 37.668 28.049 37.1395 27.9933 36.5937C27.9376 36.048 27.9947 35.4966 28.1609 34.9739C28.291 34.5335 28.5133 34.1259 28.8129 33.778C29.1125 33.4301 29.4827 33.1498 29.8988 32.9558C30.315 32.7618 30.7676 32.6584 31.2267 32.6525C31.6858 32.6467 32.1409 32.7385 32.5619 32.9219C33.1441 33.1657 33.6617 33.5413 34.074 34.0192C34.4863 34.4971 34.782 35.0642 34.9379 35.6759C35.0202 36.0124 35.2329 36.3025 35.5291 36.4822C35.8253 36.662 36.1808 36.7167 36.5174 36.6344C36.8539 36.552 37.144 36.3393 37.3238 36.0431C37.5035 35.7469 37.5582 35.3914 37.4759 35.0549C37.3766 34.6295 37.2318 34.2161 37.0439 33.8219C36.3433 32.3046 35.0916 31.1108 33.5429 30.4829C32.7868 30.1708 31.9743 30.0185 31.1565 30.0355C30.3387 30.0526 29.5333 30.2386 28.7909 30.5819H28.7279C28.2535 30.1033 27.9032 29.5163 27.7072 28.8716C27.5112 28.227 27.4755 27.5442 27.6032 26.8827C27.7309 26.2211 28.0181 25.6007 28.44 25.0753C28.8618 24.5499 29.4055 24.1355 30.0239 23.8679L30.1589 23.8139C30.6397 23.6217 31.1531 23.5239 31.6709 23.5259C32.3161 23.5293 32.9518 23.6823 33.528 23.9727C34.1042 24.2632 34.6053 24.6832 34.9919 25.1999C35.2091 25.448 35.5117 25.6053 35.8395 25.6407C36.1673 25.6761 36.4965 25.5869 36.7617 25.3909C37.0268 25.1948 37.2086 24.9063 37.2709 24.5825C37.3331 24.2587 37.2714 23.9233 37.0979 23.6429C36.4663 22.8076 35.6504 22.1294 34.7137 21.6611C33.7771 21.1928 32.745 20.947 31.6979 20.9429C31.421 20.9426 31.1444 20.9607 30.8699 20.9969C31.0136 19.9798 31.5539 19.0609 32.3729 18.4409C33.2854 17.8076 34.4104 17.5587 35.5049 17.7479C35.7913 17.7906 36.0839 17.7369 36.3364 17.5952C36.589 17.4534 36.7872 17.2317 36.8999 16.9649C37.3193 16.0592 37.9883 15.292 38.8284 14.7532C39.6685 14.2144 40.6448 13.9263 41.6429 13.9229C42.4392 13.9242 43.2245 14.109 43.9379 14.4629V48.3569C43.9466 48.5157 43.9466 48.675 43.9379 48.8339C43.9484 49.2041 43.8726 49.5718 43.7164 49.9076C43.5602 50.2435 43.3279 50.5384 43.0379 50.7689ZM53.9999 36.3779C54.3376 36.4623 54.6951 36.4093 54.9937 36.2304C55.2924 36.0515 55.5079 35.7615 55.5929 35.4239C55.6554 35.167 55.7428 34.9168 55.8539 34.6769C56.2725 33.7604 57.026 33.039 57.9599 32.6609C58.3808 32.4775 58.8359 32.3857 59.2951 32.3915C59.7542 32.3974 60.2068 32.5008 60.6229 32.6948C61.0391 32.8888 61.4092 33.1691 61.7088 33.517C62.0085 33.8649 62.2307 34.2725 62.3609 34.7129C62.5271 35.2356 62.5841 35.787 62.5285 36.3327C62.4728 36.8785 62.3056 37.407 62.0373 37.8854C61.7689 38.3639 61.4051 38.7821 60.9685 39.1142C60.5318 39.4463 60.0316 39.6851 59.4989 39.8159C59.3066 39.8567 59.1259 39.9401 58.9701 40.0601C58.8144 40.18 58.6875 40.3334 58.5989 40.5089C58.5166 40.6866 58.474 40.88 58.474 41.0759C58.474 41.2717 58.5166 41.4651 58.5989 41.6429C58.5989 41.6429 58.5989 41.7419 58.6619 41.7959C59.0288 42.6912 59.0265 43.6955 58.6556 44.5892C58.2846 45.4829 57.575 46.1935 56.6819 46.5659C56.3466 46.6858 55.9939 46.7496 55.6379 46.7549H55.4849C54.7307 46.7082 54.0073 46.4386 53.4065 45.9804C52.8056 45.5222 52.3544 44.8958 52.1099 44.1809C51.8848 43.5907 51.8064 42.9547 51.8817 42.3276C51.957 41.7004 52.1835 41.101 52.5419 40.5809C52.6555 40.4411 52.7392 40.2795 52.7878 40.1061C52.8364 39.9327 52.8488 39.7511 52.8243 39.5727C52.7997 39.3943 52.7388 39.2228 52.6452 39.0689C52.5516 38.9151 52.4274 38.7821 52.2803 38.6782C52.1331 38.5743 51.9662 38.5018 51.7899 38.4652C51.6136 38.4285 51.4316 38.4285 51.2552 38.4652C51.0789 38.5018 50.912 38.5743 50.7648 38.6781C50.6177 38.782 50.4935 38.915 50.3999 39.0689C49.7934 39.9485 49.4096 40.9623 49.2816 42.0231C49.1536 43.0839 49.2852 44.1599 49.665 45.1585C50.0448 46.1572 50.6615 47.0487 51.4621 47.7563C52.2627 48.464 53.2231 48.9665 54.2609 49.2209C54.1296 49.9314 53.7461 50.5707 53.1809 51.0209C51.5249 52.6769 48.9869 52.1009 47.4749 50.5889C47.216 50.3844 47.0024 50.1285 46.8475 49.8372C46.6925 49.546 46.5997 49.2258 46.5749 48.8969C46.552 48.7085 46.552 48.5182 46.5749 48.3299C46.5704 48.2579 46.5704 48.1858 46.5749 48.1139V14.2379C47.2889 13.8868 48.0742 13.7051 48.8699 13.7069C49.8674 13.7073 50.844 13.9931 51.6844 14.5306C52.5248 15.068 53.1939 15.8345 53.6129 16.7399C53.7339 17.0098 53.9436 17.2301 54.2072 17.3644C54.4708 17.4986 54.7724 17.5387 55.0619 17.4779C56.1592 17.2882 57.2872 17.5371 58.2029 18.1709C59.0204 18.7832 59.5662 19.6907 59.7239 20.6999C59.4464 20.6636 59.1668 20.6456 58.8869 20.6459C57.8397 20.65 56.8076 20.8958 55.871 21.3641C54.9344 21.8324 54.1185 22.5106 53.4869 23.3459C53.3004 23.6261 53.2285 23.9672 53.2862 24.2989C53.3438 24.6305 53.5266 24.9274 53.7967 25.1283C54.0668 25.3292 54.4038 25.4187 54.738 25.3784C55.0722 25.3381 55.3782 25.1711 55.5929 24.9119C55.9794 24.393 56.4817 23.9715 57.0598 23.6808C57.6379 23.3902 58.2758 23.2385 58.9229 23.2379C59.4437 23.2352 59.9601 23.3329 60.4439 23.5259L60.6599 23.6159C61.2634 23.896 61.7906 24.3171 62.1972 24.8438C62.6038 25.3704 62.8778 25.9871 62.996 26.6419C63.1143 27.2966 63.0733 27.9702 62.8766 28.6058C62.6799 29.2414 62.3333 29.8203 61.8659 30.2939H61.8029C61.0604 29.9499 60.2545 29.7642 59.4364 29.7487C58.6182 29.7332 57.8058 29.8882 57.0509 30.2039C55.5001 30.8287 54.2474 32.0234 53.5499 33.5429C53.3567 33.943 53.2058 34.3623 53.0999 34.7939C53.0113 35.1232 53.0561 35.4742 53.2246 35.7707C53.3931 36.0672 53.6716 36.2853 53.9999 36.3779Z" fill="white"/>
<path d="M43.9741 48.835C43.9827 48.6762 43.9827 48.5169 43.9741 48.358V47.998C43.9514 48.2766 43.9514 48.5565 43.9741 48.835Z" fill="white"/>
<path d="M88.6858 32.6391H82.9798C82.7987 32.6542 82.6165 32.6315 82.4446 32.5725C82.2727 32.5135 82.1149 32.4195 81.9812 32.2964C81.8475 32.1734 81.7408 32.0239 81.6678 31.8575C81.5948 31.6911 81.5571 31.5113 81.5571 31.3296C81.5571 31.1479 81.5948 30.9682 81.6678 30.8018C81.7408 30.6354 81.8475 30.4859 81.9812 30.3628C82.1149 30.2398 82.2727 30.1458 82.4446 30.0868C82.6165 30.0278 82.7987 30.0051 82.9798 30.0201H88.6858C88.8669 30.0051 89.0491 30.0278 89.221 30.0868C89.3929 30.1458 89.5506 30.2398 89.6843 30.3628C89.818 30.4859 89.9248 30.6354 89.9978 30.8018C90.0708 30.9682 90.1084 31.1479 90.1084 31.3296C90.1084 31.5113 90.0708 31.6911 89.9978 31.8575C89.9248 32.0239 89.818 32.1734 89.6843 32.2964C89.5506 32.4195 89.3929 32.5135 89.221 32.5725C89.0491 32.6315 88.8669 32.6542 88.6858 32.6391Z" fill="white"/>
<path d="M88.6858 32.6391H82.9798C82.7987 32.6542 82.6165 32.6315 82.4446 32.5725C82.2727 32.5135 82.1149 32.4195 81.9812 32.2964C81.8475 32.1734 81.7408 32.0239 81.6678 31.8575C81.5948 31.6911 81.5571 31.5113 81.5571 31.3296C81.5571 31.1479 81.5948 30.9682 81.6678 30.8018C81.7408 30.6354 81.8475 30.4859 81.9812 30.3628C82.1149 30.2398 82.2727 30.1458 82.4446 30.0868C82.6165 30.0278 82.7987 30.0051 82.9798 30.0201H88.6858C88.8669 30.0051 89.0491 30.0278 89.221 30.0868C89.3929 30.1458 89.5506 30.2398 89.6843 30.3628C89.818 30.4859 89.9248 30.6354 89.9978 30.8018C90.0708 30.9682 90.1084 31.1479 90.1084 31.3296C90.1084 31.5113 90.0708 31.6911 89.9978 31.8575C89.9248 32.0239 89.818 32.1734 89.6843 32.2964C89.5506 32.4195 89.3929 32.5135 89.221 32.5725C89.0491 32.6315 88.8669 32.6542 88.6858 32.6391Z" fill="white"/>
<path d="M80.2709 20.1921C79.9949 20.1903 79.7262 20.1027 79.5021 19.9414C79.2779 19.7802 79.1095 19.5533 79.0199 19.2921C78.9609 19.1263 78.9358 18.9502 78.9461 18.7744C78.9564 18.5986 79.002 18.4267 79.0801 18.2689C79.1582 18.111 79.2672 17.9705 79.4006 17.8556C79.5341 17.7408 79.6892 17.6539 79.8569 17.6001L85.2569 15.8001C85.5863 15.6915 85.9454 15.7182 86.2551 15.8744C86.5648 16.0305 86.7998 16.3032 86.9084 16.6326C87.017 16.962 86.9903 17.3211 86.8342 17.6308C86.6781 17.9405 86.4053 18.1755 86.0759 18.2841L80.6759 20.0841C80.5478 20.1422 80.411 20.1787 80.2709 20.1921Z" fill="white"/>
<path d="M85.212 47.4086C84.9819 47.4097 84.7554 47.3508 84.555 47.2376L79.614 44.3846C79.3121 44.2104 79.0917 43.9233 79.0014 43.5866C78.9111 43.2499 78.9583 42.8911 79.1325 42.5891C79.3068 42.2872 79.5938 42.0668 79.9305 41.9765C80.2673 41.8862 80.6261 41.9334 80.928 42.1076L85.869 44.9606C86.1176 45.1061 86.3114 45.3292 86.4208 45.5957C86.5302 45.8621 86.549 46.1571 86.4743 46.4352C86.3997 46.7134 86.2357 46.9593 86.0076 47.1352C85.7796 47.3111 85.5 47.4071 85.212 47.4086Z" fill="white"/>
<path d="M79.8124 59.3255C79.6442 59.3239 79.478 59.2888 79.3235 59.2224C79.169 59.1559 79.0292 59.0594 78.9124 58.9385L74.8714 54.9065C74.6524 54.6556 74.5368 54.3308 74.5481 53.9979C74.5594 53.6651 74.6967 53.3489 74.9322 53.1134C75.1677 52.8779 75.4839 52.7406 75.8168 52.7293C76.1497 52.718 76.4744 52.8335 76.7254 53.0525L80.7664 57.0845C80.9478 57.2666 81.0718 57.4979 81.1231 57.7498C81.1743 58.0017 81.1506 58.2631 81.0548 58.5016C80.959 58.7401 80.7954 58.9453 80.5841 59.0917C80.3729 59.2382 80.1233 59.3195 79.8664 59.3255H79.8124Z" fill="white"/>
<path d="M80.7387 5.62236L76.6977 9.66336C76.4574 9.90025 76.1351 10.0356 75.7977 10.0414C75.4607 10.0338 75.1391 9.89871 74.8977 9.66336C74.7753 9.54203 74.678 9.39764 74.6117 9.23853C74.5454 9.07942 74.5112 8.90874 74.5112 8.73636C74.5112 8.56398 74.5454 8.3933 74.6117 8.23419C74.678 8.07508 74.7753 7.93069 74.8977 7.80936L78.9387 3.76836C79.0571 3.6327 79.2021 3.52281 79.3647 3.44553C79.5274 3.36825 79.7042 3.32522 79.8841 3.31912C80.0641 3.31301 80.2434 3.34395 80.4109 3.41003C80.5784 3.4761 80.7305 3.5759 80.8578 3.70322C80.9852 3.83054 81.085 3.98268 81.151 4.15018C81.2171 4.31768 81.2481 4.49697 81.2419 4.67693C81.2358 4.85689 81.1928 5.03367 81.1155 5.19631C81.0382 5.35895 80.9284 5.50396 80.7927 5.62236H80.7387Z" fill="white"/>
<path d="M7.01977 32.6391H1.31377C1.13268 32.6542 0.950435 32.6315 0.778561 32.5725C0.606688 32.5135 0.448917 32.4195 0.315219 32.2964C0.18152 32.1734 0.0748002 32.0239 0.00180175 31.8575C-0.0711967 31.6911 -0.108887 31.5113 -0.108887 31.3296C-0.108887 31.1479 -0.0711967 30.9682 0.00180175 30.8018C0.0748002 30.6354 0.18152 30.4859 0.315219 30.3628C0.448917 30.2398 0.606688 30.1458 0.778561 30.0868C0.950435 30.0278 1.13268 30.0051 1.31377 30.0201H7.01977C7.20086 30.0051 7.3831 30.0278 7.55497 30.0868C7.72685 30.1458 7.88462 30.2398 8.01832 30.3628C8.15201 30.4859 8.25873 30.6354 8.33173 30.8018C8.40473 30.9682 8.44242 31.1479 8.44242 31.3296C8.44242 31.5113 8.40473 31.6911 8.33173 31.8575C8.25873 32.0239 8.15201 32.1734 8.01832 32.2964C7.88462 32.4195 7.72685 32.5135 7.55497 32.5725C7.3831 32.6315 7.20086 32.6542 7.01977 32.6391Z" fill="white"/>
<path d="M7.01977 32.6391H1.31377C1.13268 32.6542 0.950435 32.6315 0.778561 32.5725C0.606688 32.5135 0.448917 32.4195 0.315219 32.2964C0.18152 32.1734 0.0748002 32.0239 0.00180175 31.8575C-0.0711967 31.6911 -0.108887 31.5113 -0.108887 31.3296C-0.108887 31.1479 -0.0711967 30.9682 0.00180175 30.8018C0.0748002 30.6354 0.18152 30.4859 0.315219 30.3628C0.448917 30.2398 0.606688 30.1458 0.778561 30.0868C0.950435 30.0278 1.13268 30.0051 1.31377 30.0201H7.01977C7.20086 30.0051 7.3831 30.0278 7.55497 30.0868C7.72685 30.1458 7.88462 30.2398 8.01832 30.3628C8.15201 30.4859 8.25873 30.6354 8.33173 30.8018C8.40473 30.9682 8.44242 31.1479 8.44242 31.3296C8.44242 31.5113 8.40473 31.6911 8.33173 31.8575C8.25873 32.0239 8.15201 32.1734 8.01832 32.2964C7.88462 32.4195 7.72685 32.5135 7.55497 32.5725C7.3831 32.6315 7.20086 32.6542 7.01977 32.6391Z" fill="white"/>
<path d="M9.72817 20.1933C9.59017 20.1913 9.4534 20.167 9.32317 20.1213L3.92317 18.3213C3.76007 18.2675 3.60915 18.1821 3.47905 18.07C3.34894 17.9579 3.24219 17.8213 3.16488 17.6679C3.08758 17.5146 3.04124 17.3475 3.0285 17.1762C3.01577 17.005 3.03689 16.8329 3.09067 16.6698C3.14445 16.5067 3.22982 16.3557 3.34192 16.2256C3.45402 16.0955 3.59065 15.9888 3.744 15.9115C3.89736 15.8342 4.06444 15.7878 4.23571 15.7751C4.40697 15.7624 4.57907 15.7835 4.74217 15.8373L10.1422 17.6373C10.4724 17.7463 10.746 17.9818 10.9029 18.2923C11.0598 18.6027 11.0872 18.9626 10.9792 19.2933C10.8896 19.5544 10.7212 19.7813 10.497 19.9425C10.2729 20.1038 10.0043 20.1914 9.72817 20.1933Z" fill="white"/>
<path d="M4.78818 47.4086C4.50018 47.4071 4.22064 47.3111 3.99257 47.1352C3.7645 46.9593 3.60052 46.7134 3.52587 46.4352C3.45121 46.1571 3.47002 45.8621 3.57938 45.5957C3.68875 45.3292 3.88262 45.1061 4.13118 44.9606L9.07218 42.1076C9.37413 41.9334 9.73293 41.8862 10.0697 41.9765C10.4064 42.0668 10.6934 42.2872 10.8677 42.5891C11.0419 42.8911 11.0891 43.2499 10.9988 43.5866C10.9085 43.9233 10.6881 44.2104 10.3862 44.3846L5.44518 47.2376C5.24478 47.3508 5.01833 47.4097 4.78818 47.4086Z" fill="white"/>
<path d="M10.1878 59.3255C9.84889 59.3183 9.52612 59.1795 9.28776 58.9385C9.04481 58.6911 8.90869 58.3583 8.90869 58.0115C8.90869 57.6648 9.04481 57.3319 9.28776 57.0845L13.3288 53.0525C13.5797 52.8335 13.9045 52.718 14.2373 52.7293C14.5702 52.7406 14.8864 52.8779 15.1219 53.1134C15.3574 53.3489 15.4947 53.6651 15.506 53.9979C15.5173 54.3308 15.4018 54.6556 15.1828 54.9065L11.1418 58.9385C11.0186 59.0661 10.8701 59.1665 10.7058 59.2331C10.5415 59.2998 10.365 59.3312 10.1878 59.3255Z" fill="white"/>
<path d="M14.2288 10.0403C13.8914 10.0346 13.5691 9.89922 13.3288 9.66233L9.28776 5.62133C9.04481 5.37394 8.90869 5.04107 8.90869 4.69433C8.90869 4.34759 9.04481 4.01472 9.28776 3.76733C9.4091 3.64488 9.55349 3.54768 9.7126 3.48135C9.87171 3.41501 10.0424 3.38086 10.2148 3.38086C10.3871 3.38086 10.5578 3.41501 10.7169 3.48135C10.876 3.54768 11.0204 3.64488 11.1418 3.76733L15.1828 7.80833C15.3052 7.92966 15.4024 8.07405 15.4687 8.23316C15.5351 8.39227 15.5692 8.56295 15.5692 8.73533C15.5692 8.90771 15.5351 9.07839 15.4687 9.2375C15.4024 9.39661 15.3052 9.541 15.1828 9.66233C15.0566 9.78528 14.9074 9.882 14.7436 9.94689C14.5799 10.0118 14.4049 10.0435 14.2288 10.0403Z" fill="white"/>
</g>
<defs>
<clipPath id="clip0_634_1966">
<rect width="90" height="90" fill="white"/>
</clipPath>
</defs>
</svg>
