<svg width="90" height="77" viewBox="0 0 90 77" fill="none" xmlns="http://www.w3.org/2000/svg">
<path d="M67.284 15.257V21.854C67.284 21.854 67.284 23 66 23C64.716 23 64.656 21.854 64.656 21.854V15.257C64.6512 12.0838 63.3886 9.04194 61.1448 6.79816C58.901 4.55438 55.8592 3.29173 52.686 3.28697H14.589C11.4158 3.29173 8.37397 4.55438 6.13019 6.79816C3.88641 9.04194 2.62376 12.0838 2.619 15.257V28.1C2.61916 30.3322 3.24491 32.5197 4.42528 34.4144C5.60565 36.309 7.29338 37.8349 9.297 38.819C10.0042 39.178 10.746 39.4645 11.511 39.674C11.5159 39.7038 11.5159 39.7342 11.511 39.764V47.864L17.091 42.734L19.944 40.106H22.707V42.734H20.97L11.07 51.815C10.8275 52.0452 10.5044 52.1712 10.17 52.166C9.9894 52.1668 9.81095 52.1269 9.648 52.049C9.41275 51.9497 9.21207 51.7831 9.07117 51.5701C8.93026 51.3572 8.85541 51.1073 8.856 50.852V41.51C6.23111 40.3844 3.99348 38.5146 2.41959 36.1313C0.845702 33.7481 0.00452759 30.956 0 28.1L0 15.257C0.00476328 11.3892 1.54334 7.68118 4.27828 4.94625C7.01322 2.21131 10.7212 0.672732 14.589 0.667969H52.686C56.5553 0.67035 60.2657 2.20788 63.0025 4.94307C65.7394 7.67827 67.2792 11.3876 67.284 15.257Z" fill="white"/>
<path d="M74.695 25H36.598C32.7287 25.0024 29.0183 26.5399 26.2815 29.2751C23.5446 32.0103 22.0048 35.7197 22 39.589V52.414C22.0071 56.2818 23.548 59.9888 26.2846 62.7221C29.0213 65.4553 32.7302 66.9916 36.598 66.994H67.738L78.187 76.615C78.4329 76.8388 78.7545 76.961 79.087 76.957C79.2664 76.9558 79.4438 76.9191 79.609 76.849C79.8436 76.7462 80.0433 76.5775 80.1839 76.3635C80.3245 76.1494 80.3999 75.8991 80.401 75.643V65.842C83.0331 64.7184 85.2776 62.8472 86.8566 60.4604C88.4356 58.0735 89.2796 55.2759 89.284 52.414V39.589C89.2792 35.7212 87.7407 32.0132 85.0057 29.2783C82.2708 26.5433 78.5628 25.0048 74.695 25ZM86.665 52.414C86.6583 54.7405 85.9737 57.0147 84.695 58.9584C83.4163 60.902 81.5989 62.4309 79.465 63.358C78.9671 63.5809 78.4526 63.7645 77.926 63.907C77.7915 64.1098 77.7195 64.3476 77.719 64.591V72.691L71.563 67.03L68.71 64.411H36.598C33.4249 64.411 30.3817 63.1511 28.1371 60.9082C25.8926 58.6654 24.6304 55.6231 24.628 52.45V39.589C24.6375 36.4198 25.9026 33.3835 28.1461 31.145C30.3896 28.9065 33.4288 27.6484 36.598 27.646H74.695C77.8689 27.6484 80.9121 28.9103 83.1564 31.1546C85.4007 33.3989 86.6626 36.4421 86.665 39.616V52.414Z" fill="white"/>
<path d="M80.2255 60.2129C79.7277 60.4358 79.2131 60.6194 78.6865 60.7619L80.2255 60.2129Z" fill="white"/>
<path d="M45.7318 41.2089C45.2029 40.9946 44.6375 40.8846 44.0668 40.8849C43.7392 40.8822 43.4125 40.9215 43.0948 41.0019C42.0914 41.2196 41.1926 41.7739 40.5475 42.5728C39.9025 43.3717 39.5501 44.3671 39.5488 45.3939V49.5339C39.5488 50.7274 40.0229 51.872 40.8668 52.7159C41.7108 53.5598 42.8554 54.0339 44.0488 54.0339C45.2423 54.0339 46.3869 53.5598 47.2308 52.7159C48.0747 51.872 48.5488 50.7274 48.5488 49.5339V45.3939C48.5511 44.4947 48.284 43.6155 47.7819 42.8695C47.2798 42.1236 46.5658 41.5452 45.7318 41.2089ZM45.9568 49.5339C45.9237 50.0138 45.7098 50.4632 45.3581 50.7915C45.0065 51.1197 44.5434 51.3022 44.0623 51.3022C43.5813 51.3022 43.1182 51.1197 42.7665 50.7915C42.4149 50.4632 42.2009 50.0138 42.1678 49.5339V45.3939C42.2009 44.914 42.4149 44.4646 42.7665 44.1363C43.1182 43.8081 43.5813 43.6256 44.0623 43.6256C44.5434 43.6256 45.0065 43.8081 45.3581 44.1363C45.7098 44.4646 45.9237 44.914 45.9568 45.3939V49.5339Z" fill="white"/>
<path d="M66.7825 40.9928C66.4697 40.9204 66.1496 40.8841 65.8286 40.8848C65.2539 40.8831 64.6848 40.9963 64.1546 41.2178C63.317 41.5493 62.5982 42.1245 62.0912 42.869C61.5841 43.6135 61.3122 44.493 61.3105 45.3938V49.5338C61.3162 50.4044 61.5743 51.2546 62.0536 51.9815C62.5328 52.7083 63.2126 53.2806 64.0105 53.6288C64.8747 54.0361 65.8491 54.1469 66.7825 53.9438C67.799 53.7363 68.7125 53.184 69.3685 52.3804C70.0245 51.5768 70.3828 50.5712 70.3825 49.5338V45.3938C70.3807 44.3579 70.0215 43.3545 69.3657 42.5527C68.7098 41.7509 67.7975 41.2 66.7825 40.9928ZM67.6825 49.5338C67.6825 50.035 67.4834 50.5158 67.129 50.8702C66.7745 51.2247 66.2938 51.4238 65.7925 51.4238C65.2929 51.4214 64.8144 51.2212 64.4619 50.867C64.1094 50.5129 63.9115 50.0335 63.9115 49.5338V45.3938C63.9115 44.8925 64.1107 44.4118 64.4651 44.0574C64.8196 43.7029 65.3003 43.5038 65.8016 43.5038C66.3028 43.5038 66.7835 43.7029 67.138 44.0574C67.4924 44.4118 67.6916 44.8925 67.6916 45.3938L67.6825 49.5338Z" fill="white"/>
<path d="M66.7829 40.9934C66.47 40.921 66.1499 40.8848 65.8289 40.8854C65.2542 40.8837 64.6851 40.997 64.1549 41.2184C63.7099 39.1098 62.5535 37.2183 60.8797 35.8608C59.2059 34.5034 57.1164 33.7626 54.9614 33.7626C52.8063 33.7626 50.7168 34.5034 49.043 35.8608C47.3692 37.2183 46.2129 39.1098 45.7679 41.2184C45.2389 41.0041 44.6736 40.8941 44.1029 40.8944C43.7752 40.8917 43.4485 40.931 43.1309 41.0114C43.6288 38.2373 45.0861 35.7266 47.2479 33.9183C49.4097 32.1099 52.1384 31.1191 54.9569 31.1191C57.7753 31.1191 60.504 32.1099 62.6658 33.9183C64.8276 35.7266 66.2849 38.2373 66.7829 41.0114V40.9934Z" fill="white"/>
<path d="M66.7022 53.9431C66.1082 55.2481 64.6502 57.7501 62.0852 58.4431C62.2581 58.0933 62.3475 57.7082 62.3462 57.3181C62.3424 56.7567 62.1595 56.2113 61.8242 55.7611C62.7251 55.2952 63.4605 54.563 63.9302 53.6641C64.7943 54.0714 65.7687 54.1822 66.7022 53.9791V53.9431Z" fill="white"/>
<path d="M61.8242 55.7258C61.3314 55.1422 60.71 54.6809 60.0089 54.3779C59.3077 54.075 58.5459 53.9387 57.7832 53.9798C55.2272 53.9798 53.2832 55.4288 53.2832 57.2828C53.2832 59.1368 55.2722 60.5948 57.7832 60.5948C59.7812 60.5948 61.4552 59.6948 62.0672 58.4078C62.2401 58.0581 62.3295 57.673 62.3282 57.2828C62.3296 56.7235 62.1531 56.1782 61.8242 55.7258ZM57.7832 57.9758C57.4314 58.0143 57.0754 57.9727 56.7419 57.8543C56.4084 57.7358 56.106 57.5436 55.8572 57.2918C56.1044 57.0379 56.4066 56.8441 56.7406 56.7255C57.0745 56.6069 57.4312 56.5667 57.7832 56.6078C58.1329 56.5696 58.4867 56.6104 58.8185 56.7273C59.1503 56.8441 59.4516 57.0339 59.7002 57.2828C59.4565 57.5393 59.1563 57.7355 58.8236 57.8558C58.4908 57.9761 58.1346 58.0172 57.7832 57.9758Z" fill="white"/>
<path d="M30.0869 14.1235H12.7259C12.3973 14.0962 12.091 13.9465 11.8677 13.7039C11.6444 13.4613 11.5205 13.1437 11.5205 12.814C11.5205 12.4843 11.6444 12.1667 11.8677 11.9241C12.091 11.6815 12.3973 11.5318 12.7259 11.5045H30.0869C30.2679 11.4895 30.4502 11.5122 30.6221 11.5712C30.7939 11.6301 30.9517 11.7241 31.0854 11.8472C31.2191 11.9703 31.3258 12.1197 31.3988 12.2861C31.4718 12.4525 31.5095 12.6323 31.5095 12.814C31.5095 12.9957 31.4718 13.1755 31.3988 13.3419C31.3258 13.5083 31.2191 13.6577 31.0854 13.7808C30.9517 13.9039 30.7939 13.9979 30.6221 14.0568C30.4502 14.1158 30.2679 14.1385 30.0869 14.1235Z" fill="white"/>
<path d="M24.4979 21.3944H12.7259C12.3973 21.3671 12.091 21.2174 11.8677 20.9748C11.6444 20.7322 11.5205 20.4146 11.5205 20.0849C11.5205 19.7552 11.6444 19.4376 11.8677 19.195C12.091 18.9524 12.3973 18.8027 12.7259 18.7754H24.4979C24.8264 18.8027 25.1327 18.9524 25.356 19.195C25.5793 19.4376 25.7032 19.7552 25.7032 20.0849C25.7032 20.4146 25.5793 20.7322 25.356 20.9748C25.1327 21.2174 24.8264 21.3671 24.4979 21.3944Z" fill="white"/>
</svg>
