<svg width="90" height="90" viewBox="0 0 90 90" fill="none" xmlns="http://www.w3.org/2000/svg">
<path d="M67.284 22.257V28.854C67.284 28.854 67.284 30 66 30C64.716 30 64.656 28.854 64.656 28.854V22.257C64.6512 19.0838 63.3886 16.0419 61.1448 13.7982C58.901 11.5544 55.8592 10.2917 52.686 10.287H14.589C11.4158 10.2917 8.37397 11.5544 6.13019 13.7982C3.88641 16.0419 2.62376 19.0838 2.619 22.257V35.1C2.61916 37.3322 3.24491 39.5197 4.42528 41.4144C5.60565 43.309 7.29338 44.8349 9.297 45.819C10.0042 46.178 10.746 46.4645 11.511 46.674C11.5159 46.7038 11.5159 46.7342 11.511 46.764V54.864L17.091 49.734L19.944 47.106H22.707V49.734H20.97L11.07 58.815C10.8275 59.0452 10.5044 59.1712 10.17 59.166C9.9894 59.1668 9.81095 59.1269 9.648 59.049C9.41275 58.9497 9.21207 58.7831 9.07117 58.5701C8.93026 58.3572 8.85541 58.1073 8.856 57.852V48.51C6.23111 47.3844 3.99348 45.5146 2.41959 43.1313C0.845702 40.7481 0.00452759 37.956 0 35.1L0 22.257C0.00476328 18.3892 1.54334 14.6812 4.27828 11.9462C7.01322 9.21131 10.7212 7.67273 14.589 7.66797H52.686C56.5553 7.67035 60.2657 9.20788 63.0025 11.9431C65.7394 14.6783 67.2792 18.3876 67.284 22.257Z" fill="#E21016"/>
<path d="M74.695 32H36.598C32.7287 32.0024 29.0183 33.5399 26.2815 36.2751C23.5446 39.0103 22.0048 42.7197 22 46.589V59.414C22.0071 63.2818 23.548 66.9888 26.2846 69.7221C29.0213 72.4553 32.7302 73.9916 36.598 73.994H67.738L78.187 83.615C78.4329 83.8388 78.7545 83.961 79.087 83.957C79.2664 83.9558 79.4438 83.9191 79.609 83.849C79.8436 83.7462 80.0433 83.5775 80.1839 83.3635C80.3245 83.1494 80.3999 82.8991 80.401 82.643V72.842C83.0331 71.7184 85.2776 69.8472 86.8566 67.4604C88.4356 65.0735 89.2796 62.2759 89.284 59.414V46.589C89.2792 42.7212 87.7407 39.0132 85.0057 36.2783C82.2708 33.5433 78.5628 32.0048 74.695 32ZM86.665 59.414C86.6583 61.7405 85.9737 64.0147 84.695 65.9584C83.4163 67.902 81.5989 69.4309 79.465 70.358C78.9671 70.5809 78.4526 70.7645 77.926 70.907C77.7915 71.1098 77.7195 71.3476 77.719 71.591V79.691L71.563 74.03L68.71 71.411H36.598C33.4249 71.411 30.3817 70.1511 28.1371 67.9082C25.8926 65.6654 24.6304 62.6231 24.628 59.45V46.589C24.6375 43.4198 25.9026 40.3835 28.1461 38.145C30.3896 35.9065 33.4288 34.6484 36.598 34.646H74.695C77.8689 34.6484 80.9121 35.9103 83.1564 38.1546C85.4007 40.3989 86.6626 43.4421 86.665 46.616V59.414Z" fill="#E21016"/>
<path d="M80.2255 67.2129C79.7277 67.4358 79.2131 67.6194 78.6865 67.7619L80.2255 67.2129Z" fill="#E21016"/>
<path d="M45.7318 48.2089C45.2029 47.9946 44.6375 47.8846 44.0668 47.8849C43.7392 47.8822 43.4125 47.9215 43.0948 48.0019C42.0914 48.2196 41.1926 48.7739 40.5475 49.5728C39.9025 50.3717 39.5501 51.3671 39.5488 52.3939V56.5339C39.5488 57.7274 40.0229 58.872 40.8668 59.7159C41.7108 60.5598 42.8554 61.0339 44.0488 61.0339C45.2423 61.0339 46.3869 60.5598 47.2308 59.7159C48.0747 58.872 48.5488 57.7274 48.5488 56.5339V52.3939C48.5511 51.4947 48.284 50.6155 47.7819 49.8695C47.2798 49.1236 46.5658 48.5452 45.7318 48.2089ZM45.9568 56.5339C45.9237 57.0138 45.7098 57.4632 45.3581 57.7915C45.0065 58.1197 44.5434 58.3022 44.0623 58.3022C43.5813 58.3022 43.1182 58.1197 42.7665 57.7915C42.4149 57.4632 42.2009 57.0138 42.1678 56.5339V52.3939C42.2009 51.914 42.4149 51.4646 42.7665 51.1363C43.1182 50.8081 43.5813 50.6256 44.0623 50.6256C44.5434 50.6256 45.0065 50.8081 45.3581 51.1363C45.7098 51.4646 45.9237 51.914 45.9568 52.3939V56.5339Z" fill="#E21016"/>
<path d="M66.7825 47.9928C66.4697 47.9204 66.1496 47.8841 65.8286 47.8848C65.2539 47.8831 64.6848 47.9963 64.1546 48.2178C63.317 48.5493 62.5982 49.1245 62.0912 49.869C61.5841 50.6135 61.3122 51.493 61.3105 52.3938V56.5338C61.3162 57.4044 61.5743 58.2546 62.0536 58.9815C62.5328 59.7083 63.2126 60.2806 64.0105 60.6288C64.8747 61.0361 65.8491 61.1469 66.7825 60.9438C67.799 60.7363 68.7125 60.184 69.3685 59.3804C70.0245 58.5768 70.3828 57.5712 70.3825 56.5338V52.3938C70.3807 51.3579 70.0215 50.3545 69.3657 49.5527C68.7098 48.7509 67.7975 48.2 66.7825 47.9928ZM67.6825 56.5338C67.6825 57.035 67.4834 57.5158 67.129 57.8702C66.7745 58.2247 66.2938 58.4238 65.7925 58.4238C65.2929 58.4214 64.8144 58.2212 64.4619 57.867C64.1094 57.5129 63.9115 57.0335 63.9115 56.5338V52.3938C63.9115 51.8925 64.1107 51.4118 64.4651 51.0574C64.8196 50.7029 65.3003 50.5038 65.8016 50.5038C66.3028 50.5038 66.7835 50.7029 67.138 51.0574C67.4924 51.4118 67.6916 51.8925 67.6916 52.3938L67.6825 56.5338Z" fill="#E21016"/>
<path d="M66.7829 47.9934C66.47 47.921 66.1499 47.8848 65.8289 47.8854C65.2542 47.8837 64.6851 47.997 64.1549 48.2184C63.7099 46.1098 62.5535 44.2183 60.8797 42.8608C59.2059 41.5034 57.1164 40.7626 54.9614 40.7626C52.8063 40.7626 50.7168 41.5034 49.043 42.8608C47.3692 44.2183 46.2129 46.1098 45.7679 48.2184C45.2389 48.0041 44.6736 47.8941 44.1029 47.8944C43.7752 47.8917 43.4485 47.931 43.1309 48.0114C43.6288 45.2373 45.0861 42.7266 47.2479 40.9183C49.4097 39.1099 52.1384 38.1191 54.9569 38.1191C57.7753 38.1191 60.504 39.1099 62.6658 40.9183C64.8276 42.7266 66.2849 45.2373 66.7829 48.0114V47.9934Z" fill="#E21016"/>
<path d="M66.7022 60.9431C66.1082 62.2481 64.6502 64.7501 62.0852 65.4431C62.2581 65.0933 62.3475 64.7082 62.3462 64.3181C62.3424 63.7567 62.1595 63.2113 61.8242 62.7611C62.7251 62.2952 63.4605 61.563 63.9302 60.6641C64.7943 61.0714 65.7687 61.1822 66.7022 60.9791V60.9431Z" fill="#E21016"/>
<path d="M61.8242 62.7258C61.3314 62.1422 60.71 61.6809 60.0089 61.3779C59.3077 61.075 58.5459 60.9387 57.7832 60.9798C55.2272 60.9798 53.2832 62.4288 53.2832 64.2828C53.2832 66.1368 55.2722 67.5948 57.7832 67.5948C59.7812 67.5948 61.4552 66.6948 62.0672 65.4078C62.2401 65.0581 62.3295 64.673 62.3282 64.2828C62.3296 63.7235 62.1531 63.1782 61.8242 62.7258ZM57.7832 64.9758C57.4314 65.0143 57.0754 64.9727 56.7419 64.8543C56.4084 64.7358 56.106 64.5436 55.8572 64.2918C56.1044 64.0379 56.4066 63.8441 56.7406 63.7255C57.0745 63.6069 57.4312 63.5667 57.7832 63.6078C58.1329 63.5696 58.4867 63.6104 58.8185 63.7273C59.1503 63.8441 59.4516 64.0339 59.7002 64.2828C59.4565 64.5393 59.1563 64.7355 58.8236 64.8558C58.4908 64.9761 58.1346 65.0172 57.7832 64.9758Z" fill="#E21016"/>
<path d="M30.0869 21.1235H12.7259C12.3973 21.0962 12.091 20.9465 11.8677 20.7039C11.6444 20.4613 11.5205 20.1437 11.5205 19.814C11.5205 19.4843 11.6444 19.1667 11.8677 18.9241C12.091 18.6815 12.3973 18.5318 12.7259 18.5045H30.0869C30.2679 18.4895 30.4502 18.5122 30.6221 18.5712C30.7939 18.6301 30.9517 18.7241 31.0854 18.8472C31.2191 18.9703 31.3258 19.1197 31.3988 19.2861C31.4718 19.4525 31.5095 19.6323 31.5095 19.814C31.5095 19.9957 31.4718 20.1755 31.3988 20.3419C31.3258 20.5083 31.2191 20.6577 31.0854 20.7808C30.9517 20.9039 30.7939 20.9979 30.6221 21.0568C30.4502 21.1158 30.2679 21.1385 30.0869 21.1235Z" fill="#E21016"/>
<path d="M24.4979 28.3944H12.7259C12.3973 28.3671 12.091 28.2174 11.8677 27.9748C11.6444 27.7322 11.5205 27.4146 11.5205 27.0849C11.5205 26.7552 11.6444 26.4376 11.8677 26.195C12.091 25.9524 12.3973 25.8027 12.7259 25.7754H24.4979C24.8264 25.8027 25.1327 25.9524 25.356 26.195C25.5793 26.4376 25.7032 26.7552 25.7032 27.0849C25.7032 27.4146 25.5793 27.7322 25.356 27.9748C25.1327 28.2174 24.8264 28.3671 24.4979 28.3944Z" fill="#E21016"/>
</svg>
