<svg width="90" height="90" viewBox="0 0 90 90" fill="none" xmlns="http://www.w3.org/2000/svg">
<g clip-path="url(#clip0_809_3310)">
<path d="M90.0005 85.6074C90.0005 85.9893 89.8488 86.3556 89.5787 86.6256C89.3086 86.8957 88.9424 87.0474 88.5605 87.0474H1.44047C1.2424 87.0631 1.04323 87.0376 0.85548 86.9726C0.667731 86.9076 0.495469 86.8044 0.34953 86.6696C0.203592 86.5347 0.0871348 86.3712 0.00748568 86.1891C-0.0721634 86.0071 -0.113281 85.8106 -0.113281 85.6119C-0.113281 85.4132 -0.0721634 85.2166 0.00748568 85.0346C0.0871348 84.8526 0.203592 84.689 0.34953 84.5542C0.495469 84.4194 0.667731 84.3162 0.85548 84.2512C1.04323 84.1861 1.2424 84.1607 1.44047 84.1764H88.5605C88.7491 84.1752 88.9362 84.2113 89.1108 84.2827C89.2855 84.3541 89.4443 84.4593 89.5782 84.5923C89.712 84.7253 89.8182 84.8835 89.8907 85.0577C89.9632 85.2319 90.0005 85.4187 90.0005 85.6074Z" fill="white"/>
<path d="M14.1486 53.6216V62.7836H11.2686V53.6216C11.2686 53.2397 11.4203 52.8735 11.6903 52.6034C11.9604 52.3334 12.3266 52.1816 12.7086 52.1816C13.0905 52.1816 13.4567 52.3334 13.7268 52.6034C13.9968 52.8735 14.1486 53.2397 14.1486 53.6216Z" fill="white"/>
<path d="M17.6858 62.7832H7.73178C7.35143 62.7856 6.98747 62.9383 6.71936 63.2081C6.45125 63.4779 6.30077 63.8428 6.30078 64.2232V74.1862C6.30782 74.5619 6.4614 74.9199 6.72876 75.1839C6.99611 75.4479 7.35606 75.5969 7.73178 75.5992H17.6858C18.0661 75.5992 18.4311 75.4487 18.7008 75.1806C18.9706 74.9125 19.1234 74.5486 19.1258 74.1682V64.2232C19.1258 63.8413 18.9741 63.475 18.704 63.205C18.434 62.9349 18.0677 62.7832 17.6858 62.7832ZM16.2548 72.7462H9.16278V65.6992H16.2548V72.7462Z" fill="white"/>
<path d="M14.1396 75.6172H11.2686V84.1672H14.1396V75.6172Z" fill="white"/>
<path d="M18.8108 35.3959C17.8896 33.925 16.4681 32.8364 14.808 32.3304C13.1479 31.8244 11.3609 31.9351 9.77594 32.642C8.19095 33.3489 6.91464 34.6046 6.18193 36.1778C5.44923 37.7511 5.30943 39.536 5.78829 41.2042C6.26714 42.8723 7.33241 44.3113 8.78802 45.2564C10.2436 46.2015 11.9916 46.589 13.7103 46.3476C15.4289 46.1062 17.0025 45.2522 18.1414 43.9427C19.2804 42.6332 19.908 40.9564 19.9088 39.2209C19.9094 37.868 19.5289 36.5424 18.8108 35.3959ZM12.7088 43.5499C11.5936 43.499 10.541 43.0203 9.76984 42.2131C8.99867 41.406 8.56833 40.3327 8.56833 39.2164C8.56833 38.1 8.99867 37.0267 9.76984 36.2196C10.541 35.4125 11.5936 34.9337 12.7088 34.8829C13.857 34.8876 14.9567 35.3465 15.7678 36.1592C16.5789 36.972 17.0354 38.0726 17.0378 39.2209C17.0354 40.3682 16.5786 41.468 15.7672 42.2793C14.9559 43.0906 13.8562 43.5475 12.7088 43.5499Z" fill="white"/>
<path d="M39.2674 52.8301H29.3044C28.9303 52.8394 28.5746 52.994 28.3125 53.2611C28.0504 53.5282 27.9026 53.8869 27.9004 54.2611V64.2241C27.9004 64.606 28.0521 64.9723 28.3222 65.2423C28.5922 65.5124 28.9585 65.6641 29.3404 65.6641H39.2674C39.6477 65.6617 40.0117 65.5089 40.2798 65.2391C40.5479 64.9693 40.6984 64.6044 40.6984 64.2241V54.2611C40.6984 53.8816 40.5476 53.5176 40.2793 53.2492C40.0109 52.9808 39.6469 52.8301 39.2674 52.8301ZM37.8004 62.7841H30.7444V55.7011H37.8004V62.7841Z" fill="white"/>
<path d="M35.7216 40.0489V52.8289H32.8506V40.0489C32.8792 39.6878 33.0428 39.3508 33.3089 39.105C33.575 38.8592 33.9239 38.7227 34.2861 38.7227C34.6483 38.7227 34.9972 38.8592 35.2633 39.105C35.5293 39.3508 35.693 39.6878 35.7216 40.0489Z" fill="white"/>
<path d="M35.7216 65.6641H32.8506V84.1771H35.7216V65.6641Z" fill="white"/>
<path d="M34.2813 11.1953C32.7238 11.198 31.2093 11.7056 29.9648 12.642C28.7203 13.5784 27.813 14.8931 27.379 16.3888C26.945 17.8846 27.0076 19.4807 27.5576 20.9378C28.1076 22.3949 29.1152 23.6344 30.4293 24.4703C31.577 25.212 32.9148 25.6058 34.2813 25.6043C35.2824 25.6041 36.2726 25.3951 37.1884 24.9906C38.1043 24.5862 38.9257 23.9951 39.6003 23.2553C40.81 21.9293 41.4809 20.1992 41.4813 18.4043C41.4824 17.458 41.2971 16.5208 40.9358 15.6462C40.5745 14.7716 40.0443 13.9769 39.3756 13.3073C38.7069 12.6378 37.9128 12.1066 37.0387 11.7442C36.1645 11.3818 35.2275 11.1953 34.2813 11.1953ZM34.2813 22.7333C33.3363 22.7295 32.4188 22.4153 31.6699 21.8391C30.921 21.2629 30.3821 20.4566 30.1362 19.5443C29.8903 18.6319 29.9509 17.664 30.3089 16.7895C30.6668 15.9149 31.3021 15.1822 32.1171 14.7041C32.9321 14.2259 33.8817 14.0287 34.8197 14.143C35.7577 14.2572 36.6322 14.6764 37.3087 15.3362C37.9851 15.9959 38.4261 16.8597 38.5637 17.7946C38.7013 18.7294 38.5279 19.6836 38.0703 20.5103C37.6945 21.1852 37.1449 21.7472 36.4787 22.1381C35.8124 22.529 35.0537 22.7345 34.2813 22.7333Z" fill="white"/>
<path d="M60.8403 57.293H50.8773C50.4985 57.2953 50.1359 57.4469 49.868 57.7147C49.6002 57.9826 49.4486 58.3452 49.4463 58.724V68.687C49.4463 69.0673 49.5968 69.4322 49.8649 69.702C50.133 69.9718 50.4969 70.1246 50.8773 70.127H60.8403C61.2222 70.127 61.5885 69.9753 61.8585 69.7052C62.1286 69.4352 62.2803 69.0689 62.2803 68.687V58.724C62.2779 58.3436 62.1252 57.9797 61.8554 57.7116C61.5856 57.4434 61.2206 57.293 60.8403 57.293ZM59.4003 67.247H52.3173V60.164H59.4003V67.247Z" fill="white"/>
<path d="M57.2948 46.3399V57.2929H54.4238V46.3399C54.4524 45.9788 54.6161 45.6418 54.8821 45.396C55.1482 45.1502 55.4971 45.0137 55.8593 45.0137C56.2215 45.0137 56.5705 45.1502 56.8365 45.396C57.1026 45.6418 57.2662 45.9788 57.2948 46.3399Z" fill="white"/>
<path d="M57.2948 70.127H54.4238V84.176H57.2948V70.127Z" fill="white"/>
<path d="M61.8303 29.6996C61.1549 28.7053 60.2414 27.8958 59.1729 27.3451C58.1045 26.7943 56.9151 26.5199 55.7134 26.5467C54.5116 26.5736 53.3357 26.9009 52.2929 27.4987C51.2501 28.0966 50.3736 28.9461 49.7433 29.9696C49.0296 31.0977 48.6519 32.4057 48.6543 33.7406C48.6582 34.8647 48.9253 35.9722 49.434 36.9744C49.9428 37.9767 50.6792 38.846 51.5842 39.5126C52.4892 40.1792 53.5378 40.6247 54.6458 40.8133C55.7539 41.002 56.8908 40.9286 57.9654 40.599C59.04 40.2694 60.0226 39.6928 60.8343 38.9154C61.6461 38.1379 62.2646 37.1812 62.6403 36.1218C63.0159 35.0624 63.1383 33.9298 62.9977 32.8146C62.857 31.6994 62.4572 30.6326 61.8303 29.6996ZM55.8633 38.0696C55.1485 38.0736 54.4438 37.9008 53.8118 37.5666C53.1799 37.2325 52.6403 36.7474 52.2411 36.1544C51.8419 35.5615 51.5954 34.879 51.5235 34.1678C51.4516 33.4566 51.5567 32.7387 51.8292 32.0778C52.1017 31.417 52.5333 30.8337 53.0857 30.3799C53.638 29.9261 54.2939 29.6159 54.9951 29.4767C55.6962 29.3375 56.4209 29.3738 57.1047 29.5823C57.7884 29.7908 58.4101 30.165 58.9143 30.6716C59.5237 31.2754 59.9396 32.0468 60.109 32.8878C60.2784 33.7287 60.1935 34.601 59.8653 35.3936C59.5371 36.1861 58.9803 36.863 58.266 37.338C57.5517 37.813 56.7121 38.0646 55.8543 38.0606L55.8633 38.0696Z" fill="white"/>
<path d="M82.4223 54H72.4683C72.2796 53.9988 72.0926 54.035 71.9179 54.1064C71.7433 54.1777 71.5845 54.283 71.4506 54.416C71.3168 54.549 71.2106 54.7071 71.1381 54.8813C71.0656 55.0555 71.0283 55.2423 71.0283 55.431V65.376C71.0307 65.7564 71.1835 66.1203 71.4533 66.3885C71.7231 66.6566 72.088 66.807 72.4683 66.807H82.4223C82.8027 66.807 83.1676 66.6566 83.4374 66.3885C83.7072 66.1203 83.8599 65.7564 83.8623 65.376V55.413C83.8576 55.0351 83.7035 54.6743 83.4337 54.4096C83.1639 54.1449 82.8003 53.9976 82.4223 54ZM81.0003 63.9H73.8993V56.853H81.0003V63.9Z" fill="white"/>
<path d="M78.8859 33.4439V53.9999H76.0059V33.4439C76.0059 33.062 76.1576 32.6957 76.4276 32.4257C76.6977 32.1556 77.064 32.0039 77.4459 32.0039C77.8278 32.0039 78.194 32.1556 78.4641 32.4257C78.7342 32.6957 78.8859 33.062 78.8859 33.4439Z" fill="white"/>
<path d="M78.8769 66.8066H76.0059V84.1676H78.8769V66.8066Z" fill="white"/>
<path d="M77.4457 2.95117C76.0654 2.95593 74.7155 3.35735 73.5569 4.10762C72.3983 4.85789 71.4798 5.92538 70.9108 7.18293C70.3418 8.44049 70.1462 9.83511 70.3474 11.2007C70.5486 12.5662 71.1381 13.8452 72.0457 14.8852C72.7179 15.6581 73.5473 16.2787 74.4785 16.7055C75.4098 17.1323 76.4213 17.3555 77.4457 17.3602C79.3552 17.3602 81.1866 16.6016 82.5368 15.2513C83.8871 13.9011 84.6457 12.0697 84.6457 10.1602C84.6457 8.25061 83.8871 6.41927 82.5368 5.069C81.1866 3.71874 79.3552 2.96017 77.4457 2.96017V2.95117ZM77.4457 14.4802C76.5895 14.4802 75.7525 14.2263 75.0406 13.7506C74.3287 13.2749 73.7739 12.5988 73.4462 11.8078C73.1186 11.0168 73.0328 10.1464 73.1999 9.30663C73.3669 8.46688 73.7792 7.69553 74.3846 7.09011C74.99 6.48469 75.7614 6.07239 76.6011 5.90535C77.4409 5.73832 78.3113 5.82405 79.1023 6.1517C79.8933 6.47935 80.5694 7.03421 81.0451 7.74611C81.5208 8.45801 81.7747 9.29498 81.7747 10.1512C81.7747 11.2993 81.3186 12.4004 80.5067 13.2122C79.6949 14.0241 78.5938 14.4802 77.4457 14.4802Z" fill="white"/>
<path d="M30.4298 24.471L18.8108 35.397C18.3017 34.5725 17.6313 33.8592 16.8398 33.3L28.3508 22.5C28.9037 23.2906 29.6109 23.9611 30.4298 24.471Z" fill="white"/>
<path d="M51.7326 27.8991C50.9302 28.4624 50.2531 29.1855 49.7436 30.0231L39.6006 23.2551C40.2576 22.5438 40.7602 21.7042 41.0766 20.7891L51.7326 27.8991Z" fill="white"/>
<path d="M74.3225 16.6398L61.8305 29.6988C61.2855 28.8979 60.5845 28.2153 59.7695 27.6918L72.0005 14.8848C72.645 15.6238 73.4357 16.2214 74.3225 16.6398Z" fill="white"/>
</g>
<defs>
<clipPath id="clip0_809_3310">
<rect width="90" height="90" fill="white"/>
</clipPath>
</defs>
</svg>
