<svg width="60" height="60" viewBox="0 0 60 60" fill="none" xmlns="http://www.w3.org/2000/svg">
<path d="M50.3339 26.2839C50.3275 26.3858 50.3044 26.4859 50.2655 26.5803C50.2268 26.6385 50.1742 26.6861 50.1126 26.7189C50.0509 26.7518 49.982 26.7687 49.9122 26.7684H46.6408C46.5854 26.7684 46.5305 26.7575 46.4794 26.7363C46.4282 26.7151 46.3817 26.684 46.3425 26.6448C46.3034 26.6057 46.2723 26.5592 46.2511 26.508C46.2299 26.4569 46.219 26.402 46.219 26.3466C46.219 26.2912 46.2299 26.2364 46.2511 26.1852C46.2723 26.1341 46.3034 26.0876 46.3425 26.0484C46.3817 26.0092 46.4282 25.9782 46.4794 25.957C46.5305 25.9358 46.5854 25.9249 46.6408 25.9249H49.4904C49.4681 19.6494 46.974 13.6355 42.5487 9.18603C40.3496 6.90856 37.7108 5.10168 34.7922 3.87508C31.8736 2.64847 28.7362 2.02773 25.5705 2.05051H25.1202V4.90016C25.1202 5.01202 25.0758 5.11929 24.9967 5.19838C24.9176 5.27747 24.8103 5.32191 24.6985 5.32191C24.5866 5.32191 24.4793 5.27747 24.4002 5.19838C24.3211 5.11929 24.2767 5.01202 24.2767 4.90016V2.09611C12.0289 2.87691 1.96396 13.4947 2.04945 25.8907V25.9363H4.65973C4.77158 25.9363 4.87886 25.9807 4.95795 26.0598C5.03704 26.1389 5.08148 26.2462 5.08148 26.358C5.08148 26.4699 5.03704 26.5771 4.95795 26.6562C4.87886 26.7353 4.77158 26.7798 4.65973 26.7798H2.05515C2.57949 38.6628 12.3139 48.6195 24.2824 49.463V46.6532C24.2824 46.5414 24.3268 46.4341 24.4059 46.355C24.485 46.2759 24.5923 46.2315 24.7042 46.2315C24.816 46.2315 24.9233 46.2759 25.0024 46.355C25.0815 46.4341 25.1259 46.5414 25.1259 46.6532V49.9246C25.1255 49.9921 25.1087 50.0586 25.077 50.1181C25.0452 50.1777 24.9994 50.2287 24.9435 50.2666C24.897 50.2976 24.8446 50.3189 24.7896 50.3293H24.6073C11.9035 49.6511 1.56501 39.039 1.20026 26.4492C1.20026 26.3922 1.20026 26.3295 1.20026 26.2725C1.20026 26.1471 1.20026 26.0218 1.20026 25.9021C1.18417 22.6814 1.80649 19.4895 3.03124 16.5108C4.25599 13.5321 6.0589 10.8256 8.33578 8.54771C12.619 4.15488 18.4053 1.54474 24.5332 1.24121H24.7953C25.0461 1.24121 25.3026 1.24121 25.5534 1.24121H25.7471C28.993 1.24619 32.2049 1.90135 35.1934 3.168C38.1818 4.43465 40.8863 6.28713 43.1471 8.6161C45.4555 10.9382 47.2796 13.6959 48.5133 16.7289C49.7471 19.7619 50.3659 23.0098 50.3339 26.2839Z" fill="#E21016" stroke="#E21016" stroke-width="1.5"/>
<path d="M24.8066 1.20708H24.5444C24.5953 1.1979 24.6474 1.1979 24.6983 1.20708C24.7342 1.20113 24.7708 1.20113 24.8066 1.20708Z" fill="#E21016" stroke="#E21016" stroke-width="1.5"/>
<path d="M13.3737 32.5532C13.3013 32.5527 13.2302 32.5336 13.1673 32.4977C13.1044 32.4617 13.0519 32.4102 13.0147 32.3481C12.9611 32.2528 12.946 32.1407 12.9725 32.0347C12.999 31.9287 13.0651 31.8369 13.1571 31.7781L24.2765 25.1042V16.0253C24.2765 15.9134 24.3209 15.8061 24.4 15.727C24.4791 15.648 24.5864 15.6035 24.6982 15.6035C24.8101 15.6035 24.9174 15.648 24.9964 15.727C25.0755 15.8061 25.12 15.9134 25.12 16.0253V25.3436C25.12 25.4162 25.1011 25.4875 25.0652 25.5504C25.0292 25.6134 24.9773 25.6659 24.9148 25.7027L13.5903 32.5019C13.5248 32.5402 13.4494 32.558 13.3737 32.5532Z" fill="#E21016" stroke="#E21016" stroke-width="1.5"/>
<path d="M42.5258 58.2002C40.1642 58.2002 37.8375 57.6292 35.7442 56.5357C33.6509 55.4423 31.853 53.8589 30.5038 51.9206C29.1546 49.9822 28.2942 47.7463 27.9958 45.4036C27.6974 43.0608 27.9699 40.6806 28.7902 38.466C29.6104 36.2513 30.9539 34.2678 32.7063 32.6846C34.4587 31.1013 36.568 29.9653 38.8543 29.3733C41.1406 28.7814 43.5361 28.751 45.8366 29.2849C48.1372 29.8188 50.2745 30.901 52.0665 32.4393C52.1087 32.4767 52.1432 32.5221 52.168 32.5729C52.1927 32.6236 52.2072 32.6788 52.2107 32.7351C52.2141 32.7915 52.2064 32.848 52.188 32.9014C52.1697 32.9548 52.1409 33.004 52.1035 33.0463C52.0661 33.0886 52.0207 33.1231 51.9699 33.1478C51.9192 33.1726 51.864 33.1871 51.8077 33.1905C51.7513 33.194 51.6948 33.1863 51.6414 33.1679C51.5881 33.1495 51.5388 33.1208 51.4965 33.0833C49.1711 31.0864 46.2472 29.9202 43.1857 29.7687C40.1243 29.6171 37.0995 30.4889 34.5883 32.2465C32.077 34.0041 30.2223 36.5475 29.3163 39.4758C28.4104 42.4041 28.5049 45.5506 29.5849 48.4192C30.6649 51.2878 32.669 53.7154 35.2812 55.3191C37.8934 56.9228 40.965 57.6115 44.0119 57.2765C47.0587 56.9415 49.9074 55.602 52.1088 53.4691C54.3101 51.3361 55.739 48.5312 56.17 45.4964C56.1769 45.4416 56.1948 45.3887 56.2225 45.3408C56.2501 45.2929 56.2871 45.2511 56.3311 45.2176C56.3752 45.1842 56.4254 45.1599 56.479 45.1461C56.5325 45.1323 56.5883 45.1293 56.643 45.1374C56.6981 45.1451 56.7511 45.1636 56.799 45.1918C56.8469 45.2201 56.8888 45.2575 56.9221 45.302C56.9555 45.3465 56.9798 45.3972 56.9935 45.4511C57.0072 45.505 57.0101 45.5611 57.002 45.6161C56.4924 49.0981 54.7518 52.2821 52.0959 54.5908C49.4401 56.8995 46.0448 58.18 42.5258 58.2002Z" fill="#E21016" stroke="#E21016" stroke-width="1.5"/>
<path d="M42.0583 49.7594H42.0241C41.9666 49.7536 41.9109 49.7365 41.86 49.7092C41.8092 49.6818 41.7642 49.6446 41.7277 49.5998L35.2419 41.5524C35.1765 41.4651 35.1475 41.3557 35.1609 41.2474C35.1744 41.1391 35.2294 41.0402 35.3143 40.9716C35.3991 40.903 35.5073 40.8699 35.6161 40.8794C35.7248 40.8888 35.8256 40.9401 35.8974 41.0224L42.1096 48.7278L57.5775 34.9412C57.6187 34.9038 57.6668 34.8749 57.7191 34.856C57.7715 34.8372 57.827 34.8289 57.8826 34.8315C57.9382 34.8342 57.9927 34.8477 58.043 34.8715C58.0933 34.8952 58.1385 34.9286 58.1759 34.9697C58.2133 35.0109 58.2423 35.059 58.2611 35.1114C58.2799 35.1637 58.2883 35.2193 58.2856 35.2748C58.283 35.3304 58.2694 35.3849 58.2457 35.4352C58.222 35.4856 58.1886 35.5307 58.1474 35.5681L42.3376 49.6511C42.2612 49.7206 42.1616 49.7592 42.0583 49.7594Z" fill="#E21016" stroke="#E21016" stroke-width="1.5"/>
</svg>
