<svg width="46" height="46" viewBox="0 0 46 46" fill="none" xmlns="http://www.w3.org/2000/svg">
<g clip-path="url(#clip0_569_648)">
<path d="M45.2795 38.0422H25.0295C24.9385 38.0498 24.8468 38.0384 24.7604 38.0087C24.674 37.9791 24.5947 37.9318 24.5275 37.8699C24.4602 37.8081 24.4066 37.7329 24.3699 37.6492C24.3332 37.5656 24.3142 37.4752 24.3142 37.3838C24.3142 37.2925 24.3332 37.2021 24.3699 37.1184C24.4066 37.0348 24.4602 36.9596 24.5275 36.8977C24.5947 36.8359 24.674 36.7886 24.7604 36.7589C24.8468 36.7293 24.9385 36.7179 25.0295 36.7254H44.6234V8.1175H16.02V21.1861C16.02 21.3613 15.9504 21.5294 15.8265 21.6533C15.7026 21.7772 15.5345 21.8468 15.3593 21.8468C15.1841 21.8468 15.016 21.7772 14.8921 21.6533C14.7682 21.5294 14.6986 21.3613 14.6986 21.1861V7.46136C14.6968 7.37346 14.7126 7.28609 14.745 7.20436C14.7774 7.12263 14.8257 7.04818 14.8873 6.98539C14.9488 6.9226 15.0222 6.87271 15.1033 6.83867C15.1843 6.80462 15.2714 6.78709 15.3593 6.78711H45.2795C45.3674 6.78709 45.4545 6.80462 45.5355 6.83867C45.6166 6.87271 45.69 6.9226 45.7515 6.98539C45.8131 7.04818 45.8615 7.12263 45.8938 7.20436C45.9262 7.28609 45.942 7.37346 45.9402 7.46136V37.3816C45.9402 37.5568 45.8706 37.7248 45.7467 37.8487C45.6228 37.9726 45.4547 38.0422 45.2795 38.0422Z" fill="white" stroke="white" stroke-width="0.5"/>
<path d="M20.889 25.6257H12.0695C11.9785 25.6333 11.8869 25.6219 11.8005 25.5922C11.714 25.5625 11.6347 25.5153 11.5675 25.4534C11.5003 25.3915 11.4466 25.3164 11.4099 25.2327C11.3732 25.149 11.3542 25.0587 11.3542 24.9673C11.3542 24.8759 11.3732 24.7856 11.4099 24.7019C11.4466 24.6182 11.5003 24.5431 11.5675 24.4812C11.6347 24.4193 11.714 24.3721 11.8005 24.3424C11.8869 24.3128 11.9785 24.3013 12.0695 24.3089H20.889C20.9801 24.3013 21.0717 24.3128 21.1581 24.3424C21.2446 24.3721 21.3239 24.4193 21.3911 24.4812C21.4583 24.5431 21.512 24.6182 21.5487 24.7019C21.5854 24.7856 21.6043 24.8759 21.6043 24.9673C21.6043 25.0587 21.5854 25.149 21.5487 25.2327C21.512 25.3164 21.4583 25.3915 21.3911 25.4534C21.3239 25.5153 21.2446 25.5625 21.1581 25.5922C21.0717 25.6219 20.9801 25.6333 20.889 25.6257Z" fill="white" stroke="white" stroke-width="0.5"/>
<path d="M20.8892 32.3406H6.57162C6.40642 32.3269 6.25241 32.2516 6.14015 32.1296C6.02789 32.0076 5.96558 31.8479 5.96558 31.6822C5.96558 31.5164 6.02789 31.3567 6.14015 31.2347C6.25241 31.1128 6.40642 31.0375 6.57162 31.0237H20.8892C20.9802 31.0162 21.0718 31.0276 21.1583 31.0573C21.2447 31.0869 21.324 31.1342 21.3912 31.1961C21.4584 31.2579 21.5121 31.3331 21.5488 31.4168C21.5855 31.5004 21.6045 31.5908 21.6045 31.6822C21.6045 31.7735 21.5855 31.8639 21.5488 31.9476C21.5121 32.0312 21.4584 32.1064 21.3912 32.1683C21.324 32.2301 21.2447 32.2774 21.1583 32.307C21.0718 32.3367 20.9802 32.3481 20.8892 32.3406Z" fill="white" stroke="white" stroke-width="0.5"/>
<path d="M20.8891 38.4636H1.34958C1.25853 38.4712 1.1669 38.4598 1.08048 38.4301C0.994063 38.4004 0.914737 38.3532 0.847515 38.2913C0.780292 38.2294 0.726634 38.1543 0.689931 38.0706C0.653228 37.9869 0.634277 37.8966 0.634277 37.8052C0.634277 37.7138 0.653228 37.6235 0.689931 37.5398C0.726634 37.4561 0.780292 37.381 0.847515 37.3191C0.914737 37.2572 0.994063 37.21 1.08048 37.1803C1.1669 37.1507 1.25853 37.1392 1.34958 37.1468H20.8891C20.9802 37.1392 21.0718 37.1507 21.1582 37.1803C21.2446 37.21 21.324 37.2572 21.3912 37.3191C21.4584 37.381 21.5121 37.4561 21.5488 37.5398C21.5855 37.6235 21.6044 37.7138 21.6044 37.8052C21.6044 37.8966 21.5855 37.9869 21.5488 38.0706C21.5121 38.1543 21.4584 38.2294 21.3912 38.2913C21.324 38.3532 21.2446 38.4004 21.1582 38.4301C21.0718 38.4598 20.9802 38.4712 20.8891 38.4636Z" fill="white" stroke="white" stroke-width="0.5"/>
<path d="M30.3196 18.9779C30.1525 18.9794 29.991 18.918 29.8671 18.8059L27.3421 16.5117L24.7175 18.3217C24.6191 18.3917 24.5033 18.4331 24.3828 18.4415C24.2624 18.4498 24.1419 18.4248 24.0348 18.3691C23.9277 18.3135 23.838 18.2293 23.7756 18.1259C23.7132 18.0226 23.6805 17.904 23.6812 17.7832V7.46139C23.6737 7.37034 23.6851 7.27871 23.7147 7.1923C23.7444 7.10588 23.7917 7.02655 23.8535 6.95933C23.9154 6.89211 23.9906 6.83845 24.0742 6.80175C24.1579 6.76504 24.2483 6.74609 24.3396 6.74609C24.431 6.74609 24.5214 6.76504 24.605 6.80175C24.6887 6.83845 24.7638 6.89211 24.8257 6.95933C24.8876 7.02655 24.9349 7.10588 24.9645 7.1923C24.9942 7.27871 25.0056 7.37034 24.998 7.46139V16.5388L27.0162 15.1315C27.1384 15.0463 27.2858 15.0048 27.4344 15.0138C27.5831 15.0229 27.7244 15.0819 27.8353 15.1813L30.3105 17.4439L32.9216 15.0682C33.0316 14.9673 33.1726 14.907 33.3215 14.8971C33.4704 14.8872 33.6183 14.9284 33.7406 15.0139L35.9851 16.5388V7.46139C35.9775 7.37034 35.9889 7.27871 36.0186 7.1923C36.0482 7.10588 36.0955 7.02655 36.1574 6.95933C36.2193 6.89211 36.2944 6.83845 36.3781 6.80175C36.4617 6.76504 36.5521 6.74609 36.6435 6.74609C36.7348 6.74609 36.8252 6.76504 36.9089 6.80175C36.9926 6.83845 37.0677 6.89211 37.1296 6.95933C37.1915 7.02655 37.2387 7.10588 37.2684 7.1923C37.298 7.27871 37.3094 7.37034 37.3019 7.46139V17.8013C37.3018 17.9218 37.2688 18.04 37.2064 18.143C37.144 18.2461 37.0546 18.3301 36.9479 18.386C36.8412 18.4419 36.7212 18.4676 36.6009 18.4603C36.4807 18.4529 36.3647 18.4128 36.2656 18.3444L33.4419 16.3759L30.7766 18.8059C30.6516 18.9191 30.4882 18.9806 30.3196 18.9779Z" fill="white" stroke="white" stroke-width="0.5"/>
</g>
<defs>
<clipPath id="clip0_569_648">
<rect width="45.2514" height="45.2514" fill="white" transform="translate(0.688965)"/>
</clipPath>
</defs>
</svg>
