<svg width="70" height="70" viewBox="0 0 70 70" fill="none" xmlns="http://www.w3.org/2000/svg">
<g clip-path="url(#clip0_893_1908)">
<path d="M8.94614 48.6714C8.91604 48.7029 8.89016 48.7382 8.86914 48.7764C8.89808 48.7297 8.93343 48.6873 8.97414 48.6504L8.94614 48.6714Z" fill="#E21016"/>
<path d="M69.6851 54.7549L47.3831 32.4459L56.1121 23.7239H56.1541V23.6749L60.9351 18.9009V18.8659L63.9171 15.8909C65.388 14.4194 66.2142 12.424 66.2142 10.3434C66.2142 8.26283 65.388 6.26741 63.9171 4.79591C63.1882 4.0655 62.3224 3.48601 61.3693 3.09063C60.4162 2.69525 59.3944 2.49174 58.3626 2.49174C57.3307 2.49174 56.309 2.69525 55.3558 3.09063C54.4027 3.48601 53.5369 4.0655 52.8081 4.79591L49.8331 7.77091L45.0521 12.5519L36.2811 21.3509L31.9411 17.0179L19.5511 4.62091L15.2461 0.308908C15.0456 0.110983 14.7753 0 14.4936 0C14.2119 0 13.9415 0.110983 13.7411 0.308908L0.308068 13.7489C0.209062 13.8467 0.130765 13.9634 0.0778482 14.0921C0.0249309 14.2208 -0.00152205 14.3588 6.76218e-05 14.4979C-0.000734545 14.6369 0.0260782 14.7747 0.0789503 14.9033C0.131822 15.0319 0.209701 15.1487 0.308068 15.2469L21.3431 36.2819L8.97407 48.6509C8.93335 48.6878 8.89801 48.7302 8.86907 48.7769C8.80065 48.8635 8.74632 48.9604 8.70807 49.0639V49.1059L2.80007 65.1429C2.73052 65.3352 2.71865 65.5437 2.7659 65.7426C2.81316 65.9416 2.91748 66.1224 3.06607 66.2629C3.25188 66.4497 3.50266 66.5576 3.76607 66.5639C3.92515 66.5786 4.0855 66.5571 4.23507 66.5009L19.7121 60.0329C19.7607 60.0138 19.8076 59.9904 19.8521 59.9629C19.9441 59.9088 20.0268 59.8403 20.0971 59.7599L32.4451 47.3909L54.7541 69.6929C54.8525 69.791 54.9694 69.8687 55.0979 69.9215C55.2264 69.9743 55.3641 70.0013 55.5031 70.0009C55.6423 70.0033 55.7806 69.9772 55.9094 69.9243C56.0382 69.8713 56.1548 69.7926 56.2521 69.6929L69.6851 56.2599C69.7848 56.1616 69.8639 56.0444 69.9179 55.9152C69.972 55.7861 69.9998 55.6474 69.9998 55.5074C69.9998 55.3674 69.972 55.2288 69.9179 55.0996C69.8639 54.9704 69.7848 54.8532 69.6851 54.7549ZM54.3761 6.25891C54.9079 5.72666 55.5393 5.30437 56.2343 5.01614C56.9293 4.72792 57.6742 4.5794 58.4266 4.57908C59.179 4.57875 59.9241 4.72662 60.6193 5.01425C61.3145 5.30187 61.9463 5.72362 62.4786 6.25541C63.0108 6.7872 63.4331 7.41861 63.7213 8.1136C64.0096 8.80859 64.1581 9.55355 64.1584 10.3059C64.1587 11.0583 64.0109 11.8034 63.7232 12.4986C63.4356 13.1939 63.0139 13.8257 62.4821 14.3579L60.2001 16.6119L52.1431 8.48491L54.3761 6.25891ZM50.6451 9.98291L58.7231 18.1099L55.4051 21.4279L47.3271 13.3009L50.6451 9.98291ZM2.56207 14.4979L14.4971 2.59791L17.3321 5.43291L11.6901 11.2009C11.4926 11.4002 11.3818 11.6694 11.3818 11.9499C11.3818 12.2305 11.4926 12.4997 11.6901 12.6989C11.7884 12.7986 11.9056 12.8777 12.0347 12.9318C12.1639 12.9858 12.3025 13.0136 12.4426 13.0136C12.5826 13.0136 12.7212 12.9858 12.8504 12.9318C12.9796 12.8777 13.0967 12.7986 13.1951 12.6989L18.7951 6.91691L23.8351 11.9569C23.7578 12.0003 23.687 12.0545 23.6251 12.1179L20.0061 15.8559C19.9072 15.9547 19.8288 16.072 19.7753 16.2011C19.7218 16.3303 19.6943 16.4687 19.6943 16.6084C19.6943 16.7482 19.7218 16.8866 19.7753 17.0157C19.8288 17.1448 19.9072 17.2621 20.0061 17.3609C20.1935 17.5454 20.4433 17.6528 20.7061 17.6619C20.8488 17.6607 20.9897 17.6309 21.1208 17.5744C21.2518 17.5179 21.3702 17.4358 21.4691 17.3329L25.2001 13.5879C25.2556 13.5284 25.307 13.4653 25.3541 13.3989L29.7361 17.7879L24.1361 23.5979C23.9867 23.7466 23.8852 23.9365 23.8446 24.1433C23.8039 24.3501 23.8261 24.5643 23.9081 24.7584C23.9901 24.9525 24.1283 25.1177 24.3048 25.2327C24.4814 25.3478 24.6884 25.4074 24.8991 25.4039C25.0404 25.4046 25.1803 25.3764 25.3104 25.3211C25.4404 25.2657 25.5577 25.1843 25.6551 25.0819L31.2551 19.2859L34.8251 22.8489L22.9251 34.7489L2.56207 14.4979ZM5.65607 63.5889L10.1221 51.3529L17.4371 58.6609L5.65607 63.5889ZM30.9471 45.8859L19.3061 57.5339L11.2001 49.4349L22.8481 37.8009L24.3461 36.2959L45.8291 14.7989L53.9001 22.9259L45.8851 30.9479L44.3871 32.4529L32.4871 44.3529L30.9471 45.8859ZM55.5031 67.4389L33.9501 45.8859L45.8501 33.9859L49.4901 37.6259L43.8341 43.4709C43.6905 43.6212 43.5941 43.8102 43.5567 44.0147C43.5194 44.2191 43.5427 44.43 43.6238 44.6214C43.705 44.8127 43.8404 44.9761 44.0134 45.0914C44.1863 45.2066 44.3892 45.2687 44.5971 45.2699C44.7392 45.2692 44.8798 45.2404 45.0107 45.1851C45.1417 45.1298 45.2604 45.0492 45.3601 44.9479L51.0021 39.1309L56.0491 44.1849C55.9572 44.2305 55.8742 44.2921 55.8041 44.3669L52.1781 48.1049C52.0335 48.2543 51.9362 48.443 51.8984 48.6474C51.8605 48.8517 51.8837 49.0628 51.9652 49.254C52.0466 49.4452 52.1826 49.6082 52.3562 49.7226C52.5298 49.8369 52.7332 49.8976 52.9411 49.8969C53.2291 49.8969 53.5056 49.7838 53.7111 49.5819L57.3231 45.8369C57.3866 45.7724 57.4408 45.6994 57.4841 45.6199L61.8871 50.0159L56.2241 55.8609C56.0805 56.0112 55.9841 56.2002 55.9467 56.4047C55.9094 56.6091 55.9327 56.82 56.0138 57.0114C56.095 57.2027 56.2304 57.3661 56.4034 57.4814C56.5763 57.5966 56.7792 57.6587 56.9871 57.6599C57.1294 57.6608 57.2705 57.6327 57.4017 57.5773C57.5328 57.522 57.6514 57.4405 57.7501 57.3379L63.3501 51.5209L67.3681 55.5389L55.5031 67.4389Z" fill="#E21016"/>
</g>
<defs>
<clipPath id="clip0_893_1908">
<rect width="70" height="70" fill="white"/>
</clipPath>
</defs>
</svg>
