<svg width="90" height="88" viewBox="0 0 90 88" fill="none" xmlns="http://www.w3.org/2000/svg">
<path d="M62.1001 54.8008C62.2171 54.7288 62.3341 54.6388 62.4601 54.5488C62.3328 54.6219 62.2123 54.7062 62.1001 54.8008Z" fill="#E21016"/>
<path d="M30.0595 52.7945C29.6275 52.5155 29.2045 52.2275 28.7905 51.8945H28.8355C29.2643 52.1653 29.6733 52.466 30.0595 52.7945Z" fill="#E21016"/>
<path d="M60.957 52.1016C60.687 52.2996 60.426 52.4976 60.147 52.6776C60.406 52.4706 60.6765 52.2783 60.957 52.1016Z" fill="#E21016"/>
<path d="M44.9997 0.314674C38.5877 0.309605 32.3437 2.36484 27.1882 6.1774C22.0328 9.98995 18.2387 15.3581 16.3653 21.4903C14.492 27.6226 14.6385 34.1945 16.7832 40.2372C18.928 46.2799 22.9575 51.4736 28.2777 55.0527C30.5403 56.9654 32.036 59.6309 32.4897 62.5587C31.5523 62.7688 30.714 63.2911 30.1122 64.04C29.5105 64.7889 29.181 65.72 29.1777 66.6807V75.0057C29.1801 76.126 29.6268 77.1996 30.4198 77.9909C31.2128 78.7823 32.2874 79.2267 33.4077 79.2267H35.8467C36.0235 81.5211 37.0598 83.6643 38.7484 85.2278C40.437 86.7913 42.6534 87.6599 44.9547 87.6599C47.256 87.6599 49.4724 86.7913 51.161 85.2278C52.8496 83.6643 53.8859 81.5211 54.0627 79.2267H56.5107C57.6295 79.2243 58.7017 78.7788 59.4928 77.9877C60.2839 77.1967 60.7293 76.1244 60.7317 75.0057V66.7077C60.7284 65.747 60.3989 64.8159 59.7972 64.067C59.1955 63.3181 58.3572 62.7958 57.4197 62.5857C57.8697 59.5649 59.445 56.8258 61.8297 54.9177L62.0997 54.8007C62.2119 54.7061 62.3324 54.6218 62.4597 54.5487L62.6307 54.4317L62.8827 54.2427L62.9367 54.1977C67.9901 50.4442 71.7294 45.1911 73.6214 39.1873C75.5135 33.1836 75.4617 26.7357 73.4735 20.7631C71.4853 14.7905 67.6622 9.59807 62.5492 5.9262C57.4362 2.25434 51.2945 0.29049 44.9997 0.314674ZM44.9997 84.8247C43.4618 84.8152 41.9804 84.2435 40.8348 83.2173C39.6893 82.1911 38.9586 80.7813 38.7807 79.2537H51.2187C51.0408 80.7813 50.3102 82.1911 49.1646 83.2173C48.019 84.2435 46.5377 84.8152 44.9997 84.8247ZM57.9147 66.7077V75.0327C57.9147 75.3939 57.7718 75.7405 57.5172 75.9968C57.2626 76.2531 56.917 76.3983 56.5557 76.4007H33.4527C33.0914 76.4007 32.7448 76.2578 32.4886 76.0032C32.2323 75.7486 32.0871 75.4029 32.0847 75.0417V66.7077C32.0859 66.5292 32.1222 66.3527 32.1916 66.1883C32.261 66.0239 32.3621 65.8747 32.4891 65.7494C32.6161 65.624 32.7666 65.5249 32.932 65.4577C33.0973 65.3905 33.2742 65.3565 33.4527 65.3577H56.5557C56.9146 65.3577 57.2589 65.4996 57.5135 65.7525C57.7681 66.0054 57.9123 66.3488 57.9147 66.7077ZM61.0557 51.9837L60.9567 52.0557C60.6867 52.2537 60.4257 52.4517 60.1467 52.6317L60.0837 52.6857C58.273 54.1323 56.8247 55.9813 55.8537 58.0857C55.2141 59.4688 54.7863 60.9402 54.5847 62.4507H35.4147C34.8952 58.6564 32.9676 55.1963 30.0147 52.7577C29.5827 52.4787 29.1597 52.1907 28.7457 51.8577C24.1725 48.4535 20.7894 43.6937 19.0778 38.2555C17.3663 32.8174 17.4134 26.978 19.2125 21.5682C21.0117 16.1584 24.4711 11.4538 29.0987 8.12389C33.7263 4.79395 39.2862 3.00831 44.9873 3.02103C50.6884 3.03375 56.2402 4.84419 60.8529 8.19475C65.4655 11.5453 68.904 16.2653 70.679 21.683C72.4539 27.1008 72.475 32.9404 70.7392 38.3708C69.0034 43.8013 65.5991 48.5459 61.0107 51.9297L61.0557 51.9837Z" fill="#E21016"/>
<path d="M46.5933 47.8522C46.5704 47.6638 46.5704 47.4735 46.5933 47.2852C46.5933 47.4832 46.6023 47.6722 46.5933 47.8522Z" fill="#E21016"/>
<path d="M63.8999 31.0039C64.5752 30.2666 65.0783 29.3886 65.3728 28.4332C65.6674 27.4778 65.746 26.4689 65.603 25.4794C65.4601 24.4899 65.0991 23.5445 64.5462 22.7115C63.9933 21.8785 63.2622 21.1788 62.4059 20.6629C62.452 19.6173 62.2473 18.5758 61.8089 17.6255C61.3706 16.6751 60.7112 15.8434 59.8859 15.1999C58.6506 14.2404 57.1095 13.7608 55.5479 13.8499C54.4813 12.1394 52.7976 10.9049 50.8455 10.4023C48.8935 9.89959 46.8229 10.1673 45.0629 11.1499C44.0056 10.6367 42.8451 10.372 41.6699 10.3759C40.3331 10.3783 39.0191 10.7218 37.8521 11.3738C36.6851 12.0258 35.7037 12.9648 35.0009 14.1019C33.4386 14.0078 31.8959 14.4879 30.6629 15.4519C29.8374 16.1019 29.1801 16.9406 28.7463 17.8975C28.3124 18.8545 28.1148 19.9016 28.1699 20.9509C27.3139 21.4681 26.5833 22.1686 26.0304 23.002C25.4776 23.8354 25.1163 24.781 24.9726 25.7707C24.8289 26.7604 24.9063 27.7697 25.1992 28.7259C25.4922 29.6821 25.9934 30.5615 26.6669 31.3009C26.2246 31.8681 25.8835 32.5075 25.6589 33.1909C25.1418 34.7821 25.2512 36.5106 25.9649 38.0239C26.6144 39.4207 27.7274 40.5496 29.1149 41.2189C28.8046 42.6639 29.0192 44.1723 29.7201 45.4735C30.421 46.7748 31.5625 47.7838 32.9399 48.3199C33.1624 48.4036 33.3911 48.4698 33.6239 48.5179C33.7402 49.9162 34.4071 51.2111 35.4779 52.1179C36.042 52.6902 36.7146 53.1443 37.4564 53.4533C38.1982 53.7624 38.9943 53.9203 39.7979 53.9179C41.7206 53.8853 43.5522 53.0925 44.8919 51.7129C45.0636 51.545 45.2258 51.3677 45.3779 51.1819C45.4589 51.2809 45.5579 51.3889 45.6569 51.4879C46.8837 52.742 48.5176 53.5175 50.2649 53.6749H50.7779C51.5773 53.6758 52.3688 53.517 53.106 53.2079C53.8432 52.8988 54.5112 52.4456 55.0709 51.8749C56.1417 50.9681 56.8086 49.6732 56.9249 48.2749C57.1574 48.2255 57.386 48.1594 57.6089 48.0769C58.9874 47.5423 60.13 46.5335 60.8311 45.2319C61.5323 43.9302 61.746 42.421 61.4339 40.9759C62.8374 40.2895 63.9531 39.1292 64.5839 37.6999C65.3021 36.1877 65.4116 34.4575 64.8899 32.8669C64.6679 32.1942 64.3331 31.5642 63.8999 31.0039ZM43.0379 49.7689C41.5259 51.2809 38.9789 51.8479 37.3319 50.2009C36.766 49.7512 36.3823 49.1117 36.2519 48.4009C37.2896 48.1465 38.2501 47.644 39.0507 46.9363C39.8512 46.2287 40.4679 45.3372 40.8478 44.3385C41.2276 43.3399 41.3591 42.2639 41.2311 41.2031C41.1031 40.1423 40.7194 39.1285 40.1129 38.2489C39.9125 37.9726 39.6118 37.7859 39.2753 37.7287C38.9388 37.6715 38.5933 37.7483 38.3129 37.9429C38.0404 38.1461 37.8566 38.4465 37.7996 38.7816C37.7426 39.1168 37.8169 39.461 38.0069 39.7429C38.3632 40.2638 38.5893 40.8627 38.666 41.4891C38.7427 42.1156 38.6679 42.7513 38.4479 43.3429C38.2018 44.0586 37.7488 44.6852 37.1465 45.1433C36.5441 45.6015 35.8193 45.8707 35.0639 45.9169H34.9019C34.5438 45.9377 34.1848 45.8982 33.8399 45.7999C32.9496 45.4293 32.2419 44.7219 31.871 43.8317C31.5001 42.9416 31.4961 41.9409 31.8599 41.0479C31.8599 40.9849 31.9049 40.9309 31.9229 40.8769C32.0007 40.701 32.0388 40.5102 32.0343 40.3179C32.0298 40.1257 31.9829 39.9368 31.8969 39.7649C31.8109 39.5929 31.6879 39.442 31.5368 39.3231C31.3858 39.2041 31.2102 39.1201 31.0229 39.0769C30.4901 38.9461 29.9899 38.7073 29.5533 38.3752C29.1166 38.0431 28.7528 37.6249 28.4845 37.1464C28.2162 36.668 28.049 36.1395 27.9933 35.5937C27.9376 35.048 27.9947 34.4966 28.1609 33.9739C28.291 33.5335 28.5133 33.1259 28.8129 32.778C29.1125 32.4301 29.4827 32.1498 29.8988 31.9558C30.315 31.7618 30.7676 31.6584 31.2267 31.6525C31.6858 31.6467 32.1409 31.7385 32.5619 31.9219C33.1441 32.1657 33.6617 32.5413 34.074 33.0192C34.4863 33.4971 34.782 34.0642 34.9379 34.6759C35.0202 35.0124 35.2329 35.3025 35.5291 35.4822C35.8253 35.662 36.1808 35.7167 36.5174 35.6344C36.8539 35.552 37.144 35.3393 37.3238 35.0431C37.5035 34.7469 37.5582 34.3914 37.4759 34.0549C37.3766 33.6295 37.2318 33.2161 37.0439 32.8219C36.3433 31.3046 35.0916 30.1108 33.5429 29.4829C32.7868 29.1708 31.9743 29.0185 31.1565 29.0355C30.3387 29.0526 29.5333 29.2386 28.7909 29.5819H28.7279C28.2535 29.1033 27.9032 28.5163 27.7072 27.8716C27.5112 27.227 27.4755 26.5442 27.6032 25.8827C27.7309 25.2211 28.0181 24.6007 28.44 24.0753C28.8618 23.5499 29.4055 23.1355 30.0239 22.8679L30.1589 22.8139C30.6397 22.6217 31.1531 22.5239 31.6709 22.5259C32.3161 22.5293 32.9518 22.6823 33.528 22.9727C34.1042 23.2632 34.6053 23.6832 34.9919 24.1999C35.2091 24.448 35.5117 24.6053 35.8395 24.6407C36.1673 24.6761 36.4965 24.5869 36.7617 24.3909C37.0268 24.1948 37.2086 23.9063 37.2709 23.5825C37.3331 23.2587 37.2714 22.9233 37.0979 22.6429C36.4663 21.8076 35.6504 21.1294 34.7137 20.6611C33.7771 20.1928 32.745 19.947 31.6979 19.9429C31.421 19.9426 31.1444 19.9607 30.8699 19.9969C31.0136 18.9798 31.5539 18.0609 32.3729 17.4409C33.2854 16.8076 34.4104 16.5587 35.5049 16.7479C35.7913 16.7906 36.0839 16.7369 36.3364 16.5952C36.589 16.4534 36.7872 16.2317 36.8999 15.9649C37.3193 15.0592 37.9883 14.292 38.8284 13.7532C39.6685 13.2144 40.6448 12.9263 41.6429 12.9229C42.4392 12.9242 43.2245 13.109 43.9379 13.4629V47.3569C43.9466 47.5157 43.9466 47.675 43.9379 47.8339C43.9484 48.2041 43.8726 48.5718 43.7164 48.9076C43.5602 49.2435 43.3279 49.5384 43.0379 49.7689ZM53.9999 35.3779C54.3376 35.4623 54.6951 35.4093 54.9937 35.2304C55.2924 35.0515 55.5079 34.7615 55.5929 34.4239C55.6554 34.167 55.7428 33.9168 55.8539 33.6769C56.2725 32.7604 57.026 32.039 57.9599 31.6609C58.3808 31.4775 58.8359 31.3857 59.2951 31.3915C59.7542 31.3974 60.2068 31.5008 60.6229 31.6948C61.0391 31.8888 61.4092 32.1691 61.7088 32.517C62.0085 32.8649 62.2307 33.2725 62.3609 33.7129C62.5271 34.2356 62.5841 34.787 62.5285 35.3327C62.4728 35.8785 62.3056 36.407 62.0373 36.8854C61.7689 37.3639 61.4051 37.7821 60.9685 38.1142C60.5318 38.4463 60.0316 38.6851 59.4989 38.8159C59.3066 38.8567 59.1259 38.9401 58.9701 39.0601C58.8144 39.18 58.6875 39.3334 58.5989 39.5089C58.5166 39.6866 58.474 39.88 58.474 40.0759C58.474 40.2717 58.5166 40.4651 58.5989 40.6429C58.5989 40.6429 58.5989 40.7419 58.6619 40.7959C59.0288 41.6912 59.0265 42.6955 58.6556 43.5892C58.2846 44.4829 57.575 45.1935 56.6819 45.5659C56.3466 45.6858 55.9939 45.7496 55.6379 45.7549H55.4849C54.7307 45.7082 54.0073 45.4386 53.4065 44.9804C52.8056 44.5222 52.3544 43.8958 52.1099 43.1809C51.8848 42.5907 51.8064 41.9547 51.8817 41.3276C51.957 40.7004 52.1835 40.101 52.5419 39.5809C52.6555 39.4411 52.7392 39.2795 52.7878 39.1061C52.8364 38.9327 52.8488 38.7511 52.8243 38.5727C52.7997 38.3943 52.7388 38.2228 52.6452 38.0689C52.5516 37.9151 52.4274 37.7821 52.2803 37.6782C52.1331 37.5743 51.9662 37.5018 51.7899 37.4652C51.6136 37.4285 51.4316 37.4285 51.2552 37.4652C51.0789 37.5018 50.912 37.5743 50.7648 37.6781C50.6177 37.782 50.4935 37.915 50.3999 38.0689C49.7934 38.9485 49.4096 39.9623 49.2816 41.0231C49.1536 42.0839 49.2852 43.1599 49.665 44.1585C50.0448 45.1572 50.6615 46.0487 51.4621 46.7563C52.2627 47.464 53.2231 47.9665 54.2609 48.2209C54.1296 48.9314 53.7461 49.5707 53.1809 50.0209C51.5249 51.6769 48.9869 51.1009 47.4749 49.5889C47.216 49.3844 47.0024 49.1285 46.8475 48.8372C46.6925 48.546 46.5997 48.2258 46.5749 47.8969C46.552 47.7085 46.552 47.5182 46.5749 47.3299C46.5704 47.2579 46.5704 47.1858 46.5749 47.1139V13.2379C47.2889 12.8868 48.0742 12.7051 48.8699 12.7069C49.8674 12.7073 50.844 12.9931 51.6844 13.5306C52.5248 14.068 53.1939 14.8345 53.6129 15.7399C53.7339 16.0098 53.9436 16.2301 54.2072 16.3644C54.4708 16.4986 54.7724 16.5387 55.0619 16.4779C56.1592 16.2882 57.2872 16.5371 58.2029 17.1709C59.0204 17.7832 59.5662 18.6907 59.7239 19.6999C59.4464 19.6636 59.1668 19.6456 58.8869 19.6459C57.8397 19.65 56.8076 19.8958 55.871 20.3641C54.9344 20.8324 54.1185 21.5106 53.4869 22.3459C53.3004 22.6261 53.2285 22.9672 53.2862 23.2989C53.3438 23.6305 53.5266 23.9274 53.7967 24.1283C54.0668 24.3292 54.4038 24.4187 54.738 24.3784C55.0722 24.3381 55.3782 24.1711 55.5929 23.9119C55.9794 23.393 56.4817 22.9715 57.0598 22.6808C57.6379 22.3902 58.2758 22.2385 58.9229 22.2379C59.4437 22.2352 59.9601 22.3329 60.4439 22.5259L60.6599 22.6159C61.2634 22.896 61.7906 23.3171 62.1972 23.8438C62.6038 24.3704 62.8778 24.9871 62.996 25.6419C63.1143 26.2966 63.0733 26.9702 62.8766 27.6058C62.6799 28.2414 62.3333 28.8203 61.8659 29.2939H61.8029C61.0604 28.9499 60.2545 28.7642 59.4364 28.7487C58.6182 28.7332 57.8058 28.8882 57.0509 29.2039C55.5001 29.8287 54.2474 31.0234 53.5499 32.5429C53.3567 32.943 53.2058 33.3623 53.0999 33.7939C53.0113 34.1232 53.0561 34.4742 53.2246 34.7707C53.3931 35.0672 53.6716 35.2853 53.9999 35.3779Z" fill="#E21016"/>
<path d="M43.9741 47.835C43.9827 47.6762 43.9827 47.5169 43.9741 47.358V46.998C43.9514 47.2766 43.9514 47.5565 43.9741 47.835Z" fill="#E21016"/>
<path d="M88.6858 31.6391H82.9798C82.7987 31.6542 82.6165 31.6315 82.4446 31.5725C82.2727 31.5135 82.1149 31.4195 81.9812 31.2964C81.8475 31.1734 81.7408 31.0239 81.6678 30.8575C81.5948 30.6911 81.5571 30.5113 81.5571 30.3296C81.5571 30.1479 81.5948 29.9682 81.6678 29.8018C81.7408 29.6354 81.8475 29.4859 81.9812 29.3628C82.1149 29.2398 82.2727 29.1458 82.4446 29.0868C82.6165 29.0278 82.7987 29.0051 82.9798 29.0201H88.6858C88.8669 29.0051 89.0491 29.0278 89.221 29.0868C89.3929 29.1458 89.5506 29.2398 89.6843 29.3628C89.818 29.4859 89.9248 29.6354 89.9978 29.8018C90.0708 29.9682 90.1084 30.1479 90.1084 30.3296C90.1084 30.5113 90.0708 30.6911 89.9978 30.8575C89.9248 31.0239 89.818 31.1734 89.6843 31.2964C89.5506 31.4195 89.3929 31.5135 89.221 31.5725C89.0491 31.6315 88.8669 31.6542 88.6858 31.6391Z" fill="#E21016"/>
<path d="M88.6858 31.6391H82.9798C82.7987 31.6542 82.6165 31.6315 82.4446 31.5725C82.2727 31.5135 82.1149 31.4195 81.9812 31.2964C81.8475 31.1734 81.7408 31.0239 81.6678 30.8575C81.5948 30.6911 81.5571 30.5113 81.5571 30.3296C81.5571 30.1479 81.5948 29.9682 81.6678 29.8018C81.7408 29.6354 81.8475 29.4859 81.9812 29.3628C82.1149 29.2398 82.2727 29.1458 82.4446 29.0868C82.6165 29.0278 82.7987 29.0051 82.9798 29.0201H88.6858C88.8669 29.0051 89.0491 29.0278 89.221 29.0868C89.3929 29.1458 89.5506 29.2398 89.6843 29.3628C89.818 29.4859 89.9248 29.6354 89.9978 29.8018C90.0708 29.9682 90.1084 30.1479 90.1084 30.3296C90.1084 30.5113 90.0708 30.6911 89.9978 30.8575C89.9248 31.0239 89.818 31.1734 89.6843 31.2964C89.5506 31.4195 89.3929 31.5135 89.221 31.5725C89.0491 31.6315 88.8669 31.6542 88.6858 31.6391Z" fill="#E21016"/>
<path d="M80.2709 19.1921C79.9949 19.1903 79.7262 19.1027 79.5021 18.9414C79.2779 18.7802 79.1095 18.5533 79.0199 18.2921C78.9609 18.1263 78.9358 17.9502 78.9461 17.7744C78.9564 17.5986 79.002 17.4267 79.0801 17.2689C79.1582 17.111 79.2672 16.9705 79.4006 16.8556C79.5341 16.7408 79.6892 16.6539 79.8569 16.6001L85.2569 14.8001C85.5863 14.6915 85.9454 14.7182 86.2551 14.8744C86.5648 15.0305 86.7998 15.3032 86.9084 15.6326C87.017 15.962 86.9903 16.3211 86.8342 16.6308C86.6781 16.9405 86.4053 17.1755 86.0759 17.2841L80.6759 19.0841C80.5478 19.1422 80.411 19.1787 80.2709 19.1921Z" fill="#E21016"/>
<path d="M85.212 46.4086C84.9819 46.4097 84.7554 46.3508 84.555 46.2376L79.614 43.3846C79.3121 43.2104 79.0917 42.9233 79.0014 42.5866C78.9111 42.2499 78.9583 41.8911 79.1325 41.5891C79.3068 41.2872 79.5938 41.0668 79.9305 40.9765C80.2673 40.8862 80.6261 40.9334 80.928 41.1076L85.869 43.9606C86.1176 44.1061 86.3114 44.3292 86.4208 44.5957C86.5302 44.8621 86.549 45.1571 86.4743 45.4352C86.3997 45.7134 86.2357 45.9593 86.0076 46.1352C85.7796 46.3111 85.5 46.4071 85.212 46.4086Z" fill="#E21016"/>
<path d="M79.8124 58.3255C79.6442 58.3239 79.478 58.2888 79.3235 58.2224C79.169 58.1559 79.0292 58.0594 78.9124 57.9385L74.8714 53.9065C74.6524 53.6556 74.5368 53.3308 74.5481 52.9979C74.5594 52.6651 74.6967 52.3489 74.9322 52.1134C75.1677 51.8779 75.4839 51.7406 75.8168 51.7293C76.1497 51.718 76.4744 51.8335 76.7254 52.0525L80.7664 56.0845C80.9478 56.2666 81.0718 56.4979 81.1231 56.7498C81.1743 57.0017 81.1506 57.2631 81.0548 57.5016C80.959 57.7401 80.7954 57.9453 80.5841 58.0917C80.3729 58.2382 80.1233 58.3195 79.8664 58.3255H79.8124Z" fill="#E21016"/>
<path d="M80.7387 4.62236L76.6977 8.66336C76.4574 8.90025 76.1351 9.0356 75.7977 9.04136C75.4607 9.03379 75.1391 8.89871 74.8977 8.66336C74.7753 8.54203 74.678 8.39764 74.6117 8.23853C74.5454 8.07942 74.5112 7.90874 74.5112 7.73636C74.5112 7.56398 74.5454 7.3933 74.6117 7.23419C74.678 7.07508 74.7753 6.93069 74.8977 6.80936L78.9387 2.76836C79.0571 2.6327 79.2021 2.52281 79.3647 2.44553C79.5274 2.36825 79.7042 2.32522 79.8841 2.31912C80.0641 2.31301 80.2434 2.34395 80.4109 2.41003C80.5784 2.4761 80.7305 2.5759 80.8578 2.70322C80.9852 2.83054 81.085 2.98268 81.151 3.15018C81.2171 3.31768 81.2481 3.49697 81.2419 3.67693C81.2358 3.85689 81.1928 4.03367 81.1155 4.19631C81.0382 4.35895 80.9284 4.50396 80.7927 4.62236H80.7387Z" fill="#E21016"/>
<path d="M7.01977 31.6391H1.31377C1.13268 31.6542 0.950435 31.6315 0.778561 31.5725C0.606688 31.5135 0.448917 31.4195 0.315219 31.2964C0.18152 31.1734 0.0748002 31.0239 0.00180175 30.8575C-0.0711967 30.6911 -0.108887 30.5113 -0.108887 30.3296C-0.108887 30.1479 -0.0711967 29.9682 0.00180175 29.8018C0.0748002 29.6354 0.18152 29.4859 0.315219 29.3628C0.448917 29.2398 0.606688 29.1458 0.778561 29.0868C0.950435 29.0278 1.13268 29.0051 1.31377 29.0201H7.01977C7.20086 29.0051 7.3831 29.0278 7.55497 29.0868C7.72685 29.1458 7.88462 29.2398 8.01832 29.3628C8.15201 29.4859 8.25873 29.6354 8.33173 29.8018C8.40473 29.9682 8.44242 30.1479 8.44242 30.3296C8.44242 30.5113 8.40473 30.6911 8.33173 30.8575C8.25873 31.0239 8.15201 31.1734 8.01832 31.2964C7.88462 31.4195 7.72685 31.5135 7.55497 31.5725C7.3831 31.6315 7.20086 31.6542 7.01977 31.6391Z" fill="#E21016"/>
<path d="M7.01977 31.6391H1.31377C1.13268 31.6542 0.950435 31.6315 0.778561 31.5725C0.606688 31.5135 0.448917 31.4195 0.315219 31.2964C0.18152 31.1734 0.0748002 31.0239 0.00180175 30.8575C-0.0711967 30.6911 -0.108887 30.5113 -0.108887 30.3296C-0.108887 30.1479 -0.0711967 29.9682 0.00180175 29.8018C0.0748002 29.6354 0.18152 29.4859 0.315219 29.3628C0.448917 29.2398 0.606688 29.1458 0.778561 29.0868C0.950435 29.0278 1.13268 29.0051 1.31377 29.0201H7.01977C7.20086 29.0051 7.3831 29.0278 7.55497 29.0868C7.72685 29.1458 7.88462 29.2398 8.01832 29.3628C8.15201 29.4859 8.25873 29.6354 8.33173 29.8018C8.40473 29.9682 8.44242 30.1479 8.44242 30.3296C8.44242 30.5113 8.40473 30.6911 8.33173 30.8575C8.25873 31.0239 8.15201 31.1734 8.01832 31.2964C7.88462 31.4195 7.72685 31.5135 7.55497 31.5725C7.3831 31.6315 7.20086 31.6542 7.01977 31.6391Z" fill="#E21016"/>
<path d="M9.72817 19.1933C9.59017 19.1913 9.4534 19.167 9.32317 19.1213L3.92317 17.3213C3.76007 17.2675 3.60915 17.1821 3.47905 17.07C3.34894 16.9579 3.24219 16.8213 3.16488 16.6679C3.08758 16.5146 3.04124 16.3475 3.0285 16.1762C3.01577 16.005 3.03689 15.8329 3.09067 15.6698C3.14445 15.5067 3.22982 15.3557 3.34192 15.2256C3.45402 15.0955 3.59065 14.9888 3.744 14.9115C3.89736 14.8342 4.06444 14.7878 4.23571 14.7751C4.40697 14.7624 4.57907 14.7835 4.74217 14.8373L10.1422 16.6373C10.4724 16.7463 10.746 16.9818 10.9029 17.2923C11.0598 17.6027 11.0872 17.9626 10.9792 18.2933C10.8896 18.5544 10.7212 18.7813 10.497 18.9425C10.2729 19.1038 10.0043 19.1914 9.72817 19.1933Z" fill="#E21016"/>
<path d="M4.78818 46.4086C4.50018 46.4071 4.22064 46.3111 3.99257 46.1352C3.7645 45.9593 3.60052 45.7134 3.52587 45.4352C3.45121 45.1571 3.47002 44.8621 3.57938 44.5957C3.68875 44.3292 3.88262 44.1061 4.13118 43.9606L9.07218 41.1076C9.37413 40.9334 9.73293 40.8862 10.0697 40.9765C10.4064 41.0668 10.6934 41.2872 10.8677 41.5891C11.0419 41.8911 11.0891 42.2499 10.9988 42.5866C10.9085 42.9233 10.6881 43.2104 10.3862 43.3846L5.44518 46.2376C5.24478 46.3508 5.01833 46.4097 4.78818 46.4086Z" fill="#E21016"/>
<path d="M10.1878 58.3255C9.84889 58.3183 9.52612 58.1795 9.28776 57.9385C9.04481 57.6911 8.90869 57.3583 8.90869 57.0115C8.90869 56.6648 9.04481 56.3319 9.28776 56.0845L13.3288 52.0525C13.5797 51.8335 13.9045 51.718 14.2373 51.7293C14.5702 51.7406 14.8864 51.8779 15.1219 52.1134C15.3574 52.3489 15.4947 52.6651 15.506 52.9979C15.5173 53.3308 15.4018 53.6556 15.1828 53.9065L11.1418 57.9385C11.0186 58.0661 10.8701 58.1665 10.7058 58.2331C10.5415 58.2998 10.365 58.3312 10.1878 58.3255Z" fill="#E21016"/>
<path d="M14.2288 9.04033C13.8914 9.03457 13.5691 8.89922 13.3288 8.66233L9.28776 4.62133C9.04481 4.37394 8.90869 4.04107 8.90869 3.69433C8.90869 3.34759 9.04481 3.01472 9.28776 2.76733C9.4091 2.64488 9.55349 2.54768 9.7126 2.48135C9.87171 2.41501 10.0424 2.38086 10.2148 2.38086C10.3871 2.38086 10.5578 2.41501 10.7169 2.48135C10.876 2.54768 11.0204 2.64488 11.1418 2.76733L15.1828 6.80833C15.3052 6.92966 15.4024 7.07405 15.4687 7.23316C15.5351 7.39227 15.5692 7.56295 15.5692 7.73533C15.5692 7.90771 15.5351 8.07839 15.4687 8.2375C15.4024 8.39661 15.3052 8.541 15.1828 8.66233C15.0566 8.78528 14.9074 8.882 14.7436 8.94689C14.5799 9.01177 14.4049 9.04353 14.2288 9.04033Z" fill="#E21016"/>
</svg>
