<svg width="70" height="70" viewBox="0 0 70 70" fill="none" xmlns="http://www.w3.org/2000/svg">
<g clip-path="url(#clip0_593_3279)">
<path d="M34.9999 9.91945e-05C29.8626 -0.00417926 24.8599 1.64229 20.7293 4.69677C16.5987 7.75125 13.5588 12.0521 12.0578 16.9652C10.5568 21.8783 10.6742 27.1437 12.3925 31.9851C14.1109 36.8265 17.3394 40.9877 21.6019 43.8551H21.6369C23.4528 45.3846 24.6518 47.5212 25.0109 49.8681C24.2549 50.0374 23.5795 50.4602 23.0969 51.0663C22.6143 51.6724 22.3536 52.4254 22.3579 53.2001V59.8641C22.3598 60.7614 22.7175 61.6214 23.3527 62.2553C23.9879 62.8891 24.8486 63.2451 25.7459 63.2451H27.7059C27.8456 65.084 28.6746 66.8023 30.0271 68.056C31.3796 69.3096 33.1557 70.0062 34.9999 70.0062C36.8441 70.0062 38.6202 69.3096 39.9727 68.056C41.3252 66.8023 42.1543 65.084 42.2939 63.2451H44.2539C45.1513 63.2451 46.012 62.8891 46.6471 62.2553C47.2823 61.6214 47.6401 60.7614 47.6419 59.8641V53.2001C47.6399 52.4302 47.3762 51.6838 46.8942 51.0834C46.4121 50.483 45.7403 50.0644 44.9889 49.8961C45.3427 47.4807 46.5921 45.2867 48.4889 43.7501C48.6709 43.6171 48.8109 43.5121 48.9089 43.4561L49.0489 43.3651C49.1136 43.3099 49.1813 43.2585 49.2519 43.2111L49.4998 43.0001C53.5599 40.002 56.3632 36.0086 57.8915 31.1984C59.4199 26.3882 59.3893 21.2181 57.8042 16.4262C56.2191 11.6344 53.1605 7.46597 49.0651 4.51604C44.9698 1.56612 40.0471 -0.0144238 34.9999 9.91945e-05ZM34.9999 67.7041C33.7653 67.703 32.5744 67.2469 31.655 66.423C30.7355 65.5991 30.152 64.4652 30.0159 63.2381H39.9839C39.8479 64.4652 39.2644 65.5991 38.3449 66.423C37.4254 67.2469 36.2345 67.703 34.9999 67.7041ZM45.3459 53.2001V59.8641C45.3459 60.0075 45.3177 60.1495 45.2628 60.282C45.2079 60.4145 45.1275 60.5349 45.0261 60.6363C44.9247 60.7377 44.8043 60.8181 44.6718 60.873C44.5393 60.9279 44.3973 60.9561 44.2539 60.9561H25.7459C25.6025 60.9561 25.4605 60.9279 25.328 60.873C25.1955 60.8181 25.0752 60.7377 24.9738 60.6363C24.8724 60.5349 24.7919 60.4145 24.7371 60.282C24.6822 60.1495 24.6539 60.0075 24.6539 59.8641V53.2001C24.6539 53.057 24.6822 52.9154 24.7372 52.7833C24.7921 52.6512 24.8727 52.5312 24.9742 52.4304C25.0757 52.3296 25.1961 52.2498 25.3286 52.1957C25.461 52.1416 25.6029 52.1142 25.7459 52.1151H44.2539C44.397 52.1142 44.5388 52.1416 44.6713 52.1957C44.8037 52.2498 44.9242 52.3296 45.0257 52.4304C45.1272 52.5312 45.2077 52.6512 45.2627 52.7833C45.3176 52.9154 45.3459 53.057 45.3459 53.2001ZM33.8589 21.7001C32.8292 21.9768 31.9352 22.6184 31.3434 23.5052C30.7515 24.3921 30.5022 25.4639 30.6418 26.5209C30.7813 27.5779 31.3003 28.5482 32.1021 29.2511C32.9038 29.9539 33.9337 30.3414 34.9999 30.3414C36.0661 30.3414 37.096 29.9539 37.8978 29.2511C38.6995 28.5482 39.2185 27.5779 39.3581 26.5209C39.4977 25.4639 39.2483 24.3921 38.6565 23.5052C38.0646 22.6184 37.1706 21.9768 36.1409 21.7001V12.6001L43.9949 24.3391C42.5179 26.1171 38.8149 31.0101 38.7169 35.4341H31.0169C30.4809 31.3719 28.74 27.5635 26.0189 24.5001L33.8589 12.5161V21.7001ZM34.9999 23.8001C35.4153 23.8001 35.8213 23.9233 36.1666 24.154C36.512 24.3848 36.7811 24.7127 36.9401 25.0965C37.099 25.4802 37.1406 25.9024 37.0596 26.3098C36.9785 26.7171 36.7785 27.0913 36.4848 27.385C36.1912 27.6787 35.817 27.8787 35.4096 27.9597C35.0023 28.0408 34.58 27.9992 34.1963 27.8402C33.8126 27.6813 33.4846 27.4121 33.2538 27.0668C33.0231 26.7215 32.8999 26.3154 32.8999 25.9001C32.8999 25.3431 33.1212 24.809 33.515 24.4152C33.9088 24.0213 34.443 23.8001 34.9999 23.8001ZM41.6499 37.7301V39.2001H28.3499V37.7301H41.6499ZM32.0179 41.4751H37.9819V49.8121H32.0179V41.4751ZM47.8659 41.3981L47.7819 41.4541C47.5649 41.6151 47.3549 41.7691 47.1309 41.9161L47.0819 41.9581C45.6271 43.124 44.4666 44.6154 43.6939 46.3121C43.182 47.4213 42.8398 48.6011 42.6789 49.8121H40.2709V41.4751H42.1819C42.4127 41.476 42.6413 41.4315 42.8548 41.344C43.0684 41.2566 43.2626 41.1279 43.4264 40.9654C43.5902 40.8029 43.7204 40.6098 43.8095 40.3969C43.8987 40.1841 43.945 39.9558 43.9459 39.7251V37.1981C43.9441 36.7308 43.7576 36.2832 43.4272 35.9528C43.0968 35.6224 42.6492 35.4359 42.1819 35.4341H41.0059C41.1109 31.7031 44.7579 26.8801 46.2769 25.2071C46.4479 25.0191 46.5517 24.7796 46.572 24.5262C46.5923 24.2729 46.5279 24.0199 46.3889 23.8071L36.0709 8.3581L35.9169 8.1271C35.8259 7.99253 35.708 7.87827 35.5707 7.79153C35.4334 7.70479 35.2795 7.64744 35.1189 7.6231C35.0796 7.61587 35.0393 7.61587 34.9999 7.6231C34.9163 7.61241 34.8316 7.61241 34.7479 7.6231C34.5972 7.65179 34.4538 7.71059 34.3263 7.79599C34.1988 7.88138 34.0898 7.99162 34.0059 8.1201L23.6039 24.0381C23.4695 24.2547 23.411 24.5098 23.4377 24.7633C23.4643 25.0168 23.5745 25.2542 23.7509 25.4381C26.3942 28.1784 28.1232 31.6706 28.6999 35.4341H27.8179C27.3507 35.4359 26.903 35.6224 26.5726 35.9528C26.2422 36.2832 26.0558 36.7308 26.0539 37.1981V39.7251C26.0548 39.9558 26.1012 40.1841 26.1903 40.3969C26.2795 40.6098 26.4097 40.8029 26.5735 40.9654C26.7373 41.1279 26.9315 41.2566 27.145 41.344C27.3585 41.4315 27.5872 41.476 27.8179 41.4751H29.7289V49.8121H27.2999C26.8958 46.7752 25.364 44.0015 23.0089 42.0421C22.6659 41.8181 22.3089 41.5871 21.9939 41.3421C18.3341 38.6143 15.6277 34.802 14.2596 30.4473C12.8915 26.0927 12.9313 21.4175 14.3736 17.0868C15.8158 12.7561 18.5869 8.99048 22.2927 6.32556C25.9985 3.66064 30.4503 2.23215 35.0148 2.24327C39.5793 2.25439 44.0241 3.70457 47.7168 6.38752C51.4096 9.07047 54.1623 12.8496 55.5834 17.1872C57.0045 21.5249 57.0216 26.2002 55.6323 30.5481C54.243 34.8961 51.497 38.7162 47.8239 41.4261L47.8659 41.3981Z" fill="white" stroke="#141418" stroke-width="0.5"/>
<path d="M6.97172 23.6312H1.02828C0.755561 23.6312 0.494015 23.5206 0.301176 23.3237C0.108336 23.1268 0 22.8597 0 22.5812C0 22.3028 0.108336 22.0357 0.301176 21.8388C0.494015 21.6419 0.755561 21.5312 1.02828 21.5312H6.97172C7.24444 21.5312 7.50599 21.6419 7.69882 21.8388C7.89166 22.0357 8 22.3028 8 22.5812C8 22.8597 7.89166 23.1268 7.69882 23.3237C7.50599 23.5206 7.24444 23.6312 6.97172 23.6312Z" fill="white" stroke="#141418" stroke-width="0.5"/>
<path d="M6.9716 19.557C6.83655 19.5573 6.7028 19.5302 6.57807 19.4773C6.45334 19.4245 6.34012 19.3469 6.24495 19.249L2.05643 14.958C1.89513 14.7572 1.81245 14.5024 1.82437 14.243C1.83629 13.9835 1.94197 13.7378 2.12098 13.5533C2.29999 13.3687 2.53963 13.2585 2.79359 13.2439C3.04756 13.2292 3.29782 13.3112 3.49602 13.474L7.69825 17.765C7.88915 17.9628 7.99617 18.2293 7.99617 18.507C7.99617 18.7847 7.88915 19.0513 7.69825 19.249C7.50435 19.4441 7.24378 19.5545 6.9716 19.557Z" fill="white" stroke="#141418" stroke-width="0.5"/>
<path d="M2.74195 31.9968C2.5422 31.9887 2.34912 31.9212 2.18633 31.8027C2.02354 31.6842 1.8981 31.5199 1.82536 31.3297C1.75263 31.1396 1.73574 30.9319 1.77678 30.7321C1.81782 30.5324 1.915 30.3491 2.05643 30.2048L6.24495 25.8998C6.33995 25.8016 6.4531 25.7237 6.57784 25.6705C6.70258 25.6172 6.83642 25.5898 6.9716 25.5898C7.10678 25.5898 7.24062 25.6172 7.36536 25.6705C7.49009 25.7237 7.60324 25.8016 7.69825 25.8998C7.88915 26.0976 7.99617 26.3642 7.99617 26.6418C7.99617 26.9195 7.88915 27.1861 7.69825 27.3838L3.49602 31.6888C3.39716 31.7894 3.27939 31.8686 3.1498 31.9215C3.02022 31.9744 2.88148 32.0001 2.74195 31.9968Z" fill="white" stroke="#141418" stroke-width="0.5"/>
<path d="M68.9718 23.6312H63.0283C62.7556 23.6312 62.494 23.5206 62.3012 23.3237C62.1083 23.1268 62 22.8597 62 22.5812C62 22.3028 62.1083 22.0357 62.3012 21.8388C62.494 21.6419 62.7556 21.5312 63.0283 21.5312H68.9718C69.2445 21.5312 69.506 21.6419 69.6989 21.8388C69.8917 22.0357 70.0001 22.3028 70.0001 22.5812C70.0001 22.8597 69.8917 23.1268 69.6989 23.3237C69.506 23.5206 69.2445 23.6312 68.9718 23.6312Z" fill="white" stroke="#141418" stroke-width="0.5"/>
<path d="M67.2578 31.9965C66.9854 31.9955 66.7243 31.8848 66.5312 31.6885L62.3289 27.3975C62.138 27.1997 62.031 26.9332 62.031 26.6555C62.031 26.3778 62.138 26.1113 62.3289 25.9135C62.4239 25.8153 62.5371 25.7373 62.6618 25.6841C62.7866 25.6309 62.9204 25.6035 63.0556 25.6035C63.1908 25.6035 63.3246 25.6309 63.4493 25.6841C63.5741 25.7373 63.6872 25.8153 63.7822 25.9135L67.9434 30.2045C68.0848 30.3488 68.182 30.532 68.223 30.7318C68.2641 30.9316 68.2472 31.1393 68.1744 31.3294C68.1017 31.5195 67.9763 31.6839 67.8135 31.8024C67.6507 31.9209 67.4576 31.9883 67.2578 31.9965Z" fill="white" stroke="#141418" stroke-width="0.5"/>
<path d="M63.0285 19.557C62.7563 19.5545 62.4957 19.4441 62.3018 19.249C62.1109 19.0512 62.0039 18.7847 62.0039 18.507C62.0039 18.2293 62.1109 17.9628 62.3018 17.765L66.5041 13.474C66.5954 13.3603 66.709 13.2675 66.8377 13.2015C66.9664 13.1355 67.1072 13.0979 67.251 13.091C67.3948 13.0841 67.5384 13.1081 67.6726 13.1615C67.8067 13.2149 67.9284 13.2965 68.0297 13.4009C68.1311 13.5054 68.2098 13.6304 68.2608 13.7678C68.3118 13.9053 68.3339 14.0522 68.3258 14.199C68.3177 14.3458 68.2795 14.4892 68.2137 14.6199C68.1479 14.7507 68.0559 14.8659 67.9437 14.958L63.7551 19.249C63.66 19.3468 63.5467 19.4244 63.422 19.4773C63.2973 19.5302 63.1635 19.5573 63.0285 19.557Z" fill="white" stroke="#141418" stroke-width="0.5"/>
</g>
<defs>
<clipPath id="clip0_593_3279">
<rect width="70" height="70" fill="white"/>
</clipPath>
</defs>
</svg>
