<svg width="81" height="88" viewBox="0 0 81 88" fill="none" xmlns="http://www.w3.org/2000/svg">
<path d="M16.8545 47.707C14.6392 47.707 12.5146 48.5864 10.9473 50.152C9.38007 51.7176 8.49842 53.8414 8.49609 56.0566V60.2578C8.49805 61.4913 8.77243 62.7092 9.29964 63.8244C9.82685 64.9396 10.5939 65.9246 11.5459 66.709C13.0364 67.9236 14.8967 68.5933 16.8193 68.6074C18.7249 68.6278 20.5789 67.9881 22.0664 66.7969C23.0431 66.0136 23.8313 65.0209 24.3728 63.8921C24.9144 62.7634 25.1955 61.5274 25.1953 60.2754V56.0566C25.193 53.8444 24.3138 51.7233 22.7503 50.1582C21.1869 48.5931 19.0667 47.7117 16.8545 47.707ZM22.4883 60.2578C22.5183 61.0205 22.3941 61.7813 22.1229 62.4948C21.8518 63.2083 21.4394 63.8596 20.9104 64.4098C20.3815 64.9601 19.7468 65.3978 19.0446 65.6968C18.3424 65.9958 17.587 66.1499 16.8237 66.1499C16.0605 66.1499 15.3051 65.9958 14.6029 65.6968C13.9006 65.3978 13.266 64.9601 12.737 64.4098C12.2081 63.8596 11.7957 63.2083 11.5245 62.4948C11.2534 61.7813 11.1291 61.0205 11.1592 60.2578V56.0566C11.2168 54.5929 11.8389 53.2083 12.8949 52.1931C13.9509 51.1779 15.3589 50.6109 16.8237 50.6109C18.2886 50.6109 19.6966 51.1779 20.7526 52.1931C21.8086 53.2083 22.4306 54.5929 22.4883 56.0566V60.2578Z" fill="#E21016"/>
<path d="M32.1563 76.5791V80.5957C32.1523 81.3668 31.9506 82.1239 31.5705 82.7948C31.1905 83.4657 30.6447 84.0279 29.9854 84.4277L25.3008 87.249C24.6027 87.6685 23.8037 87.8903 22.9893 87.8906H9.67383C8.81837 87.8862 7.98119 87.6426 7.25684 87.1875L2.94141 84.4189C2.31164 84.0137 1.79346 83.457 1.43419 82.7999C1.07493 82.1428 0.886034 81.4061 0.884766 80.6572V76.2627C0.88602 75.5311 1.06702 74.8111 1.41185 74.1659C1.75668 73.5206 2.25476 72.97 2.8623 72.5625L11.5459 66.7266C12.3248 67.375 13.2195 67.8701 14.1826 68.1856L4.35645 74.7686C4.11378 74.9304 3.91522 75.1502 3.77866 75.4079C3.64211 75.6657 3.57185 75.9534 3.57422 76.2451V80.6397C3.57362 80.9384 3.64916 81.2323 3.79372 81.4938C3.93827 81.7552 4.14707 81.9755 4.40039 82.1338L8.70703 84.9023C8.99498 85.0884 9.33103 85.1861 9.67383 85.1836H22.9893C23.3142 85.1834 23.6331 85.0953 23.9121 84.9287L28.6406 82.125C28.9089 81.9701 29.1314 81.7471 29.2858 81.4786C29.4401 81.21 29.5208 80.9054 29.5195 80.5957V76.5791C29.5176 76.3041 29.4533 76.033 29.3315 75.7864C29.2097 75.5398 29.0336 75.324 28.8164 75.1553L19.4648 68.1943C20.4205 67.8823 21.3133 67.4032 22.1016 66.7793L30.3984 73.0195C30.9502 73.4333 31.3968 73.9711 31.7022 74.5895C32.0076 75.2079 32.1631 75.8895 32.1563 76.5791Z" fill="#E21016"/>
<path d="M65.7041 47.707C63.4888 47.707 61.3642 48.5864 59.7969 50.152C58.2297 51.7176 57.348 53.8414 57.3457 56.0566V60.2578C57.344 61.492 57.6167 62.7111 58.1442 63.8268C58.6717 64.9426 59.4407 65.9271 60.3955 66.709C61.1769 67.3539 62.0708 67.8485 63.0322 68.168C63.8807 68.4596 64.7718 68.6081 65.6689 68.6074C67.5746 68.6278 69.4285 67.9881 70.916 66.7969C71.8927 66.0136 72.6809 65.0209 73.2225 63.8921C73.764 62.7634 74.0451 61.5274 74.0449 60.2754V56.0566C74.0426 53.8444 73.1634 51.7233 71.5999 50.1582C70.0365 48.5931 67.9163 47.7117 65.7041 47.707ZM71.3555 60.2578C71.3555 61.0011 71.2091 61.7371 70.9246 62.4239C70.6402 63.1106 70.2232 63.7346 69.6977 64.2602C69.1721 64.7857 68.5481 65.2027 67.8614 65.4871C67.1746 65.7716 66.4386 65.918 65.6953 65.918C64.952 65.918 64.216 65.7716 63.5293 65.4871C62.8425 65.2027 62.2186 64.7857 61.693 64.2602C61.1674 63.7346 60.7505 63.1106 60.466 62.4239C60.1816 61.7371 60.0352 61.0011 60.0352 60.2578V56.0566C60.0352 55.3133 60.1816 54.5773 60.466 53.8906C60.7505 53.2039 61.1674 52.5799 61.693 52.0543C62.2186 51.5287 62.8425 51.1118 63.5293 50.8273C64.216 50.5429 64.952 50.3965 65.6953 50.3965C66.4386 50.3965 67.1746 50.5429 67.8614 50.8273C68.5481 51.1118 69.1721 51.5287 69.6977 52.0543C70.2232 52.5799 70.6402 53.2039 70.9246 53.8906C71.2091 54.5773 71.3555 55.3133 71.3555 56.0566V60.2578Z" fill="#E21016"/>
<path d="M81.0059 76.5791V80.5957C81.0036 81.3671 80.8026 82.1249 80.4224 82.7961C80.0421 83.4673 79.4954 84.0292 78.835 84.4277L74.1416 87.249C73.4471 87.6695 72.6507 87.8914 71.8389 87.8906H58.5234C57.6683 87.8839 56.8318 87.6405 56.1064 87.1875L51.7998 84.4189C51.1684 84.0147 50.6485 83.4585 50.2877 82.8013C49.9268 82.1441 49.7366 81.4069 49.7344 80.6572V76.2627C49.7356 75.5311 49.9166 74.8111 50.2615 74.1659C50.6063 73.5206 51.1044 72.97 51.7119 72.5625L60.3955 66.7266C61.1769 67.3714 62.0708 67.8661 63.0322 68.1856L53.25 74.7686C53.0073 74.9304 52.8088 75.1502 52.6722 75.4079C52.5357 75.6657 52.4654 75.9534 52.4678 76.2451V80.6397C52.4662 80.9376 52.5404 81.231 52.6834 81.4923C52.8264 81.7537 53.0335 81.9744 53.2852 82.1338L57.5918 84.9023C57.8818 85.0839 58.2165 85.1813 58.5586 85.1836H71.8389C72.1492 85.1777 72.4524 85.0898 72.7178 84.9287L77.4199 82.1074C77.6841 81.948 77.9034 81.7239 78.0571 81.4564C78.2109 81.1889 78.294 80.8867 78.2988 80.5781V76.5791C78.2969 76.3041 78.2326 76.033 78.1108 75.7864C77.989 75.5398 77.8129 75.324 77.5957 75.1553L68.3145 68.1943C69.2701 67.8823 70.1629 67.4032 70.9512 66.7793L79.2568 73.0195C79.8039 73.4371 80.2466 73.9759 80.5501 74.5936C80.8536 75.2112 81.0096 75.8909 81.0059 76.5791Z" fill="#E21016"/>
<path d="M7.66117 47.6465C7.48691 47.6442 7.31438 47.6115 7.1514 47.5498C6.90622 47.4461 6.69706 47.2724 6.55011 47.0504C6.40316 46.8284 6.32494 46.568 6.32523 46.3018V38.4443H5.44632C4.23958 38.442 3.08292 37.9616 2.22962 37.1083C1.37632 36.255 0.895912 35.0983 0.893589 33.8916V11.4268C0.891276 10.8277 1.00697 10.2341 1.23408 9.67979C1.46118 9.12548 1.79524 8.62132 2.21719 8.19611C2.63913 7.77091 3.1407 7.43297 3.69325 7.2016C4.2458 6.97023 4.83851 6.84996 5.43753 6.84766H26.6807C27.0373 6.84766 27.3794 6.98933 27.6316 7.24152C27.8837 7.4937 28.0254 7.83574 28.0254 8.19238C28.0254 8.54903 27.8837 8.89106 27.6316 9.14325C27.3794 9.39543 27.0373 9.53711 26.6807 9.53711H5.43753C5.19061 9.53708 4.94614 9.58614 4.71834 9.68142C4.49054 9.77671 4.28395 9.91632 4.11058 10.0921C3.93721 10.268 3.80052 10.4765 3.70845 10.7056C3.61637 10.9347 3.57076 11.1799 3.57425 11.4268V33.8916C3.57425 34.3858 3.77056 34.8597 4.12 35.2091C4.46943 35.5586 4.94336 35.7549 5.43753 35.7549H7.66117C7.83808 35.7537 8.01347 35.7877 8.17715 35.8549C8.34083 35.922 8.48953 36.021 8.61463 36.1461C8.73974 36.2712 8.83874 36.4199 8.90591 36.5836C8.97307 36.7473 9.00706 36.9227 9.00589 37.0996V43.0674L15.5889 36.4932C15.841 36.2416 16.182 36.0995 16.5381 36.0977H44.8828C45.3695 36.0978 45.8369 35.9075 46.1851 35.5675C46.5333 35.2276 46.7346 34.7648 46.7461 34.2783V11.4268C46.7461 10.9326 46.5498 10.4587 46.2004 10.1092C45.8509 9.75979 45.377 9.56348 44.8828 9.56348H41.1914C40.8348 9.56348 40.4928 9.4218 40.2406 9.16962C39.9884 8.91743 39.8467 8.57539 39.8467 8.21875C39.8467 7.86211 39.9884 7.52007 40.2406 7.26788C40.4928 7.0157 40.8348 6.87402 41.1914 6.87402H44.8828C46.0903 6.87402 47.2483 7.35369 48.1021 8.20749C48.9559 9.06129 49.4356 10.2193 49.4356 11.4268V34.2783C49.4333 35.4843 48.9526 36.64 48.099 37.4919C47.2455 38.3438 46.0888 38.8223 44.8828 38.8223H17.0918L8.61917 47.2949C8.35844 47.5334 8.01429 47.6597 7.66117 47.6465Z" fill="#E21016"/>
<path d="M74.5024 38.9795C74.3266 38.9807 74.1522 38.9472 73.9893 38.8808C73.8264 38.8144 73.6782 38.7165 73.5532 38.5928L66.6626 31.7021H56.4585C56.1019 31.7021 55.7598 31.5605 55.5076 31.3083C55.2554 31.0561 55.1138 30.7141 55.1138 30.3574C55.1138 30.0008 55.2554 29.6587 55.5076 29.4066C55.7598 29.1544 56.1019 29.0127 56.4585 29.0127H67.2163C67.5724 29.0145 67.9135 29.1566 68.1655 29.4082L73.1577 34.4004V30.3574C73.1566 30.1801 73.1905 30.0043 73.2575 29.8401C73.3246 29.676 73.4235 29.5267 73.5485 29.4009C73.6734 29.2751 73.8221 29.1752 73.9858 29.1071C74.1495 29.039 74.3251 29.0039 74.5024 29.0039H76.7788C77.1867 29.0039 77.578 28.8419 77.8664 28.5534C78.1548 28.265 78.3169 27.8737 78.3169 27.4658V4.21875C78.3169 4.01718 78.277 3.81759 78.1996 3.63148C78.1222 3.44536 78.0088 3.27638 77.8659 3.13425C77.7229 2.99213 77.5533 2.87967 77.3667 2.80333C77.1802 2.727 76.9804 2.68829 76.7788 2.68945H37.1665C36.767 2.69864 36.387 2.86381 36.1078 3.14962C35.8285 3.43543 35.6723 3.81917 35.6724 4.21875V27.4746C35.6723 27.8742 35.8285 28.2579 36.1078 28.5437C36.387 28.8296 36.767 28.9947 37.1665 29.0039H41.895C42.2517 29.0039 42.5937 29.1456 42.8459 29.3978C43.0981 29.65 43.2397 29.992 43.2397 30.3486C43.2397 30.7053 43.0981 31.0473 42.8459 31.2995C42.5937 31.5517 42.2517 31.6934 41.895 31.6934H37.1665C36.0475 31.6887 34.9758 31.2416 34.1854 30.4495C33.395 29.6574 32.9501 28.5848 32.9478 27.4658V4.21875C32.9501 3.10058 33.3953 2.02887 34.186 1.23821C34.9766 0.447542 36.0483 0.00232227 37.1665 0L76.7788 0C77.8978 0.00231192 78.9704 0.44725 79.7625 1.23767C80.5545 2.02808 81.0017 3.09978 81.0063 4.21875V27.4746C81.004 28.5951 80.5579 29.6691 79.7656 30.4614C78.9733 31.2537 77.8993 31.6998 76.7788 31.7021H75.8472V37.6436C75.8439 37.909 75.7631 38.1677 75.6148 38.3879C75.4664 38.608 75.257 38.7801 75.0122 38.8828C74.8504 38.9487 74.6771 38.9816 74.5024 38.9795Z" fill="#E21016"/>
<path d="M34.7925 47.6445H32.5864C32.135 47.6445 31.769 48.0105 31.769 48.4619V50.668C31.769 51.1194 32.135 51.4854 32.5864 51.4854H34.7925C35.2439 51.4854 35.6099 51.1194 35.6099 50.668V48.4619C35.6099 48.0105 35.2439 47.6445 34.7925 47.6445Z" fill="#E21016"/>
<path d="M42.2983 47.6445H40.0923C39.6409 47.6445 39.2749 48.0105 39.2749 48.4619V50.668C39.2749 51.1194 39.6409 51.4854 40.0923 51.4854H42.2983C42.7498 51.4854 43.1157 51.1194 43.1157 50.668V48.4619C43.1157 48.0105 42.7498 47.6445 42.2983 47.6445Z" fill="#E21016"/>
<path d="M49.7959 47.6445H47.5898C47.1384 47.6445 46.7725 48.0105 46.7725 48.4619V50.668C46.7725 51.1194 47.1384 51.4854 47.5898 51.4854H49.7959C50.2473 51.4854 50.6133 51.1194 50.6133 50.668V48.4619C50.6133 48.0105 50.2473 47.6445 49.7959 47.6445Z" fill="#E21016"/>
</svg>
