<svg width="90" height="90" viewBox="0 0 90 90" fill="none" xmlns="http://www.w3.org/2000/svg">
<g clip-path="url(#clip0_3977_5258)">
<path d="M67.4098 41.9482H63.4138L63.3238 41.6602C63.0184 40.684 62.6237 39.738 62.1448 38.8342L62.0008 38.5642L64.7998 35.7292C65.0472 35.4769 65.1857 35.1376 65.1857 34.7842C65.1857 34.4309 65.0472 34.0916 64.7998 33.8392L58.7068 27.7552C58.4545 27.5079 58.1152 27.3693 57.7618 27.3693C57.4084 27.3693 57.0692 27.5079 56.8168 27.7552L53.9998 30.5992L53.7208 30.4552C52.8117 29.9901 51.8667 29.5988 50.8948 29.2852L50.6068 29.1862V25.1992C50.6068 25.0235 50.5721 24.8496 50.5046 24.6874C50.4371 24.5252 50.3381 24.378 50.2135 24.2542C50.0889 24.1303 49.941 24.0324 49.7783 23.966C49.6157 23.8996 49.4415 23.866 49.2658 23.8672H40.6888C40.3355 23.8672 39.9967 24.0076 39.7469 24.2574C39.4971 24.5071 39.3568 24.8459 39.3568 25.1992V29.1592L39.0688 29.2582C38.0964 29.5702 37.1512 29.9615 36.2428 30.4282L35.9998 30.5992L33.1738 27.7822C33.0506 27.6565 32.9036 27.5566 32.7413 27.4884C32.5791 27.4202 32.4048 27.3851 32.2288 27.3851C32.0528 27.3851 31.8786 27.4202 31.7163 27.4884C31.554 27.5566 31.407 27.6565 31.2838 27.7822L25.1998 33.8392C24.9525 34.0916 24.8139 34.4309 24.8139 34.7842C24.8139 35.1376 24.9525 35.4769 25.1998 35.7292L28.0258 38.5642L27.8908 38.8342C27.4119 39.738 27.0173 40.684 26.7118 41.6602L26.6128 41.9482H22.5898C22.2373 41.9506 21.8998 42.0917 21.6506 42.341C21.4013 42.5902 21.2602 42.9277 21.2578 43.2802V51.9022C21.2602 52.2548 21.4013 52.5922 21.6506 52.8415C21.8998 53.0908 22.2373 53.2319 22.5898 53.2342H26.5768L26.6758 53.5132C27.0018 54.4915 27.4114 55.44 27.8998 56.3482L28.0348 56.6182L25.1998 59.4442C25.0752 59.568 24.9763 59.7153 24.9088 59.8774C24.8413 60.0396 24.8065 60.2136 24.8065 60.3892C24.8065 60.5649 24.8413 60.7388 24.9088 60.901C24.9763 61.0632 25.0752 61.2104 25.1998 61.3342L31.2838 67.4182C31.4075 67.5425 31.5549 67.6408 31.7172 67.7073C31.8795 67.7737 32.0534 67.807 32.2288 67.8052C32.3969 67.8031 32.5629 67.7678 32.7174 67.7014C32.8718 67.635 33.0116 67.5388 33.1288 67.4182L35.9998 64.5742L36.2788 64.7272C37.1862 65.1986 38.1315 65.593 39.1048 65.9062L39.3928 66.0052V69.9922C39.3916 70.1679 39.4252 70.3421 39.4916 70.5047C39.558 70.6674 39.6559 70.8153 39.7798 70.9399C39.9036 71.0646 40.0508 71.1635 40.213 71.231C40.3752 71.2985 40.5491 71.3332 40.7248 71.3332H49.3378C49.5142 71.3344 49.6892 71.3005 49.8524 71.2336C50.0156 71.1666 50.1639 71.0679 50.2887 70.9431C50.4135 70.8184 50.5122 70.67 50.5792 70.5068C50.6461 70.3436 50.68 70.1687 50.6788 69.9922V66.0052L50.9668 65.9062C51.9383 65.5916 52.8833 65.2004 53.7928 64.7362L54.0718 64.5922L56.8888 67.4182C57.0139 67.5432 57.1628 67.6419 57.3266 67.7083C57.4905 67.7748 57.666 67.8077 57.8428 67.8052C58.1819 67.7989 58.505 67.66 58.7428 67.4182L64.7998 61.3252C64.9277 61.1996 65.0293 61.0497 65.0986 60.8843C65.168 60.719 65.2037 60.5415 65.2037 60.3622C65.2037 60.1829 65.168 60.0054 65.0986 59.8401C65.0293 59.6747 64.9277 59.5249 64.7998 59.3992L61.9648 56.5822L62.0998 56.3122C62.5797 55.4046 62.9773 54.4558 63.2878 53.4772L63.3778 53.1982H67.4098C67.7624 53.1959 68.0998 53.0548 68.3491 52.8055C68.5984 52.5562 68.7394 52.2188 68.7418 51.8662V43.2802C68.7394 42.9277 68.5984 42.5902 68.3491 42.341C68.0998 42.0917 67.7624 41.9506 67.4098 41.9482ZM66.0778 50.5612H62.3878C62.0925 50.5612 61.8058 50.6606 61.5739 50.8435C61.3421 51.0264 61.1786 51.282 61.1098 51.5692C60.92 52.3266 60.6763 53.0695 60.3808 53.7922L60.2728 54.0532C59.9702 54.7787 59.6121 55.4798 59.2018 56.1502C59.0467 56.4044 58.9818 56.7035 59.0177 56.9991C59.0537 57.2947 59.1883 57.5696 59.3998 57.7792L62.0188 60.3802L57.8158 64.5832L55.1968 61.9732C54.9958 61.7639 54.73 61.6287 54.4424 61.5895C54.1549 61.5502 53.8625 61.6094 53.6128 61.7572C52.9349 62.1676 52.2314 62.5343 51.5068 62.8552L51.2098 62.9722C50.4902 63.263 49.7502 63.5006 48.9958 63.6832C48.707 63.7535 48.45 63.9184 48.2657 64.1516C48.0814 64.3848 47.9804 64.673 47.9788 64.9702V68.6602H42.0208V64.9702C42.0213 64.6738 41.9222 64.3858 41.7394 64.1524C41.5566 63.919 41.3007 63.7538 41.0128 63.6832C40.252 63.499 39.5059 63.2584 38.7808 62.9632C38.6794 62.9272 38.5802 62.8851 38.4838 62.8372C37.7599 62.5277 37.0592 62.1668 36.3868 61.7572C36.1371 61.6147 35.8474 61.5587 35.5626 61.5977C35.2778 61.6368 35.0139 61.7688 34.8118 61.9732L32.1928 64.5832L27.9898 60.3802L30.5998 57.7702C30.8078 57.5604 30.9401 57.2874 30.976 56.9941C31.0118 56.7008 30.9491 56.404 30.7978 56.1502C30.3767 55.4878 30.0095 54.7925 29.6998 54.0712V53.9992C29.6644 53.9327 29.6344 53.8635 29.6098 53.7922C29.3159 53.0729 29.0752 52.3329 28.8898 51.5782C28.8192 51.2903 28.654 51.0344 28.4206 50.8517C28.1873 50.6689 27.8992 50.5698 27.6028 50.5702H23.9218V44.6302H27.6028C27.8981 44.6302 28.1848 44.5308 28.4167 44.3479C28.6485 44.165 28.812 43.9094 28.8808 43.6222C29.0726 42.8654 29.3162 42.1227 29.6098 41.3992L29.7358 41.0932C30.0426 40.3813 30.4005 39.6925 30.8068 39.0322C30.9581 38.7785 31.0208 38.4816 30.985 38.1883C30.9491 37.8951 30.8168 37.622 30.6088 37.4122L27.9898 34.8022L32.1928 30.5992L34.7938 33.2002C35.004 33.4139 35.2806 33.5499 35.5782 33.5858C35.8758 33.6218 36.1767 33.5557 36.4318 33.3982C37.0899 32.9937 37.7756 32.6358 38.4838 32.3272L38.6728 32.2642L38.7988 32.2012C39.5187 31.9135 40.2587 31.6789 41.0128 31.4992C41.3007 31.4286 41.5566 31.2634 41.7394 31.03C41.9222 30.7967 42.0213 30.5087 42.0208 30.2122V26.5222H47.9698V30.1852C47.9653 30.4871 48.0635 30.7815 48.2483 31.0202C48.4331 31.259 48.6935 31.4279 48.9868 31.4992C49.7451 31.6822 50.4882 31.9229 51.2098 32.2192L51.5158 32.3452C52.223 32.6525 52.9085 33.0074 53.5678 33.4072C53.8215 33.5619 54.1197 33.6274 54.4148 33.5931C54.71 33.5589 54.9853 33.4269 55.1968 33.2182L57.8068 30.6082L62.0098 34.8112L59.3998 37.3942C59.1883 37.6041 59.0543 37.8796 59.02 38.1756C58.9856 38.4716 59.0529 38.7705 59.2108 39.0232C59.6236 39.6827 59.9876 40.3716 60.2998 41.0842L60.4258 41.3992C60.7222 42.1177 60.9629 42.8579 61.1458 43.6132C61.2164 43.9011 61.3816 44.157 61.615 44.3398C61.8484 44.5226 62.1364 44.6217 62.4328 44.6212H66.1138L66.0778 50.5612Z" fill="#E21016"/>
<path d="M45.0002 37.3223C42.9714 37.3223 40.9881 37.9238 39.301 39.0508C37.614 40.1777 36.2989 41.7796 35.5221 43.6539C34.7453 45.5281 34.5416 47.5906 34.9367 49.5806C35.3319 51.5706 36.3082 53.3988 37.7421 54.834C39.1761 56.2692 41.0034 57.2471 42.9931 57.644C44.9827 58.0409 47.0454 57.839 48.9203 57.0638C50.7953 56.2887 52.3983 54.975 53.5267 53.289C54.6552 51.6029 55.2585 49.6201 55.2602 47.5913C55.2579 44.87 54.1764 42.2608 52.2531 40.3358C50.3297 38.4108 47.7215 37.327 45.0002 37.3223ZM45.0002 55.1783C43.4971 55.18 42.0273 54.7358 40.7767 53.9019C39.5262 53.0679 38.5512 51.8816 37.9752 50.4933C37.3991 49.1049 37.248 47.5769 37.5408 46.1026C37.8336 44.6283 38.5572 43.2739 39.6201 42.2111C40.6829 41.1482 42.0372 40.4246 43.5115 40.1318C44.9859 39.839 46.5139 39.9902 47.9023 40.5662C49.2906 41.1422 50.4769 42.1172 51.3108 43.3678C52.1448 44.6183 52.589 46.0882 52.5872 47.5913C52.5849 49.6027 51.7847 51.5311 50.3624 52.9535C48.9401 54.3758 47.0117 55.1759 45.0002 55.1783Z" fill="#E21016"/>
<path d="M76.8241 26.5223H71.0011C70.6325 26.5222 70.2784 26.6661 70.0144 26.9234C69.7505 27.1806 69.5974 27.5309 69.5881 27.8993C69.5881 28.0845 69.6247 28.2678 69.6958 28.4387C69.7669 28.6096 69.8711 28.7648 70.0025 28.8953C70.1338 29.0258 70.2896 29.129 70.461 29.199C70.6324 29.2691 70.8159 29.3045 71.0011 29.3033H76.8241C77.95 29.3057 79.0291 29.754 79.8252 30.5502C80.6214 31.3463 81.0697 32.4254 81.0721 33.5513V78.3623H83.8981V33.5873C83.8981 32.6588 83.715 31.7393 83.3594 30.8816C83.0038 30.0238 82.4826 29.2446 81.8256 28.5884C81.1686 27.9323 80.3887 27.4121 79.5305 27.0575C78.6723 26.703 77.7526 26.5211 76.8241 26.5223ZM13.1761 26.5223C12.2475 26.5211 11.3278 26.703 10.4696 27.0575C9.61142 27.4121 8.83152 27.9323 8.17452 28.5884C7.51752 29.2446 6.99631 30.0238 6.6407 30.8816C6.28509 31.7393 6.10205 32.6588 6.10205 33.5873V78.3623H8.92805V33.5873C8.93043 32.4614 9.37875 31.3823 10.1749 30.5862C10.971 29.79 12.0501 29.3417 13.1761 29.3393H21.0331C21.2213 29.3406 21.4078 29.304 21.5816 29.2318C21.7553 29.1595 21.9128 29.053 22.0446 28.9187C22.1765 28.7844 22.2799 28.6249 22.3489 28.4498C22.4178 28.2747 22.4509 28.0875 22.4461 27.8993C22.4461 27.5246 22.2972 27.1652 22.0322 26.9002C21.7672 26.6352 21.4078 26.4863 21.0331 26.4863L13.1761 26.5223Z" fill="#E21016"/>
<path d="M88.587 78.3633H1.413C1.03825 78.3633 0.678847 78.5121 0.413858 78.7771C0.148869 79.0421 0 79.4015 0 79.7763C0.00475766 82.3002 1.00949 84.7194 2.79418 86.5041C4.57888 88.2888 6.99807 89.2935 9.522 89.2983H80.478C83.0027 89.2959 85.4232 88.2919 87.2084 86.5067C88.9936 84.7215 89.9976 82.3009 90 79.7763C90 79.4015 89.8511 79.0421 89.5861 78.7771C89.3212 78.5121 88.9617 78.3633 88.587 78.3633ZM80.487 86.4633H9.522C7.99236 86.4611 6.50944 85.936 5.31931 84.9751C4.12919 84.0141 3.30341 82.6751 2.979 81.1803H87.021C86.6999 82.6776 85.8753 84.0196 84.6847 84.9826C83.4941 85.9455 82.0093 86.4713 80.478 86.4723L80.487 86.4633Z" fill="#E21016"/>
<path d="M74.0072 33.3809H70.7672C70.5852 33.3809 70.405 33.4167 70.2368 33.4864C70.0686 33.556 69.9159 33.6581 69.7872 33.7868C69.6585 33.9155 69.5564 34.0683 69.4867 34.2365C69.4171 34.4046 69.3812 34.5848 69.3812 34.7669C69.38 34.9496 69.415 35.1308 69.4841 35.3C69.5532 35.4692 69.6551 35.6231 69.784 35.7527C69.9128 35.8824 70.066 35.9853 70.2347 36.0555C70.4035 36.1257 70.5844 36.1619 70.7672 36.1619H73.9622V78.3629H76.7792V36.1619C76.7804 35.7971 76.7096 35.4357 76.5708 35.0983C76.432 34.7609 76.228 34.4543 75.9705 34.1959C75.713 33.9376 75.407 33.7326 75.0701 33.5927C74.7332 33.4529 74.372 33.3809 74.0072 33.3809ZM20.8352 33.3809H15.9932C15.6284 33.3809 15.2672 33.4529 14.9303 33.5927C14.5934 33.7326 14.2874 33.9376 14.0299 34.1959C13.7724 34.4543 13.5684 34.7609 13.4296 35.0983C13.2908 35.4357 13.22 35.7971 13.2212 36.1619V78.3629H16.0382L15.9932 36.2069H20.8352C21.0203 36.208 21.2039 36.1726 21.3753 36.1026C21.5466 36.0326 21.7025 35.9293 21.8338 35.7988C21.9651 35.6683 22.0694 35.5132 22.1405 35.3422C22.2116 35.1713 22.2482 34.988 22.2482 34.8029C22.2494 34.6165 22.2137 34.4318 22.1432 34.2594C22.0728 34.0869 21.9689 33.9301 21.8375 33.7979C21.7062 33.6657 21.55 33.5608 21.378 33.4893C21.206 33.4177 21.0215 33.3809 20.8352 33.3809Z" fill="#E21016"/>
<path d="M23.6612 6.54386V21.8439C23.6612 22.2186 23.5124 22.578 23.2474 22.843C22.9824 23.108 22.623 23.2569 22.2482 23.2569C21.8735 23.2569 21.5141 23.108 21.2491 22.843C20.9841 22.578 20.8352 22.2186 20.8352 21.8439V7.95686H12.7352C12.8181 7.55411 12.8603 7.14405 12.8612 6.73286C12.8647 6.19075 12.7889 5.65104 12.6362 5.13086H22.2482C22.623 5.13086 22.9824 5.27973 23.2474 5.54472C23.5124 5.80971 23.6612 6.16911 23.6612 6.54386Z" fill="#E21016"/>
<path d="M12.6722 5.1299C12.2765 3.7154 11.376 2.49507 10.141 1.69991C8.90605 0.90475 7.42243 0.589951 5.97098 0.815105C4.51954 1.04026 3.20101 1.78974 2.26499 2.92167C1.32898 4.0536 0.840443 5.48942 0.891867 6.95732C0.94329 8.42523 1.5311 9.82334 2.54403 10.887C3.55696 11.9507 4.92471 12.606 6.38835 12.7291C7.85199 12.8521 9.30995 12.4342 10.4862 11.5546C11.6625 10.675 12.4755 9.39462 12.7712 7.9559C12.8541 7.55315 12.8963 7.14309 12.8972 6.7319C12.9007 6.18979 12.8249 5.65008 12.6722 5.1299ZM6.87623 9.8999C6.24216 9.90168 5.62182 9.71529 5.09374 9.36431C4.56566 9.01334 4.1536 8.51356 3.90971 7.92827C3.66583 7.34297 3.60109 6.69847 3.7237 6.07637C3.84631 5.45426 4.15075 4.88252 4.59848 4.43353C5.04621 3.98455 5.61709 3.6785 6.23885 3.55414C6.86061 3.42978 7.50528 3.4927 8.09126 3.73494C8.67724 3.97718 9.17817 4.38783 9.53063 4.91492C9.88309 5.44201 10.0712 6.06183 10.0712 6.6959C10.0689 7.54337 9.73178 8.35559 9.13337 8.95569C8.53496 9.55579 7.72369 9.89516 6.87623 9.8999Z" fill="#E21016"/>
<path d="M76.0949 6.73137C76.0958 7.14256 76.138 7.55262 76.2209 7.95537H68.1209V21.8244C68.1209 22.1991 67.972 22.5585 67.7071 22.8235C67.4421 23.0885 67.0827 23.2374 66.7079 23.2374C66.3332 23.2374 65.9738 23.0885 65.7088 22.8235C65.4438 22.5585 65.2949 22.1991 65.2949 21.8244V6.52437C65.2972 6.33726 65.3367 6.15248 65.411 5.98075C65.4853 5.80902 65.593 5.65376 65.7278 5.52398C65.8626 5.3942 66.0219 5.29249 66.1963 5.22475C66.3707 5.15701 66.5569 5.12459 66.7439 5.12937H76.3199C76.1672 5.64955 76.0914 6.18926 76.0949 6.73137Z" fill="#E21016"/>
<path d="M82.1158 0.701179C80.7987 0.70496 79.5191 1.13988 78.4724 1.93949C77.4258 2.73909 76.6698 3.85939 76.3198 5.12918C76.1672 5.64936 76.0914 6.18907 76.0948 6.73118C76.0957 7.14237 76.1379 7.55243 76.2208 7.95518C76.4524 9.07202 76.9959 10.1003 77.7883 10.9206C78.5808 11.741 79.5896 12.3198 80.6978 12.5898C81.806 12.8598 82.968 12.81 84.049 12.4461C85.13 12.0822 86.0856 11.4192 86.8049 10.5341C87.5242 9.64892 87.9778 8.57791 88.1129 7.44535C88.2479 6.31279 88.0591 5.16515 87.5681 4.13563C87.0772 3.10612 86.3043 2.23695 85.3392 1.62904C84.3741 1.02112 83.2564 0.699389 82.1158 0.701179ZM82.1158 9.93518C81.4821 9.93518 80.8627 9.74727 80.3358 9.39521C79.8089 9.04315 79.3982 8.54275 79.1557 7.9573C78.9132 7.37184 78.8498 6.72762 78.9734 6.10611C79.097 5.48459 79.4022 4.9137 79.8503 4.46561C80.2984 4.01752 80.8693 3.71237 81.4908 3.58874C82.1123 3.46512 82.7565 3.52857 83.342 3.77107C83.9274 4.01357 84.4278 4.42424 84.7799 4.95113C85.1319 5.47803 85.3198 6.09749 85.3198 6.73118C85.308 7.57394 84.9656 8.37832 84.3662 8.97092C83.7669 9.56353 82.9587 9.8969 82.1158 9.89918V9.93518Z" fill="#E21016"/>
<path d="M45.0001 0.70215C43.5077 0.675263 42.0586 1.20365 40.9338 2.1848C39.8089 3.16595 39.0887 4.52992 38.9126 6.01211C38.7366 7.4943 39.1174 8.98903 39.9811 10.2063C40.8448 11.4237 42.1299 12.2768 43.5871 12.6001C44.5138 12.8402 45.4864 12.8402 46.4131 12.6001C47.8702 12.2768 49.1553 11.4237 50.019 10.2063C50.8828 8.98903 51.2635 7.4943 51.0875 6.01211C50.9115 4.52992 50.1912 3.16595 49.0664 2.1848C47.9416 1.20365 46.4924 0.675263 45.0001 0.70215ZM45.0001 9.90015C44.3664 9.90015 43.7469 9.71224 43.22 9.36018C42.6931 9.00812 42.2825 8.50772 42.04 7.92227C41.7975 7.33681 41.734 6.6926 41.8576 6.07108C41.9813 5.44957 42.2864 4.87867 42.7345 4.43058C43.1826 3.98249 43.7535 3.67734 44.375 3.55371C44.9965 3.43009 45.6407 3.49354 46.2262 3.73604C46.8117 3.97854 47.312 4.38921 47.6641 4.9161C48.0162 5.443 48.2041 6.06246 48.2041 6.69615C48.2017 7.54517 47.8634 8.35874 47.263 8.9591C46.6627 9.55945 45.8491 9.89777 45.0001 9.90015Z" fill="#E21016"/>
<path d="M46.4129 12.5996V19.5386C46.4129 19.9134 46.264 20.2728 45.9991 20.5378C45.7341 20.8027 45.3747 20.9516 44.9999 20.9516C44.6252 20.9516 44.2658 20.8027 44.0008 20.5378C43.7358 20.2728 43.5869 19.9134 43.5869 19.5386V12.5996C44.5136 12.8397 45.4862 12.8397 46.4129 12.5996Z" fill="#E21016"/>
</g>
<defs>
<clipPath id="clip0_3977_5258">
<rect width="90" height="90" fill="white"/>
</clipPath>
</defs>
</svg>
