<svg width="56" height="59" viewBox="0 0 56 59" fill="none" xmlns="http://www.w3.org/2000/svg">
<path d="M9.72699 22.4189H6.69817C6.39561 22.4189 6.10545 22.5391 5.89151 22.7531C5.67756 22.967 5.55737 23.2572 5.55737 23.5597V26.5943C5.55737 26.8968 5.67756 27.187 5.89151 27.4009C6.10545 27.6149 6.39561 27.7351 6.69817 27.7351H9.72699C10.0296 27.7351 10.3197 27.6149 10.5337 27.4009C10.7476 27.187 10.8678 26.8968 10.8678 26.5943V23.5712C10.8693 23.4204 10.8409 23.2708 10.7842 23.1311C10.7276 22.9914 10.6438 22.8642 10.5377 22.7571C10.4316 22.65 10.3054 22.5649 10.1662 22.5069C10.0271 22.4488 9.87777 22.4189 9.72699 22.4189ZM10.0236 26.6057C10.0236 26.6843 9.99235 26.7598 9.93672 26.8154C9.8811 26.871 9.80566 26.9023 9.72699 26.9023H6.69817C6.61951 26.9023 6.54406 26.871 6.48844 26.8154C6.43281 26.7598 6.40156 26.6843 6.40156 26.6057V23.5712C6.40156 23.5322 6.40924 23.4936 6.42414 23.4576C6.43905 23.4217 6.4609 23.389 6.48844 23.3614C6.51598 23.3339 6.54868 23.312 6.58467 23.2971C6.62065 23.2822 6.65922 23.2745 6.69817 23.2745H9.72699C9.76594 23.2745 9.80451 23.2822 9.8405 23.2971C9.87648 23.312 9.90918 23.3339 9.93672 23.3614C9.96427 23.389 9.98612 23.4217 10.001 23.4576C10.0159 23.4936 10.0236 23.5322 10.0236 23.5712V26.6057Z" fill="#E21016" stroke="#E21016"/>
<path d="M49.4325 22.4189H46.3752C46.0726 22.4189 45.7824 22.5391 45.5685 22.7531C45.3546 22.967 45.2344 23.2572 45.2344 23.5597V26.5943C45.2344 26.8968 45.3546 27.187 45.5685 27.4009C45.7824 27.6149 46.0726 27.7351 46.3752 27.7351H49.4097C49.7123 27.7351 50.0024 27.6149 50.2164 27.4009C50.4303 27.187 50.5505 26.8968 50.5505 26.5943V23.5712C50.5536 23.2705 50.4378 22.9809 50.2285 22.7651C50.0191 22.5493 49.7331 22.4249 49.4325 22.4189ZM49.7291 26.6057C49.7291 26.6843 49.6979 26.7598 49.6422 26.8154C49.5866 26.871 49.5112 26.9023 49.4325 26.9023H46.3752C46.2975 26.9008 46.2235 26.8689 46.1691 26.8134C46.1147 26.758 46.0843 26.6834 46.0843 26.6057V23.5712C46.0843 23.4935 46.1147 23.4189 46.1691 23.3634C46.2235 23.3079 46.2975 23.276 46.3752 23.2745H49.4097C49.4884 23.2745 49.5638 23.3058 49.6194 23.3614C49.6751 23.417 49.7063 23.4925 49.7063 23.5712L49.7291 26.6057Z" fill="#E21016" stroke="#E21016"/>
<path d="M25.5752 6.6001H22.5407C22.2381 6.6001 21.948 6.72029 21.734 6.93423C21.5201 7.14817 21.3999 7.43834 21.3999 7.7409V10.7754C21.3999 11.078 21.5201 11.3681 21.734 11.5821C21.948 11.796 22.2381 11.9162 22.5407 11.9162H25.5752C25.8778 11.9162 26.168 11.796 26.3819 11.5821C26.5958 11.3681 26.716 11.078 26.716 10.7754V7.7466C26.7168 7.59631 26.6878 7.44735 26.6308 7.30828C26.5738 7.16922 26.4899 7.04278 26.3839 6.93624C26.2779 6.82971 26.1519 6.74517 26.0131 6.68748C25.8743 6.62979 25.7255 6.6001 25.5752 6.6001ZM25.8718 10.7811C25.8718 10.8598 25.8406 10.9352 25.785 10.9909C25.7293 11.0465 25.6539 11.0777 25.5752 11.0777H22.5407C22.462 11.0777 22.3866 11.0465 22.331 10.9909C22.2753 10.9352 22.2441 10.8598 22.2441 10.7811V7.7466C22.2441 7.70791 22.2518 7.66961 22.2668 7.63394C22.2817 7.59827 22.3037 7.56595 22.3313 7.53886C22.3589 7.51177 22.3917 7.49046 22.4276 7.47618C22.4636 7.4619 22.502 7.45494 22.5407 7.4557H25.5752C25.6139 7.45494 25.6523 7.4619 25.6883 7.47618C25.7243 7.49046 25.757 7.51177 25.7846 7.53886C25.8122 7.56595 25.8342 7.59827 25.8492 7.63394C25.8641 7.66961 25.8718 7.70791 25.8718 7.7466V10.7811Z" fill="#E21016" stroke="#E21016"/>
<path d="M33.8864 6.6001H30.8576C30.555 6.6001 30.2649 6.72029 30.0509 6.93423C29.837 7.14817 29.7168 7.43834 29.7168 7.7409V10.7754C29.7168 11.078 29.837 11.3681 30.0509 11.5821C30.2649 11.796 30.555 11.9162 30.8576 11.9162H33.8864C34.189 11.9162 34.4791 11.796 34.6931 11.5821C34.907 11.3681 35.0272 11.078 35.0272 10.7754V7.7466C35.028 7.59631 34.999 7.44735 34.942 7.30828C34.885 7.16922 34.8011 7.04278 34.6951 6.93624C34.5891 6.82971 34.4631 6.74517 34.3243 6.68748C34.1855 6.62979 34.0367 6.6001 33.8864 6.6001ZM34.183 10.7811C34.183 10.8598 34.1518 10.9352 34.0961 10.9909C34.0405 11.0465 33.9651 11.0777 33.8864 11.0777H30.8576C30.7789 11.0777 30.7035 11.0465 30.6479 10.9909C30.5922 10.9352 30.561 10.8598 30.561 10.7811V7.7466C30.561 7.70791 30.5687 7.66961 30.5837 7.63394C30.5986 7.59827 30.6206 7.56595 30.6482 7.53886C30.6758 7.51177 30.7086 7.49046 30.7445 7.47618C30.7805 7.4619 30.8189 7.45494 30.8576 7.4557H33.8864C33.9251 7.45494 33.9635 7.4619 33.9995 7.47618C34.0354 7.49046 34.0682 7.51177 34.0958 7.53886C34.1234 7.56595 34.1454 7.59827 34.1603 7.63394C34.1753 7.66961 34.183 7.70791 34.183 7.7466V10.7811Z" fill="#E21016" stroke="#E21016"/>
<path d="M25.5752 14.9165H22.5407C22.2381 14.9165 21.948 15.0367 21.734 15.2506C21.5201 15.4646 21.3999 15.7547 21.3999 16.0573V19.0918C21.3999 19.3944 21.5201 19.6846 21.734 19.8985C21.948 20.1124 22.2381 20.2326 22.5407 20.2326H25.5752C25.8778 20.2326 26.168 20.1124 26.3819 19.8985C26.5958 19.6846 26.716 19.3944 26.716 19.0918V16.0687C26.7175 15.9179 26.6891 15.7684 26.6325 15.6286C26.5758 15.4889 26.492 15.3618 26.386 15.2547C26.2799 15.1475 26.1536 15.0625 26.0144 15.0044C25.8753 14.9464 25.726 14.9165 25.5752 14.9165ZM25.8718 19.1032C25.8718 19.1819 25.8406 19.2573 25.785 19.313C25.7293 19.3686 25.6539 19.3998 25.5752 19.3998H22.5407C22.462 19.3998 22.3866 19.3686 22.331 19.313C22.2753 19.2573 22.2441 19.1819 22.2441 19.1032V16.0687C22.2441 15.99 22.2753 15.9146 22.331 15.859C22.3866 15.8034 22.462 15.7721 22.5407 15.7721H25.5752C25.6539 15.7721 25.7293 15.8034 25.785 15.859C25.8406 15.9146 25.8718 15.99 25.8718 16.0687V19.1032Z" fill="#E21016" stroke="#E21016"/>
<path d="M33.8864 14.9165H30.8576C30.555 14.9165 30.2649 15.0367 30.0509 15.2506C29.837 15.4646 29.7168 15.7547 29.7168 16.0573V19.0918C29.7168 19.3944 29.837 19.6846 30.0509 19.8985C30.2649 20.1124 30.555 20.2326 30.8576 20.2326H33.8864C34.189 20.2326 34.4791 20.1124 34.6931 19.8985C34.907 19.6846 35.0272 19.3944 35.0272 19.0918V16.0687C35.0287 15.9179 35.0003 15.7684 34.9437 15.6286C34.887 15.4889 34.8032 15.3618 34.6971 15.2547C34.5911 15.1475 34.4648 15.0625 34.3256 15.0044C34.1865 14.9464 34.0372 14.9165 33.8864 14.9165ZM34.183 19.1032C34.183 19.1819 34.1518 19.2573 34.0961 19.313C34.0405 19.3686 33.9651 19.3998 33.8864 19.3998H30.8576C30.7789 19.3998 30.7035 19.3686 30.6479 19.313C30.5922 19.2573 30.561 19.1819 30.561 19.1032V16.0687C30.561 15.99 30.5922 15.9146 30.6479 15.859C30.7035 15.8034 30.7789 15.7721 30.8576 15.7721H33.8864C33.9651 15.7721 34.0405 15.8034 34.0961 15.859C34.1518 15.9146 34.183 15.99 34.183 16.0687V19.1032Z" fill="#E21016" stroke="#E21016"/>
<path d="M25.5752 23.2324H22.5407C22.2381 23.2324 21.948 23.3526 21.734 23.5666C21.5201 23.7805 21.3999 24.0707 21.3999 24.3732V27.402C21.3999 27.7046 21.5201 27.9948 21.734 28.2087C21.948 28.4226 22.2381 28.5428 22.5407 28.5428H25.5752C25.8778 28.5428 26.168 28.4226 26.3819 28.2087C26.5958 27.9948 26.716 27.7046 26.716 27.402V24.4131C26.7214 24.26 26.6958 24.1074 26.6409 23.9643C26.586 23.8213 26.5028 23.6907 26.3963 23.5805C26.2899 23.4703 26.1623 23.3827 26.0212 23.3229C25.8801 23.2631 25.7285 23.2323 25.5752 23.2324ZM25.8718 27.4134C25.8718 27.4921 25.8406 27.5676 25.785 27.6232C25.7293 27.6788 25.6539 27.7101 25.5752 27.7101H22.5407C22.462 27.7101 22.3866 27.6788 22.331 27.6232C22.2753 27.5676 22.2441 27.4921 22.2441 27.4134V24.4131C22.2441 24.3345 22.2753 24.259 22.331 24.2034C22.3866 24.1478 22.462 24.1165 22.5407 24.1165H25.5752C25.6539 24.1165 25.7293 24.1478 25.785 24.2034C25.8406 24.259 25.8718 24.3345 25.8718 24.4131V27.4134Z" fill="#E21016" stroke="#E21016"/>
<path d="M33.8864 23.2324H30.8576C30.555 23.2324 30.2649 23.3526 30.0509 23.5666C29.837 23.7805 29.7168 24.0707 29.7168 24.3732V27.402C29.7168 27.7046 29.837 27.9948 30.0509 28.2087C30.2649 28.4226 30.555 28.5428 30.8576 28.5428H33.8864C34.189 28.5428 34.4791 28.4226 34.6931 28.2087C34.907 27.9948 35.0272 27.7046 35.0272 27.402V24.4131C35.0326 24.26 35.007 24.1074 34.9521 23.9643C34.8972 23.8213 34.814 23.6907 34.7075 23.5805C34.6011 23.4703 34.4735 23.3827 34.3324 23.3229C34.1913 23.2631 34.0396 23.2323 33.8864 23.2324ZM34.183 27.4134C34.183 27.4921 34.1518 27.5676 34.0961 27.6232C34.0405 27.6788 33.9651 27.7101 33.8864 27.7101H30.8576C30.7789 27.7101 30.7035 27.6788 30.6479 27.6232C30.5922 27.5676 30.561 27.4921 30.561 27.4134V24.4131C30.561 24.3345 30.5922 24.259 30.6479 24.2034C30.7035 24.1478 30.7789 24.1165 30.8576 24.1165H33.8864C33.9651 24.1165 34.0405 24.1478 34.0961 24.2034C34.1518 24.259 34.183 24.3345 34.183 24.4131V27.4134Z" fill="#E21016" stroke="#E21016"/>
<path d="M54.1042 16.0306H41.7778V2.34099C41.7778 2.03844 41.6577 1.74827 41.4437 1.53433C41.2298 1.32039 40.9396 1.2002 40.6371 1.2002H15.8076C15.505 1.2002 15.2148 1.32039 15.0009 1.53433C14.787 1.74827 14.6668 2.03844 14.6668 2.34099V16.0306H2.1408C1.83824 16.0306 1.54807 16.1508 1.33413 16.3647C1.12019 16.5787 1 16.8688 1 17.1714V47.8018C1 48.1044 1.12019 48.3945 1.33413 48.6085C1.54807 48.8224 1.83824 48.9426 2.1408 48.9426H22.9033C23.4737 49.7697 24.0441 50.5797 24.6602 51.3326C21.734 51.903 19.8745 53.1522 19.8745 54.6067C19.8745 56.6202 23.4965 58.2002 28.1225 58.2002C32.7484 58.2002 36.3705 56.6202 36.3705 54.6067C36.3705 53.1408 34.5794 51.9201 31.6476 51.3383C32.218 50.5968 32.7884 49.7811 33.3587 48.9426H54.1042C54.4067 48.9426 54.6969 48.8224 54.9108 48.6085C55.1248 48.3945 55.245 48.1044 55.245 47.8018V17.1999C55.2488 17.0477 55.2221 16.8963 55.1665 16.7546C55.1108 16.6129 55.0274 16.4837 54.9211 16.3747C54.8148 16.2658 54.6877 16.1792 54.5474 16.1201C54.4071 16.061 54.2564 16.0305 54.1042 16.0306ZM14.6611 48.1269H2.1408C2.06213 48.1269 1.98669 48.0957 1.93107 48.0401C1.87544 47.9844 1.84419 47.909 1.84419 47.8303V17.1999C1.84419 17.1212 1.87544 17.0458 1.93107 16.9902C1.98669 16.9345 2.06213 16.9033 2.1408 16.9033H14.6896L14.6611 48.1269ZM35.5377 54.6466C35.5377 55.9414 32.5032 57.3845 28.1225 57.3845C23.7418 57.3845 20.7073 55.9585 20.7073 54.6466C20.7073 53.6085 22.601 52.5647 25.2363 52.1369C25.7097 52.7073 26.1603 53.2776 26.571 53.7625C26.769 53.9942 27.0147 54.1805 27.2914 54.3084C27.568 54.4364 27.869 54.5031 28.1738 54.504C28.4913 54.5099 28.806 54.443 29.0937 54.3085C29.3814 54.1741 29.6345 53.9756 29.8337 53.7283C30.193 53.2834 30.6265 52.7472 31.0829 52.1483C33.6953 52.5932 35.5377 53.6085 35.5377 54.6466ZM32.7541 48.3209C31.4992 50.2317 30.1018 52.0228 29.1549 53.1921C29.04 53.3327 28.8956 53.4464 28.7321 53.5252C28.5685 53.604 28.3896 53.6461 28.208 53.6484C28.0277 53.649 27.8494 53.6099 27.6858 53.534C27.5222 53.4581 27.3772 53.3473 27.2612 53.2092C25.2077 50.8249 20.4563 44.8357 20.4563 41.6016C20.5106 39.6203 21.3358 37.7384 22.7563 36.3563C24.1768 34.9741 26.0806 34.2008 28.0626 34.2008C30.0446 34.2008 31.9484 34.9741 33.3689 36.3563C34.7894 37.7384 35.6146 39.6203 35.6689 41.6016C35.6689 43.0903 34.6593 45.4118 32.7541 48.3209ZM40.9222 47.8303C40.9222 47.909 40.891 47.9844 40.8354 48.0401C40.7798 48.0957 40.7043 48.1269 40.6256 48.1269H33.8949C35.6403 45.3491 36.5245 43.1588 36.5245 41.6016C36.4672 39.3954 35.5505 37.2988 33.9699 35.7586C32.3892 34.2185 30.2695 33.3566 28.0626 33.3566C25.8557 33.3566 23.736 34.2185 22.1553 35.7586C20.5747 37.2988 19.658 39.3954 19.6007 41.6016C19.6007 43.3812 20.81 45.794 22.3272 48.1269H15.5167V2.34099C15.5159 2.30231 15.5229 2.26387 15.5371 2.22792C15.5514 2.19196 15.5727 2.15922 15.5998 2.1316C15.6269 2.10398 15.6592 2.08204 15.6949 2.06706C15.7306 2.05209 15.7689 2.04438 15.8076 2.04439H40.6256C40.7043 2.04439 40.7798 2.07564 40.8354 2.13126C40.891 2.18689 40.9222 2.26233 40.9222 2.34099V47.8303ZM54.4008 47.8303C54.4008 47.909 54.3695 47.9844 54.3139 48.0401C54.2583 48.0957 54.1828 48.1269 54.1042 48.1269H41.7379C41.7656 48.0305 41.779 47.9306 41.7778 47.8303V16.9033H54.1042C54.1828 16.9033 54.2583 16.9345 54.3139 16.9902C54.3695 17.0458 54.4008 17.1212 54.4008 17.1999V47.8303Z" fill="#E21016" stroke="#E21016"/>
<path d="M28.0656 36.1543C27.1477 36.1509 26.2494 36.42 25.4846 36.9275C24.7197 37.435 24.1227 38.1581 23.7691 39.0051C23.4154 39.8522 23.3212 40.7852 23.4982 41.6858C23.6752 42.5865 24.1155 43.4144 24.7633 44.0647C25.4112 44.7149 26.2374 45.1583 27.1375 45.3386C28.0375 45.519 28.9708 45.4281 29.8191 45.0776C30.6675 44.7272 31.3928 44.1328 31.9031 43.3698C32.4134 42.6068 32.6858 41.7096 32.6858 40.7917C32.6828 39.5657 32.1957 38.3904 31.3303 37.5219C30.465 36.6534 29.2916 36.1618 28.0656 36.1543ZM28.0656 44.5506C27.3176 44.5506 26.5865 44.3288 25.9646 43.9133C25.3427 43.4977 24.8579 42.9071 24.5717 42.2161C24.2855 41.525 24.2106 40.7647 24.3565 40.0311C24.5024 39.2975 24.8626 38.6236 25.3915 38.0948C25.9204 37.5659 26.5942 37.2057 27.3278 37.0598C28.0614 36.9139 28.8218 36.9887 29.5128 37.275C30.2038 37.5612 30.7945 38.0459 31.21 38.6678C31.6255 39.2897 31.8473 40.0209 31.8473 40.7689C31.8473 41.2655 31.7495 41.7572 31.5595 42.2161C31.3694 42.6749 31.0909 43.0918 30.7397 43.443C30.3885 43.7941 29.9716 44.0727 29.5128 44.2627C29.054 44.4528 28.5622 44.5506 28.0656 44.5506Z" fill="#E21016" stroke="#E21016"/>
</svg>
