<svg width="70" height="68" viewBox="0 0 70 68" fill="none" xmlns="http://www.w3.org/2000/svg">
<path d="M67.382 45.2003H66.682C66.3439 43.8869 65.8206 42.6283 65.128 41.4623L65.618 40.9793C66.1062 40.4853 66.38 39.8188 66.38 39.1243C66.38 38.4298 66.1062 37.7633 65.618 37.2693L65.044 36.7093V6.70028C65.0421 5.18472 64.4388 3.73187 63.3665 2.66086C62.2942 1.58986 60.8406 0.98828 59.325 0.988281H5.712C4.19765 0.990134 2.74586 1.59253 1.67505 2.66333C0.604246 3.73414 0.00185242 5.18593 0 6.70028L0 47.0063C0.00185242 48.5206 0.604246 49.9724 1.67505 51.0432C2.74586 52.114 4.19765 52.7164 5.712 52.7183H35.812C36.152 52.8667 36.519 52.943 36.89 52.9423H37.366C37.3897 52.942 37.4128 52.9504 37.4308 52.9659C37.4488 52.9813 37.4606 53.0028 37.464 53.0263C37.8107 54.2781 38.3115 55.482 38.955 56.6103C38.9698 56.6279 38.9779 56.6502 38.9779 56.6733C38.9779 56.6963 38.9698 56.7186 38.955 56.7363L38.57 57.1213C38.2958 57.3788 38.0829 57.6945 37.947 58.0453C37.7646 58.519 37.723 59.0354 37.8273 59.5322C37.9316 60.029 38.1774 60.485 38.535 60.8453L40.264 62.5743C40.5282 62.8487 40.848 63.0635 41.202 63.2043C41.6765 63.385 42.193 63.4249 42.6897 63.3194C43.1863 63.2139 43.642 62.9673 44.002 62.6093L44.471 62.1333C45.643 62.8189 46.9029 63.3417 48.216 63.6873V64.3873C48.2178 65.0829 48.495 65.7495 48.9869 66.2414C49.4788 66.7333 50.1454 67.0104 50.841 67.0123H53.333C53.6774 67.0123 54.0184 66.9443 54.3365 66.8123C54.6546 66.6803 54.9435 66.4869 55.1867 66.243C55.4299 65.9992 55.6226 65.7097 55.7537 65.3913C55.8849 65.0729 55.9519 64.7317 55.951 64.3873V63.6873C57.2381 63.3498 58.4741 62.8413 59.626 62.1753C59.6442 62.1617 59.6663 62.1543 59.689 62.1543C59.7117 62.1543 59.7338 62.1617 59.752 62.1753L60.081 62.4903C60.5081 62.9741 61.0892 63.2956 61.726 63.4003C62.1165 63.4473 62.5126 63.4042 62.8839 63.2743C63.2552 63.1445 63.5918 62.9314 63.868 62.6513L65.639 60.8873C66.1272 60.3933 66.401 59.7268 66.401 59.0323C66.401 58.3378 66.1272 57.6713 65.639 57.1773L65.149 56.7013C65.8261 55.5598 66.342 54.3302 66.682 53.0473C66.688 53.0238 66.7016 53.0029 66.7205 52.9878C66.7394 52.9726 66.7628 52.964 66.787 52.9633H67.27C67.9947 52.9614 68.689 52.6723 69.2008 52.1592C69.7126 51.6461 70 50.951 70 50.2263V47.8463C70.0018 47.5006 69.9356 47.158 69.805 46.838C69.6744 46.518 69.4821 46.2268 69.239 45.9811C68.9959 45.7354 68.7068 45.5399 68.3882 45.406C68.0695 45.272 67.7276 45.2021 67.382 45.2003ZM2.1 6.70028C2.10555 5.74596 2.48855 4.83262 3.16533 4.15978C3.84211 3.48693 4.75767 3.10927 5.712 3.10928H59.346C60.3003 3.10927 61.2159 3.48693 61.8927 4.15978C62.5695 4.83262 62.9525 5.74596 62.958 6.70028V18.6003H2.1V6.70028ZM5.712 50.6113C4.75525 50.6113 3.83758 50.2317 3.1604 49.5558C2.48322 48.88 2.10185 47.963 2.1 47.0063V20.7003H62.958V34.9243C62.4844 34.7409 61.9678 34.6989 61.4708 34.8033C60.9739 34.9076 60.5178 35.1539 60.158 35.5123L59.682 35.9883C58.5106 35.3014 57.2506 34.7785 55.937 34.4343V33.7343C55.937 33.0393 55.6614 32.3727 55.1706 31.8806C54.6799 31.3885 54.014 31.1111 53.319 31.1093H50.827C50.1314 31.1111 49.4648 31.3883 48.9729 31.8802C48.481 32.372 48.2038 33.0387 48.202 33.7343V34.4343C46.8889 34.7798 45.629 35.3026 44.457 35.9883L43.988 35.5123C43.4958 35.0207 42.8286 34.7446 42.133 34.7446C41.4374 34.7446 40.7702 35.0207 40.278 35.5123L38.5 37.2693C38.2194 37.5512 38.0057 37.8926 37.8749 38.2682C37.744 38.6438 37.6993 39.044 37.744 39.4393C37.8428 40.0672 38.1454 40.6452 38.605 41.0843L38.92 41.4063C38.9354 41.425 38.9437 41.4485 38.9437 41.4728C38.9437 41.497 38.9354 41.5205 38.92 41.5393C38.2729 42.6658 37.7718 43.8702 37.429 45.1233C37.4241 45.1455 37.4117 45.1653 37.3938 45.1794C37.3759 45.1934 37.3537 45.2008 37.331 45.2003H36.848C36.4892 45.1994 36.1338 45.2693 35.8022 45.4062C35.4705 45.5431 35.1692 45.7441 34.9155 45.9978C34.6618 46.2515 34.4608 46.5528 34.3239 46.8845C34.1871 47.2161 34.1171 47.5715 34.118 47.9303V50.2053C34.1044 50.3403 34.1044 50.4763 34.118 50.6113H5.712ZM67.97 50.2053C67.97 50.3909 67.8962 50.569 67.765 50.7003C67.6337 50.8315 67.4557 50.9053 67.27 50.9053H65.17C65.1438 50.9067 65.1189 50.9173 65.0997 50.9352C65.0805 50.9531 65.0682 50.9772 65.065 51.0033C64.8395 52.4725 64.3661 53.8927 63.665 55.2033C63.35 55.7897 62.9945 56.3534 62.601 56.8903C62.5838 56.9095 62.5743 56.9345 62.5743 56.9603C62.5743 56.9861 62.5838 57.011 62.601 57.0303L64.001 58.4303L64.197 58.6333C64.2536 58.6869 64.2986 58.7515 64.3294 58.8231C64.3602 58.8947 64.376 58.9718 64.376 59.0498C64.376 59.1277 64.3602 59.2048 64.3294 59.2765C64.2986 59.3481 64.2536 59.4126 64.197 59.4663L62.44 61.2233C62.3268 61.3311 62.1764 61.3913 62.02 61.3913C61.8636 61.3913 61.7132 61.3311 61.6 61.2233L61.397 61.0273L59.997 59.6273C59.9777 59.6101 59.9528 59.6005 59.927 59.6005C59.9012 59.6005 59.8763 59.6101 59.857 59.6273C59.3239 60.0243 58.7598 60.3778 58.17 60.6843C57.451 61.0695 56.6961 61.3837 55.916 61.6223C55.2858 61.8258 54.6395 61.9756 53.984 62.0703C53.9574 62.0721 53.9324 62.0839 53.9142 62.1034C53.896 62.1229 53.8859 62.1486 53.886 62.1753V64.4013C53.8869 64.4791 53.8724 64.5563 53.8433 64.6284C53.8141 64.7006 53.771 64.7662 53.7163 64.8216C53.6616 64.8769 53.5964 64.9209 53.5246 64.9509C53.4528 64.9809 53.3758 64.9963 53.298 64.9963H50.918C50.7323 64.9963 50.5543 64.9225 50.423 64.7913C50.2917 64.66 50.218 64.4819 50.218 64.2963V62.1963C50.2182 62.1707 50.2091 62.1459 50.1924 62.1266C50.1756 62.1072 50.1524 62.0947 50.127 62.0913C49.4694 61.9959 48.8208 61.846 48.188 61.6433C47.4081 61.4071 46.6532 61.0952 45.934 60.7123C45.3478 60.4008 44.7862 60.0451 44.254 59.6483C44.233 59.6318 44.2072 59.6229 44.1805 59.6229C44.1538 59.6229 44.128 59.6318 44.107 59.6483L42.707 61.0483L42.497 61.2513C42.3849 61.3587 42.2357 61.4186 42.0805 61.4186C41.9253 61.4186 41.7761 61.3587 41.664 61.2513L39.9 59.4873C39.8455 59.4334 39.8026 59.369 39.7737 59.298C39.7448 59.227 39.7306 59.1509 39.732 59.0743C39.7298 58.9976 39.7436 58.9212 39.7725 58.8501C39.8015 58.779 39.8449 58.7147 39.9 58.6613L41.482 57.0723C41.4913 57.0632 41.4987 57.0523 41.5038 57.0402C41.5088 57.0282 41.5114 57.0153 41.5114 57.0023C41.5114 56.9892 41.5088 56.9763 41.5038 56.9643C41.4987 56.9523 41.4913 56.9414 41.482 56.9323C41.0836 56.4012 40.7279 55.8394 40.418 55.2523C40.0416 54.5315 39.7277 53.7798 39.48 53.0053C39.48 52.9283 39.431 52.8583 39.41 52.7813C39.2475 52.2211 39.1236 51.6504 39.039 51.0733C39.0372 51.0467 39.0254 51.0217 39.0059 51.0035C38.9864 50.9853 38.9607 50.9752 38.934 50.9753H36.834C36.7211 50.9751 36.61 50.9476 36.5101 50.8952C36.4101 50.8428 36.3243 50.767 36.26 50.6743C36.1797 50.554 36.1359 50.4129 36.134 50.2683V47.9373C36.134 47.7516 36.2077 47.5736 36.339 47.4423C36.4703 47.311 36.6483 47.2373 36.834 47.2373H38.934C38.9596 47.2375 38.9844 47.2284 39.0037 47.2116C39.023 47.1949 39.0356 47.1716 39.039 47.1463C39.1541 46.485 39.3226 45.8342 39.543 45.2003C39.7907 44.4235 40.1045 43.6694 40.481 42.9463C40.7926 42.3623 41.1483 41.803 41.545 41.2733C41.5627 41.2529 41.5725 41.2268 41.5725 41.1998C41.5725 41.1728 41.5627 41.1467 41.545 41.1263L39.963 39.5513C39.8535 39.4363 39.7932 39.2831 39.795 39.1243C39.794 39.0477 39.8084 38.9717 39.8373 38.9008C39.8661 38.8299 39.9089 38.7654 39.963 38.7113L41.727 36.9473C41.7811 36.8916 41.8459 36.8474 41.9174 36.8171C41.989 36.7869 42.0658 36.7714 42.1435 36.7714C42.2212 36.7714 42.298 36.7869 42.3696 36.8171C42.4411 36.8474 42.5059 36.8916 42.56 36.9473L44.1 38.5223C44.1204 38.54 44.1465 38.5498 44.1735 38.5498C44.2005 38.5498 44.2266 38.54 44.247 38.5223C44.7905 38.144 45.3588 37.8025 45.948 37.5003C46.6686 37.1202 47.4232 36.8085 48.202 36.5693C48.8351 36.3626 49.4834 36.2058 50.141 36.1003C50.1664 36.0969 50.1896 36.0843 50.2063 36.065C50.2231 36.0457 50.2322 36.0209 50.232 35.9953V33.8953C50.232 33.7096 50.3058 33.5316 50.437 33.4003C50.5683 33.269 50.7463 33.1953 50.932 33.1953H53.305C53.3828 33.1953 53.4598 33.2107 53.5316 33.2407C53.6034 33.2707 53.6686 33.3146 53.7233 33.37C53.778 33.4253 53.8211 33.491 53.8503 33.5631C53.8794 33.6353 53.8939 33.7125 53.893 33.7903V36.0233C53.8929 36.05 53.903 36.0757 53.9212 36.0952C53.9394 36.1147 53.9644 36.1265 53.991 36.1283C54.6457 36.2239 55.2917 36.3714 55.923 36.5693C56.7065 36.8079 57.4658 37.1196 58.191 37.5003C58.7778 37.8119 59.3416 38.1651 59.878 38.5573C59.8871 38.5666 59.898 38.574 59.91 38.579C59.9221 38.5841 59.935 38.5867 59.948 38.5867C59.961 38.5867 59.9739 38.5841 59.986 38.579C59.998 38.574 60.0089 38.5666 60.018 38.5573L61.6 36.9473C61.7113 36.8356 61.8623 36.7727 62.02 36.7723C62.0982 36.7717 62.1757 36.7869 62.2478 36.817C62.32 36.847 62.3854 36.8914 62.44 36.9473L64.197 38.7043C64.2531 38.7596 64.2976 38.8256 64.328 38.8983C64.3584 38.971 64.3741 39.049 64.3741 39.1278C64.3741 39.2066 64.3584 39.2846 64.328 39.3573C64.2976 39.43 64.2531 39.4959 64.197 39.5513L64.001 39.7543L62.965 40.7763V41.7773C63.217 42.1553 63.448 42.5403 63.665 42.9463C64.0451 43.6669 64.3568 44.4215 64.596 45.2003C64.7947 45.8338 64.9421 46.4822 65.037 47.1393C65.0331 47.1554 65.0331 47.1722 65.037 47.1883C65.0471 47.2009 65.0599 47.2113 65.0744 47.2185C65.0889 47.2258 65.1048 47.2298 65.121 47.2303H67.221C67.4066 47.2303 67.5847 47.304 67.716 47.4353C67.8473 47.5666 67.921 47.7446 67.921 47.9303L67.97 50.2053Z" fill="white"/>
<path d="M11.6131 6.30859C10.7174 6.30859 9.84172 6.57422 9.09693 7.07187C8.35214 7.56952 7.77165 8.27685 7.42886 9.10442C7.08607 9.93199 6.99638 10.8426 7.17113 11.7212C7.34588 12.5997 7.77723 13.4067 8.41062 14.0401C9.04401 14.6735 9.851 15.1048 10.7295 15.2796C11.6081 15.4543 12.5187 15.3646 13.3463 15.0218C14.1738 14.6791 14.8812 14.0986 15.3788 13.3538C15.8765 12.609 16.1421 11.7333 16.1421 10.8376C16.1403 9.637 15.6625 8.4861 14.8136 7.63715C13.9646 6.7882 12.8137 6.31045 11.6131 6.30859ZM11.6131 13.3086C11.1192 13.3072 10.6367 13.1595 10.2267 12.884C9.81661 12.6086 9.4974 12.2178 9.30933 11.7611C9.12126 11.3043 9.07277 10.8021 9.16998 10.3178C9.2672 9.83349 9.50575 9.38887 9.85552 9.04007C10.2053 8.69128 10.6506 8.45397 11.1351 8.35811C11.6197 8.26225 12.1218 8.31215 12.578 8.5015C13.0343 8.69084 13.4241 9.01115 13.6984 9.42195C13.9727 9.83276 14.1191 10.3156 14.1191 10.8096C14.1219 11.1405 14.0591 11.4686 13.9344 11.775C13.8097 12.0815 13.6256 12.3603 13.3926 12.5952C13.1596 12.8301 12.8824 13.0166 12.577 13.1438C12.2716 13.2711 11.944 13.3366 11.6131 13.3366V13.3086Z" fill="white"/>
<path d="M23.1421 6.3086C22.246 6.30721 21.3697 6.57166 20.624 7.06847C19.8783 7.56528 19.2967 8.27213 18.9528 9.09957C18.609 9.92701 18.5183 10.8379 18.6923 11.7169C18.8662 12.5959 19.297 13.4035 19.9301 14.0376C20.5632 14.6717 21.3702 15.1037 22.2489 15.2791C23.1277 15.4544 24.0387 15.3651 24.8666 15.0225C25.6946 14.6799 26.4024 14.0994 26.9003 13.3545C27.3983 12.6096 27.6641 11.7336 27.6641 10.8376C27.6622 9.63821 27.1854 8.48837 26.338 7.63962C25.4906 6.79087 24.3415 6.3123 23.1421 6.3086ZM23.1421 13.3086C22.6478 13.3086 22.1647 13.162 21.7537 12.8874C21.3428 12.6128 21.0224 12.2226 20.8333 11.7659C20.6442 11.3093 20.5947 10.8068 20.6911 10.3221C20.7875 9.83731 21.0255 9.39203 21.375 9.04254C21.7245 8.69305 22.1698 8.45504 22.6546 8.35862C23.1393 8.26219 23.6418 8.31168 24.0984 8.50082C24.555 8.68997 24.9453 9.01027 25.2199 9.42123C25.4945 9.83219 25.6411 10.3153 25.6411 10.8096C25.6439 11.1399 25.5813 11.4674 25.457 11.7734C25.3328 12.0794 25.1493 12.3579 24.917 12.5927C24.6848 12.8276 24.4084 13.0142 24.1038 13.1418C23.7992 13.2695 23.4724 13.3357 23.1421 13.3366V13.3086Z" fill="white"/>
<path d="M53.445 6.28125H39.389C38.2259 6.34579 37.1317 6.8533 36.3311 7.6995C35.5306 8.54571 35.0845 9.66637 35.0845 10.8313C35.0845 11.9961 35.5306 13.1168 36.3311 13.963C37.1317 14.8092 38.2259 15.3167 39.389 15.3813H53.445C54.6081 15.3167 55.7023 14.8092 56.5029 13.963C57.3034 13.1168 57.7495 11.9961 57.7495 10.8313C57.7495 9.66637 57.3034 8.54571 56.5029 7.6995C55.7023 6.8533 54.6081 6.34579 53.445 6.28125ZM53.445 13.2813H39.389C38.7336 13.2813 38.1051 13.0209 37.6417 12.5575C37.1783 12.0941 36.918 11.4656 36.918 10.8103C36.918 10.1549 37.1783 9.52639 37.6417 9.06299C38.1051 8.59959 38.7336 8.33925 39.389 8.33925H53.445C54.1003 8.33925 54.7288 8.59959 55.1922 9.06299C55.6557 9.52639 55.916 10.1549 55.916 10.8103C55.916 11.4656 55.6557 12.0941 55.1922 12.5575C54.7288 13.0209 54.1003 13.2813 53.445 13.2813Z" fill="white"/>
<path d="M62.6149 41.1184C62.5984 41.1394 62.5895 41.1652 62.5895 41.1919C62.5895 41.2185 62.5984 41.2444 62.6149 41.2654C62.7409 41.4404 62.8599 41.6084 62.9719 41.7764V40.7754L62.6149 41.1184ZM62.6149 41.1184C62.5984 41.1394 62.5895 41.1652 62.5895 41.1919C62.5895 41.2185 62.5984 41.2444 62.6149 41.2654C62.7409 41.4404 62.8599 41.6084 62.9719 41.7764V40.7754L62.6149 41.1184ZM62.6149 41.1184C62.5984 41.1394 62.5895 41.1652 62.5895 41.1919C62.5895 41.2185 62.5984 41.2444 62.6149 41.2654C62.7409 41.4404 62.8599 41.6084 62.9719 41.7764V40.7754L62.6149 41.1184ZM62.6149 41.1184C62.5984 41.1394 62.5895 41.1652 62.5895 41.1919C62.5895 41.2185 62.5984 41.2444 62.6149 41.2654C62.7409 41.4404 62.8599 41.6084 62.9719 41.7764V40.7754L62.6149 41.1184ZM62.6149 41.1184C62.5984 41.1394 62.5895 41.1652 62.5895 41.1919C62.5895 41.2185 62.5984 41.2444 62.6149 41.2654C62.7409 41.4404 62.8599 41.6084 62.9719 41.7764V40.7754L62.6149 41.1184ZM62.6149 41.1184C62.5984 41.1394 62.5895 41.1652 62.5895 41.1919C62.5895 41.2185 62.5984 41.2444 62.6149 41.2654C62.7409 41.4404 62.8599 41.6084 62.9719 41.7764V40.7754L62.6149 41.1184Z" fill="white"/>
<path d="M52.0731 41.7012C50.6057 41.704 49.1722 42.1422 47.9541 42.9603C46.736 43.7784 45.7881 44.9396 45.2304 46.2968C44.6728 47.6541 44.5304 49.1463 44.8215 50.5845C45.1125 52.0227 45.8238 53.3421 46.8653 54.3758C47.9068 55.4094 49.2316 56.1107 50.6719 56.3908C52.1123 56.671 53.6034 56.5174 54.9564 55.9494C56.3093 55.3815 57.4633 54.4248 58.2722 53.2006C59.0811 51.9763 59.5084 50.5395 59.5001 49.0722C59.4908 47.1104 58.7036 45.2325 57.3111 43.8506C55.9187 42.4686 54.0349 41.6956 52.0731 41.7012ZM56.4341 52.7542C55.9013 53.3922 55.2349 53.9055 54.4819 54.2577C53.7289 54.6099 52.9078 54.7924 52.0766 54.7924C51.2453 54.7924 50.4242 54.6099 49.6713 54.2577C48.9183 53.9055 48.2519 53.3922 47.7191 52.7542C47.2052 52.1388 46.8239 51.4238 46.5991 50.6542C46.4617 50.1523 46.3911 49.6345 46.3891 49.1142C46.3891 47.6067 46.9879 46.161 48.0539 45.095C49.1198 44.029 50.5656 43.4302 52.0731 43.4302C53.5806 43.4302 55.0263 44.029 56.0923 45.095C57.1582 46.161 57.7571 47.6067 57.7571 49.1142C57.755 49.6345 57.6844 50.1523 57.5471 50.6542C57.3203 51.4111 56.9416 52.1137 56.4341 52.7192V52.7542Z" fill="white"/>
<path d="M12.7541 41.8474C12.5881 41.8493 12.4239 41.8116 12.2754 41.7373C12.1269 41.6631 11.9982 41.5544 11.9001 41.4204L8.26012 36.4504C8.12546 36.2693 8.05273 36.0496 8.05273 35.8239C8.05273 35.5982 8.12546 35.3785 8.26012 35.1974L11.9001 30.3674C11.9794 30.2467 12.0826 30.1435 12.2033 30.0642C12.324 29.9849 12.4597 29.9312 12.6019 29.9064C12.7442 29.8815 12.89 29.8861 13.0305 29.9199C13.1709 29.9536 13.3029 30.0157 13.4184 30.1024C13.5338 30.1892 13.6303 30.2986 13.7019 30.4241C13.7734 30.5496 13.8184 30.6883 13.8343 30.8319C13.8501 30.9754 13.8363 31.1207 13.7938 31.2587C13.7513 31.3967 13.6809 31.5246 13.5871 31.6344L10.4161 35.8344L13.5941 40.1674C13.6758 40.279 13.7346 40.4056 13.7671 40.5399C13.7997 40.6743 13.8054 40.8138 13.784 40.9504C13.7625 41.0869 13.7143 41.2179 13.6421 41.3358C13.5698 41.4537 13.475 41.5562 13.3631 41.6374C13.1876 41.7703 12.9743 41.8439 12.7541 41.8474Z" fill="white"/>
<path d="M27.2018 41.8477C26.9748 41.8467 26.754 41.7731 26.5718 41.6377C26.4605 41.5549 26.3667 41.4509 26.2958 41.3316C26.225 41.2124 26.1784 41.0803 26.1589 40.943C26.1394 40.8056 26.1472 40.6658 26.1821 40.5315C26.2169 40.3972 26.278 40.2712 26.3618 40.1607L29.5328 35.9607L26.3548 31.6207C26.2128 31.3943 26.1618 31.1226 26.2121 30.8602C26.2623 30.5978 26.41 30.3641 26.6256 30.2063C26.8411 30.0484 27.1085 29.978 27.3738 30.0092C27.6392 30.0405 27.8828 30.171 28.0558 30.3747L31.6958 35.3447C31.8305 35.5258 31.9032 35.7455 31.9032 35.9712C31.9032 36.1969 31.8305 36.4166 31.6958 36.5977L28.0558 41.4277C27.9558 41.5592 27.8266 41.6656 27.6784 41.7385C27.5302 41.8114 27.367 41.8488 27.2018 41.8477Z" fill="white"/>
<path d="M18.235 43.8007H18.011C17.8754 43.7709 17.747 43.7146 17.6331 43.6351C17.5193 43.5556 17.4222 43.4545 17.3474 43.3375C17.2727 43.2205 17.2217 43.0899 17.1974 42.9532C17.1732 42.8165 17.1761 42.6763 17.206 42.5407L20.209 28.9117C20.238 28.7764 20.2935 28.6481 20.3723 28.5343C20.4511 28.4205 20.5516 28.3234 20.6681 28.2486C20.7845 28.1738 20.9146 28.1228 21.0508 28.0984C21.1871 28.0741 21.3268 28.0769 21.462 28.1067C21.7349 28.1687 21.9724 28.3356 22.1231 28.5715C22.2738 28.8073 22.3255 29.093 22.267 29.3667L19.264 42.9397C19.2199 43.1808 19.0929 43.3988 18.9049 43.556C18.717 43.7133 18.48 43.7998 18.235 43.8007Z" fill="white"/>
</svg>
