<svg width="46" height="46" viewBox="0 0 46 46" fill="none" xmlns="http://www.w3.org/2000/svg">
<g clip-path="url(#clip0_570_655)">
<path d="M13.8812 35.8995C13.7106 35.8968 13.548 35.8269 13.4287 35.7049L0.803564 23.0798C0.687369 22.9578 0.622559 22.7958 0.622559 22.6273C0.622559 22.4588 0.687369 22.2968 0.803564 22.1748L13.4151 9.54962C13.5413 9.43951 13.7046 9.38142 13.872 9.3871C14.0393 9.39278 14.1983 9.46181 14.3167 9.58022C14.4351 9.69864 14.5042 9.85761 14.5098 10.025C14.5155 10.1923 14.4574 10.3556 14.3473 10.4818L2.20183 22.6273L14.3473 34.7727C14.4385 34.8643 14.5009 34.9806 14.5266 35.1072C14.5524 35.2339 14.5405 35.3653 14.4923 35.4852C14.4442 35.6052 14.3619 35.7083 14.2557 35.782C14.1495 35.8556 14.024 35.8965 13.8948 35.8995H13.8812Z" fill="white" stroke="white" stroke-width="0.5"/>
<path d="M32.5882 35.8995C32.459 35.8965 32.3336 35.8556 32.2274 35.782C32.1212 35.7083 32.0389 35.6052 31.9907 35.4852C31.9425 35.3653 31.9306 35.2339 31.9564 35.1072C31.9822 34.9806 32.0445 34.8643 32.1357 34.7727L44.2676 22.6273L32.1222 10.4818C32.012 10.3556 31.9539 10.1923 31.9596 10.025C31.9653 9.85761 32.0343 9.69864 32.1528 9.58022C32.2712 9.46181 32.4301 9.39278 32.5975 9.3871C32.7649 9.38142 32.9282 9.43951 33.0543 9.54962L45.6659 22.1748C45.7275 22.2358 45.7763 22.3084 45.8097 22.3884C45.843 22.4684 45.8602 22.5542 45.8602 22.6409C45.8602 22.7275 45.843 22.8133 45.8097 22.8933C45.7763 22.9733 45.7275 23.0459 45.6659 23.1069L33.0543 35.7049C32.9937 35.767 32.9211 35.8161 32.8411 35.8496C32.761 35.883 32.675 35.9 32.5882 35.8995Z" fill="white" stroke="white" stroke-width="0.5"/>
<path d="M18.9314 41.3842C18.8849 41.3911 18.8376 41.3911 18.7911 41.3842C18.7062 41.3665 18.6257 41.3321 18.5541 41.2831C18.4826 41.234 18.4215 41.1713 18.3744 41.0985C18.3273 41.0257 18.295 40.9443 18.2796 40.8589C18.2641 40.7736 18.2657 40.6861 18.2843 40.6014L26.1399 4.40024C26.1771 4.22982 26.2805 4.08116 26.4273 3.98696C26.5741 3.89276 26.7523 3.86074 26.9228 3.89795C27.0932 3.93515 27.2418 4.03853 27.336 4.18535C27.4302 4.33216 27.4623 4.51038 27.4251 4.6808L19.5739 40.8819C19.5385 41.0255 19.4559 41.153 19.3394 41.2441C19.2229 41.3351 19.0792 41.3845 18.9314 41.3842Z" fill="white" stroke="white" stroke-width="0.5"/>
</g>
<defs>
<clipPath id="clip0_570_655">
<rect width="45.2514" height="45.2514" fill="white" transform="translate(0.608887 0.00195312)"/>
</clipPath>
</defs>
</svg>
