<svg width="90" height="90" viewBox="0 0 90 90" fill="none" xmlns="http://www.w3.org/2000/svg">
<g clip-path="url(#clip0_3977_5277)">
<path d="M72.6569 38.3221H67.8689L67.7609 37.9711C67.3877 36.8047 66.915 35.6725 66.3479 34.5871L66.1679 34.2631L69.5699 30.8611C69.8683 30.5609 70.0358 30.1548 70.0358 29.7316C70.0358 29.3083 69.8683 28.9022 69.5699 28.6021L62.2709 21.3031C61.9654 21.0078 61.5572 20.8427 61.1324 20.8427C60.7075 20.8427 60.2993 21.0078 59.9939 21.3031L56.6189 24.6781L56.2949 24.5071C55.1985 23.9501 54.0612 23.4778 52.8929 23.0941L52.5508 22.9771V18.2161C52.5509 18.0061 52.5094 17.7982 52.4287 17.6044C52.3481 17.4105 52.23 17.2345 52.0811 17.0865C51.9322 16.9384 51.7555 16.8213 51.5612 16.7417C51.3669 16.6622 51.1588 16.6219 50.9489 16.6231H40.6169C40.1935 16.6231 39.7874 16.7906 39.4872 17.0891C39.1871 17.3876 39.0172 17.7928 39.0149 18.2161V22.9771L38.6819 23.0941C37.5152 23.4745 36.3807 23.947 35.2889 24.5071L34.9559 24.6781L31.5629 21.3031C31.4166 21.1526 31.2417 21.0329 31.0485 20.951C30.8553 20.8691 30.6477 20.8266 30.4379 20.8261C30.2267 20.8269 30.0179 20.8695 29.8232 20.9514C29.6286 21.0332 29.4521 21.1528 29.3039 21.3031L22.0049 28.6021C21.7086 28.9034 21.5426 29.309 21.5426 29.7316C21.5426 30.1541 21.7086 30.5598 22.0049 30.8611L25.3889 34.2631L25.2179 34.5871C24.6507 35.6725 24.178 36.8047 23.8049 37.9711L23.6879 38.3221H18.8999C18.4765 38.3221 18.0704 38.4896 17.7702 38.7881C17.4701 39.0866 17.3002 39.4918 17.2979 39.9151V50.2471C17.2979 50.672 17.4666 51.0794 17.7671 51.3799C18.0675 51.6803 18.475 51.8491 18.8999 51.8491H23.6789L23.7959 52.1821C24.1627 53.3552 24.6325 54.4937 25.1999 55.5841L25.3709 55.9081L21.9779 59.3011C21.8268 59.4479 21.7067 59.6235 21.6247 59.8175C21.5428 60.0115 21.5005 60.22 21.5005 60.4306C21.5005 60.6412 21.5428 60.8497 21.6247 61.0437C21.7067 61.2377 21.8268 61.4133 21.9779 61.5601L29.2679 68.8591C29.4161 69.0082 29.593 69.1257 29.7879 69.2046C29.9828 69.2835 30.1916 69.3221 30.4019 69.3181C30.6108 69.323 30.8186 69.2848 31.0122 69.2058C31.2057 69.1268 31.3809 69.0088 31.5269 68.8591L34.9199 65.4481L35.2529 65.6281C36.3588 66.198 37.5121 66.6708 38.6999 67.0411L39.0329 67.1581V71.9461C39.0329 72.371 39.2016 72.7784 39.5021 73.0789C39.8025 73.3793 40.21 73.5481 40.6349 73.5481H50.9489C51.1596 73.5493 51.3684 73.5086 51.5633 73.4286C51.7582 73.3485 51.9353 73.2305 52.0843 73.0815C52.2333 72.9325 52.3513 72.7554 52.4313 72.5605C52.5114 72.3656 52.552 72.1568 52.5508 71.9461V67.1581L52.8929 67.0411C54.0632 66.6665 55.201 66.1969 56.2949 65.6371L56.6189 65.4661L59.9939 68.8591C60.1451 69.0091 60.3251 69.1271 60.5231 69.206C60.721 69.2849 60.9328 69.323 61.1459 69.3181C61.3546 69.3214 61.5619 69.2824 61.7553 69.2036C61.9486 69.1247 62.124 69.0075 62.2709 68.8591L69.5699 61.5511C69.8688 61.2494 70.0366 60.8418 70.0366 60.4171C70.0366 59.9923 69.8688 59.5848 69.5699 59.2831L66.1679 55.9081L66.3389 55.5841C66.9188 54.5036 67.395 53.3705 67.7609 52.2001L67.8689 51.8671H72.6569C72.8672 51.8671 73.0756 51.8256 73.2699 51.7451C73.4643 51.6646 73.6409 51.5466 73.7896 51.3979C73.9384 51.2491 74.0564 51.0725 74.1369 50.8781C74.2174 50.6838 74.2589 50.4755 74.2589 50.2651V39.9151C74.2565 39.4918 74.0866 39.0866 73.7865 38.7881C73.4863 38.4896 73.0802 38.3221 72.6569 38.3221ZM71.0999 48.6541H66.5999C66.2477 48.6538 65.9057 48.7716 65.6283 48.9886C65.351 49.2056 65.1544 49.5092 65.0699 49.8511C64.8368 50.772 64.536 51.6745 64.1699 52.5511L64.0439 52.8571C63.6765 53.7272 63.2464 54.5694 62.7569 55.3771C62.5652 55.6798 62.4838 56.0394 62.5264 56.3952C62.569 56.751 62.7331 57.0812 62.9908 57.3301L66.1139 60.4531L61.0829 65.4841L57.9418 62.3521C57.704 62.1176 57.3966 61.9664 57.0657 61.921C56.7348 61.8756 56.3981 61.9384 56.1059 62.1001C55.2926 62.5932 54.4478 63.0321 53.5769 63.4141L53.2259 63.5491C52.3504 63.9182 51.4477 64.2191 50.5259 64.4491C50.1807 64.5334 49.8737 64.7306 49.6535 65.0095C49.4334 65.2883 49.3128 65.6328 49.3109 65.9881V70.4161H42.2189V65.9251C42.2185 65.5694 42.0985 65.2242 41.8781 64.945C41.6577 64.6658 41.3498 64.4689 41.0039 64.3861C40.0816 64.1575 39.1788 63.8566 38.3039 63.4861L37.9349 63.3421C37.0831 62.9838 36.2562 62.5689 35.4599 62.1001C35.1624 61.9289 34.8167 61.8608 34.4765 61.9064C34.1364 61.9519 33.8208 62.1086 33.5789 62.3521L30.4379 65.4841L25.3979 60.4531L28.5299 57.3211C28.7947 57.0738 28.9663 56.7426 29.0154 56.3836C29.0646 56.0245 28.9885 55.6595 28.7999 55.3501C28.3119 54.5523 27.8846 53.719 27.5219 52.8571L27.4769 52.7581C27.4355 52.6796 27.3994 52.5984 27.3689 52.5151C27.0201 51.6365 26.7344 50.7342 26.5139 49.8151C26.429 49.4717 26.231 49.167 25.9518 48.9498C25.6727 48.7327 25.3285 48.6158 24.9749 48.6181H20.5199V41.5171H24.9389C25.2922 41.5168 25.6352 41.3977 25.9127 41.179C26.1902 40.9603 26.3861 40.6546 26.4689 40.3111C26.705 39.391 27.0057 38.4888 27.3689 37.6111C27.4229 37.5031 27.4679 37.3771 27.5309 37.2421C27.8939 36.3993 28.318 35.5841 28.7999 34.8031C28.9844 34.4997 29.0616 34.1431 29.0192 33.7906C28.9768 33.438 28.8171 33.11 28.5659 32.8591L25.3979 29.7001L30.4379 24.6601L33.5609 27.7831C33.8124 28.0365 34.1421 28.1975 34.4966 28.2399C34.8511 28.2824 35.2096 28.2039 35.5139 28.0171C36.3034 27.5312 37.1276 27.104 37.9799 26.7391L38.1959 26.6581L38.3579 26.5861C39.2182 26.2379 40.1025 25.9522 41.0039 25.7311C41.3513 25.6479 41.6603 25.4497 41.8809 25.1686C42.1015 24.8876 42.2206 24.5403 42.2189 24.1831V19.8001H49.3469V24.2101C49.3483 24.5665 49.4686 24.9122 49.6887 25.1926C49.9087 25.473 50.216 25.672 50.5619 25.7581C51.4832 25.9898 52.3857 26.2906 53.2619 26.6581C53.3856 26.6998 53.506 26.7509 53.6219 26.8111C54.476 27.1746 55.3031 27.5987 56.0969 28.0801C56.3997 28.2642 56.7554 28.342 57.1075 28.3013C57.4596 28.2605 57.788 28.1035 58.0409 27.8551L61.1729 24.7231L66.1769 29.7001L63.0538 32.8321C62.7961 33.081 62.632 33.4112 62.5894 33.7669C62.5468 34.1227 62.6282 34.4823 62.8199 34.7851C63.2989 35.5785 63.7258 36.4022 64.0979 37.2511L64.2418 37.6291C64.6132 38.4883 64.9142 39.3762 65.1418 40.2841C65.2264 40.6283 65.4241 40.9342 65.7031 41.1529C65.9821 41.3715 66.3264 41.4902 66.6809 41.4901H71.0999V48.6541Z" fill="#E21016"/>
<path d="M45.7828 32.7793C43.3499 32.7811 40.9721 33.5041 38.95 34.8571C36.928 36.2101 35.3525 38.1321 34.4227 40.3804C33.4929 42.6286 33.2505 45.1021 33.7263 47.488C34.202 49.874 35.3745 52.0653 37.0954 53.785C38.8164 55.5047 41.0086 56.6756 43.3949 57.1496C45.7812 57.6235 48.2545 57.3794 50.502 56.4479C52.7496 55.5165 54.6705 53.9396 56.022 51.9165C57.3734 49.8935 58.0948 47.5152 58.0948 45.0823C58.0924 41.8185 56.7942 38.6892 54.4855 36.3822C52.1768 34.0752 49.0466 32.7793 45.7828 32.7793ZM45.7828 54.1813C43.9839 54.1777 42.2265 53.6411 40.7326 52.6391C39.2386 51.6371 38.0752 50.2148 37.3892 48.5519C36.7033 46.8889 36.5257 45.06 36.8788 43.2962C37.2319 41.5323 38.0999 39.9127 39.3732 38.642C40.6464 37.3713 42.2677 36.5065 44.0323 36.1568C45.7968 35.8072 47.6254 35.9884 49.287 36.6777C50.9485 37.3669 52.3685 38.5331 53.3676 40.029C54.3666 41.525 54.8998 43.2835 54.8998 45.0823C54.8986 46.2784 54.6618 47.4625 54.203 48.5671C53.7442 49.6717 53.0723 50.6751 52.2257 51.52C51.3791 52.3649 50.3744 53.0348 49.2689 53.4914C48.1635 53.9481 46.9789 54.1825 45.7828 54.1813Z" fill="#E21016"/>
<path d="M28.0259 79.9021C27.8341 79.8988 27.6448 79.8591 27.4679 79.7851C21.2753 76.9817 16.1256 72.295 12.7529 66.3931C12.6666 66.2288 12.6135 66.0491 12.5967 65.8644C12.5798 65.6796 12.5995 65.4932 12.6547 65.3161C12.7098 65.1389 12.7994 64.9743 12.9181 64.8317C13.0369 64.6892 13.1826 64.5714 13.3469 64.4851C13.6791 64.3133 14.0657 64.2793 14.4228 64.3904C14.7799 64.5016 15.0789 64.749 15.2549 65.0791C18.3485 70.3879 23.0026 74.6146 28.5839 77.1841C28.8761 77.3164 29.1147 77.5443 29.2603 77.8302C29.4058 78.1161 29.4498 78.4431 29.3848 78.7573C29.3199 79.0715 29.15 79.3543 28.903 79.559C28.656 79.7638 28.3467 79.8785 28.0259 79.8841V79.9021Z" fill="#E21016"/>
<path d="M85.2207 45.0915C85.2088 55.5451 81.0509 65.5671 73.6591 72.9589C66.2673 80.3507 56.2453 84.5086 45.7917 84.5205H1.79972C1.42497 84.5205 1.06557 84.3717 0.800577 84.1067C0.535588 83.8417 0.386719 83.4823 0.386719 83.1075C0.386719 82.7328 0.535588 82.3734 0.800577 82.1084C1.06557 81.8434 1.42497 81.6945 1.79972 81.6945H45.7917C55.4012 81.6909 64.624 77.9094 71.4701 71.166C78.3162 64.4226 82.2366 55.2579 82.3855 45.6496C82.5343 36.0413 78.8996 26.7596 72.2657 19.8074C65.6318 12.8552 56.5305 8.7898 46.9257 8.48853H45.7917C44.8467 8.48853 43.9197 8.53353 42.9927 8.60553C37.4076 9.0214 31.9935 10.7187 27.1705 13.5656C22.3475 16.4126 18.2455 20.3326 15.1827 25.0215C14.9762 25.3354 14.6535 25.5544 14.2856 25.6304C13.9177 25.7063 13.5346 25.633 13.2207 25.4265C12.9068 25.2201 12.6878 24.8974 12.6119 24.5294C12.5359 24.1615 12.6092 23.7784 12.8157 23.4645C16.1208 18.4046 20.5483 14.1751 25.754 11.1048C30.9597 8.03442 36.8034 6.20596 42.8307 5.76153C43.8117 5.68953 44.8017 5.64453 45.7917 5.64453H46.5837C56.901 5.86795 66.7209 10.121 73.942 17.4934C81.163 24.8658 85.2114 34.7719 85.2207 45.0915Z" fill="#E21016"/>
<path d="M45.7921 5.64368C44.8021 5.64368 43.8121 5.68868 42.8311 5.76068L46.7101 1.07168C46.827 0.92487 46.972 0.802827 47.1367 0.712682C47.3013 0.622538 47.4822 0.566098 47.6689 0.54666C47.8556 0.527222 48.0443 0.545174 48.224 0.599469C48.4037 0.653763 48.5707 0.743312 48.7154 0.862886C48.8601 0.982459 48.9795 1.12966 49.0667 1.2959C49.1538 1.46213 49.207 1.64406 49.2231 1.83107C49.2392 2.01809 49.2178 2.20642 49.1603 2.38509C49.1028 2.56376 49.0102 2.72918 48.8881 2.87168L46.5841 5.65269L45.7921 5.64368Z" fill="#E21016"/>
<path d="M49.3107 12.7982C49.0457 13.0631 48.6864 13.2119 48.3117 13.2119C47.937 13.2119 47.5777 13.0631 47.3127 12.7982L42.9927 8.56817C43.8927 8.49617 44.8467 8.45117 45.7917 8.45117H46.9257L49.2927 10.8002C49.56 11.0628 49.712 11.4208 49.7154 11.7954C49.7188 12.1701 49.5732 12.5308 49.3107 12.7982Z" fill="#E21016"/>
<path d="M89.6758 83.7629L85.4008 88.9289C85.27 89.0891 85.1053 89.2182 84.9185 89.3069C84.7317 89.3957 84.5275 89.4417 84.3208 89.4419C84.052 89.4435 83.7883 89.3685 83.5606 89.2255C83.333 89.0826 83.1508 88.8777 83.0356 88.6348C82.9203 88.392 82.8767 88.1213 82.9098 87.8546C82.943 87.5878 83.0515 87.3361 83.2228 87.1289L85.3828 84.5189L86.6698 82.9619L85.3738 81.6929L82.7998 79.1999C82.5386 78.936 82.3918 78.5799 82.3911 78.2086C82.3904 77.8374 82.5359 77.4807 82.796 77.2159C83.0562 76.951 83.4101 76.7991 83.7813 76.7932C84.1525 76.7872 84.5112 76.9275 84.7797 77.1839L89.5498 81.8639C89.8073 82.1056 89.9635 82.4361 89.9869 82.7885C90.0103 83.141 89.8991 83.4892 89.6758 83.7629Z" fill="#E21016"/>
<path d="M86.6699 82.9624L85.3829 84.5194H65.3759C65.0011 84.5194 64.6417 84.3705 64.3767 84.1055C64.1118 83.8405 63.9629 83.4811 63.9629 83.1064C63.9629 82.7316 64.1118 82.3722 64.3767 82.1072C64.6417 81.8422 65.0011 81.6934 65.3759 81.6934H85.3739L86.6699 82.9624Z" fill="#E21016"/>
<path d="M9.89985 31.0506H5.60685C5.2321 31.0506 4.87269 30.9017 4.60771 30.6368C4.34272 30.3718 4.19385 30.0124 4.19385 29.6376C4.19385 29.2629 4.34272 28.9035 4.60771 28.6385C4.87269 28.3735 5.2321 28.2246 5.60685 28.2246H9.89985C10.2746 28.2246 10.634 28.3735 10.899 28.6385C11.164 28.9035 11.3128 29.2629 11.3128 29.6376C11.3128 30.0124 11.164 30.3718 10.899 30.6368C10.634 30.9017 10.2746 31.0506 9.89985 31.0506Z" fill="#E21016"/>
<path d="M18.2698 31.0506H14.0038C13.6291 31.0506 13.2697 30.9017 13.0047 30.6368C12.7397 30.3718 12.5908 30.0124 12.5908 29.6376C12.5908 29.2629 12.7397 28.9035 13.0047 28.6385C13.2697 28.3735 13.6291 28.2246 14.0038 28.2246H18.2698C18.6446 28.2246 19.004 28.3735 19.269 28.6385C19.534 28.9035 19.6828 29.2629 19.6828 29.6376C19.6828 30.0124 19.534 30.3718 19.269 30.6368C19.004 30.9017 18.6446 31.0506 18.2698 31.0506Z" fill="#E21016"/>
<path d="M9.89985 62.1912H5.60685C5.2321 62.1912 4.87269 62.0424 4.60771 61.7774C4.34272 61.5124 4.19385 61.153 4.19385 60.7782C4.19385 60.4035 4.34272 60.0441 4.60771 59.7791C4.87269 59.5141 5.2321 59.3652 5.60685 59.3652H9.89985C10.2746 59.3652 10.634 59.5141 10.899 59.7791C11.164 60.0441 11.3128 60.4035 11.3128 60.7782C11.3128 61.153 11.164 61.5124 10.899 61.7774C10.634 62.0424 10.2746 62.1912 9.89985 62.1912Z" fill="#E21016"/>
<path d="M18.2698 62.1912H14.0038C13.6291 62.1912 13.2697 62.0424 13.0047 61.7774C12.7397 61.5124 12.5908 61.153 12.5908 60.7782C12.5908 60.4035 12.7397 60.0441 13.0047 59.7791C13.2697 59.5141 13.6291 59.3652 14.0038 59.3652H18.2698C18.6446 59.3652 19.004 59.5141 19.269 59.7791C19.534 60.0441 19.6828 60.4035 19.6828 60.7782C19.6828 61.153 19.534 61.5124 19.269 61.7774C19.004 62.0424 18.6446 62.1912 18.2698 62.1912Z" fill="#E21016"/>
<path d="M5.67889 46.2336H1.41289C1.21845 46.2492 1.02291 46.2243 0.838558 46.1606C0.654208 46.0968 0.485049 45.9956 0.341731 45.8633C0.198413 45.731 0.0840413 45.5705 0.00581614 45.3918C-0.072409 45.2131 -0.112793 45.0202 -0.112793 44.8251C-0.112793 44.6301 -0.072409 44.4371 0.00581614 44.2584C0.0840413 44.0798 0.198413 43.9192 0.341731 43.7869C0.485049 43.6546 0.654208 43.5534 0.838558 43.4897C1.02291 43.4259 1.21845 43.4011 1.41289 43.4166H5.67889C5.87332 43.4011 6.06887 43.4259 6.25322 43.4897C6.43757 43.5534 6.60673 43.6546 6.75004 43.7869C6.89336 43.9192 7.00773 44.0798 7.08596 44.2584C7.16418 44.4371 7.20457 44.6301 7.20457 44.8251C7.20457 45.0202 7.16418 45.2131 7.08596 45.3918C7.00773 45.5705 6.89336 45.731 6.75004 45.8633C6.60673 45.9956 6.43757 46.0968 6.25322 46.1606C6.06887 46.2243 5.87332 46.2492 5.67889 46.2336Z" fill="#E21016"/>
<path d="M14.0761 46.2336H9.80107C9.60664 46.2492 9.41109 46.2243 9.22674 46.1606C9.04239 46.0968 8.87323 45.9956 8.72991 45.8633C8.5866 45.731 8.47222 45.5705 8.394 45.3918C8.31577 45.2131 8.27539 45.0202 8.27539 44.8251C8.27539 44.6301 8.31577 44.4371 8.394 44.2584C8.47222 44.0798 8.5866 43.9192 8.72991 43.7869C8.87323 43.6546 9.04239 43.5534 9.22674 43.4897C9.41109 43.4259 9.60664 43.4011 9.80107 43.4166H14.0761C14.2705 43.4011 14.466 43.4259 14.6504 43.4897C14.8347 43.5534 15.0039 43.6546 15.1472 43.7869C15.2905 43.9192 15.4049 44.0798 15.4831 44.2584C15.5614 44.4371 15.6017 44.6301 15.6017 44.8251C15.6017 45.0202 15.5614 45.2131 15.4831 45.3918C15.4049 45.5705 15.2905 45.731 15.1472 45.8633C15.0039 45.9956 14.8347 46.0968 14.6504 46.1606C14.466 46.2243 14.2705 46.2492 14.0761 46.2336Z" fill="#E21016"/>
</g>
<defs>
<clipPath id="clip0_3977_5277">
<rect width="90" height="90" fill="white"/>
</clipPath>
</defs>
</svg>
