<svg width="71" height="64" viewBox="0 0 71 64" fill="none" xmlns="http://www.w3.org/2000/svg">
<path d="M58.524 27.3237L46.2147 7.7237C46.1331 7.59878 46.0257 7.49269 45.8997 7.41251C45.7737 7.33233 45.6321 7.27989 45.4843 7.25869C45.3365 7.2375 45.1858 7.24803 45.0424 7.28959C44.8989 7.33114 44.766 7.40277 44.6524 7.4997L29.716 20.0297H10.7302C9.48342 20.0297 8.28772 20.5246 7.40613 21.4054C6.52454 22.2863 6.02926 23.481 6.02926 24.7267V52.8247H1.5175C1.24065 52.8247 0.975139 52.9346 0.779375 53.1302C0.583612 53.3258 0.473633 53.5911 0.473633 53.8677L0.473633 55.6947C0.473632 57.7783 1.30157 59.7768 2.77551 61.2508C4.24945 62.7248 6.24879 63.5538 8.33418 63.5557H46.2147C48.2996 63.552 50.2978 62.7224 51.7714 61.2487C53.2449 59.7751 54.0734 57.7778 54.0753 55.6947V53.8677C54.0753 53.7295 54.0479 53.5928 53.9945 53.4653C53.9412 53.3378 53.863 53.2222 53.7646 53.1252C53.6662 53.0281 53.5495 52.9516 53.4212 52.9C53.2929 52.8484 53.1557 52.8228 53.0174 52.8247H49.4024V31.8247L57.9705 28.9057C58.1203 28.8538 58.2564 28.769 58.3689 28.6575C58.4814 28.5459 58.5674 28.4106 58.6206 28.2614C58.6737 28.1122 58.6926 27.953 58.6759 27.7956C58.6592 27.6381 58.6073 27.4864 58.524 27.3517V27.3237ZM51.9805 54.9177V55.6947C51.9787 57.2227 51.3709 58.6877 50.2902 59.7688C49.2095 60.8499 47.744 61.459 46.2147 61.4627H8.33418C6.80614 61.4571 5.34247 60.8472 4.26329 59.7663C3.1841 58.6854 2.57723 57.2215 2.57538 55.6947V54.9177H51.9805ZM8.12401 52.8177V24.7267C8.124 24.0354 8.39836 23.3724 8.88691 22.8829C9.37546 22.3935 10.0383 22.1176 10.7302 22.1157H27.2289L25.2183 23.8027L24.8259 24.0337L24.6928 24.1037L15.7323 29.2837C15.6095 29.3536 15.5026 29.4481 15.4182 29.5614C15.3338 29.6746 15.2738 29.8041 15.2419 29.9417C15.1766 30.2139 15.2219 30.5009 15.368 30.7397L16.9514 33.2667L14.0369 34.9467C13.3031 35.3737 12.7687 36.074 12.5507 36.8941C12.3327 37.7142 12.4489 38.5871 12.874 39.3217L13.2733 40.0217C13.4823 40.3872 13.7623 40.7073 14.0967 40.9633C14.4311 41.2194 14.8133 41.4061 15.2209 41.5127C15.4909 41.5828 15.7687 41.6181 16.0476 41.6177C16.6085 41.6196 17.1599 41.4722 17.6449 41.1907L20.7906 39.3777L22.5841 42.2477C22.677 42.4001 22.8077 42.5259 22.9636 42.613C23.1195 42.7001 23.2952 42.7454 23.4738 42.7447C23.6612 42.744 23.8451 42.6933 24.0062 42.5977L25.4775 41.7367L25.5475 41.6947L28.7562 47.2457C29.234 48.0723 30.0199 48.6763 30.942 48.9257C31.2489 49.0035 31.5642 49.0435 31.8808 49.0447C32.5122 49.0433 33.1322 48.876 33.6785 48.5597C34.2248 48.2433 34.6783 47.789 34.9934 47.2423C35.3085 46.6955 35.4742 46.0756 35.4738 45.4447C35.4735 44.8138 35.3071 44.1941 34.9914 43.6477L31.7617 38.0477L32.8126 37.4387L47.3287 32.4897V52.7897L8.12401 52.8177ZM27.1449 38.2997L26.9767 38.3977L25.2603 39.4197L23.8031 40.2807L20.9447 35.7237L19.0531 32.6997L17.715 30.5647L24.889 26.3997L30.9 36.1297L27.1449 38.2997ZM33.1559 44.6627C33.3565 45.008 33.4117 45.4188 33.3092 45.8048C33.2067 46.1907 32.955 46.5202 32.6094 46.7207C32.2638 46.9212 31.8526 46.9763 31.4664 46.8739C31.0801 46.7715 30.7504 46.52 30.5497 46.1747L27.334 40.6167L28.2798 40.0637L29.9472 39.1047L33.1559 44.6627ZM19.6346 37.5997L16.5871 39.3707C16.3304 39.5185 16.0256 39.5587 15.7394 39.4827C15.6 39.4459 15.4694 39.3818 15.3552 39.294C15.2409 39.2063 15.1453 39.0967 15.0738 38.9717L14.6675 38.2717C14.5241 38.0166 14.4864 37.7155 14.5623 37.433C14.6383 37.1504 14.8218 36.9088 15.0738 36.7597L18.0443 35.0447L18.1073 35.0097L19.1162 36.7597L19.6346 37.5997ZM49.4024 29.5777L47.3006 30.2777L32.7986 35.2337L26.6755 25.3147L30.4796 22.1157L32.9737 20.0157L45.0728 9.8657L56.0439 27.3167L49.4024 29.5777Z" fill="white"/>
<path d="M52.1909 8.78017C51.9666 8.78169 51.7478 8.71046 51.5674 8.57717C51.3443 8.41231 51.1955 8.16594 51.1535 7.89185C51.1115 7.61776 51.1797 7.3382 51.3432 7.11417L55.9531 0.870173C56.124 0.662097 56.3684 0.52756 56.6357 0.494352C56.9031 0.461144 57.173 0.531801 57.3897 0.691728C57.6064 0.851656 57.7534 1.08864 57.8002 1.35372C57.8471 1.61881 57.7902 1.89175 57.6415 2.11617L53.0176 8.36017C52.9208 8.48832 52.796 8.59274 52.6528 8.66551C52.5096 8.73829 52.3516 8.7775 52.1909 8.78017Z" fill="white"/>
<path d="M61.8098 21.4984C61.5311 21.5197 61.2553 21.4296 61.0431 21.2477C60.831 21.0659 60.6997 20.8073 60.6784 20.5289C60.657 20.2504 60.7472 19.9748 60.9292 19.7628C61.1112 19.5508 61.37 19.4197 61.6487 19.3984L69.3551 18.2364C69.6338 18.1946 69.9177 18.2652 70.1444 18.4325C70.371 18.5999 70.5218 18.8504 70.5636 19.1289C70.6054 19.4073 70.5348 19.691 70.3673 19.9175C70.1998 20.1439 69.9491 20.2946 69.6704 20.3364L61.964 21.4984H61.8098Z" fill="white"/>
<path d="M60.7241 12.7832C60.501 12.782 60.2841 12.7098 60.1048 12.5771C59.9254 12.4445 59.793 12.2582 59.7267 12.0454C59.6604 11.8325 59.6636 11.6041 59.7358 11.3932C59.8081 11.1823 59.9457 10.9998 60.1286 10.8722L66.5109 6.45523C66.6255 6.37939 66.7538 6.32683 66.8887 6.30056C67.0236 6.2743 67.1623 6.27483 67.297 6.30213C67.4316 6.32943 67.5596 6.38296 67.6736 6.45968C67.7875 6.53639 67.8852 6.63478 67.9611 6.74923C68.037 6.86367 68.0896 6.99194 68.1159 7.12669C68.1422 7.26145 68.1417 7.40006 68.1144 7.53461C68.087 7.66917 68.0335 7.79702 67.9567 7.91089C67.8799 8.02475 67.7814 8.12239 67.6669 8.19823L61.2846 12.5942C61.1201 12.7103 60.9253 12.7759 60.7241 12.7832Z" fill="white"/>
<path d="M25.3794 39.3428L25.2603 39.4198L26.9767 38.4258L25.3794 39.3428Z" fill="white"/>
</svg>
