<svg width="46" height="46" viewBox="0 0 46 46" fill="none" xmlns="http://www.w3.org/2000/svg">
<g clip-path="url(#clip0_570_663)">
<path d="M17.608 31.3504C14.8819 31.3504 12.217 30.542 9.9503 29.0274C7.6836 27.5128 5.91693 25.3601 4.87368 22.8415C3.83044 20.3229 3.55747 17.5515 4.08932 14.8777C4.62116 12.204 5.93392 9.74799 7.86158 7.82032C9.78925 5.89266 12.2453 4.5799 14.919 4.04806C17.5928 3.51621 20.3642 3.78918 22.8828 4.83242C25.4014 5.87567 27.5541 7.64234 29.0687 9.90904C30.5832 12.1757 31.3916 14.8407 31.3916 17.5668C31.3868 21.2209 29.9331 24.7241 27.3492 27.308C24.7653 29.8918 21.2622 31.3456 17.608 31.3504ZM17.608 5.16338C15.1549 5.16338 12.7568 5.89082 10.7171 7.25373C8.67735 8.61663 7.08757 10.5538 6.14879 12.8202C5.21001 15.0866 4.96438 17.5805 5.44296 19.9866C5.92155 22.3926 7.10286 24.6027 8.83751 26.3373C10.5722 28.072 12.7822 29.2533 15.1883 29.7319C17.5943 30.2105 20.0882 29.9648 22.3546 29.026C24.6211 28.0873 26.5582 26.4975 27.9211 24.4577C29.284 22.418 30.0115 20.0199 30.0115 17.5668C30.0067 14.2787 28.6983 11.1266 26.3733 8.80154C24.0482 6.47649 20.8962 5.16816 17.608 5.16338Z" fill="white" stroke="white" stroke-width="0.5"/>
<path d="M44.4105 39.2199L35.514 30.319L32.274 27.0654C34.632 23.4367 35.5586 19.0618 34.8742 14.7888C34.1899 10.5158 31.9433 6.64911 28.57 3.93838C25.1967 1.22765 20.9371 -0.134004 16.617 0.117405C12.2968 0.368814 8.22389 2.21537 5.18783 5.29909C2.15177 8.38281 0.368863 12.484 0.184766 16.8075C0.000669996 21.1311 1.4285 25.369 4.19144 28.6996C6.95437 32.0303 10.8556 34.2164 15.1387 34.8341C19.4219 35.4518 23.7818 34.4572 27.3733 32.043L39.4645 44.1614C40.0981 44.7933 40.9566 45.1482 41.8515 45.1482C42.7464 45.1482 43.6048 44.7933 44.2385 44.1614L44.4059 43.9939C45.0385 43.3609 45.3942 42.5028 45.3951 41.6079C45.3959 40.7129 45.0418 39.8542 44.4105 39.2199ZM17.6081 33.6495C14.4275 33.6486 11.3186 32.7046 8.67443 30.9369C6.03029 29.1692 3.96968 26.6572 2.75314 23.7184C1.5366 20.7797 1.21876 17.5462 1.83982 14.4268C2.46087 11.3075 3.99292 8.44228 6.24226 6.19358C8.49159 3.94488 11.3572 2.41363 14.4767 1.79346C17.5963 1.17328 20.8297 1.49203 23.7681 2.7094C26.7065 3.92677 29.2179 5.98808 30.9849 8.63271C32.7518 11.2773 33.6949 14.3865 33.6949 17.5671C33.6901 21.8317 31.9936 25.9202 28.9776 28.9354C25.9617 31.9505 21.8727 33.6459 17.6081 33.6495ZM31.5591 28.3188L34.0524 30.8122L31.0568 33.8033L28.568 31.31L31.5591 28.3188ZM43.4376 43.0165L43.2656 43.1839C42.8907 43.5575 42.383 43.7673 41.8538 43.7673C41.3245 43.7673 40.8168 43.5575 40.4419 43.1839L32.0387 34.7762L35.0253 31.7896L43.4285 40.1973C43.6224 40.3824 43.7766 40.605 43.8817 40.8517C43.9867 41.0983 44.0404 41.3637 44.0394 41.6318C44.0269 42.1542 43.811 42.651 43.4376 43.0165Z" fill="white" stroke="white" stroke-width="0.5"/>
</g>
<defs>
<clipPath id="clip0_570_663">
<rect width="45.2514" height="45.2514" fill="white" transform="translate(0.145508)"/>
</clipPath>
</defs>
</svg>
