<svg width="16" height="20" viewBox="0 0 16 20" fill="none" xmlns="http://www.w3.org/2000/svg">
<path d="M9.15381 1.15381C9.15381 0.601524 8.70609 0.153809 8.15381 0.153809C7.60152 0.153809 7.15381 0.601524 7.15381 1.15381L9.15381 1.15381ZM7.4467 19.1686C7.83723 19.5591 8.47039 19.5591 8.86091 19.1686L15.2249 12.8046C15.6154 12.4141 15.6154 11.781 15.2249 11.3904C14.8344 10.9999 14.2012 10.9999 13.8107 11.3904L8.15381 17.0473L2.49695 11.3904C2.10643 10.9999 1.47326 10.9999 1.08274 11.3904C0.692216 11.781 0.692216 12.4141 1.08274 12.8046L7.4467 19.1686ZM7.15381 1.15381L7.15381 18.4615L9.15381 18.4615L9.15381 1.15381L7.15381 1.15381Z" fill="#090909"/>
</svg>
