<svg width="70" height="70" viewBox="0 0 70 70" fill="none" xmlns="http://www.w3.org/2000/svg">
<path d="M53.2768 0H16.7228C16.0149 -2.42583e-06 15.3358 0.280761 14.8345 0.78072C14.3332 1.28068 14.0507 1.95902 14.0488 2.667V32.284C14.0507 32.992 14.3332 33.6703 14.8345 34.1703C15.3358 34.6702 16.0149 34.951 16.7228 34.951H53.2768C53.9848 34.951 54.6639 34.6702 55.1652 34.1703C55.6664 33.6703 55.949 32.992 55.9508 32.284V2.667C55.949 1.95902 55.6664 1.28068 55.1652 0.78072C54.6639 0.280761 53.9848 -2.42583e-06 53.2768 0ZM53.7178 32.284C53.716 32.3997 53.6687 32.5101 53.5862 32.5913C53.5037 32.6725 53.3926 32.718 53.2768 32.718H16.7228C16.6071 32.718 16.4959 32.6725 16.4134 32.5913C16.3309 32.5101 16.2837 32.3997 16.2818 32.284V2.667C16.2837 2.55126 16.3309 2.44088 16.4134 2.35968C16.4959 2.27849 16.6071 2.23299 16.7228 2.233H53.2768C53.3926 2.23299 53.5037 2.27849 53.5862 2.35968C53.6687 2.44088 53.716 2.55126 53.7178 2.667V32.284Z" fill="#E21016"/>
<path d="M53.7177 7.44727V9.68027L16.2817 10.2473V8.01427L53.7177 7.44727Z" fill="#E21016"/>
<path d="M33.362 27.9582C33.235 27.9588 33.1091 27.935 32.991 27.8882C32.7135 27.794 32.4844 27.5942 32.3533 27.3321C32.2223 27.07 32.1999 26.7667 32.291 26.4882L35.56 17.2692C35.6793 17.0199 35.8866 16.8236 36.142 16.7179C36.3974 16.6122 36.6828 16.6047 36.9434 16.6968C37.2039 16.7889 37.4213 16.974 37.5536 17.2167C37.6859 17.4593 37.7238 17.7423 37.66 18.0112L34.412 27.2162C34.3353 27.4333 34.1931 27.6213 34.005 27.7542C33.8169 27.8871 33.5923 27.9584 33.362 27.9582Z" fill="#E21016"/>
<path d="M29.9247 25.8222C29.69 25.8222 29.4615 25.7461 29.2737 25.6052L25.7737 23.0782C25.6266 22.9717 25.5078 22.8307 25.4276 22.6677C25.3475 22.5046 25.3085 22.3245 25.314 22.1429C25.3195 21.9613 25.3694 21.7838 25.4593 21.6259C25.5492 21.4681 25.6764 21.3346 25.8297 21.2372L29.6447 18.8082C29.8938 18.6714 30.1855 18.6344 30.4608 18.7047C30.7361 18.775 30.9744 18.9472 31.1274 19.1866C31.2805 19.426 31.3368 19.7145 31.2851 19.9939C31.2334 20.2733 31.0774 20.5225 30.8487 20.6912L28.4057 22.2382L30.5827 23.7992C30.7743 23.9372 30.9169 24.1325 30.9902 24.3569C31.0634 24.5813 31.0634 24.8232 30.9902 25.0476C30.9169 25.272 30.7742 25.4673 30.5827 25.6053C30.3912 25.7432 30.1608 25.8168 29.9247 25.8152V25.8222Z" fill="#E21016"/>
<path d="M40.0749 25.8237C39.837 25.8274 39.6041 25.7548 39.4105 25.6164C39.2169 25.4781 39.0727 25.2814 38.9991 25.0551C38.9255 24.8288 38.9264 24.5849 39.0016 24.3591C39.0768 24.1334 39.2223 23.9377 39.4169 23.8007L41.5659 22.2327L39.1229 20.6857C38.9885 20.6119 38.8706 20.5112 38.7767 20.39C38.6827 20.2688 38.6147 20.1295 38.5768 19.9809C38.5388 19.8323 38.5318 19.6775 38.5562 19.5261C38.5806 19.3747 38.6358 19.2299 38.7184 19.1006C38.801 18.9714 38.9093 18.8606 39.0365 18.7749C39.1637 18.6893 39.3072 18.6307 39.458 18.6027C39.6088 18.5748 39.7637 18.5781 39.9132 18.6125C40.0627 18.6469 40.2035 18.7117 40.3269 18.8027L44.1419 21.2317C44.3011 21.3279 44.4336 21.4624 44.5274 21.623C44.6211 21.7836 44.6732 21.9651 44.6788 22.151C44.6843 22.3368 44.6432 22.5211 44.5592 22.687C44.4752 22.853 44.351 22.9952 44.1979 23.1007L40.6979 25.6277C40.5153 25.7555 40.2978 25.8239 40.0749 25.8237Z" fill="#E21016"/>
<path d="M15.568 43.7988H1.25997C0.964145 43.8007 0.681064 43.9195 0.472534 44.1293C0.264005 44.3392 0.146967 44.623 0.146973 44.9188V59.2198C0.146973 59.515 0.264235 59.7981 0.472963 60.0068C0.681691 60.2156 0.964787 60.3328 1.25997 60.3328H15.568C15.8632 60.3328 16.1463 60.2156 16.355 60.0068C16.5637 59.7981 16.681 59.515 16.681 59.2198V44.9188C16.6819 44.7721 16.6538 44.6266 16.5983 44.4908C16.5427 44.3549 16.4609 44.2314 16.3575 44.1273C16.254 44.0232 16.131 43.9406 15.9955 43.8842C15.86 43.8278 15.7147 43.7988 15.568 43.7988ZM14.455 58.0998H2.37297V46.0318H14.455V58.0998Z" fill="#E21016"/>
<path d="M68.7398 43.7988H54.4319C54.136 43.8007 53.8529 43.9195 53.6444 44.1293C53.4359 44.3392 53.3188 44.623 53.3188 44.9188V59.2198C53.3188 59.366 53.3476 59.5107 53.4036 59.6458C53.4595 59.7808 53.5415 59.9035 53.6448 60.0068C53.7482 60.1102 53.8709 60.1922 54.0059 60.2481C54.141 60.304 54.2857 60.3328 54.4319 60.3328H68.7398C69.035 60.3328 69.3181 60.2156 69.5269 60.0068C69.7356 59.7981 69.8528 59.515 69.8528 59.2198V44.9188C69.8538 44.7721 69.8257 44.6266 69.7701 44.4908C69.7146 44.3549 69.6328 44.2314 69.5293 44.1273C69.4259 44.0232 69.3029 43.9406 69.1674 43.8842C69.0319 43.8278 68.8866 43.7988 68.7398 43.7988ZM67.6268 58.0998H55.5448V46.0318H67.6268V58.0998Z" fill="#E21016"/>
<path d="M42.154 53.4668H27.846C27.6983 53.4677 27.5523 53.4978 27.4163 53.5554C27.2803 53.613 27.157 53.6969 27.0536 53.8023C26.9501 53.9077 26.8686 54.0325 26.8135 54.1695C26.7585 54.3066 26.7311 54.4531 26.733 54.6008V68.8878C26.733 69.183 26.8503 69.4661 27.059 69.6748C27.2677 69.8835 27.5508 70.0008 27.846 70.0008H42.154C42.4492 70.0008 42.7323 69.8835 42.941 69.6748C43.1497 69.4661 43.267 69.183 43.267 68.8878V54.6008C43.2688 54.4531 43.2415 54.3066 43.1865 54.1695C43.1314 54.0325 43.0499 53.9077 42.9464 53.8023C42.843 53.6969 42.7197 53.613 42.5837 53.5554C42.4477 53.4978 42.3017 53.4677 42.154 53.4668ZM41.041 67.7678H28.959V55.6998H41.041V67.7678Z" fill="#E21016"/>
<path d="M26.0052 34.9512V52.0732C26.0061 52.2208 25.9778 52.3672 25.9219 52.5039C25.866 52.6406 25.7837 52.7649 25.6796 52.8697C25.5755 52.9744 25.4517 53.0575 25.3154 53.1143C25.179 53.171 25.0328 53.2002 24.8852 53.2002H16.6812V50.9532H23.8002V34.9512H26.0052Z" fill="#E21016"/>
<path d="M53.3191 50.9532V53.2002H45.1151C44.8193 53.2002 44.5355 53.0831 44.3256 52.8746C44.1158 52.6661 43.997 52.383 43.9951 52.0872V34.9512H46.2001V50.9532H53.3191Z" fill="#E21016"/>
<path d="M36.1202 34.9512H33.8872V53.4662H36.1202V34.9512Z" fill="#E21016"/>
</svg>
