<svg width="90" height="81" viewBox="0 0 90 81" fill="none" xmlns="http://www.w3.org/2000/svg">
<path d="M79.0051 6.52049C65.4029 -5.0938 49.6384 5.05311 46.9483 6.91668C44.2655 5.03844 28.501 -5.0938 14.8987 6.52049C4.14564 15.7136 3.54543 33.0947 8.39047 40.3215C9.22931 41.5688 10.2851 43.0215 11.5144 44.6356L10.4442 45.6995L2.39565 53.6233C2.15862 53.8563 1.96938 54.1346 1.83882 54.4422C1.70826 54.7498 1.63899 55.0805 1.63495 55.4153C1.63092 55.7502 1.69223 56.0825 1.81534 56.3932C1.93845 56.7039 2.12092 56.9869 2.35227 57.2257L23.3812 79.1557C23.612 79.3895 23.886 79.5746 24.1876 79.7005C24.4892 79.8265 24.8123 79.8906 25.1384 79.8893C25.7941 79.8876 26.4228 79.624 26.8884 79.1557L34.3296 71.8188L35.6674 70.4981C40.8378 74.937 44.6198 77.1747 46.9122 77.1747C54.9824 77.16 78.1952 51.2755 85.5134 40.2702C90.3512 33.0727 89.7655 15.6916 79.0051 6.52049ZM26.0134 78.2312C25.9019 78.3446 25.7695 78.4345 25.6237 78.4959C25.4779 78.5572 25.3216 78.5888 25.1637 78.5888C25.0059 78.5888 24.8496 78.5572 24.7038 78.4959C24.558 78.4345 24.4255 78.3446 24.314 78.2312L3.2851 56.3453C3.06407 56.1103 2.94216 55.797 2.94525 55.4722C2.94678 55.3124 2.98024 55.1546 3.04363 55.0083C3.10702 54.862 3.19904 54.7303 3.31406 54.6211L10.8564 47.1522L33.0062 71.3639L26.0134 78.2312ZM35.53 68.8106L34.8936 69.4416L33.9463 70.3514L11.7965 46.1397L12.5196 45.406L13.1271 44.7897L16.2582 41.6935C16.4847 41.4641 16.7916 41.3353 17.1116 41.3353C17.4316 41.3353 17.7385 41.4641 17.9649 41.6935L18.4277 42.1704C18.4382 42.3125 18.5 42.4458 18.6013 42.5446L37.6271 62.2808L37.8006 62.4716L38.9866 63.7115C39.101 63.8227 39.1906 63.9575 39.2492 64.1069C39.3079 64.2563 39.3342 64.4167 39.3264 64.5773C39.3258 64.7348 39.2941 64.8905 39.2333 65.0354C39.1724 65.1803 39.0836 65.3114 38.9721 65.421L35.53 68.8106ZM33.5196 32.295C33.6327 32.3591 33.7622 32.3871 33.8912 32.3753C34.0203 32.3635 34.1428 32.3125 34.2427 32.2289L37.8584 29.0374L51.8006 14.8992C52.0746 14.6213 52.3998 14.4007 52.7578 14.2503C53.1158 14.0999 53.4994 14.0225 53.8869 14.0225C54.2743 14.0225 54.658 14.0999 55.0159 14.2503C55.3739 14.4007 55.6992 14.6213 55.9731 14.8992C56.2471 15.1772 56.4644 15.5072 56.6127 15.8704C56.761 16.2335 56.8373 16.6228 56.8373 17.0159C56.8373 17.409 56.761 17.7983 56.6127 18.1615C56.4644 18.5246 56.2471 18.8546 55.9731 19.1326L55.7779 19.338L44.7789 30.4974C44.6764 30.6256 44.6244 30.7878 44.6328 30.9527C44.6413 31.1176 44.7096 31.2734 44.8247 31.3902C44.9397 31.5069 45.0933 31.5762 45.2558 31.5848C45.4183 31.5934 45.5782 31.5405 45.7045 31.4365L56.689 20.2845L56.8987 20.0717L59.9432 17.0122C60.4975 16.4508 61.2488 16.1358 62.032 16.1365C62.8152 16.1372 63.566 16.4535 64.1193 17.0159C64.6726 17.5783 64.9831 18.3406 64.9824 19.1352C64.9817 19.9298 64.67 20.6916 64.1157 21.2529L61.7944 23.6008L50.1735 35.3911C50.0517 35.5161 49.9833 35.6849 49.9833 35.8607C49.9833 36.0365 50.0517 36.2053 50.1735 36.3303C50.298 36.4518 50.4637 36.5201 50.6364 36.521C50.8092 36.5208 50.9752 36.4524 51.0992 36.3303L62.72 24.5399C63.273 23.9807 64.0219 23.6668 64.8027 23.6668C65.5834 23.6668 66.3323 23.9807 66.8853 24.5399C67.1664 24.8137 67.39 25.1424 67.5428 25.5062C67.6955 25.8699 67.7743 26.2612 67.7743 26.6566C67.7743 27.052 67.6955 27.4433 67.5428 27.807C67.39 28.1707 67.1664 28.4994 66.8853 28.7733L60.6736 35.1343L53.9122 41.9943C53.8406 42.0532 53.782 42.1268 53.7402 42.2101C53.6984 42.2935 53.6744 42.3848 53.6696 42.4782C53.6648 42.5716 53.6794 42.6649 53.7125 42.7522C53.7455 42.8395 53.7963 42.9188 53.8615 42.9849C53.9266 43.0511 54.0047 43.1026 54.0908 43.1361C54.1768 43.1696 54.2689 43.1844 54.3609 43.1796C54.453 43.1747 54.543 43.1503 54.6251 43.1079C54.7073 43.0655 54.7797 43.0061 54.8378 42.9335L61.5413 36.1175C62.1023 35.5897 62.8431 35.3031 63.6081 35.3178C64.373 35.3325 65.1025 35.6473 65.6435 36.1962C66.1845 36.745 66.4948 37.4852 66.5093 38.2613C66.5237 39.0374 66.2412 39.789 65.7211 40.3582L51.8368 54.4303C49.4432 56.8295 42.4794 62.699 38.625 61.3857L38.5599 61.327C38.5555 61.3183 38.5494 61.3105 38.5419 61.3042C38.5345 61.2979 38.5258 61.2932 38.5165 61.2903L19.8306 42.009C20.3512 40.6884 22.1736 36.3376 24.4153 34.0558C25.8616 32.5884 26.7872 29.9985 27.6839 27.4966C28.5806 24.9948 29.4917 22.4415 30.8006 21.4657C31.0786 21.2717 31.4058 21.163 31.743 21.1526C32.0803 21.1422 32.4134 21.2305 32.7025 21.407C33.968 22.1407 34.5176 24.2317 34.2211 27.0638L33.2015 31.5759C33.1688 31.713 33.1807 31.8571 33.2354 31.9867C33.2902 32.1163 33.3848 32.2245 33.5052 32.295H33.5196ZM84.4504 39.5585C76.6622 51.1948 53.9266 75.8394 46.9628 75.8394C45.8419 75.8394 43.0361 75.003 36.6508 69.5517L39.8905 66.3528C40.3438 65.9037 40.6133 65.2977 40.6455 64.6558C40.6777 64.0138 40.4701 63.3832 40.0641 62.8898C45.4225 62.699 52.437 55.707 52.7768 55.3695L66.7118 41.2313C67.1075 40.8311 67.4211 40.3553 67.6346 39.8315C67.8481 39.3076 67.9572 38.746 67.9556 38.1791C67.9614 37.0432 67.5247 35.9509 66.7405 35.1402C65.9563 34.3294 64.8881 33.8659 63.7686 33.8504L67.8543 29.7124C68.2534 29.3131 68.5702 28.8373 68.7865 28.3127C69.0027 27.7882 69.1141 27.2252 69.1141 26.6566C69.1141 26.0879 69.0027 25.525 68.7865 25.0004C68.5702 24.4758 68.2534 24.0001 67.8543 23.6008C67.084 22.8213 66.0493 22.3699 64.9618 22.3388L65.1064 22.1847C65.8614 21.3664 66.2734 20.2824 66.2555 19.1616C66.2375 18.0408 65.7911 16.9709 65.0103 16.1778C64.2296 15.3847 63.1756 14.9304 62.0709 14.9109C60.9663 14.8914 59.8974 15.3081 59.0899 16.0731L58.2221 16.9535C58.2075 16.1049 57.9473 15.2794 57.474 14.5796C57.0006 13.8798 56.3349 13.3366 55.5597 13.0176C54.7845 12.6987 53.934 12.6179 53.1139 12.7855C52.2938 12.9531 51.5404 13.3615 50.9473 13.9601L36.9762 28.0689L34.8936 29.9031L35.4866 27.2839C35.9855 22.5516 34.344 20.8494 33.3171 20.2625C32.8056 19.9587 32.2188 19.8103 31.6265 19.835C31.0343 19.8598 30.4615 20.0565 29.9762 20.4019C28.3636 21.6198 27.4163 24.2611 26.4184 27.0491C25.5723 29.4116 24.6973 31.8621 23.4535 33.1167C21.2841 35.2811 19.6064 38.9862 18.8471 40.8498C18.6174 40.6165 18.3446 40.4316 18.0443 40.3057C17.744 40.1798 17.4221 40.1154 17.0971 40.1161C16.4323 40.1149 15.7936 40.3783 15.3182 40.8498L12.4256 43.7185C11.2541 42.1778 10.2562 40.7837 9.44627 39.5952C4.97726 32.9113 5.66424 16.1538 15.7159 7.55499C29.7593 -4.44082 46.3626 8.15661 46.5289 8.28868C46.6429 8.37792 46.7827 8.42631 46.9267 8.42631C47.0706 8.42631 47.2104 8.37792 47.3244 8.28868C47.4907 8.16395 64.1012 -4.43348 78.1374 7.55499C88.2107 16.1171 88.8977 32.8746 84.4359 39.5365L84.4504 39.5585Z" fill="white" stroke="white" stroke-width="1.5" stroke-miterlimit="10"/>
</svg>
