<svg width="61" height="16" viewBox="0 0 61 16" fill="none" xmlns="http://www.w3.org/2000/svg">
<path d="M1.5 7C0.947715 7 0.5 7.44772 0.5 8C0.5 8.55228 0.947715 9 1.5 9V7ZM60.2071 8.70711C60.5976 8.31658 60.5976 7.68342 60.2071 7.29289L53.8431 0.928932C53.4526 0.538408 52.8195 0.538408 52.4289 0.928932C52.0384 1.31946 52.0384 1.95262 52.4289 2.34315L58.0858 8L52.4289 13.6569C52.0384 14.0474 52.0384 14.6805 52.4289 15.0711C52.8195 15.4616 53.4526 15.4616 53.8431 15.0711L60.2071 8.70711ZM1.5 9H59.5V7H1.5V9Z" fill="url(#paint0_linear_67_466)"/>
<defs>
<linearGradient id="paint0_linear_67_466" x1="59.5" y1="8.5" x2="58.9189" y2="14.2764" gradientUnits="userSpaceOnUse">
<stop stop-color="#E21016"/>
<stop offset="1" stop-color="#EF3434"/>
<stop offset="1" stop-color="#EE2B2B"/>
</linearGradient>
</defs>
</svg>
