<svg width="14" height="14" viewBox="0 0 14 14" fill="none" xmlns="http://www.w3.org/2000/svg">
<path d="M7.94268 6.43989C8.12327 6.23653 8.26806 6.02991 8.45678 5.85583C8.72451 5.59484 9.04146 5.38967 9.38918 5.25226C9.73691 5.11484 10.1085 5.04792 10.4823 5.05538C10.9131 5.04796 11.3428 5.09997 11.7594 5.20994C12.7128 5.48652 13.266 6.14216 13.5311 7.07276C13.7069 7.77015 13.7863 8.48834 13.767 9.20728C13.767 10.7252 13.767 12.2415 13.767 13.7626C13.767 13.9042 13.728 13.9416 13.5881 13.94C12.805 13.9335 12.0235 13.9335 11.2437 13.94C11.1054 13.94 11.081 13.8993 11.081 13.7773C11.081 12.3337 11.081 10.8901 11.081 9.44643C11.0891 9.0838 11.0464 8.72182 10.9541 8.37104C10.767 7.72028 10.3033 7.39489 9.62491 7.42906C8.69919 7.47786 8.216 7.93828 8.09886 8.88027C8.07014 9.10472 8.05602 9.33079 8.05657 9.55707C8.05657 10.9611 8.05657 12.3651 8.05657 13.7692C8.05657 13.9091 8.02077 13.9497 7.8776 13.9481C7.0918 13.9481 6.30437 13.9481 5.51694 13.9481C5.39004 13.9481 5.35425 13.9156 5.35425 13.7854C5.35425 11.0067 5.35425 8.22733 5.35425 5.44747C5.35425 5.30918 5.39818 5.28478 5.52833 5.28478C6.27671 5.29129 7.02456 5.29129 7.77186 5.28478C7.90852 5.28478 7.94431 5.32871 7.93455 5.45886C7.9378 5.77448 7.94268 6.10637 7.94268 6.43989Z" fill="#090909"/>
<path d="M3.66056 9.6156C3.66056 10.9903 3.66056 12.3651 3.66056 13.7398C3.66056 13.8928 3.62314 13.9399 3.46533 13.9383C2.68278 13.9286 1.90186 13.9383 1.12094 13.9383C0.995671 13.9383 0.958252 13.9074 0.958252 13.7756C0.958252 10.9903 0.958252 8.20614 0.958252 5.42303C0.958252 5.30752 0.987535 5.26034 1.10955 5.26847C1.90186 5.26847 2.69417 5.26847 3.48648 5.26847C3.63941 5.26847 3.65893 5.32541 3.65893 5.45719C3.65785 6.84333 3.65839 8.22946 3.66056 9.6156Z" fill="#090909"/>
<path d="M3.8753 2.51106C3.87691 2.82012 3.78669 3.1227 3.61608 3.38042C3.44548 3.63813 3.20218 3.83937 2.91705 3.95861C2.63191 4.07785 2.31779 4.10972 2.01452 4.05018C1.71124 3.99064 1.43247 3.84237 1.21359 3.62417C0.994705 3.40597 0.845559 3.12768 0.785064 2.82459C0.724568 2.5215 0.755452 2.20728 0.873798 1.92177C0.992143 1.63626 1.19262 1.39233 1.4498 1.22092C1.70698 1.04951 2.00927 0.958347 2.31833 0.958988C2.72977 0.961112 3.12381 1.12516 3.4152 1.41563C3.70659 1.70611 3.87188 2.09964 3.8753 2.51106Z" fill="#090909"/>
</svg>
