<svg width="14" height="14" viewBox="0 0 14 14" fill="none" xmlns="http://www.w3.org/2000/svg">
<path d="M7.01816 1.26705C8.86472 1.26705 9.08272 1.27519 9.81158 1.30773C10.2504 1.31306 10.6851 1.39339 11.0968 1.54526C11.3962 1.65741 11.6673 1.83404 11.8908 2.06262C12.1205 2.28587 12.2972 2.55771 12.4081 2.85818C12.5607 3.26917 12.6411 3.70344 12.6457 4.14181C12.6798 4.87067 12.6864 5.09031 12.6864 6.93686C12.6864 8.78341 12.6864 9.00142 12.6457 9.73028C12.6411 10.1686 12.5607 10.6029 12.4081 11.0139C12.2932 11.3121 12.1171 11.5829 11.8913 11.809C11.6655 12.0351 11.3949 12.2115 11.0968 12.3268C10.6851 12.4787 10.2504 12.559 9.81158 12.5644C9.08272 12.5969 8.86472 12.605 7.01816 12.605C5.17161 12.605 4.95361 12.5969 4.22475 12.5644C3.78592 12.559 3.35123 12.4787 2.93948 12.3268C2.64147 12.2115 2.37087 12.0351 2.14505 11.809C1.91922 11.5829 1.74317 11.3121 1.62818 11.0139C1.47563 10.6029 1.39526 10.1686 1.39065 9.73028C1.35649 9.00142 1.34998 8.78179 1.34998 6.93686C1.34998 5.09194 1.34998 4.87067 1.39065 4.14181C1.39526 3.70344 1.47563 3.26917 1.62818 2.85818C1.7391 2.55771 1.91588 2.28587 2.14554 2.06262C2.36905 1.83404 2.6401 1.65741 2.93948 1.54526C3.35123 1.39339 3.78592 1.31306 4.22475 1.30773C4.95361 1.27519 5.17161 1.26705 7.01816 1.26705ZM7.01816 0.0224609C5.1407 0.0224609 4.90317 0.0224609 4.1678 0.0631339C3.59379 0.0760425 3.0261 0.186059 2.48882 0.388517C2.02933 0.565881 1.61203 0.837429 1.26376 1.18571C0.915479 1.53398 0.643926 1.95128 0.466562 2.41078C0.263492 2.94732 0.153452 3.51457 0.141178 4.08813C0.107013 4.82675 0.098877 5.06428 0.098877 6.94011C0.098877 8.81595 0.0988785 9.05511 0.141178 9.79047C0.15371 10.3645 0.263739 10.9323 0.466562 11.4695C0.644292 11.9285 0.915988 12.3454 1.26423 12.6934C1.61248 13.0414 2.02959 13.3127 2.48882 13.4901C3.02588 13.6933 3.5937 13.8034 4.1678 13.8155C4.90479 13.8496 5.14395 13.8578 7.01816 13.8578C8.89237 13.8578 9.13316 13.8496 9.86853 13.8155C10.4426 13.8034 11.0105 13.6933 11.5475 13.4901C12.0067 13.3127 12.4239 13.0414 12.7721 12.6934C13.1203 12.3454 13.392 11.9285 13.5698 11.4695C13.7726 10.9323 13.8826 10.3645 13.8952 9.79047C13.9293 9.05348 13.9375 8.81432 13.9375 6.94011C13.9375 5.06591 13.9375 4.82512 13.8952 4.08813C13.8829 3.51457 13.7728 2.94732 13.5698 2.41078C13.3924 1.95128 13.1209 1.53398 12.7726 1.18571C12.4243 0.837429 12.007 0.565881 11.5475 0.388517C11.0102 0.186059 10.4425 0.0760425 9.86853 0.0631339C9.13153 0.0289686 8.89237 0.0224609 7.01816 0.0224609Z" fill="#090909"/>
<path d="M7.01828 3.38574C6.31578 3.38542 5.62896 3.59344 5.0447 3.9835C4.46043 4.37355 4.00496 4.92812 3.7359 5.57705C3.46684 6.22599 3.39628 6.94014 3.53313 7.62919C3.66999 8.31823 4.00811 8.95121 4.50474 9.44806C5.00137 9.94492 5.63419 10.2833 6.32317 10.4205C7.01215 10.5577 7.72634 10.4874 8.3754 10.2187C9.02446 9.94991 9.57923 9.4947 9.96955 8.91062C10.3599 8.32653 10.5682 7.63981 10.5682 6.93731C10.5684 6.47099 10.4768 6.00919 10.2985 5.5783C10.1202 5.14742 9.8587 4.75589 9.52904 4.42607C9.19938 4.09626 8.80796 3.83462 8.37716 3.65612C7.94635 3.47762 7.4846 3.38574 7.01828 3.38574ZM7.01828 9.24265C6.56225 9.24265 6.11648 9.1074 5.73733 8.85402C5.35818 8.60063 5.0627 8.24049 4.88826 7.81915C4.71382 7.3978 4.66827 6.93419 4.75735 6.48696C4.84644 6.03972 5.06616 5.62895 5.38873 5.30661C5.7113 4.98426 6.12222 4.76483 6.56952 4.67606C7.01682 4.58729 7.48041 4.63318 7.90162 4.80792C8.32284 4.98265 8.68278 5.27838 8.93589 5.65771C9.18901 6.03703 9.32394 6.48291 9.32362 6.93893C9.32276 7.54978 9.07949 8.13532 8.64725 8.56695C8.21501 8.99858 7.62913 9.24102 7.01828 9.24102V9.24265Z" fill="#090909"/>
<path d="M10.7096 4.07547C11.1679 4.07547 11.5393 3.70399 11.5393 3.24574C11.5393 2.7875 11.1679 2.41602 10.7096 2.41602C10.2514 2.41602 9.87988 2.7875 9.87988 3.24574C9.87988 3.70399 10.2514 4.07547 10.7096 4.07547Z" fill="#090909"/>
</svg>
