<svg width="70" height="60" viewBox="0 0 70 60" fill="none" xmlns="http://www.w3.org/2000/svg">
<path d="M20.531 50.5306C20.2671 50.5264 20.0155 50.4183 19.831 50.2296L0.300996 30.6996C0.121253 30.5108 0.0209961 30.2602 0.0209961 29.9996C0.0209961 29.7389 0.121253 29.4883 0.300996 29.2996L19.81 9.76958C20.0052 9.59924 20.2578 9.50938 20.5167 9.51817C20.7756 9.52695 21.0215 9.63373 21.2047 9.81691C21.3878 10.0001 21.4946 10.246 21.5034 10.5049C21.5122 10.7638 21.4223 11.0164 21.252 11.2116L2.464 29.9996L21.252 48.7876C21.3931 48.9292 21.4895 49.1091 21.5294 49.305C21.5693 49.5009 21.5508 49.7042 21.4763 49.8897C21.4018 50.0753 21.2745 50.2348 21.1103 50.3487C20.946 50.4627 20.7519 50.5259 20.552 50.5306H20.531Z" fill="#E21016" stroke="#E21016" stroke-width="0.7"/>
<path d="M49.4691 50.5306C49.2693 50.5259 49.0752 50.4627 48.9109 50.3487C48.7466 50.2348 48.6193 50.0753 48.5448 49.8897C48.4703 49.7042 48.4519 49.5009 48.4917 49.305C48.5316 49.1091 48.6281 48.9292 48.7691 48.7876L67.5362 29.9996L48.7481 11.2116C48.5778 11.0164 48.4879 10.7638 48.4967 10.5049C48.5055 10.246 48.6123 10.0001 48.7955 9.81691C48.9787 9.63373 49.2246 9.52695 49.4835 9.51817C49.7424 9.50938 49.995 9.59924 50.1901 9.76958L69.6992 29.2996C69.7944 29.3939 69.87 29.5063 69.9216 29.63C69.9732 29.7538 69.9997 29.8865 69.9997 30.0206C69.9997 30.1547 69.9732 30.2874 69.9216 30.4112C69.87 30.5349 69.7944 30.6472 69.6992 30.7416L50.1901 50.2296C50.0963 50.3255 49.9841 50.4016 49.8602 50.4533C49.7364 50.505 49.6034 50.5313 49.4691 50.5306Z" fill="#E21016" stroke="#E21016" stroke-width="0.7"/>
<path d="M28.3429 59.0153C28.271 59.026 28.1979 59.026 28.1259 59.0153C27.9946 58.9879 27.87 58.9347 27.7594 58.8589C27.6487 58.783 27.5542 58.686 27.4813 58.5733C27.4084 58.4607 27.3586 58.3348 27.3346 58.2028C27.3107 58.0708 27.3132 57.9354 27.3419 57.8043L39.4939 1.80432C39.5515 1.5407 39.7114 1.31073 39.9385 1.16501C40.1656 1.0193 40.4413 0.969769 40.7049 1.02732C40.9685 1.08487 41.1985 1.24479 41.3442 1.4719C41.4899 1.69901 41.5395 1.9747 41.4819 2.23832L29.3369 58.2383C29.2821 58.4604 29.1543 58.6576 28.9741 58.7985C28.7939 58.9394 28.5717 59.0157 28.3429 59.0153Z" fill="#E21016" stroke="#E21016" stroke-width="0.7"/>
</svg>
