<svg width="9" height="16" viewBox="0 0 9 16" fill="none" xmlns="http://www.w3.org/2000/svg">
<path d="M7.0437 6.69678C6.49142 6.69678 6.0437 7.14449 6.0437 7.69678C6.0437 8.24906 6.49142 8.69678 7.0437 8.69678V6.69678ZM8.25081 8.40388C8.64133 8.01336 8.64133 7.38019 8.25081 6.98967L1.88685 0.62571C1.49632 0.235185 0.863158 0.235185 0.472633 0.62571C0.082109 1.01623 0.082109 1.6494 0.472633 2.03992L6.12949 7.69678L0.472633 13.3536C0.082109 13.7442 0.082109 14.3773 0.472633 14.7678C0.863158 15.1584 1.49632 15.1584 1.88685 14.7678L8.25081 8.40388ZM7.0437 8.69678H7.5437V6.69678H7.0437V8.69678Z" fill="white"/>
</svg>
