<svg width="69" height="69" viewBox="0 0 69 69" fill="none" xmlns="http://www.w3.org/2000/svg">
<g filter="url(#filter0_d_92_533)">
<circle cx="34.5" cy="33.5" r="29" stroke="white" stroke-width="3"/>
</g>
<path d="M23 32.5C22.1716 32.5 21.5 33.1716 21.5 34C21.5 34.8284 22.1716 35.5 23 35.5V32.5ZM46.0607 35.0607C46.6464 34.4749 46.6464 33.5251 46.0607 32.9393L36.5147 23.3934C35.9289 22.8076 34.9792 22.8076 34.3934 23.3934C33.8076 23.9792 33.8076 24.9289 34.3934 25.5147L42.8787 34L34.3934 42.4853C33.8076 43.0711 33.8076 44.0208 34.3934 44.6066C34.9792 45.1924 35.9289 45.1924 36.5147 44.6066L46.0607 35.0607ZM23 35.5H45V32.5H23V35.5Z" fill="white"/>
<defs>
<filter id="filter0_d_92_533" x="0" y="0" width="69" height="69" filterUnits="userSpaceOnUse" color-interpolation-filters="sRGB">
<feFlood flood-opacity="0" result="BackgroundImageFix"/>
<feColorMatrix in="SourceAlpha" type="matrix" values="0 0 0 0 0 0 0 0 0 0 0 0 0 0 0 0 0 0 127 0" result="hardAlpha"/>
<feOffset dy="1"/>
<feGaussianBlur stdDeviation="2"/>
<feComposite in2="hardAlpha" operator="out"/>
<feColorMatrix type="matrix" values="0 0 0 0 0 0 0 0 0 0 0 0 0 0 0 0 0 0 0.25 0"/>
<feBlend mode="normal" in2="BackgroundImageFix" result="effect1_dropShadow_92_533"/>
<feBlend mode="normal" in="SourceGraphic" in2="effect1_dropShadow_92_533" result="shape"/>
</filter>
</defs>
</svg>
