<svg width="23" height="23" viewBox="0 0 23 23" fill="none" xmlns="http://www.w3.org/2000/svg">
<path d="M1.11612 20.1161C0.627961 20.6043 0.627961 21.3957 1.11612 21.8839C1.60427 22.372 2.39573 22.372 2.88388 21.8839L1.11612 20.1161ZM22.25 2C22.25 1.30964 21.6904 0.749999 21 0.749998L9.75 0.749999C9.05965 0.749999 8.5 1.30964 8.5 2C8.5 2.69035 9.05965 3.25 9.75 3.25H19.75V13.25C19.75 13.9404 20.3096 14.5 21 14.5C21.6904 14.5 22.25 13.9404 22.25 13.25L22.25 2ZM2.88388 21.8839L21.8839 2.88388L20.1161 1.11612L1.11612 20.1161L2.88388 21.8839Z" fill="#E21016"/>
</svg>
