<svg width="23" height="23" viewBox="0 0 23 23" fill="none" xmlns="http://www.w3.org/2000/svg">
<g clip-path="url(#clip0_659_2616)">
<path d="M11.0933 22.9185C17.1583 22.9185 22.075 18.0018 22.075 11.9368C22.075 5.87175 17.1583 0.955078 11.0933 0.955078C5.02825 0.955078 0.111572 5.87175 0.111572 11.9368C0.111572 18.0018 5.02825 22.9185 11.0933 22.9185Z" fill="white"/>
<path d="M11.9424 10.4399C12.123 10.2365 12.2678 10.0299 12.4565 9.85583C12.7243 9.59484 13.0412 9.38967 13.3889 9.25226C13.7367 9.11484 14.1082 9.04792 14.4821 9.05538C14.9128 9.04796 15.3426 9.09997 15.7592 9.20994C16.7126 9.48652 17.2657 10.1422 17.5309 11.0728C17.7067 11.7702 17.786 12.4883 17.7668 13.2073C17.7668 14.7252 17.7668 16.2415 17.7668 17.7626C17.7668 17.9042 17.7278 17.9416 17.5878 17.94C16.8048 17.9335 16.0233 17.9335 15.2434 17.94C15.1052 17.94 15.0808 17.8993 15.0808 17.7773C15.0808 16.3337 15.0808 14.8901 15.0808 13.4464C15.0889 13.0838 15.0462 12.7218 14.9539 12.371C14.7668 11.7203 14.3031 11.3949 13.6247 11.4291C12.6989 11.4779 12.2158 11.9383 12.0986 12.8803C12.0699 13.1047 12.0558 13.3308 12.0563 13.5571C12.0563 14.9611 12.0563 16.3651 12.0563 17.7692C12.0563 17.9091 12.0205 17.9497 11.8774 17.9481C11.0916 17.9481 10.3041 17.9481 9.5167 17.9481C9.3898 17.9481 9.354 17.9156 9.354 17.7854C9.354 15.0067 9.354 12.2273 9.354 9.44747C9.354 9.30918 9.39793 9.28478 9.52809 9.28478C10.2765 9.29129 11.0243 9.29129 11.7716 9.28478C11.9083 9.28478 11.9441 9.32871 11.9343 9.45886C11.9376 9.77448 11.9424 10.1064 11.9424 10.4399Z" fill="#090909"/>
<path d="M7.66056 13.6156C7.66056 14.9903 7.66056 16.3651 7.66056 17.7398C7.66056 17.8928 7.62314 17.9399 7.46533 17.9383C6.68278 17.9286 5.90186 17.9383 5.12094 17.9383C4.99567 17.9383 4.95825 17.9074 4.95825 17.7756C4.95825 14.9903 4.95825 12.2061 4.95825 9.42303C4.95825 9.30752 4.98754 9.26034 5.10955 9.26847C5.90186 9.26847 6.69417 9.26847 7.48648 9.26847C7.63941 9.26847 7.65893 9.32541 7.65893 9.45719C7.65785 10.8433 7.65839 12.2295 7.66056 13.6156Z" fill="#090909"/>
<path d="M7.8753 6.51106C7.87691 6.82012 7.78669 7.1227 7.61608 7.38042C7.44548 7.63813 7.20218 7.83937 6.91705 7.95861C6.63191 8.07785 6.31779 8.10972 6.01452 8.05018C5.71124 7.99064 5.43247 7.84237 5.21359 7.62417C4.9947 7.40597 4.84556 7.12768 4.78506 6.82459C4.72457 6.5215 4.75545 6.20728 4.8738 5.92177C4.99214 5.63626 5.19262 5.39233 5.4498 5.22092C5.70698 5.04951 6.00927 4.95835 6.31833 4.95899C6.72977 4.96111 7.12381 5.12516 7.4152 5.41563C7.70659 5.70611 7.87188 6.09964 7.8753 6.51106Z" fill="#090909"/>
</g>
<defs>
<clipPath id="clip0_659_2616">
<rect width="21.9634" height="21.9634" fill="white" transform="translate(0.111572 0.955078)"/>
</clipPath>
</defs>
</svg>
