<svg width="80" height="72" viewBox="0 0 80 72" fill="none" xmlns="http://www.w3.org/2000/svg">
<path d="M78.7762 11.1588H56.9282V9.07879C56.9156 6.86778 56.0283 4.75166 54.4604 3.19272C52.8925 1.63379 50.7713 0.758753 48.5602 0.758789H31.4402C29.2237 0.758785 27.0977 1.63821 25.5288 3.20406C23.96 4.76991 23.0765 6.89423 23.0722 9.11079V11.1588H1.22424C1.06146 11.1588 0.900309 11.1912 0.75022 11.2542C0.600132 11.3172 0.464118 11.4095 0.35014 11.5257C0.236161 11.6419 0.146508 11.7797 0.086427 11.931C0.0263458 12.0823 -0.00295639 12.244 0.000235334 12.4068V69.9348C0.000235334 70.2594 0.129192 70.5707 0.358737 70.8003C0.588281 71.0298 0.89961 71.1588 1.22424 71.1588H78.7762C79.1009 71.1588 79.4122 71.0298 79.6417 70.8003C79.8713 70.5707 80.0002 70.2594 80.0002 69.9348V12.4068C80.0034 12.244 79.9741 12.0823 79.914 11.931C79.854 11.7797 79.7643 11.6419 79.6503 11.5257C79.5364 11.4095 79.4003 11.3172 79.2503 11.2542C79.1002 11.1912 78.939 11.1588 78.7762 11.1588ZM25.5202 9.11079C25.5245 7.54274 26.1498 6.04025 27.2593 4.93222C28.3688 3.82419 29.8722 3.2009 31.4402 3.19879H48.5602C50.1283 3.2009 51.6316 3.82419 52.7412 4.93222C53.8507 6.04025 54.476 7.54274 54.4802 9.11079V11.1588H25.5202V9.11079ZM77.2642 13.6308L66.4722 38.6868H52.5762V34.1428C52.5762 33.8182 52.4473 33.5068 52.2177 33.2773C51.9882 33.0477 51.6769 32.9188 51.3522 32.9188H28.6482C28.3236 32.9188 28.0123 33.0477 27.7827 33.2773C27.5532 33.5068 27.4242 33.8182 27.4242 34.1428V38.6868H12.1522L2.68824 13.6308H77.2642ZM29.8722 35.3668H50.1282V44.5428H29.8722V35.3668ZM77.5522 68.7588H2.44824V19.8068L10.1922 40.3268C10.2758 40.5596 10.4287 40.7611 10.6304 40.9042C10.8322 41.0472 11.0729 41.1249 11.3202 41.1268H27.4242V45.7828C27.4242 46.1074 27.5532 46.4187 27.7827 46.6483C28.0123 46.8778 28.3236 47.0068 28.6482 47.0068H51.3522C51.6769 47.0068 51.9882 46.8778 52.2177 46.6483C52.4473 46.4187 52.5762 46.1074 52.5762 45.7828V41.1028H67.2722C67.5071 41.1019 67.7366 41.0326 67.9327 40.9033C68.1288 40.774 68.2829 40.5903 68.3762 40.3748L77.5522 19.0468V68.7588Z" fill="white"/>
</svg>
