<svg width="90" height="90" viewBox="0 0 90 90" fill="none" xmlns="http://www.w3.org/2000/svg">
<g clip-path="url(#clip0_634_2161)">
<path d="M14.2739 52.8926V53.4866C14.2694 53.5255 14.2694 53.5647 14.2739 53.6036V52.8926ZM38.0969 65.0336C37.8061 64.9107 37.5049 64.8143 37.1969 64.7456V55.5926H37.0889V64.7276C38.561 65.1409 39.8576 66.0242 40.7812 67.2428C41.7048 68.4614 42.2047 69.9485 42.2047 71.4776C42.2047 73.0066 41.7048 74.4938 40.7812 75.7124C39.8576 76.931 38.561 77.8143 37.0889 78.2276V87.3986H37.1969V78.2996C37.5052 78.2278 37.8064 78.1284 38.0969 78.0026C39.3653 77.4642 40.4473 76.5643 41.2079 75.4152C41.9685 74.2661 42.3741 72.9186 42.3741 71.5406C42.3741 70.1626 41.9685 68.815 41.2079 67.6659C40.4473 66.5168 39.3653 65.617 38.0969 65.0786V65.0336Z" fill="white"/>
<path d="M70.2 52.8928H59.751C59.6747 52.5847 59.5724 52.2836 59.445 51.9928C58.9084 50.7237 58.0097 49.6409 56.8612 48.8795C55.7128 48.1182 54.3654 47.7122 52.9875 47.7122C51.6096 47.7122 50.2622 48.1182 49.1138 48.8795C47.9653 49.6409 47.0666 50.7237 46.53 51.9928C46.4055 52.2838 46.3061 52.5849 46.233 52.8928H37.233V41.0128H36.387C35.745 41.0138 35.1111 40.8691 34.533 40.5898C33.7948 40.2407 33.171 39.689 32.7342 38.9991C32.2973 38.3092 32.0654 37.5094 32.0654 36.6928C32.0654 35.8763 32.2973 35.0765 32.7342 34.3866C33.171 33.6967 33.7948 33.145 34.533 32.7958C35.1023 32.5311 35.7232 32.3959 36.351 32.3998H37.197V19.4398C37.197 19.0818 37.0548 18.7384 36.8016 18.4852C36.5484 18.2321 36.205 18.0898 35.847 18.0898H1.35C0.991958 18.0898 0.64858 18.2321 0.395406 18.4852C0.142232 18.7384 0 19.0818 0 19.4398L0 53.9368C0.0240845 54.0374 0.0240845 54.1423 0 54.2428L0 88.7488C0 89.1069 0.142232 89.4503 0.395406 89.7034C0.64858 89.9566 0.991958 90.0988 1.35 90.0988H70.2C70.558 90.0988 70.9014 89.9566 71.1546 89.7034C71.4078 89.4503 71.55 89.1069 71.55 88.7488V54.2428C71.55 53.8848 71.4078 53.5414 71.1546 53.2882C70.9014 53.0351 70.558 52.8928 70.2 52.8928ZM2.7 20.7898H34.497V29.9248C33.0301 30.3439 31.7396 31.2294 30.8209 32.4473C29.9022 33.6652 29.4052 35.1493 29.4052 36.6748C29.4052 38.2004 29.9022 39.6845 30.8209 40.9024C31.7396 42.1203 33.0301 43.0058 34.497 43.4248V52.5868H22.914V53.4868C22.9034 54.3717 22.6213 55.232 22.1059 55.9514C21.5905 56.6707 20.8666 57.2144 20.0321 57.5089C19.1976 57.8035 18.2928 57.8346 17.44 57.5981C16.5872 57.3617 15.8277 56.869 15.264 56.1868C15.0348 55.9142 14.844 55.6113 14.697 55.2868C14.4397 54.7621 14.2985 54.1881 14.283 53.6038C14.2785 53.565 14.2785 53.5257 14.283 53.4868V52.5868H2.7V20.7898ZM35.397 75.8248H34.497V87.3988H2.7V55.5928H11.835C12.254 57.0597 13.1395 58.3502 14.3574 59.269C15.5754 60.1877 17.0594 60.6847 18.585 60.6847C20.1106 60.6847 21.5946 60.1877 22.8126 59.269C24.0305 58.3502 24.916 57.0597 25.335 55.5928H34.497V67.1758H35.397C35.5078 67.1666 35.6192 67.1666 35.73 67.1758C36.2397 67.2137 36.7375 67.3481 37.197 67.5718C37.5219 67.7219 37.8247 67.9157 38.097 68.1478C38.5887 68.5514 38.9848 69.059 39.2568 69.634C39.5288 70.209 39.6699 70.8372 39.6699 71.4733C39.6699 72.1095 39.5288 72.7376 39.2568 73.3127C38.9848 73.8877 38.5887 74.3953 38.097 74.7988C37.8267 75.0314 37.5234 75.2224 37.197 75.3658C36.6391 75.652 36.0239 75.8089 35.397 75.8248ZM68.886 87.3988H37.089V78.2998C38.5611 77.8865 39.8578 77.0033 40.7814 75.7846C41.705 74.566 42.2048 73.0789 42.2048 71.5498C42.2048 70.0208 41.705 68.5336 40.7814 67.315C39.8578 66.0964 38.5611 65.2132 37.089 64.7998V55.5928H48.672V54.6928C48.68 54.0702 48.8212 53.4564 49.086 52.8928C49.2437 52.5722 49.4369 52.2703 49.662 51.9928C50.1233 51.4358 50.7177 51.0041 51.3901 50.7376C52.0624 50.471 52.7912 50.3784 53.5088 50.4681C54.2265 50.5578 54.91 50.827 55.4961 51.2508C56.0822 51.6746 56.552 52.2394 56.862 52.8928C57.134 53.4543 57.2785 54.069 57.285 54.6928V55.5928H68.886V87.3988Z" fill="white"/>
<path d="M34.3892 55.5938V67.1767H34.4972V55.5938H34.3892ZM35.3972 67.1767H35.2352C35.4 67.1675 35.5653 67.1675 35.7302 67.1767C35.6194 67.1675 35.508 67.1675 35.3972 67.1767ZM38.0972 68.1757C37.8248 67.9436 37.522 67.7498 37.1972 67.5998C36.7377 67.376 36.2398 67.2416 35.7302 67.2037C36.2028 67.2557 36.6626 67.3897 37.0892 67.5998C37.8278 67.9474 38.4523 68.4979 38.8897 69.1872C39.3271 69.8764 39.5593 70.6759 39.5593 71.4922C39.5593 72.3086 39.3271 73.1081 38.8897 73.7973C38.4523 74.4866 37.8278 75.0372 37.0892 75.3848C36.5132 75.6711 35.8784 75.819 35.2352 75.8167H34.3892V87.3998H34.4972V75.8258H35.3972C36.0219 75.8182 36.637 75.6706 37.1972 75.3937C37.5236 75.2504 37.8269 75.0593 38.0972 74.8267C38.5889 74.4232 38.985 73.9156 39.257 73.3406C39.5289 72.7656 39.67 72.1374 39.67 71.5013C39.67 70.8651 39.5289 70.2369 39.257 69.6619C38.985 69.0869 38.5889 68.5793 38.0972 68.1757Z" fill="white"/>
<path d="M90.0002 35.847V1.35C90.0002 0.991958 89.858 0.64858 89.6048 0.395406C89.3516 0.142232 89.0083 0 88.6502 0L54.1532 0C53.7952 0 53.4518 0.142232 53.1986 0.395406C52.9454 0.64858 52.8032 0.991958 52.8032 1.35V11.835C52.4946 11.9098 52.1934 12.0123 51.9032 12.141C50.6341 12.6776 49.5512 13.5763 48.7899 14.7248C48.0286 15.8732 47.6226 17.2206 47.6226 18.5985C47.6226 19.9764 48.0286 21.3238 48.7899 22.4722C49.5512 23.6207 50.6341 24.5194 51.9032 25.056C52.1937 25.1818 52.4949 25.2812 52.8032 25.353V35.847C52.8032 36.205 52.9454 36.5484 53.1986 36.8016C53.4518 37.0548 53.7952 37.197 54.1532 37.197H67.0772V36.351C67.0763 35.709 67.2209 35.0751 67.5002 34.497C67.8494 33.7588 68.401 33.135 69.0909 32.6982C69.7808 32.2613 70.5806 32.0294 71.3972 32.0294C72.2138 32.0294 73.0136 32.2613 73.7035 32.6982C74.3934 33.135 74.945 33.7588 75.2942 34.497C75.5735 35.0751 75.7181 35.709 75.7172 36.351V37.197H88.6502C89.0083 37.197 89.3516 37.0548 89.6048 36.8016C89.858 36.5484 90.0002 36.205 90.0002 35.847ZM71.3972 29.331C69.8589 29.3316 68.3634 29.8375 67.1406 30.7708C65.9178 31.7042 65.0355 33.0133 64.6292 34.497H55.5032V22.914H54.6032C53.7183 22.9034 52.858 22.6213 52.1387 22.1059C51.4193 21.5905 50.8756 20.8666 50.5811 20.0321C50.2866 19.1976 50.2554 18.2928 50.4919 17.44C50.7284 16.5872 51.221 15.8277 51.9032 15.264C52.1759 15.0348 52.4787 14.844 52.8032 14.697C53.364 14.423 53.9791 14.2784 54.6032 14.274H55.5032V2.7H87.3002V34.497H78.1652C77.7589 33.0133 76.8766 31.7042 75.6538 30.7708C74.431 29.8375 72.9355 29.3316 71.3972 29.331Z" fill="white"/>
</g>
<defs>
<clipPath id="clip0_634_2161">
<rect width="90" height="90" fill="white"/>
</clipPath>
</defs>
</svg>
