<svg width="539" height="489" viewBox="0 0 539 489" fill="none" xmlns="http://www.w3.org/2000/svg">
<path opacity="0.3" d="M438.36 473.102C385.441 466.782 343.497 453.596 344.674 443.649C345.851 433.702 389.705 430.761 442.623 437.08C495.542 443.4 537.487 456.587 536.31 466.534C535.132 476.481 491.279 479.421 438.36 473.102Z" fill="#C1C1C1" fill-opacity="0.2"/>
<path d="M327.449 308.485C327.022 308.632 326.603 308.803 326.195 308.998L354.833 293.364C354.94 293.296 355.052 293.238 355.168 293.188C355.461 293.054 355.763 292.942 356.072 292.851C356.328 292.738 356.591 292.641 356.859 292.558H356.99C357.583 292.409 358.187 292.311 358.797 292.266C359.462 292.217 360.121 292.104 360.764 291.929C361.041 291.841 361.304 291.724 361.58 291.621C361.993 291.48 362.397 291.313 362.79 291.124L334.167 306.758L333.817 306.948C333.536 307.066 333.249 307.169 332.958 307.256C332.681 307.358 332.418 307.49 332.141 307.563H331.981C331.389 307.715 330.784 307.813 330.174 307.856C329.514 307.907 328.86 308.02 328.221 308.193C328.017 308.266 327.769 308.398 327.449 308.485Z" fill="#898282"/>
<path d="M438.515 440.249C438.75 438.697 439.332 437.219 440.219 435.926C441.105 434.633 442.271 433.558 443.63 432.784L472.253 417.135C470.894 417.91 469.727 418.984 468.841 420.277C467.955 421.57 467.373 423.049 467.138 424.601C466.893 426.155 466.302 427.633 465.408 428.926C464.515 430.219 463.343 431.292 461.979 432.066L433.356 447.701C434.717 446.927 435.888 445.856 436.781 444.566C437.674 443.276 438.267 441.801 438.515 440.249Z" fill="#898282"/>
<path d="M366.579 362.107C366.433 361.741 366.273 361.39 366.142 361.024C366.111 360.968 366.087 360.909 366.069 360.848C365.719 359.897 365.442 358.916 365.136 357.921C364.83 356.925 364.612 356.457 364.393 355.593C364.102 354.51 363.883 353.397 363.635 352.285C363.475 351.538 363.256 350.821 363.125 350.045C362.892 348.815 362.761 347.571 362.6 346.327C362.528 345.683 362.396 345.038 362.338 344.38C362.163 342.477 362.061 340.559 362.061 338.627C362.061 318.557 371.651 302.308 386.181 294.374L414.804 278.725C400.23 286.673 390.64 302.923 390.684 322.978C390.684 324.91 390.786 326.828 390.961 328.745C390.961 329.375 391.136 329.99 391.223 330.619C391.384 331.893 391.515 333.152 391.748 334.411C391.894 335.157 392.098 335.875 392.258 336.636C392.506 337.734 392.724 338.861 393.03 339.944C393.234 340.735 393.526 341.511 393.774 342.286C394.094 343.311 394.386 344.35 394.765 345.346C394.896 345.726 395.071 346.078 395.202 346.444C395.712 347.732 396.222 349.006 396.805 350.25C397.067 350.821 397.359 351.377 397.636 351.933C398.16 353.002 398.7 354.071 399.283 355.11L400.011 356.384C400.74 357.599 401.469 358.814 402.285 359.985C402.445 360.204 402.576 360.439 402.737 360.673C403.669 362.02 404.66 363.322 405.651 364.596C405.899 364.918 406.176 365.24 406.438 365.547C407.327 366.616 408.245 367.655 409.207 368.666C409.411 368.885 409.615 369.119 409.834 369.339C410.956 370.495 412.122 371.608 413.332 372.662L414.337 373.526C415.299 374.331 416.276 375.121 417.252 375.868L418.374 376.717C419.292 377.376 420.24 377.976 421.201 378.576C421.741 378.927 422.265 379.293 422.819 379.615C423.927 380.274 425.063 380.86 426.2 381.431C426.594 381.636 426.987 381.87 427.395 382.06C428.853 382.748 430.31 383.363 431.767 383.919L433.006 384.344C434.172 384.754 435.353 385.105 436.533 385.427C436.985 385.544 437.437 385.676 437.903 385.778C439.479 386.172 441.075 386.485 442.683 386.715C444.141 386.92 445.598 387.052 447.055 387.125H448.381C449.358 387.125 450.334 387.125 451.296 387.125C451.792 387.125 452.273 387.125 452.754 387.037C453.686 387.037 454.604 386.876 455.523 386.759L456.849 386.569C457.971 386.393 459.079 386.159 460.172 385.895L460.784 385.764C462.081 385.412 463.363 385.017 464.602 384.563C464.966 384.432 465.316 384.271 465.68 384.124C466.569 383.773 467.458 383.407 468.318 382.997C469.178 382.587 469.776 382.294 470.504 381.914L441.882 397.548C441.357 397.841 440.832 398.104 440.293 398.368C440.104 398.47 439.885 398.543 439.696 398.631C438.836 399.041 437.947 399.422 437.058 399.773L435.979 400.198C434.726 400.651 433.458 401.061 432.146 401.398L431.622 401.5C430.529 401.764 429.421 401.998 428.299 402.188C427.862 402.262 427.41 402.306 426.973 402.364C426.054 402.496 425.136 402.584 424.189 402.657L422.732 402.745C421.77 402.745 420.793 402.745 419.817 402.745C419.365 402.745 418.928 402.745 418.476 402.745C417.019 402.745 415.561 402.554 414.104 402.349C412.647 402.145 410.912 401.793 409.338 401.413L407.968 401.047C406.773 400.739 405.608 400.373 404.442 399.978C404.034 399.832 403.611 399.7 403.203 399.539C401.745 398.997 400.288 398.426 398.904 397.753H398.758C398.35 397.563 397.971 397.328 397.563 397.123C396.426 396.553 395.304 395.967 394.196 395.323C393.643 394.986 393.118 394.62 392.564 394.283C392.01 393.947 391.107 393.405 390.451 392.937C390.218 392.776 389.999 392.585 389.751 392.41C389.504 392.234 389.008 391.853 388.629 391.575C387.624 390.814 386.647 390.038 385.714 389.218L384.709 388.369C384.534 388.223 384.359 388.091 384.199 387.93C383.164 387.008 382.173 386.042 381.211 385.002C380.993 384.798 380.788 384.563 380.584 384.344C380.016 383.744 379.433 383.143 378.879 382.514C378.515 382.104 378.165 381.65 377.801 381.226L377.014 380.274C376.052 379.059 375.09 377.829 374.201 376.541L374.07 376.336C373.91 376.117 373.764 375.882 373.618 375.663C372.831 374.477 372.073 373.277 371.345 372.047C371.097 371.623 370.849 371.213 370.616 370.788C370.383 370.364 370.164 370.027 369.96 369.646C369.61 368.973 369.29 368.285 368.955 367.597C368.619 366.909 368.401 366.484 368.138 365.928C367.599 364.669 367.075 363.425 366.579 362.107Z" fill="#898282"/>
<path d="M368.751 255.185C368.379 255.02 368 254.873 367.614 254.746L367.075 254.541C366.521 254.374 365.956 254.247 365.384 254.161C364.764 254.103 364.139 254.103 363.519 254.161C363.329 254.161 363.14 254.161 362.95 254.161C362.525 254.202 362.101 254.265 361.682 254.351L361.07 254.512C360.679 254.632 360.294 254.773 359.919 254.937L359.176 255.259L387.813 239.624L388.148 239.449C388.279 239.375 388.411 239.361 388.542 239.302C388.917 239.139 389.302 238.997 389.693 238.878L389.97 238.761H390.305C390.723 238.669 391.147 238.605 391.573 238.57H392.141C392.765 238.549 393.388 238.578 394.007 238.658C394.579 238.738 395.144 238.86 395.697 239.024C395.887 239.024 396.076 239.171 396.251 239.244C396.426 239.317 397.009 239.507 397.373 239.668L397.621 239.815C398.124 240.067 398.611 240.351 399.079 240.664C399.13 240.701 399.183 240.735 399.239 240.766C399.649 241.052 400.043 241.359 400.419 241.688C400.884 242.069 401.37 242.421 401.877 242.742C402.345 243.063 402.832 243.357 403.334 243.621C403.334 243.621 403.48 243.709 403.567 243.738C403.929 243.903 404.298 244.05 404.675 244.177L405.214 244.382C405.758 244.546 406.313 244.668 406.875 244.748C407.494 244.83 408.118 244.855 408.741 244.821C408.945 244.821 409.134 244.821 409.324 244.821C409.746 244.783 410.165 244.714 410.577 244.616L411.189 244.47C411.596 244.343 411.995 244.191 412.384 244.016C412.634 243.924 412.877 243.816 413.113 243.694L384.476 259.343L384.126 259.518L383.762 259.665C383.374 259.839 382.975 259.986 382.567 260.104L382.275 260.221C382.168 260.214 382.061 260.214 381.954 260.221C381.542 260.314 381.123 260.378 380.701 260.411C380.507 260.426 380.312 260.426 380.118 260.411C379.49 260.44 378.861 260.411 378.238 260.324C377.68 260.249 377.129 260.127 376.591 259.958C376.402 259.958 376.212 259.811 376.023 259.753C375.655 259.633 375.295 259.491 374.944 259.328L374.726 259.211C374.222 258.95 373.735 258.656 373.268 258.333H373.123C372.693 258.028 372.28 257.7 371.884 257.352C371.455 256.985 371.002 256.648 370.529 256.342C370.065 256.018 369.578 255.729 369.071 255.478L368.751 255.185Z" fill="#898282"/>
<path d="M398.496 243.167C398.079 243.201 397.665 243.264 397.257 243.357L396.645 243.518C396.252 243.636 395.868 243.777 395.493 243.943C395.249 244.035 395.01 244.143 394.779 244.265L423.402 228.616L423.752 228.44C423.871 228.39 423.992 228.346 424.116 228.309C424.493 228.132 424.883 227.985 425.282 227.869C425.377 227.829 425.474 227.795 425.574 227.767H425.88C426.289 227.681 426.702 227.617 427.118 227.577H427.687C428.32 227.555 428.953 227.584 429.581 227.665L455.421 231.31C456.068 231.409 456.707 231.561 457.33 231.763C457.519 231.763 457.709 231.924 457.913 231.998C458.219 232.095 458.521 232.207 458.816 232.334C458.903 232.396 458.996 232.45 459.093 232.495C459.428 232.671 459.749 232.861 460.07 233.066C460.39 233.271 460.492 233.286 460.682 233.432C460.871 233.579 460.871 233.579 460.959 233.637L461.527 234.091L462.095 234.545C462.241 234.677 462.372 234.838 462.518 234.984L462.97 235.438L463.276 235.745C463.524 236.023 463.742 236.331 463.975 236.638L464.238 236.975V237.063C464.581 237.557 464.897 238.071 465.185 238.6V238.702C465.316 238.951 465.418 239.229 465.535 239.493C465.651 239.756 465.884 240.195 466.016 240.561C466.016 240.561 466.016 240.649 466.016 240.693C466.296 241.459 466.51 242.247 466.657 243.05C466.805 243.882 467.024 244.7 467.313 245.495C467.509 245.995 467.733 246.483 467.983 246.958C468.056 247.12 468.114 247.281 468.202 247.442C468.518 248.043 468.879 248.621 469.28 249.169C469.382 249.315 469.499 249.447 469.615 249.593C469.917 249.981 470.238 250.352 470.577 250.706L471.014 251.16C471.35 251.482 471.699 251.775 472.049 252.053L472.574 252.463C472.832 252.642 473.1 252.808 473.375 252.96C473.725 253.18 474.075 253.4 474.439 253.59C474.804 253.78 475.212 253.927 475.605 254.073C475.999 254.219 475.999 254.249 476.203 254.307C476.803 254.497 477.417 254.639 478.039 254.732C478.638 254.812 479.242 254.841 479.846 254.82H480.4C480.821 254.779 481.239 254.715 481.653 254.629L482.265 254.468C482.657 254.349 483.041 254.207 483.417 254.044C483.621 253.941 483.839 253.868 484.058 253.751L484.728 253.385L485.078 253.209C485.195 253.209 485.34 253.121 485.472 253.063C485.842 252.887 486.227 252.745 486.623 252.638L486.9 252.521C487.002 252.521 487.118 252.521 487.235 252.521C487.657 252.423 488.086 252.355 488.517 252.316H489.071C490.384 252.258 491.696 252.456 492.933 252.902C493.137 252.902 493.327 253.048 493.531 253.121C493.735 253.195 494.07 253.312 494.332 253.429C494.595 253.546 494.682 253.648 494.857 253.736L495.688 254.219C495.863 254.336 496.038 254.41 496.198 254.527C496.482 254.725 496.755 254.94 497.014 255.171L497.422 255.493L497.597 255.625C498.005 256.005 498.398 256.401 498.777 256.825L499.127 257.235L517.577 279.427C517.811 279.72 518.044 280.028 518.262 280.335L518.641 280.964C518.773 281.155 518.889 281.36 519.006 281.55C519.122 281.74 519.137 281.755 519.195 281.872C519.253 281.989 519.428 282.399 519.56 282.663C519.691 282.926 519.851 283.263 519.968 283.585C519.968 283.673 520.055 283.746 520.084 283.834C520.268 284.347 520.424 284.87 520.551 285.4V285.59C520.682 286.161 520.769 286.747 520.842 287.318V287.859C520.871 288.371 520.871 288.884 520.842 289.396C520.849 289.528 520.849 289.66 520.842 289.792C520.8 290.407 520.712 291.019 520.58 291.622C520.58 291.768 520.492 291.9 520.463 292.046C520.332 292.514 520.186 292.968 520.011 293.422L519.807 293.905C519.559 294.465 519.267 295.003 518.933 295.515C518.642 295.934 518.384 296.375 518.16 296.833C518.058 297.023 518 297.228 517.913 297.433C517.825 297.638 517.679 297.946 517.577 298.224C517.475 298.502 517.49 298.604 517.432 298.78C517.339 299.073 517.261 299.371 517.199 299.673C517.199 299.878 517.199 300.083 517.111 300.288C517.024 300.493 517.009 300.859 516.995 301.151C516.98 301.444 516.995 301.591 516.995 301.795C516.98 302.083 516.98 302.371 516.995 302.659C516.98 302.869 516.98 303.079 516.995 303.289C516.979 303.586 516.979 303.884 516.995 304.182C516.995 304.401 517.082 304.606 517.126 304.826C517.169 305.045 517.228 305.397 517.301 305.689C517.373 305.982 517.432 306.114 517.49 306.319C517.548 306.524 517.65 306.89 517.752 307.168C517.975 307.752 518.228 308.323 518.51 308.881L518.816 309.422C518.991 309.73 519.166 310.023 519.355 310.315L519.749 310.886C519.924 311.135 520.113 311.355 520.303 311.589C520.492 311.823 520.609 311.969 520.769 312.145C520.929 312.321 521.177 312.57 521.396 312.775C521.614 312.98 521.731 313.111 521.92 313.258C522.189 313.498 522.471 313.723 522.766 313.931C522.915 314.056 523.071 314.174 523.232 314.282C523.759 314.65 524.314 314.973 524.894 315.249C525.32 315.458 525.758 315.643 526.205 315.805C526.612 315.949 527.011 316.115 527.4 316.303C527.531 316.303 527.648 316.449 527.779 316.522C527.91 316.595 528.406 316.873 528.726 317.064C529.047 317.254 529.105 317.269 529.28 317.386L529.674 317.708L530.242 318.147L530.665 318.484C530.883 318.689 531.073 318.908 531.277 319.113L531.67 319.508C531.72 319.566 531.774 319.62 531.831 319.67C532.199 320.094 532.545 320.539 532.865 321.002L533.04 321.28C533.303 321.675 533.55 322.07 533.783 322.48C533.811 322.561 533.845 322.639 533.885 322.714C534.046 323.022 534.162 323.344 534.308 323.651C534.454 323.959 534.556 324.178 534.658 324.456C534.76 324.735 534.658 324.617 534.731 324.705C534.894 325.185 535.03 325.674 535.139 326.169C535.139 326.433 535.285 326.682 535.328 326.945C535.467 327.728 535.541 328.521 535.547 329.316L535.853 357.569C535.932 359.545 535.472 361.505 534.525 363.239C533.577 364.972 532.177 366.413 530.475 367.407L518.554 373.936C518.554 374.067 518.394 374.199 518.335 374.331C518.209 374.598 518.097 374.871 518 375.151C517.838 375.56 517.707 375.981 517.607 376.41C517.607 376.702 517.461 376.995 517.403 377.303C517.344 377.61 517.286 378.21 517.257 378.664C517.228 379.118 517.257 379.279 517.257 379.586C517.263 380.076 517.298 380.564 517.359 381.05C517.378 381.34 517.412 381.628 517.461 381.914C517.573 382.55 517.734 383.176 517.942 383.788C517.942 383.963 518.029 384.154 518.088 384.329C518.394 385.181 518.775 386.004 519.224 386.789L519.443 387.198C519.618 387.52 519.749 387.872 519.895 388.194C520.04 388.516 520.157 388.735 520.259 389.014C520.259 389.014 520.259 389.116 520.259 389.16C520.476 389.763 520.656 390.379 520.798 391.004C520.791 391.028 520.791 391.054 520.798 391.078C520.933 391.715 521.026 392.36 521.075 393.01C521.075 393.23 521.075 393.449 521.075 393.669C521.075 394.108 521.075 394.562 521.075 395.001C521.075 395.44 521.075 395.484 521.075 395.733C521.075 395.982 520.959 396.538 520.871 396.919C520.784 397.299 520.755 397.416 520.682 397.651C520.609 397.885 520.434 398.397 520.288 398.763C520.207 398.987 520.115 399.207 520.011 399.422C519.822 399.802 519.603 400.168 519.385 400.52C519.166 400.871 519.181 400.871 519.049 401.047C518.693 401.572 518.288 402.062 517.84 402.511L499.594 419.755C498.999 420.321 498.338 420.812 497.626 421.219L469.003 436.853C469.718 436.451 470.379 435.959 470.971 435.389L489.217 418.072C489.665 417.622 490.069 417.132 490.427 416.608C490.543 416.447 490.645 416.256 490.747 416.095C490.984 415.746 491.194 415.379 491.374 414.997C491.491 414.778 491.563 414.558 491.665 414.339C491.767 414.119 491.942 413.607 492.059 413.212C492.175 412.816 492.19 412.743 492.234 412.494C492.323 412.103 492.391 411.707 492.438 411.309C492.481 411.062 492.51 410.812 492.525 410.562C492.525 410.123 492.525 409.684 492.525 409.23C492.525 409.01 492.525 408.791 492.525 408.586C492.469 407.937 492.376 407.292 492.248 406.653C492.242 406.625 492.242 406.594 492.248 406.566C492.084 405.89 491.88 405.225 491.636 404.575C491.534 404.311 491.388 404.033 491.272 403.77C491.077 403.269 490.853 402.78 490.602 402.306L490.368 401.881C490.025 401.245 489.727 400.584 489.479 399.905C489.479 399.715 489.377 399.539 489.319 399.349C489.123 398.74 488.967 398.119 488.853 397.489C488.804 397.203 488.77 396.915 488.751 396.626C488.751 396.113 488.649 395.616 488.634 395.162C488.619 394.708 488.634 394.547 488.634 394.24C488.634 393.932 488.707 393.317 488.78 392.864C488.832 392.563 488.9 392.265 488.984 391.971C489.086 391.542 489.218 391.122 489.377 390.712C489.479 390.434 489.581 390.17 489.698 389.892C489.889 389.499 490.103 389.117 490.339 388.75C490.485 388.516 490.616 388.282 490.776 388.062C491.068 387.689 491.379 387.333 491.709 386.993C491.869 386.832 492.015 386.657 492.19 386.496C492.712 386.029 493.284 385.621 493.895 385.281L505.918 378.708C506.794 376.987 507.239 375.078 507.216 373.145V345.126C507.209 344.326 507.135 343.528 506.997 342.74C506.997 342.477 506.866 342.228 506.807 341.979C506.691 341.467 506.56 340.94 506.399 340.515C506.239 340.091 506.123 339.813 505.962 339.476C505.802 339.139 505.7 338.846 505.554 338.539C505.299 338.036 505.017 337.547 504.709 337.075L504.534 336.782C504.158 336.241 503.744 335.727 503.295 335.245L502.916 334.85C502.581 334.513 502.231 334.191 501.882 333.898L501.313 333.445C501.01 333.216 500.694 333.006 500.366 332.815C500.045 332.61 499.739 332.435 499.419 332.259C498.911 331.989 498.385 331.754 497.845 331.556C497.437 331.41 497.029 331.234 496.635 331.059H496.533C495.96 330.771 495.405 330.449 494.872 330.092H494.77L494.391 329.8C494.114 329.58 493.822 329.36 493.56 329.126L493.385 328.994C493.254 328.877 493.152 328.746 493.035 328.628L492.409 328.014L492.234 327.823L491.942 327.457L491.388 326.755L491.199 326.506L490.995 326.184C490.806 325.891 490.616 325.584 490.441 325.276C490.266 324.969 490.31 325.071 490.252 324.954C490.193 324.837 490.252 324.808 490.15 324.735C489.858 324.187 489.605 323.619 489.392 323.036C489.304 322.788 489.232 322.539 489.159 322.275C489.086 322.012 488.998 321.807 488.94 321.558C488.873 321.297 488.819 321.034 488.78 320.767C488.717 320.536 488.669 320.302 488.634 320.065C488.634 319.757 488.634 319.465 488.547 319.172C488.459 318.879 488.547 318.747 488.547 318.542C488.547 318.337 488.547 317.971 488.547 317.679C488.532 317.464 488.532 317.249 488.547 317.035C488.565 316.779 488.599 316.525 488.649 316.273C488.667 316.027 488.701 315.783 488.751 315.541C488.805 315.279 488.873 315.02 488.955 314.765C488.955 314.546 489.057 314.312 489.13 314.092C489.202 313.873 489.348 313.565 489.45 313.302C489.552 313.038 489.61 312.906 489.713 312.701C489.931 312.243 490.184 311.803 490.47 311.384C490.817 310.877 491.115 310.338 491.359 309.774C491.359 309.627 491.491 309.466 491.563 309.305C491.738 308.851 491.884 308.398 492.015 307.929C492.015 307.783 492.015 307.651 492.132 307.505C492.263 306.902 492.351 306.29 492.394 305.675C492.394 305.543 492.394 305.411 492.394 305.28C492.423 304.768 492.423 304.254 492.394 303.742C492.409 303.557 492.409 303.371 492.394 303.186C492.336 302.605 492.244 302.029 492.117 301.459V301.268C491.963 300.651 491.768 300.045 491.534 299.453C491.418 299.146 491.257 298.838 491.126 298.531C490.995 298.224 490.776 297.784 490.572 297.433C490.368 297.082 490.339 297.038 490.208 296.848C489.889 296.312 489.533 295.798 489.144 295.311L470.635 272.664C470.124 272.026 469.553 271.438 468.93 270.908L468.537 270.6C468.114 270.257 467.671 269.939 467.211 269.649L466.38 269.166C465.951 268.934 465.508 268.729 465.054 268.551L464.456 268.317C463.8 268.096 463.128 267.929 462.445 267.819C461.832 267.736 461.212 267.712 460.594 267.746H460.026C459.6 267.786 459.177 267.85 458.758 267.936L458.131 268.097C457.745 268.217 457.365 268.358 456.994 268.521L456.368 268.8L455.683 269.166L455.333 269.356L454.925 269.502C454.561 269.68 454.18 269.823 453.788 269.927L453.511 270.044H453.176C452.758 270.137 452.335 270.201 451.908 270.234H451.369C450.765 270.256 450.161 270.227 449.562 270.146C448.938 270.057 448.323 269.91 447.726 269.707C447.522 269.707 447.332 269.561 447.128 269.488C446.924 269.414 446.487 269.268 446.181 269.122L445.962 268.99C445.597 268.805 445.241 268.6 444.898 268.375C444.68 268.243 444.461 268.141 444.257 268.009C444.207 267.961 444.154 267.917 444.097 267.877C443.907 267.746 443.747 267.599 443.572 267.453C443.397 267.306 443.077 267.087 442.843 266.882L442.581 266.809L442.144 266.355L441.721 265.93C441.532 265.711 441.357 265.462 441.167 265.228C440.978 264.993 440.949 264.964 440.847 264.818C440.802 264.752 440.753 264.688 440.701 264.628C440.366 264.159 440.059 263.67 439.783 263.164C439.71 263.003 439.652 262.827 439.564 262.666C439.327 262.191 439.118 261.702 438.938 261.202C438.938 261.202 438.938 261.114 438.938 261.085C438.651 260.29 438.432 259.472 438.282 258.64C438.137 257.837 437.922 257.049 437.641 256.283C437.495 255.859 437.305 255.478 437.13 255.083C436.956 254.688 436.912 254.541 436.766 254.278C436.453 253.68 436.103 253.103 435.717 252.551L435.294 252.17C434.974 251.745 434.638 251.335 434.289 250.955L433.837 250.501C433.516 250.194 433.181 249.901 432.846 249.623C432.511 249.345 432.467 249.301 432.277 249.169C432.088 249.037 431.68 248.774 431.374 248.583C431.068 248.393 430.747 248.188 430.412 248.027C430.077 247.866 429.625 247.676 429.232 247.515C428.838 247.354 428.838 247.354 428.634 247.295C428.018 247.086 427.384 246.934 426.739 246.841L400.9 243.196C400.273 243.109 399.638 243.08 399.006 243.108L398.496 243.167Z" fill="#898282"/>
<path d="M330.232 307.798C324.811 308.163 320.905 312.775 320.905 318.777V346.781C320.919 349.759 321.831 352.663 323.519 355.111C325.207 357.559 327.593 359.437 330.363 360.497C338.495 363.352 342.387 374.053 337.781 380.845C334.706 385.398 335.304 392.102 339.239 396.948L357.543 419.345C359.579 421.921 362.501 423.639 365.734 424.162C367.963 424.51 370.243 424.075 372.19 422.932C374.129 421.793 376.396 421.354 378.617 421.688C381.484 422.229 384.115 423.643 386.154 425.738C388.193 427.833 389.54 430.508 390.014 433.399C390.481 436.287 391.823 438.961 393.857 441.056C395.891 443.152 398.518 444.567 401.381 445.11L427.22 448.755C428.523 448.949 429.85 448.883 431.127 448.559C432.403 448.235 433.603 447.661 434.657 446.868C435.711 446.076 436.599 445.082 437.269 443.944C437.938 442.805 438.377 441.545 438.559 440.235C438.733 438.92 439.167 437.652 439.835 436.507C440.503 435.363 441.392 434.363 442.449 433.567C443.506 432.771 444.71 432.195 445.992 431.872C447.273 431.549 448.606 431.485 449.912 431.686C452.304 432.057 454.538 433.12 456.339 434.745C458.152 436.366 460.395 437.424 462.795 437.79C464.26 438.021 465.757 437.916 467.176 437.482C468.594 437.049 469.897 436.298 470.985 435.287L489.217 418.072C493.094 414.368 493.691 407.825 490.587 402.408C485.938 394.298 489.8 384.695 497.874 384.139C503.295 383.744 507.201 379.133 507.186 373.145V345.127C507.174 342.173 506.273 339.291 504.6 336.861C502.928 334.432 500.563 332.567 497.816 331.512C489.683 328.585 485.778 317.928 490.398 311.15C493.502 306.612 492.875 299.878 488.94 295.047L470.636 272.664C468.605 270.077 465.682 268.349 462.445 267.819C460.217 267.485 457.941 267.919 455.989 269.049C454.05 270.187 451.783 270.626 449.562 270.293C446.696 269.753 444.066 268.339 442.029 266.243C439.992 264.148 438.648 261.472 438.18 258.582C437.705 255.694 436.359 253.022 434.324 250.927C432.288 248.832 429.661 247.417 426.798 246.871L400.959 243.226C399.656 243.029 398.327 243.095 397.05 243.419C395.773 243.743 394.573 244.319 393.519 245.113C392.465 245.907 391.579 246.904 390.913 248.045C390.246 249.186 389.811 250.449 389.635 251.76C389.457 253.075 389.02 254.341 388.349 255.484C387.679 256.627 386.789 257.625 385.731 258.42C384.673 259.214 383.468 259.789 382.187 260.111C380.905 260.433 379.573 260.495 378.267 260.295C375.874 259.924 373.641 258.86 371.84 257.235C370.019 255.625 367.78 254.569 365.384 254.19C363.917 253.961 362.417 254.07 360.998 254.509C359.579 254.948 358.278 255.705 357.194 256.723L338.976 273.923C335.056 277.627 334.488 284.17 337.519 289.616C342.226 297.667 338.364 307.271 330.232 307.798ZM414.177 402.335C385.452 398.28 362.12 369.72 362.061 338.598C362.003 307.475 385.233 285.488 413.973 289.543C442.712 293.598 466.045 322.129 466.103 353.28C466.161 384.432 442.902 406.39 414.177 402.335Z" fill="url(#paint0_linear_237_938)"/>
<path opacity="0.4" d="M21.9865 132.024C21.5117 129.614 21.2726 127.162 21.2724 124.705C21.2734 115.805 24.3604 107.183 30.0029 100.321C35.6455 93.4596 43.4912 88.7861 52.1918 87.1041C60.8924 85.422 69.9045 86.8364 77.6796 91.1042C85.4547 95.372 91.5072 102.227 94.7969 110.49C97.8001 107.976 101.523 106.49 105.425 106.247C109.327 106.004 113.204 107.017 116.494 109.139C119.783 111.262 122.313 114.382 123.716 118.047C125.119 121.713 125.321 125.732 124.294 129.521C127.915 128.62 131.685 128.502 135.355 129.175C139.025 129.847 142.511 131.295 145.583 133.421C148.654 135.548 151.241 138.306 153.172 141.512C155.103 144.718 156.334 148.299 156.784 152.019C157.234 155.739 156.893 159.512 155.782 163.09C154.672 166.667 152.818 169.967 150.343 172.77C147.869 175.574 144.829 177.818 141.426 179.354C138.024 180.89 134.335 181.682 130.605 181.679H26.3587H25.6008C19.2744 181.736 13.1638 179.371 8.51112 175.064C3.85843 170.758 1.01274 164.834 0.55249 158.496C0.0922394 152.158 2.05196 145.881 6.03331 140.943C10.0147 136.004 15.7189 132.773 21.9865 131.907V132.024Z" fill="white"/>
<path d="M17.0279 253.341C16.7321 253.434 16.4445 253.551 16.1681 253.692L35.9738 242.874L36.207 242.757C36.4109 242.666 36.6202 242.588 36.8336 242.523L37.3729 242.318H37.4749C37.8807 242.212 38.2954 242.143 38.7137 242.113C39.1738 242.085 39.6288 242.002 40.069 241.864C40.2636 241.811 40.4537 241.743 40.6374 241.659C40.9259 241.565 41.2082 241.452 41.4827 241.323L21.6916 252.17L21.4438 252.287C21.2554 252.375 21.0605 252.449 20.8608 252.507L20.2924 252.726H20.1759C19.7701 252.832 19.3554 252.901 18.9371 252.931C18.4787 252.964 18.0247 253.042 17.5817 253.165L17.0279 253.341Z" fill="#898282"/>
<path d="M93.8316 344.482C93.9957 343.41 94.3996 342.39 95.013 341.497C95.6264 340.605 96.4333 339.864 97.373 339.33L117.179 328.511C116.237 329.043 115.428 329.783 114.815 330.676C114.201 331.569 113.798 332.591 113.637 333.664C113.464 334.737 113.054 335.757 112.439 336.651C111.824 337.545 111.019 338.29 110.081 338.832L90.2756 349.65C91.2184 349.114 92.0281 348.371 92.644 347.476C93.2599 346.581 93.6659 345.558 93.8316 344.482Z" fill="#898282"/>
<path d="M44.077 290.436C43.975 290.187 43.8584 289.938 43.771 289.689V289.557C43.5378 288.899 43.3483 288.225 43.1297 287.552C42.9111 286.879 42.7799 286.498 42.6196 285.942C42.4593 285.385 42.2699 284.478 42.095 283.658C41.9784 283.146 41.8326 282.633 41.7452 282.106C41.5849 281.257 41.4828 280.394 41.3808 279.544C41.3808 279.091 41.2351 278.637 41.1914 278.198C41.0748 276.866 41.0019 275.548 41.0019 274.201C41.0019 260.324 47.633 249.081 57.6888 243.592L77.4945 232.773C67.4387 238.263 60.7785 249.506 60.8076 263.383C60.8076 264.73 60.8805 266.047 60.9971 267.365C60.9971 267.804 61.1283 268.243 61.172 268.668C61.2886 269.546 61.3906 270.424 61.5509 271.288C61.6383 271.815 61.7841 272.313 61.9007 272.825C62.061 273.601 62.2213 274.377 62.4253 275.124C62.6293 275.87 62.7751 276.207 62.9354 276.748C63.0957 277.29 63.3726 278.212 63.635 278.856C63.7224 279.12 63.839 279.369 63.941 279.618C64.281 280.516 64.6454 281.394 65.034 282.253C65.2235 282.648 65.4275 283.029 65.617 283.409C65.9813 284.156 66.3602 284.873 66.7537 285.62C66.9286 285.912 67.0889 286.205 67.2638 286.483C67.7593 287.332 68.2839 288.167 68.8377 288.987L69.1438 289.455C69.7851 290.392 70.4846 291.299 71.1841 292.178L71.7379 292.837C72.35 293.583 72.9913 294.3 73.6471 294.988L74.0843 295.457C74.8567 296.262 75.6728 297.023 76.5035 297.755L77.2031 298.355C77.8735 298.912 78.5439 299.453 79.2434 299.98L80.0158 300.566C80.6571 301.02 81.3129 301.43 81.9687 301.854L83.0909 302.571C83.8487 303.01 84.6357 303.42 85.4227 303.816L86.2534 304.255C87.259 304.738 88.2791 305.162 89.3139 305.543L90.1883 305.836C90.9899 306.114 91.7914 306.363 92.6221 306.582L93.5548 306.831C94.6457 307.104 95.7499 307.319 96.8631 307.475C97.8686 307.622 98.8597 307.71 99.7778 307.753H100.711C101.381 307.753 102.051 307.753 102.722 307.753H103.742C104.383 307.753 105.024 307.651 105.651 307.563C105.957 307.563 106.278 307.49 106.569 307.431C107.356 307.3 108.114 307.153 108.872 306.963L109.294 306.875C110.198 306.641 111.072 306.348 111.947 306.041L112.676 305.748C113.297 305.504 113.909 305.24 114.512 304.957C115.022 304.709 115.532 304.474 115.969 304.211L96.1635 315.029L95.0559 315.6L94.6479 315.776C94.0455 316.059 93.4334 316.322 92.8116 316.566L92.0829 316.859C91.2084 317.181 90.334 317.459 89.4304 317.693H89.0807C88.3228 317.884 87.5504 318.045 86.778 318.162C86.472 318.162 86.1514 318.25 85.8453 318.293C85.2186 318.381 84.5774 318.44 83.9362 318.498H82.916C82.2456 318.498 81.5752 318.498 80.9048 318.498H79.9867C78.9957 318.498 78.0046 318.352 76.999 318.22C75.9935 318.088 74.7839 317.825 73.7054 317.561L72.7581 317.313C71.9274 317.093 71.1258 316.844 70.3243 316.581L69.4644 316.273C68.4589 315.907 67.4533 315.497 66.5497 315.044H66.4477L65.617 314.604C64.83 314.209 64.0576 313.814 63.2852 313.36L62.163 312.643C61.6675 312.335 61.172 312.043 60.7056 311.706C60.5307 311.603 60.385 311.472 60.2101 311.355L59.4377 310.769C58.7382 310.242 58.0678 309.7 57.3974 309.144L56.6978 308.559L56.3481 308.251C55.634 307.607 54.8907 306.934 54.2786 306.246L53.8414 305.792C53.4479 305.367 53.0544 304.957 52.6755 304.533C52.2966 304.108 52.18 303.933 51.9323 303.625C51.6845 303.318 51.5679 303.201 51.393 302.967C50.708 302.132 50.0522 301.283 49.4401 300.39C49.3981 300.348 49.3636 300.298 49.3381 300.244L49.032 299.775C48.4782 298.97 47.9536 298.136 47.4581 297.287C47.2832 296.994 47.1229 296.701 46.9626 296.408C46.8023 296.116 46.642 295.881 46.4962 295.618C46.3505 295.354 46.0444 294.681 45.8113 294.154C45.5781 293.627 45.4177 293.393 45.2429 292.998C44.7182 292.207 44.4122 291.329 44.077 290.436Z" fill="#898282"/>
<path d="M45.5781 216.466C45.3158 216.349 45.0535 216.261 44.7911 216.158C44.668 216.106 44.5414 216.062 44.4122 216.026C44.0307 215.909 43.641 215.821 43.2463 215.763C42.8147 215.727 42.3809 215.727 41.9493 215.763H41.5703C41.2708 215.789 40.9736 215.838 40.6814 215.909L40.2587 216.012C39.9881 216.085 39.7246 216.183 39.4717 216.305C39.298 216.369 39.1278 216.442 38.9616 216.524L58.7528 205.706L59.0005 205.589L59.2629 205.487C59.5218 205.367 59.7898 205.269 60.0644 205.194H60.2539C60.2539 205.194 60.4142 205.194 60.4871 205.194C60.5599 205.194 61.07 205.091 61.3615 205.062H61.755C62.1866 205.026 62.6204 205.026 63.052 205.062C63.447 205.111 63.8371 205.195 64.2179 205.311L64.6114 205.457C64.8592 205.56 65.1215 205.648 65.3693 205.765L65.5296 205.867C65.8823 206.039 66.2231 206.235 66.5497 206.453H66.6663C66.9515 206.65 67.2241 206.865 67.4824 207.097C67.8031 207.36 68.1237 207.595 68.4443 207.814C68.7811 208.041 69.1315 208.246 69.4936 208.429L69.6539 208.517C69.9054 208.63 70.1634 208.727 70.4264 208.81L70.7907 208.956C71.1662 209.074 71.5515 209.157 71.942 209.205C72.3736 209.241 72.8075 209.241 73.2391 209.205H73.6326C73.9272 209.177 74.2195 209.129 74.507 209.058L74.9296 208.956C75.2017 208.868 75.4786 208.766 75.7603 208.649C75.9206 208.575 76.0955 208.517 76.2559 208.429L56.4501 219.247L56.2024 219.364L55.9546 219.467C55.6835 219.584 55.4062 219.687 55.1239 219.774H54.9199H54.7013C54.4139 219.845 54.1216 219.894 53.8269 219.92H53.4334C52.6059 219.956 51.7783 219.852 50.985 219.613L50.6061 219.467C50.3479 219.384 50.0948 219.287 49.8482 219.174L49.7025 219.086C49.3527 218.91 49.003 218.705 48.6532 218.486H48.5512C48.2597 218.281 47.9828 218.047 47.6913 217.812C47.4024 217.556 47.0956 217.322 46.7732 217.11C46.4462 216.888 46.1054 216.688 45.753 216.51L45.5781 216.466Z" fill="#898282"/>
<path d="M66.1563 208.151C65.8676 208.179 65.5806 208.223 65.2965 208.283L64.8738 208.4C64.5992 208.476 64.3312 208.573 64.0723 208.693C63.912 208.693 63.7371 208.824 63.5768 208.912L83.3825 198.094L83.6303 198.006C83.7095 197.968 83.7925 197.939 83.878 197.918C84.1392 197.801 84.4068 197.698 84.6796 197.611H84.8836H85.1022C85.3849 197.545 85.6724 197.501 85.962 197.479H86.3555C86.792 197.443 87.2307 197.443 87.6672 197.479L105.535 200.012C105.981 200.069 106.421 200.172 106.846 200.319L107.254 200.48C107.468 200.545 107.677 200.624 107.881 200.714L108.07 200.832C108.304 200.949 108.522 201.08 108.741 201.212L109.178 201.461L109.367 201.607L109.761 201.929C109.892 202.032 110.023 202.12 110.154 202.237L110.446 202.544L110.752 202.852L110.971 203.071C111.145 203.262 111.291 203.481 111.452 203.686C111.517 203.758 111.576 203.837 111.626 203.92C111.86 204.257 112.078 204.623 112.282 204.989C112.282 204.989 112.443 205.37 112.53 205.545C112.617 205.721 112.763 206.028 112.851 206.277C112.851 206.277 112.851 206.277 112.851 206.38C113.04 206.908 113.187 207.452 113.288 208.005C113.392 208.582 113.543 209.15 113.74 209.703C113.871 210.064 114.027 210.416 114.206 210.757C114.206 210.874 114.293 210.991 114.352 211.093C114.579 211.509 114.832 211.91 115.109 212.294L115.328 212.587C115.547 212.85 115.765 213.114 115.999 213.362L116.305 213.67C116.538 213.889 116.785 214.094 117.019 214.285L117.383 214.563C117.558 214.695 117.747 214.797 117.937 214.914C118.176 215.07 118.424 215.211 118.68 215.339C118.942 215.47 119.219 215.588 119.482 215.69L119.89 215.836C120.306 215.982 120.736 216.085 121.172 216.144C121.584 216.18 121.999 216.18 122.411 216.144H122.79C123.085 216.129 123.378 216.084 123.664 216.012L124.087 215.91C124.362 215.834 124.63 215.736 124.889 215.617C125.034 215.617 125.18 215.5 125.326 215.412L125.792 215.163L126.025 215.031L126.302 214.929L127.104 214.636H127.293H127.526C127.818 214.563 128.115 214.518 128.415 214.504H128.794C129.221 214.468 129.65 214.468 130.077 214.504C130.572 214.576 131.06 214.694 131.534 214.856L131.942 215.017C132.131 215.072 132.316 215.14 132.496 215.222L132.86 215.441L133.429 215.763L133.793 215.968L134.347 216.422L134.624 216.642L134.755 216.744C135.041 217.002 135.314 217.276 135.571 217.564L135.804 217.857L148.483 233.33L148.95 233.945L149.212 234.384L149.46 234.794C149.509 234.864 149.553 234.937 149.591 235.013C149.688 235.192 149.771 235.378 149.839 235.57C149.941 235.774 150.043 235.979 150.13 236.199C150.218 236.419 150.13 236.316 150.203 236.375C150.337 236.729 150.449 237.09 150.538 237.458C150.538 237.458 150.538 237.546 150.538 237.59C150.636 237.984 150.704 238.385 150.742 238.79C150.749 238.912 150.749 239.034 150.742 239.156C150.764 239.512 150.764 239.869 150.742 240.225V240.459C150.709 240.882 150.645 241.303 150.553 241.718L150.465 242.011C150.385 242.335 150.283 242.652 150.159 242.962L150.028 243.299C149.847 243.682 149.643 244.054 149.416 244.411C149.217 244.702 149.037 245.005 148.877 245.319L148.702 245.743C148.629 245.919 148.542 246.095 148.483 246.285C148.441 246.415 148.407 246.547 148.381 246.68C148.313 246.876 148.259 247.077 148.221 247.281C148.221 247.427 148.221 247.573 148.148 247.72C148.075 247.866 148.148 248.115 148.075 248.305C148.002 248.496 148.075 248.613 148.075 248.759C148.075 248.905 148.075 249.154 148.075 249.359V249.784C148.075 250.003 148.075 250.208 148.075 250.413C148.075 250.618 148.075 250.706 148.163 250.852C148.25 250.999 148.236 251.248 148.279 251.453L148.41 251.892C148.41 252.082 148.527 252.272 148.6 252.463C148.751 252.868 148.926 253.264 149.125 253.648C149.198 253.78 149.27 253.897 149.329 254.029C149.387 254.161 149.576 254.439 149.722 254.644L149.984 255.039C150.099 255.209 150.226 255.371 150.363 255.522L150.699 255.917C150.83 256.064 150.975 256.196 151.121 256.342C151.236 256.462 151.357 256.574 151.486 256.679C151.67 256.847 151.864 257.004 152.069 257.147C152.169 257.238 152.276 257.321 152.389 257.396C152.754 257.647 153.139 257.867 153.54 258.055C153.832 258.201 154.138 258.333 154.444 258.45C154.729 258.541 155.007 258.653 155.275 258.787L155.537 258.933L156.193 259.314C156.309 259.387 156.455 259.445 156.572 259.533L156.849 259.753L157.242 260.075L157.534 260.294L157.956 260.734C158.044 260.821 158.146 260.909 158.219 260.997L158.335 261.114C158.594 261.409 158.837 261.717 159.064 262.037L159.181 262.227C159.355 262.505 159.545 262.783 159.691 263.061C159.688 263.115 159.688 263.169 159.691 263.222C159.8 263.436 159.897 263.656 159.982 263.881C160.069 264.057 160.157 264.232 160.23 264.423V264.598C160.346 264.95 160.434 265.301 160.521 265.667C160.609 266.033 160.623 266.004 160.652 266.194C160.745 266.736 160.793 267.284 160.798 267.833V287.215C160.852 288.582 160.534 289.937 159.879 291.136C159.225 292.335 158.258 293.333 157.082 294.022L148.833 298.531L148.673 298.809C148.585 299 148.513 299.19 148.44 299.38C148.337 299.663 148.249 299.951 148.177 300.244C148.177 300.449 148.075 300.654 148.032 300.859C147.988 301.064 148.032 301.488 147.93 301.81C147.828 302.132 147.93 302.235 147.93 302.44C147.932 302.792 147.956 303.144 148.002 303.494C148.002 303.699 148.002 303.889 148.075 304.094C148.155 304.53 148.262 304.96 148.396 305.382L148.513 305.763C148.724 306.351 148.987 306.92 149.3 307.461L149.445 307.739C149.559 307.968 149.662 308.202 149.751 308.442C149.839 308.617 149.941 308.808 150.014 308.998V309.1C150.159 309.525 150.291 309.949 150.393 310.374C150.489 310.813 150.557 311.258 150.597 311.706V312.189C150.597 312.501 150.597 312.809 150.597 313.111C150.597 313.287 150.597 313.448 150.597 313.624C150.597 313.799 150.509 314.165 150.451 314.443C150.421 314.613 150.377 314.779 150.32 314.941C150.248 315.205 150.16 315.464 150.057 315.717C149.984 315.863 149.926 316.024 149.853 316.171C149.727 316.432 149.586 316.687 149.431 316.932C149.343 317.049 149.285 317.181 149.197 317.283C148.952 317.64 148.668 317.969 148.352 318.264L135.746 330.195C135.332 330.578 134.872 330.908 134.376 331.176L114.57 342.008C115.066 341.735 115.527 341.401 115.94 341.013L128.561 329.082C128.865 328.785 129.143 328.462 129.392 328.116C129.479 327.999 129.552 327.867 129.625 327.75C129.785 327.508 129.927 327.253 130.048 326.989C130.124 326.842 130.192 326.69 130.252 326.535C130.354 326.282 130.442 326.023 130.514 325.759C130.573 325.598 130.617 325.431 130.645 325.262C130.709 324.991 130.758 324.718 130.791 324.442C130.791 324.266 130.791 324.105 130.791 323.929C130.791 323.754 130.791 323.315 130.791 323.007C130.791 322.7 130.791 322.7 130.791 322.553C130.751 322.105 130.683 321.66 130.587 321.221C130.479 320.753 130.338 320.293 130.164 319.845C130.164 319.655 129.989 319.479 129.916 319.289C129.844 319.099 129.625 318.63 129.45 318.308L129.29 318.03C129.047 317.59 128.842 317.129 128.678 316.654C128.637 316.529 128.603 316.402 128.576 316.273C128.432 315.853 128.32 315.422 128.24 314.985C128.24 314.78 128.24 314.59 128.168 314.385C128.146 314.039 128.146 313.692 128.168 313.346C128.168 313.126 128.168 312.921 128.168 312.701C128.168 312.482 128.168 312.072 128.284 311.75C128.314 311.542 128.358 311.337 128.415 311.135C128.486 310.841 128.578 310.552 128.692 310.271C128.692 310.081 128.823 309.891 128.911 309.701C129.044 309.427 129.195 309.163 129.363 308.91C129.45 308.749 129.552 308.588 129.654 308.427C129.857 308.169 130.076 307.925 130.31 307.695C130.409 307.576 130.516 307.463 130.631 307.358C130.992 307.033 131.388 306.749 131.811 306.509L140.468 301.942C141.077 300.752 141.387 299.43 141.371 298.092V278.71C141.367 278.161 141.318 277.612 141.226 277.071C141.226 276.895 141.138 276.719 141.094 276.544C141.026 276.18 140.929 275.823 140.803 275.475C140.721 275.23 140.624 274.99 140.512 274.758C140.429 274.536 140.332 274.321 140.22 274.114C140.049 273.769 139.854 273.436 139.637 273.118C139.604 273.047 139.565 272.978 139.521 272.913C139.259 272.546 138.977 272.194 138.675 271.859L138.398 271.581C138.165 271.347 137.932 271.127 137.684 270.922L137.291 270.6C137.087 270.439 136.854 270.307 136.635 270.161C136.416 270.015 136.212 269.898 135.979 269.78C135.629 269.599 135.269 269.437 134.901 269.297C134.613 269.195 134.331 269.078 134.055 268.946C133.656 268.755 133.271 268.535 132.904 268.287L132.642 268.082L132.059 267.629C132.059 267.629 131.971 267.629 131.942 267.526C131.913 267.424 131.782 267.365 131.694 267.277C131.546 267.143 131.405 267.001 131.272 266.853L131.141 266.721C131.068 266.633 131.009 266.545 130.937 266.472L130.558 265.974L130.427 265.813L130.295 265.579C130.155 265.383 130.029 265.178 129.916 264.964L129.771 264.745L129.698 264.584C129.502 264.203 129.327 263.812 129.173 263.413C129.173 263.237 129.057 263.061 129.013 262.886C128.969 262.71 128.896 262.549 128.853 262.388C128.809 262.227 128.78 262.022 128.751 261.832C128.721 261.641 128.751 261.51 128.649 261.348C128.546 261.187 128.649 260.939 128.649 260.734V260.294C128.649 260.09 128.649 259.899 128.649 259.694C128.649 259.489 128.649 259.402 128.649 259.255C128.649 259.109 128.649 258.904 128.649 258.728C128.649 258.552 128.649 258.391 128.721 258.216C128.758 258.032 128.807 257.851 128.867 257.674C128.867 257.528 128.94 257.367 128.984 257.22C129.027 257.074 129.129 256.854 129.202 256.679L129.377 256.254C129.537 255.94 129.718 255.637 129.916 255.347C130.149 254.992 130.353 254.62 130.529 254.234L130.66 253.897C130.788 253.588 130.895 253.27 130.98 252.946C130.98 252.858 130.98 252.755 131.053 252.653C131.146 252.238 131.209 251.818 131.243 251.394V251.116C131.243 250.765 131.243 250.413 131.243 250.062V249.681C131.202 249.278 131.139 248.877 131.053 248.481C131.053 248.481 131.053 248.393 131.053 248.349C130.946 247.921 130.809 247.5 130.645 247.09C130.558 246.871 130.456 246.666 130.368 246.461C130.281 246.256 130.12 245.934 129.975 245.685C129.829 245.436 129.814 245.421 129.727 245.29C129.511 244.916 129.267 244.558 128.998 244.221L116.319 228.748C115.964 228.311 115.574 227.905 115.153 227.533L114.876 227.313C114.57 227.079 114.264 226.859 113.958 226.669C113.77 226.546 113.576 226.434 113.375 226.332C113.078 226.173 112.771 226.031 112.457 225.908L112.049 225.747C111.575 225.585 111.087 225.468 110.592 225.396C110.165 225.359 109.736 225.359 109.309 225.396H108.93C108.632 225.424 108.335 225.468 108.041 225.527L107.619 225.63C107.346 225.717 107.078 225.82 106.817 225.937L106.394 226.127L105.928 226.376L105.68 226.508L105.403 226.611C105.145 226.73 104.876 226.828 104.602 226.903H104.412H104.179C103.897 226.975 103.609 227.024 103.319 227.05H102.926C102.514 227.086 102.099 227.086 101.687 227.05C101.252 226.989 100.823 226.891 100.405 226.757L99.9965 226.596L99.3407 226.332H99.195C98.9521 226.196 98.7043 226.049 98.4517 225.893C98.306 225.805 98.1603 225.747 98.0145 225.644L97.8979 225.557L97.5482 225.264C97.3733 225.132 97.1984 225.015 97.0381 224.869L96.8341 224.649L96.5134 224.342L96.2365 224.049C96.1013 223.895 95.9748 223.734 95.8576 223.566L95.6244 223.273L95.5224 223.141C95.2885 222.808 95.0744 222.461 94.8812 222.102C94.8812 221.999 94.7937 221.882 94.7354 221.765C94.6771 221.648 94.4294 221.136 94.2982 220.799C94.2982 220.799 94.2982 220.799 94.2982 220.711C94.0931 220.161 93.9418 219.592 93.8464 219.013C93.7405 218.46 93.5894 217.916 93.3946 217.388C93.2926 217.095 93.1615 216.832 93.0449 216.554C92.9283 216.276 92.8846 216.188 92.7971 216.012C92.5801 215.597 92.3367 215.196 92.0684 214.812C92.0684 214.724 91.9372 214.665 91.879 214.577C91.8207 214.49 91.4272 214.007 91.194 213.743L90.8734 213.436C90.5667 213.149 90.2404 212.885 89.8969 212.645C89.7658 212.543 89.6346 212.426 89.5035 212.338L88.8768 211.928C88.6582 211.796 88.4396 211.664 88.2064 211.547C87.941 211.415 87.6685 211.298 87.3903 211.196L86.9822 211.035C86.5546 210.895 86.1158 210.792 85.6706 210.727L67.8032 208.195C67.3667 208.159 66.928 208.159 66.4915 208.195L66.1563 208.151Z" fill="#898282"/>
<path d="M18.9374 252.902C17.0878 253.073 15.3779 253.963 14.172 255.382C12.9661 256.801 12.3594 258.637 12.4812 260.499V279.881C12.5042 281.923 13.1339 283.911 14.2893 285.59C15.4448 287.27 17.0735 288.565 18.9665 289.308C24.592 291.285 27.2882 298.692 24.0965 303.391C23.074 305.112 22.6205 307.114 22.8012 309.111C22.9819 311.107 23.7874 312.994 25.1021 314.502L37.7521 329.99C39.1698 331.771 41.1951 332.96 43.4358 333.327C44.9753 333.565 46.5494 333.266 47.8954 332.478C49.2316 331.679 50.8038 331.374 52.3404 331.615C54.3292 331.99 56.154 332.974 57.5653 334.431C58.9765 335.887 59.9054 337.747 60.2248 339.754C60.5499 341.751 61.4775 343.6 62.8823 345.05C64.2872 346.5 66.1015 347.483 68.08 347.864L85.962 350.396C86.8596 350.529 87.7745 350.483 88.6543 350.26C89.5341 350.038 90.3617 349.644 91.0898 349.1C91.8179 348.556 92.4322 347.874 92.8977 347.091C93.3632 346.309 93.6707 345.442 93.8027 344.541C93.9345 343.638 94.2425 342.77 94.7089 341.986C95.1753 341.203 95.791 340.52 96.5207 339.976C97.2504 339.432 98.0798 339.038 98.9613 338.816C99.8428 338.595 100.759 338.55 101.658 338.685C103.313 338.945 104.857 339.682 106.103 340.808C107.359 341.932 108.913 342.665 110.577 342.916C111.591 343.077 112.627 343.005 113.609 342.706C114.591 342.407 115.493 341.888 116.246 341.188L128.867 329.258C131.549 326.711 131.957 322.173 129.814 318.425C126.594 312.818 129.261 306.172 134.886 305.792C136.735 305.613 138.443 304.719 139.648 303.298C140.853 301.878 141.46 300.042 141.342 298.18V278.798C141.329 276.758 140.705 274.769 139.551 273.09C138.397 271.411 136.766 270.12 134.871 269.385C129.231 267.394 126.55 259.987 129.741 255.302C130.765 253.58 131.22 251.576 131.042 249.578C130.864 247.58 130.062 245.69 128.75 244.177L116.071 228.704C114.667 226.912 112.644 225.715 110.402 225.351C108.863 225.122 107.291 225.421 105.943 226.2C104.603 226.992 103.034 227.297 101.498 227.064C99.5097 226.69 97.6859 225.706 96.2768 224.249C94.8676 222.792 93.9423 220.932 93.6278 218.925C93.2969 216.926 92.3637 215.076 90.9539 213.626C89.5441 212.176 87.7255 211.195 85.7434 210.815L67.876 208.283C66.9781 208.148 66.0626 208.193 65.182 208.414C64.3014 208.636 63.473 209.03 62.7445 209.574C62.016 210.118 61.4016 210.801 60.9367 211.585C60.4718 212.368 60.1655 213.236 60.0353 214.138C59.9071 215.043 59.6015 215.913 59.1362 216.698C58.6709 217.483 58.0551 218.168 57.3245 218.713C56.5939 219.257 55.7631 219.651 54.88 219.871C53.997 220.091 53.0793 220.132 52.1801 219.994C50.5206 219.743 48.9704 219.01 47.7205 217.886C46.466 216.768 44.918 216.036 43.261 215.778C42.2463 215.616 41.2085 215.689 40.2262 215.991C39.2439 216.293 38.3429 216.816 37.5918 217.52L24.9855 229.421C23.6532 230.87 22.8362 232.722 22.6622 234.687C22.4882 236.652 22.9669 238.62 24.0236 240.283C27.2298 245.86 24.5629 252.506 18.9374 252.902ZM76.9991 318.308C57.1206 315.497 40.9875 295.75 40.9437 274.201C40.9 252.653 56.9748 237.472 76.868 240.268C96.7611 243.064 112.88 262.812 112.923 284.375C112.967 305.938 96.8923 321.104 76.9991 318.308Z" fill="url(#paint1_linear_237_938)"/>
<path opacity="0.3" d="M60.7493 466.365C60.7493 472.323 86.1076 480.082 117.412 483.683C148.716 487.284 174.075 485.366 174.075 479.408C174.075 473.45 148.716 465.692 117.412 462.091C86.1076 458.489 60.7493 460.392 60.7493 466.365Z" fill="#C1C1C1" fill-opacity="0.2"/>
<path opacity="0.3" d="M8.15275 419.257C8.15275 425.215 33.5256 432.974 64.83 436.575C96.1344 440.176 121.493 438.258 121.493 432.3C121.493 426.342 96.1198 418.584 64.83 414.983C33.5402 411.382 8.15275 413.299 8.15275 419.257Z" fill="#C1C1C1" fill-opacity="0.2"/>
<path d="M70.6887 387.564C70.4788 387.632 70.2742 387.715 70.0765 387.813L84.1694 380.098L84.3442 380.011L84.796 379.85L85.175 379.703H85.2478C85.5383 379.624 85.8363 379.575 86.1368 379.557C86.4623 379.529 86.7844 379.47 87.0987 379.381L87.5067 379.235C87.7117 379.167 87.9115 379.083 88.1042 378.986L73.9969 386.7L73.822 386.788L73.3994 386.935L72.9913 387.096C72.7008 387.175 72.4029 387.224 72.1023 387.242C71.7768 387.27 71.4547 387.328 71.1404 387.418C70.9847 387.449 70.833 387.498 70.6887 387.564Z" fill="#898282"/>
<path d="M125.384 452.473C125.498 451.708 125.784 450.979 126.221 450.343C126.658 449.706 127.234 449.178 127.905 448.798L142.012 441.098C141.339 441.474 140.76 442.001 140.323 442.639C139.886 443.276 139.601 444.007 139.491 444.773C139.367 445.538 139.073 446.265 138.632 446.901C138.19 447.537 137.612 448.065 136.941 448.447L122.848 456.147C123.518 455.765 124.094 455.237 124.533 454.601C124.972 453.964 125.263 453.237 125.384 452.473Z" fill="#898282"/>
<path d="M89.8967 413.973C89.8967 413.797 89.7364 413.621 89.6781 413.446V413.358C89.5178 412.889 89.3721 412.406 89.2263 411.894C89.0806 411.382 88.964 411.133 88.862 410.752C88.76 410.372 88.6142 409.669 88.4831 409.127C88.3519 408.586 88.3082 408.395 88.2353 408.015C88.1624 407.634 88.0604 406.8 87.973 406.185C87.973 405.863 87.871 405.555 87.8418 405.233C87.7544 404.282 87.7107 403.345 87.7107 402.393C87.7107 392.512 92.4326 384.505 99.6028 380.582L113.696 372.882C106.54 376.79 101.789 384.798 101.818 394.679C101.818 395.63 101.818 396.582 101.949 397.519C101.949 397.826 102.037 398.134 102.08 398.441C102.153 399.07 102.226 399.7 102.343 400.315C102.343 400.681 102.503 401.047 102.59 401.413C102.678 401.779 102.824 402.511 102.969 403.038C103.115 403.565 103.217 403.813 103.334 404.194C103.45 404.575 103.64 405.204 103.829 405.658C103.829 405.848 103.975 406.024 104.048 406.2C104.296 406.829 104.543 407.458 104.835 408.073C104.951 408.351 105.097 408.63 105.243 408.908C105.505 409.435 105.768 409.962 106.059 410.474L106.409 411.089C106.773 411.704 107.137 412.289 107.531 412.875L107.75 413.212C108.216 413.87 108.697 414.514 109.207 415.144L109.6 415.612C110.038 416.139 110.489 416.652 110.956 417.149L111.262 417.486C111.83 418.057 112.399 418.599 112.996 419.126L113.492 419.536C113.958 419.945 114.453 420.326 114.949 420.707L115.517 421.117C115.969 421.439 116.435 421.731 116.902 422.039C117.368 422.346 117.426 422.39 117.703 422.551C118.243 422.859 118.796 423.151 119.365 423.444L119.948 423.751C120.662 424.088 121.405 424.396 122.134 424.659L122.746 424.879C123.314 425.069 123.897 425.245 124.48 425.406L125.151 425.581C125.938 425.772 126.71 425.933 127.512 426.05C128.212 426.149 128.918 426.212 129.625 426.24H131.723H132.452C132.904 426.24 133.356 426.152 133.807 426.094L134.463 426.006C135.017 425.918 135.571 425.801 136.095 425.669H136.402C137.043 425.494 137.669 425.303 138.282 425.069L138.821 424.864L140.118 424.308L141.196 423.766L127.089 431.481C126.827 431.613 126.579 431.759 126.302 431.876C126.209 431.929 126.111 431.973 126.01 432.008C125.588 432.213 125.151 432.403 124.713 432.564L124.189 432.784C123.562 433.003 122.935 433.208 122.294 433.369H122.046C121.507 433.501 120.968 433.603 120.414 433.706L119.744 433.794C119.297 433.852 118.845 433.896 118.388 433.925C118.146 433.94 117.902 433.94 117.66 433.925H115.576C114.876 433.925 114.118 433.823 113.448 433.721C112.777 433.618 111.874 433.442 111.101 433.267L110.417 433.091C109.834 432.93 109.265 432.754 108.697 432.549L108.07 432.344C107.356 432.081 106.613 431.788 105.957 431.466H105.884L105.301 431.159C104.733 430.881 104.179 430.588 103.64 430.266C103.363 430.105 103.101 429.929 102.838 429.753C102.576 429.578 102.139 429.329 101.803 429.095L101.454 428.831C101.264 428.699 101.075 428.568 100.9 428.421C100.404 428.055 99.9234 427.66 99.4425 427.265L98.947 426.84L98.6993 426.635C98.1892 426.167 97.7083 425.698 97.2419 425.171L96.9358 424.849L96.0906 423.942L95.5659 423.312L95.1724 422.844C94.6915 422.244 94.2251 421.629 93.7879 420.999L93.715 420.897L93.4964 420.56C93.1029 419.989 92.7386 419.389 92.3743 418.789L92.0245 418.159L91.7039 417.603C91.529 417.266 91.3687 416.93 91.2084 416.593C91.048 416.256 90.9315 416.051 90.8003 415.773C90.4359 415.246 90.1882 414.661 89.8967 413.973Z" fill="#898282"/>
<path d="M91.0044 361.302C90.8261 361.214 90.6408 361.14 90.4506 361.083L90.1883 360.98C89.9116 360.896 89.629 360.832 89.343 360.79C89.0373 360.768 88.7305 360.768 88.4248 360.79H88.1479C87.9369 360.81 87.7276 360.844 87.5212 360.892L87.2152 360.965L86.6614 361.17L86.2971 361.331L100.404 353.631L100.565 353.544L100.754 353.47C100.936 353.382 101.127 353.314 101.323 353.265H101.468H101.629C101.835 353.221 102.045 353.192 102.255 353.178H102.532C102.838 353.148 103.145 353.148 103.45 353.178C103.731 353.215 104.009 353.274 104.281 353.353L104.558 353.47C104.747 353.526 104.932 353.594 105.112 353.675L105.228 353.749C105.479 353.876 105.722 354.018 105.957 354.173H106.03L106.613 354.627C106.846 354.817 107.065 354.993 107.298 355.154C107.536 355.312 107.784 355.454 108.041 355.578H108.158L108.711 355.783L108.974 355.886C109.239 355.972 109.513 356.031 109.79 356.061C110.095 356.09 110.403 356.09 110.708 356.061H111C111.205 356.047 111.41 356.017 111.612 355.974L111.918 355.886C112.121 355.826 112.321 355.752 112.515 355.666L112.865 355.52L98.7576 363.22L98.5827 363.308L98.4078 363.381C98.2145 363.469 98.0148 363.543 97.8103 363.6C97.7621 363.609 97.7128 363.609 97.6646 363.6H97.5188L96.8921 363.703H96.6152C96.3047 363.724 95.9931 363.724 95.6825 363.703C95.4064 363.659 95.1337 363.595 94.8664 363.513C94.779 363.513 94.6915 363.513 94.5895 363.41C94.406 363.352 94.226 363.284 94.0503 363.205H93.9337C93.6826 363.073 93.4393 362.926 93.205 362.766C92.9889 362.626 92.7842 362.47 92.5929 362.298C92.3793 362.114 92.1555 361.943 91.9225 361.785C91.6878 361.634 91.4445 361.498 91.1939 361.375L91.0044 361.302Z" fill="#898282"/>
<path d="M105.666 355.374C105.46 355.388 105.255 355.418 105.054 355.462L104.748 355.549L104.179 355.754L103.829 355.915L117.937 348.201L118.112 348.113H118.287C118.471 348.027 118.661 347.954 118.855 347.893H119.001H119.161L119.773 347.791H120.05C120.36 347.762 120.672 347.762 120.983 347.791L133.72 349.591C134.036 349.644 134.347 349.717 134.653 349.811L134.944 349.928L135.382 350.104L135.513 350.177L135.994 350.455L136.3 350.631L136.431 350.733L136.722 350.967C136.81 351.041 136.912 351.099 136.999 351.187C137.087 351.275 137.13 351.333 137.203 351.392L137.436 351.626L137.582 351.773L137.932 352.212L138.049 352.387C138.218 352.627 138.373 352.877 138.515 353.134C138.582 353.262 138.64 353.394 138.69 353.529C138.78 353.694 138.857 353.865 138.923 354.042C139.054 354.419 139.156 354.805 139.229 355.198C139.305 355.611 139.412 356.017 139.55 356.413C139.652 356.662 139.768 356.911 139.885 357.16C139.913 357.24 139.947 357.319 139.987 357.394C140.149 357.692 140.329 357.981 140.526 358.258C140.575 358.329 140.629 358.398 140.686 358.463C140.831 358.656 140.992 358.838 141.167 359.004C141.233 359.089 141.306 359.168 141.386 359.238L141.896 359.678L142.144 359.882L142.537 360.117C142.706 360.23 142.881 360.333 143.062 360.424C143.251 360.519 143.446 360.603 143.645 360.673L143.936 360.775C144.23 360.878 144.532 360.951 144.84 360.995C145.136 361.017 145.433 361.017 145.729 360.995H146.006L146.618 360.907L146.924 360.819C147.12 360.771 147.31 360.702 147.492 360.614L147.798 360.468L148.134 360.292L148.308 360.205H148.498C148.682 360.123 148.872 360.055 149.066 360H149.212H149.372C149.579 359.955 149.788 359.926 149.999 359.912H150.276C150.576 359.882 150.879 359.882 151.179 359.912C151.522 359.96 151.859 360.043 152.185 360.161L152.477 360.263L152.87 360.424L153.118 360.571L153.54 360.805C153.54 360.805 153.701 360.893 153.788 360.951L154.196 361.273L154.386 361.434H154.473C154.682 361.614 154.877 361.81 155.056 362.02L155.231 362.225L164.252 373.248C164.369 373.379 164.471 373.54 164.587 373.687C164.704 373.833 164.704 373.892 164.777 373.994L164.952 374.287L165.054 374.448C165.054 374.565 165.156 374.697 165.229 374.829C165.288 374.984 165.356 375.135 165.433 375.283V375.414C165.53 375.661 165.608 375.916 165.666 376.175C165.664 376.21 165.664 376.244 165.666 376.278C165.724 376.559 165.767 376.842 165.797 377.127C165.797 377.215 165.797 377.303 165.797 377.39C165.797 377.478 165.797 377.903 165.797 378.152C165.797 378.401 165.797 378.283 165.797 378.342C165.783 378.648 165.739 378.952 165.666 379.25C165.666 379.323 165.666 379.381 165.666 379.455C165.606 379.688 165.533 379.918 165.447 380.143L165.345 380.377C165.225 380.654 165.079 380.919 164.908 381.167C164.768 381.373 164.641 381.589 164.529 381.811C164.529 381.914 164.456 382.016 164.412 382.104C164.369 382.192 164.296 382.368 164.252 382.499C164.208 382.631 164.252 382.69 164.179 382.778C164.106 382.865 164.092 383.07 164.063 383.217C164.056 383.319 164.056 383.422 164.063 383.524C164.055 383.666 164.055 383.807 164.063 383.949C164.063 384.051 164.063 384.154 164.063 384.271C164.055 384.412 164.055 384.554 164.063 384.695C164.056 384.798 164.056 384.9 164.063 385.003C164.063 385.149 164.063 385.295 164.063 385.442C164.063 385.588 164.063 385.647 164.136 385.749C164.156 385.892 164.185 386.034 164.223 386.174C164.243 386.283 164.273 386.391 164.31 386.496L164.442 386.906C164.547 387.198 164.674 387.482 164.821 387.755C164.864 387.846 164.912 387.934 164.966 388.018L165.229 388.457L165.433 388.736L165.695 389.087C165.782 389.175 165.855 389.277 165.928 389.365L166.234 389.672L166.497 389.907L166.905 390.243L167.138 390.419C167.398 390.595 167.671 390.751 167.954 390.887C168.167 390.993 168.386 391.085 168.61 391.166L169.193 391.4C169.258 391.436 169.321 391.475 169.382 391.517C169.542 391.517 169.688 391.693 169.848 391.78L170.125 391.941L170.315 392.103L170.592 392.322L170.796 392.483L171.102 392.791L171.291 392.981L171.379 393.069C171.554 393.274 171.728 393.493 171.889 393.713L171.976 393.859C172.107 394.049 172.224 394.24 172.341 394.445V394.562C172.422 394.714 172.495 394.87 172.559 395.03C172.559 395.162 172.676 395.279 172.734 395.411C172.792 395.543 172.734 395.499 172.734 395.543C172.816 395.788 172.884 396.037 172.938 396.289C172.974 396.414 173.003 396.541 173.026 396.67C173.101 397.056 173.14 397.448 173.142 397.841V411.733C173.183 412.706 172.96 413.671 172.495 414.525C172.03 415.379 171.342 416.089 170.504 416.579L164.675 419.799L164.558 419.989C164.496 420.122 164.442 420.259 164.398 420.399C164.317 420.599 164.254 420.804 164.208 421.014C164.208 421.161 164.208 421.307 164.106 421.453C164.092 421.678 164.092 421.903 164.106 422.127C164.106 422.273 164.106 422.434 164.106 422.581C164.092 422.829 164.092 423.078 164.106 423.327C164.099 423.469 164.099 423.61 164.106 423.752C164.106 424.059 164.252 424.366 164.34 424.674C164.362 424.764 164.391 424.852 164.427 424.937C164.572 425.359 164.758 425.766 164.981 426.152L165.097 426.357L165.316 426.84C165.316 426.987 165.447 427.119 165.491 427.25C165.605 427.546 165.698 427.849 165.768 428.158C165.84 428.466 165.884 428.779 165.899 429.095C165.906 429.202 165.906 429.31 165.899 429.417C165.899 429.636 165.899 429.856 165.899 430.076V430.442C165.899 430.647 165.899 430.837 165.797 431.027L165.71 431.393C165.71 431.569 165.578 431.759 165.506 431.935L165.374 432.257C165.287 432.447 165.17 432.623 165.068 432.798L164.908 433.062C164.728 433.311 164.522 433.542 164.296 433.75L155.318 442.24C155.026 442.522 154.698 442.764 154.342 442.958L140.235 450.658C140.587 450.464 140.915 450.228 141.211 449.955L150.203 441.465C150.422 441.248 150.622 441.013 150.801 440.762C150.801 440.762 150.903 440.586 150.961 440.513C151.077 440.341 151.179 440.16 151.267 439.971C151.267 439.869 151.354 439.752 151.413 439.649C151.471 439.547 151.544 439.283 151.602 439.093L151.69 438.742C151.69 438.537 151.762 438.347 151.792 438.142V437.79C151.806 437.571 151.806 437.351 151.792 437.132V436.809C151.764 436.489 151.716 436.171 151.646 435.858C151.571 435.523 151.468 435.195 151.34 434.877C151.34 434.745 151.223 434.614 151.165 434.482C151.068 434.246 150.956 434.016 150.83 433.794C150.8 433.721 150.76 433.652 150.713 433.589C150.553 433.267 150.407 432.93 150.276 432.608C150.276 432.52 150.276 432.418 150.203 432.33C150.102 432.033 150.019 431.73 149.955 431.422V430.998C149.955 430.734 149.955 430.486 149.955 430.251C149.948 430.1 149.948 429.949 149.955 429.797C149.955 429.563 149.955 429.344 149.955 429.109C149.955 428.875 149.955 428.817 150.057 428.67C150.159 428.524 150.174 428.26 150.247 428.055L150.407 427.66C150.502 427.463 150.609 427.273 150.728 427.089C150.792 426.972 150.865 426.859 150.946 426.753C151.081 426.564 151.232 426.387 151.398 426.226L151.631 425.977C151.895 425.752 152.178 425.551 152.477 425.377L158.408 422.141C158.837 421.294 159.057 420.355 159.049 419.404V405.6C159.047 405.202 159.008 404.805 158.933 404.414C158.91 404.29 158.881 404.168 158.845 404.048C158.793 403.79 158.725 403.536 158.641 403.287C158.641 403.111 158.51 402.95 158.437 402.774L158.233 402.306C158.102 402.072 157.956 401.837 157.811 401.603L157.723 401.471C157.544 401.202 157.344 400.948 157.126 400.71L156.922 400.52C156.766 400.344 156.595 400.182 156.412 400.037L156.135 399.817C155.985 399.706 155.829 399.604 155.668 399.51C155.518 399.408 155.362 399.316 155.202 399.232C154.951 399.1 154.693 398.982 154.429 398.88L153.832 398.646C153.548 398.506 153.275 398.344 153.016 398.163L152.841 398.017C152.694 397.918 152.553 397.81 152.418 397.695H152.331L152.156 397.519L151.864 397.211L151.762 397.124L151.631 396.933C151.531 396.828 151.439 396.715 151.354 396.597L151.252 396.465L151.165 396.319C151.064 396.173 150.972 396.021 150.888 395.865L150.786 395.704V395.601C150.64 395.323 150.524 395.045 150.407 394.767C150.407 394.635 150.407 394.503 150.291 394.386C150.174 394.269 150.218 394.152 150.188 394.035L150.101 393.64C150.101 393.522 150.101 393.405 150.101 393.288C150.101 393.171 150.101 392.995 150.101 392.849C150.094 392.747 150.094 392.644 150.101 392.542C150.094 392.4 150.094 392.259 150.101 392.117V391.795C150.094 391.673 150.094 391.551 150.101 391.429C150.093 391.307 150.093 391.185 150.101 391.063C150.101 390.931 150.174 390.814 150.203 390.683L150.291 390.346C150.291 390.214 150.393 390.097 150.451 389.965C150.486 389.864 150.53 389.766 150.582 389.672C150.689 389.445 150.811 389.225 150.946 389.014C151.12 388.767 151.267 388.502 151.384 388.223C151.424 388.148 151.458 388.07 151.486 387.989C151.574 387.77 151.647 387.545 151.704 387.316C151.709 387.247 151.709 387.179 151.704 387.111C151.776 386.813 151.82 386.509 151.835 386.203C151.843 386.135 151.843 386.066 151.835 385.998C151.85 385.749 151.85 385.5 151.835 385.252C151.835 385.164 151.835 385.076 151.835 384.973C151.835 384.871 151.748 384.417 151.69 384.124C151.683 384.095 151.683 384.065 151.69 384.037C151.614 383.732 151.517 383.434 151.398 383.144C151.339 382.988 151.271 382.837 151.194 382.69L150.917 382.133C150.864 382.038 150.806 381.945 150.742 381.855C150.581 381.593 150.406 381.338 150.218 381.094L141.197 370.071C140.941 369.758 140.658 369.469 140.351 369.207L140.162 369.061C139.954 368.89 139.735 368.734 139.506 368.593L139.098 368.344L138.442 368.051L138.151 367.934C137.826 367.83 137.495 367.747 137.16 367.685C136.854 367.656 136.547 367.656 136.241 367.685H135.965L135.338 367.787H135.032L134.463 368.007L134.157 368.139L133.822 368.314L133.647 368.402C133.585 368.414 133.52 368.414 133.458 368.402C133.274 368.488 133.084 368.561 132.889 368.622H132.758H132.583L131.971 368.724H131.694C131.399 368.753 131.101 368.753 130.805 368.724C130.499 368.684 130.196 368.615 129.902 368.519L129.61 368.402C129.452 368.353 129.296 368.294 129.144 368.227H129.042C128.853 368.139 128.678 368.022 128.503 367.919L128.197 367.729H128.109L127.862 367.524L127.497 367.246L127.351 367.085L127.133 366.865C127.061 366.801 126.993 366.732 126.929 366.66L126.652 366.309L126.492 366.104L126.419 366.016C126.251 365.778 126.1 365.529 125.967 365.27C125.967 365.196 125.967 365.109 125.865 365.021C125.745 364.8 125.643 364.57 125.559 364.333C125.416 363.942 125.304 363.541 125.224 363.132C125.16 362.733 125.057 362.341 124.918 361.961C124.918 361.756 124.757 361.566 124.67 361.376C124.582 361.185 124.553 361.112 124.48 360.98C124.333 360.684 124.163 360.4 123.97 360.131L123.839 359.97C123.679 359.765 123.519 359.56 123.344 359.37L123.125 359.151C122.965 358.99 122.804 358.858 122.63 358.711L122.353 358.492L121.901 358.214C121.754 358.107 121.598 358.014 121.435 357.936C121.245 357.833 121.041 357.76 120.852 357.672L120.56 357.57C120.257 357.467 119.944 357.394 119.627 357.35L106.89 355.549C106.58 355.521 106.267 355.521 105.957 355.549L105.666 355.374Z" fill="#898282"/>
<path d="M72.0295 387.242C70.7136 387.369 69.4984 388.005 68.6415 389.016C67.7846 390.027 67.3532 391.334 67.4388 392.659V406.463C67.4588 407.913 67.9072 409.325 68.7271 410.518C69.5471 411.712 70.7015 412.634 72.0441 413.168C76.0518 414.632 77.9756 419.858 75.7021 423.21C74.9722 424.434 74.648 425.859 74.7763 427.279C74.9047 428.7 75.4789 430.043 76.4162 431.115L85.5248 442.153C86.529 443.421 87.9688 444.267 89.5617 444.524C90.6579 444.697 91.78 444.485 92.7388 443.924C93.6904 443.358 94.808 443.14 95.9013 443.309C97.3158 443.578 98.6141 444.276 99.6203 445.311C100.626 446.345 101.292 447.665 101.527 449.091C101.74 450.53 102.393 451.866 103.396 452.915C104.398 453.964 105.701 454.674 107.123 454.947L119.846 456.748C120.489 456.845 121.144 456.813 121.774 456.654C122.404 456.495 122.997 456.212 123.518 455.821C124.038 455.43 124.476 454.939 124.807 454.377C125.137 453.815 125.353 453.193 125.442 452.546C125.528 451.899 125.741 451.275 126.069 450.712C126.397 450.148 126.834 449.655 127.353 449.263C127.873 448.871 128.465 448.586 129.095 448.426C129.725 448.266 130.381 448.233 131.024 448.33C132.2 448.505 133.302 449.013 134.201 449.794C135.095 450.583 136.199 451.092 137.378 451.258C138.1 451.37 138.837 451.318 139.536 451.105C140.235 450.892 140.877 450.524 141.415 450.028L150.407 441.538C151.352 440.507 151.93 439.191 152.051 437.795C152.173 436.399 151.83 435.003 151.077 433.823C148.789 429.827 150.698 425.04 154.692 424.82C156.007 424.69 157.222 424.053 158.08 423.044C158.939 422.034 159.375 420.729 159.297 419.404V405.599C159.291 404.142 158.846 402.721 158.022 401.522C157.197 400.323 156.032 399.402 154.677 398.88C150.669 397.416 148.746 392.19 151.019 388.853C151.75 387.627 152.076 386.201 151.95 384.779C151.825 383.356 151.254 382.01 150.32 380.933L141.298 369.91C140.291 368.643 138.854 367.793 137.262 367.524C136.164 367.364 135.044 367.58 134.084 368.139C133.126 368.701 132.004 368.913 130.907 368.739C129.493 368.474 128.195 367.775 127.19 366.74C126.186 365.705 125.524 364.384 125.297 362.957C125.068 361.532 124.408 360.213 123.406 359.179C122.405 358.144 121.111 357.444 119.7 357.174L106.963 355.374C106.321 355.279 105.667 355.312 105.039 355.472C104.41 355.632 103.819 355.916 103.3 356.306C102.781 356.697 102.345 357.187 102.015 357.748C101.686 358.309 101.47 358.93 101.381 359.575C101.294 360.223 101.079 360.847 100.749 361.411C100.42 361.974 99.9817 362.467 99.4609 362.859C98.9402 363.251 98.3471 363.536 97.716 363.696C97.0848 363.856 96.4284 363.888 95.7847 363.791C94.6131 363.616 93.5157 363.108 92.6222 362.327C91.7192 361.543 90.6117 361.035 89.4305 360.863C88.7078 360.751 87.969 360.804 87.2698 361.02C86.5706 361.235 85.9291 361.607 85.3936 362.108L76.4308 370.583C75.478 371.612 74.8922 372.929 74.7656 374.328C74.639 375.727 74.9786 377.129 75.7312 378.313C77.9318 382.221 76.0373 386.964 72.0295 387.242ZM113.39 433.823C99.2386 431.832 87.74 417.72 87.7108 402.423C87.6817 387.125 99.1366 376.249 113.288 378.254C127.439 380.26 138.938 394.357 138.967 409.654C138.996 424.952 127.541 435.829 113.39 433.823Z" fill="url(#paint2_linear_237_938)"/>
<path d="M237.369 443.028C229.649 435.274 229.649 422.702 237.369 414.948C245.088 407.193 257.605 407.193 265.324 414.948C273.044 422.702 273.044 435.274 265.324 443.028C257.605 450.782 245.088 450.782 237.369 443.028Z" fill="black"/>
<path d="M251.358 409.118C253.956 409.118 256.529 409.632 258.929 410.631C261.329 411.629 263.51 413.093 265.348 414.939C267.185 416.784 268.642 418.975 269.636 421.386C270.631 423.797 271.142 426.381 271.142 428.991C271.138 430.776 270.888 432.552 270.399 434.269C264.567 437.497 258.017 439.19 251.358 439.19C244.699 439.19 238.148 437.497 232.317 434.269C231.497 431.321 231.369 428.222 231.941 425.216C232.514 422.21 233.772 419.378 235.616 416.941C237.461 414.505 239.842 412.531 242.573 411.174C245.304 409.816 248.311 409.113 251.358 409.118Z" fill="#1A1B1E"/>
<path d="M209.237 415.635C209.234 417.79 209.876 419.897 211.082 421.68C212.287 423.463 214 424.839 215.996 425.631C222.112 428.057 233.06 430.722 251.476 430.722C269.892 430.722 280.79 427.99 286.957 425.631C288.954 424.841 290.668 423.465 291.873 421.682C293.079 419.898 293.721 417.791 293.715 415.635V387.446H209.474L209.237 415.635Z" fill="black"/>
<path d="M215.928 416.296C222.044 418.723 232.992 421.388 251.409 421.388C269.825 421.388 280.722 418.655 286.889 416.296C288.885 415.505 290.597 414.128 291.803 412.345C293.008 410.562 293.651 408.456 293.647 406.301V415.635C293.653 417.79 293.011 419.898 291.806 421.681C290.6 423.465 288.886 424.841 286.889 425.63C280.773 428.057 269.825 430.722 251.409 430.722C232.992 430.722 222.095 427.989 215.928 425.63C213.932 424.839 212.22 423.462 211.014 421.679C209.809 419.896 209.166 417.79 209.17 415.635V406.301C209.168 408.455 209.812 410.561 211.017 412.343C212.222 414.126 213.933 415.503 215.928 416.296Z" fill="url(#paint3_linear_237_938)"/>
<path d="M215.928 400.599C222.044 403.025 232.992 405.69 251.409 405.69C269.825 405.69 280.722 402.958 286.889 400.599C288.886 399.809 290.6 398.433 291.806 396.65C293.011 394.866 293.653 392.759 293.647 390.603V399.954C293.655 402.108 293.013 404.214 291.807 405.995C290.601 407.776 288.886 409.148 286.889 409.933C280.773 412.376 269.825 415.024 251.409 415.024C232.992 415.024 222.095 412.309 215.928 409.933C213.933 409.144 212.222 407.771 211.016 405.991C209.811 404.21 209.167 402.107 209.17 399.954V390.603C209.166 392.758 209.809 394.865 211.014 396.648C212.22 398.431 213.932 399.807 215.928 400.599Z" fill="#1A1B1E"/>
<path d="M202.935 391.705C202.927 394.175 203.657 396.59 205.031 398.639C206.404 400.687 208.358 402.274 210.64 403.195C217.668 405.978 230.255 409.118 251.358 409.118C272.46 409.118 285.064 405.978 292.093 403.195C294.374 402.274 296.328 400.687 297.702 398.639C299.075 396.59 299.805 394.175 299.797 391.705V359.291H202.935V391.705Z" fill="black"/>
<path d="M210.64 392.452C217.668 395.253 230.255 398.375 251.358 398.375C272.46 398.375 285.064 395.253 292.093 392.452C294.375 391.534 296.331 389.947 297.705 387.898C299.078 385.85 299.807 383.433 299.797 380.963V391.706C299.805 394.175 299.075 396.591 297.702 398.639C296.328 400.687 294.374 402.274 292.093 403.195C285.064 405.978 272.477 409.118 251.358 409.118C230.238 409.118 217.668 405.978 210.64 403.195C208.358 402.274 206.404 400.687 205.031 398.639C203.657 396.591 202.927 394.175 202.935 391.706V380.963C202.925 383.433 203.654 385.85 205.028 387.898C206.402 389.947 208.357 391.534 210.64 392.452Z" fill="url(#paint4_linear_237_938)"/>
<path d="M210.64 374.412C217.668 377.213 230.256 380.335 251.358 380.335C272.46 380.335 285.064 377.213 292.093 374.412C294.376 373.494 296.331 371.907 297.705 369.858C299.079 367.81 299.808 365.393 299.797 362.923V373.666C299.825 376.15 299.104 378.585 297.729 380.651C296.354 382.716 294.389 384.316 292.093 385.24C285.064 388.023 272.477 391.163 251.358 391.163C230.239 391.163 217.668 388.023 210.64 385.24C208.357 384.321 206.402 382.735 205.028 380.686C203.654 378.637 202.925 376.221 202.936 373.751V363.008C202.942 365.464 203.679 367.861 205.052 369.893C206.425 371.925 208.371 373.499 210.64 374.412Z" fill="#1A1B1E"/>
<path d="M97.5586 134.376C110.923 7.51812 229.546 0 251.358 0C273.17 0 391.793 7.51812 405.107 134.376C414.653 225.068 376.249 256.159 337.694 292.069C299.426 327.708 318.94 350.297 307.772 369.677C295.573 390.874 207.058 390.874 194.86 369.677C183.692 350.297 203.206 327.725 164.938 292.069C126.433 256.159 88.0126 225.068 97.5586 134.376Z" fill="url(#paint5_linear_237_938)"/>
<path style="mix-blend-mode:screen" opacity="0.82" d="M197.647 210.541C199.22 209.885 200.933 209.643 202.624 209.839C204.316 210.035 205.929 210.662 207.311 211.661C214.07 216.447 218.395 230.821 221.098 253.478C223.079 253.245 225.032 252.813 226.927 252.188C231.253 250.674 235.019 247.875 237.723 244.161C225.592 235.913 216.807 220.062 216.317 207.673C215.962 198.628 219.966 192.314 227.569 189.905C236.845 186.969 244.059 191.296 247.404 201.784C250.108 210.27 249.77 222.047 246.492 232.332C245.302 236.236 243.597 239.963 241.423 243.414C243.812 244.831 246.397 245.884 249.094 246.536C254.163 247.919 259.558 247.432 264.3 245.162C259.562 241.189 256.048 235.942 254.169 230.037C252.29 224.132 252.124 217.811 253.69 211.814C256.156 202.819 262.34 198 269.808 199.222C274.217 199.934 277.681 203.244 279.54 208.539C282.716 217.55 280.993 232.485 272.629 241.903C271.518 243.156 270.284 244.293 268.946 245.298C270.323 246.125 271.764 246.84 273.254 247.436C276.13 248.627 279.187 249.315 282.294 249.472C283.983 229.82 288.122 218.348 294.593 215.293C296.891 214.207 300.659 213.698 305.508 217.465C310.796 221.572 311.252 229.82 306.623 237.983C304.423 241.985 301.261 245.369 297.424 247.826C293.587 250.284 289.199 251.737 284.659 252.052C284.422 255.124 284.236 258.45 284.118 262.082C282.429 314.42 282.26 366.86 282.26 382.677L279.692 383.169C279.692 367.98 279.793 314.946 281.567 261.997C281.668 258.484 281.854 255.209 282.074 252.069C278.679 251.896 275.338 251.15 272.19 249.863C270.195 249.066 268.287 248.065 266.496 246.876C260.993 249.95 254.509 250.736 248.435 249.065C245.416 248.337 242.523 247.158 239.852 245.569C236.824 249.796 232.569 252.979 227.67 254.682C225.613 255.348 223.497 255.814 221.352 256.074C224.731 285.943 225.356 329.388 224.984 383.526L222.416 383.051C222.771 329.932 222.095 286.164 218.8 256.261C204.743 256.702 194.707 246.367 190.805 234.911C186.902 223.456 189.706 213.392 197.647 210.541ZM304.443 236.659C308.346 229.871 308.16 222.709 303.987 219.468C302.362 218.038 300.314 217.185 298.158 217.041C297.318 217.043 296.488 217.228 295.725 217.584C292.346 219.145 287.058 225.476 284.929 249.405C288.965 249.045 292.851 247.695 296.245 245.472C299.639 243.25 302.437 240.223 304.393 236.659H304.443ZM266.598 243.77C268.089 242.74 269.451 241.532 270.653 240.172C278.391 231.466 279.979 217.686 277.056 209.387C275.975 206.298 273.677 202.463 269.335 201.75C268.726 201.651 268.11 201.6 267.493 201.597C262.188 201.597 257.998 205.535 256.089 212.493C253.571 221.436 255.666 235.641 266.547 243.77H266.598ZM244.955 202.565C243.552 198.152 240.241 191.585 232.942 191.585C231.374 191.604 229.818 191.868 228.329 192.365C220.135 194.962 218.665 202.073 218.885 207.639C219.341 219.128 227.823 234.317 239.159 242.107C246.441 230.804 248.334 213.545 244.955 202.565ZM193.288 234.046C196.836 244.466 205.943 253.953 218.631 253.647C216.063 232.026 212.042 218.127 205.909 213.766C204.86 213.008 203.632 212.536 202.347 212.397C201.062 212.257 199.763 212.454 198.576 212.968C191.227 215.531 190.348 225.56 193.238 234.046H193.288Z" fill="url(#paint6_linear_237_938)"/>
<path style="mix-blend-mode:overlay" d="M112.173 146.9C108.794 222.76 135.658 278.323 199.202 278.323C262.746 278.323 333.673 203.04 339.434 134.07C347.138 42.1556 299.29 7.09366 224.41 17.2423C161.474 25.7277 115.282 77.7096 112.173 146.9Z" fill="url(#paint7_linear_237_938)"/>
<g style="mix-blend-mode:screen" opacity="0.72">
<path d="M150.864 218.45C151.586 218.449 152.306 218.363 153.009 218.195C155.323 217.625 157.317 216.155 158.553 214.109C159.788 212.063 160.164 209.607 159.599 207.283C152.841 179.705 145.474 128.079 171.797 92.1011C172.584 91.1534 173.168 90.0539 173.515 88.8705C173.862 87.687 173.964 86.4447 173.814 85.2202C173.665 83.9957 173.267 82.8151 172.645 81.751C172.023 80.687 171.191 79.7622 170.2 79.0338C169.209 78.3053 168.08 77.7887 166.882 77.5157C165.684 77.2427 164.443 77.2192 163.236 77.4465C162.029 77.6739 160.881 78.1474 159.863 78.8377C158.845 79.5281 157.979 80.4206 157.318 81.4603C126.686 123.345 134.661 180.978 142.112 211.61C142.599 213.569 143.726 215.307 145.313 216.547C146.899 217.787 148.854 218.457 150.864 218.45ZM180.448 69.4449C179.8 68.4547 179.353 67.3458 179.132 66.1817C178.911 65.0176 178.921 63.8213 179.161 62.6611C179.401 61.5009 179.867 60.3996 180.531 59.4204C181.195 58.4411 182.046 57.6031 183.033 56.9543C213.546 36.8608 246.644 38.3881 248.046 38.456C250.424 38.5798 252.654 39.647 254.248 41.423C255.842 43.1989 256.668 45.538 256.545 47.9258C256.422 50.3136 255.359 52.5544 253.591 54.1552C251.823 55.7561 249.494 56.5859 247.117 56.4622C246.83 56.4622 218.395 55.2912 192.883 72.0415C190.89 73.3515 188.462 73.8139 186.131 73.327C183.799 72.8402 181.755 71.444 180.448 69.4449Z" fill="white"/>
</g>
<path d="M290.403 353.436C301.301 334.497 282.26 312.468 319.615 277.678C357.242 242.616 394.75 212.272 385.423 123.752C378.851 61.4006 346.226 28.5958 312.773 11.3704C352.511 26.0332 397.25 59.3132 405.174 134.376C414.72 225.068 376.317 256.159 337.761 292.069C299.493 327.708 319.007 350.297 307.839 369.677C295.641 390.874 207.125 390.874 194.927 369.677C193.578 367.327 192.587 364.787 191.987 362.142C219.256 373.496 280.435 370.611 290.403 353.436Z" fill="#E21016"/>
<path opacity="0.3" d="M248.706 488.149C212.499 485.574 183.541 477.908 184.026 471.027C184.511 464.145 214.256 460.655 250.463 463.23C286.67 465.805 315.629 473.471 315.144 480.352C314.659 487.233 284.914 490.724 248.706 488.149Z" fill="#C1C1C1" fill-opacity="0.2"/>
<path opacity="0.4" d="M485.214 98.4569C485.217 102.348 484.457 106.202 482.979 109.798C481.501 113.393 479.333 116.661 476.599 119.413C473.865 122.165 470.619 124.349 467.047 125.839C463.474 127.328 459.644 128.095 455.777 128.095C455.471 128.095 455.165 128.095 454.878 128.095H331.62C327.194 128.123 322.813 127.203 318.769 125.394C314.724 123.586 311.109 120.931 308.163 117.607C305.218 114.283 303.011 110.366 301.688 106.116C300.365 101.866 299.957 97.3819 300.491 92.9612C301.025 88.5405 302.489 84.285 304.785 80.4781C307.082 76.6712 310.158 73.4002 313.809 70.883C317.46 68.3657 321.602 66.66 325.96 65.8793C330.317 65.0986 334.79 65.2609 339.08 66.3554C338.56 64.4749 338.29 62.5336 338.277 60.5818C338.282 56.4248 339.463 52.3552 341.682 48.8486C343.901 45.342 347.066 42.5431 350.807 40.7791C354.548 39.0151 358.711 38.3588 362.809 38.8868C366.907 39.4149 370.771 41.1056 373.949 43.7612C377.833 33.9769 384.984 25.8598 394.172 20.8054C403.36 15.751 414.01 14.0752 424.293 16.0661C434.576 18.057 443.848 23.5901 450.515 31.7142C457.183 39.8384 460.829 50.0459 460.827 60.5818C460.82 63.4889 460.538 66.3888 459.985 69.2423C466.974 70.2578 473.367 73.7671 477.998 79.1301C482.629 84.493 485.191 91.3523 485.214 98.4569Z" fill="white"/>
<defs>
<linearGradient id="paint0_linear_237_938" x1="507.216" y1="345.99" x2="320.905" y2="345.99" gradientUnits="userSpaceOnUse">
<stop stop-color="#898282"/>
<stop offset="1" stop-color="#C1C1C1"/>
</linearGradient>
<linearGradient id="paint1_linear_237_938" x1="141.371" y1="279.281" x2="12.4812" y2="279.281" gradientUnits="userSpaceOnUse">
<stop stop-color="#898282"/>
<stop offset="1" stop-color="#C1C1C1"/>
</linearGradient>
<linearGradient id="paint2_linear_237_938" x1="159.239" y1="406.039" x2="67.4388" y2="406.039" gradientUnits="userSpaceOnUse">
<stop stop-color="#898282"/>
<stop offset="1" stop-color="#C1C1C1"/>
</linearGradient>
<linearGradient id="paint3_linear_237_938" x1="293.478" y1="418.537" x2="209.237" y2="418.537" gradientUnits="userSpaceOnUse">
<stop/>
<stop offset="1" stop-color="#1A1B1E"/>
</linearGradient>
<linearGradient id="paint4_linear_237_938" x1="299.797" y1="395.049" x2="202.935" y2="395.049" gradientUnits="userSpaceOnUse">
<stop/>
<stop offset="1" stop-color="#1A1B1E"/>
</linearGradient>
<linearGradient id="paint5_linear_237_938" x1="406.627" y1="192.79" x2="96.0887" y2="192.79" gradientUnits="userSpaceOnUse">
<stop stop-color="#EF3434"/>
<stop offset="1" stop-color="#E21016"/>
</linearGradient>
<linearGradient id="paint6_linear_237_938" x1="249.432" y1="383.492" x2="249.432" y2="189.005" gradientUnits="userSpaceOnUse">
<stop stop-color="white" stop-opacity="0.3"/>
<stop offset="0.21" stop-color="white" stop-opacity="0.47"/>
<stop offset="0.59" stop-color="white" stop-opacity="0.75"/>
<stop offset="0.86" stop-color="white" stop-opacity="0.93"/>
<stop offset="1" stop-color="white"/>
</linearGradient>
<linearGradient id="paint7_linear_237_938" x1="101.58" y1="42.8853" x2="337.236" y2="235.714" gradientUnits="userSpaceOnUse">
<stop stop-color="white"/>
<stop offset="1" stop-color="white" stop-opacity="0"/>
</linearGradient>
</defs>
</svg>
