<svg width="80" height="80" viewBox="0 0 80 80" fill="none" xmlns="http://www.w3.org/2000/svg">
<path d="M42.1276 4.251C34.917 4.24323 27.8558 6.30633 21.7836 10.195L23.5516 11.939C30.9627 7.37266 39.7926 5.68679 48.3648 7.20148C56.937 8.71617 64.6545 13.326 70.0519 20.1556C75.4494 26.9852 78.1511 35.559 77.6439 44.2492C77.1367 52.9394 73.456 61.1407 67.3006 67.2961C61.1453 73.4514 52.9439 77.1321 44.2538 77.6393C35.5636 78.1465 26.9897 75.4449 20.1601 70.0474C13.3305 64.6499 8.72076 56.9324 7.20607 48.3602C5.69138 39.7881 7.37725 30.9581 11.9436 23.547L10.1916 21.771C5.67324 28.8617 3.64296 37.2544 4.42073 45.6263C5.19851 53.9982 8.74011 61.8733 14.4873 68.0103C20.2346 74.1473 27.8606 78.1973 36.1636 79.522C44.4666 80.8467 52.9742 79.3707 60.3458 75.3267C67.7173 71.2827 73.5336 64.9006 76.8778 57.1863C80.222 49.4721 80.904 40.8643 78.8164 32.7196C76.7287 24.5749 71.9901 17.3566 65.3474 12.2021C58.7046 7.04773 50.5355 4.25039 42.1276 4.251Z" fill="#E21016"/>
<path d="M42.1277 12.3155C35.6253 12.3109 29.3024 14.4476 24.1357 18.3955V21.5075C29.5001 16.8297 36.4718 14.4186 43.5799 14.7829C50.6881 15.1472 57.3768 18.2583 62.2349 23.46C67.093 28.6616 69.7406 35.547 69.6191 42.6634C69.4977 49.7798 66.6166 56.5708 61.5838 61.6036C56.551 66.6364 49.76 69.5175 42.6436 69.6389C35.5272 69.7604 28.6418 67.1128 23.4402 62.2547C18.2385 57.3966 15.1274 50.7079 14.7631 43.5997C14.3988 36.4916 16.8099 29.5199 21.4877 24.1555H18.3997C14.3479 29.5187 12.2278 36.094 12.3835 42.8138C12.5392 49.5337 14.9615 56.0037 19.2573 61.1736C23.5531 66.3434 29.4702 69.9096 36.0479 71.2931C42.6257 72.6767 49.478 71.7965 55.4925 68.7953C61.5069 65.7941 66.3305 60.8482 69.1802 54.7605C72.0298 48.6728 72.7383 41.8006 71.1905 35.2595C69.6427 28.7185 65.9295 22.8926 60.6537 18.7276C55.378 14.5625 48.8494 12.3029 42.1277 12.3155Z" fill="#E21016"/>
<path d="M42.1278 20.3789C36.7799 20.3768 31.62 22.3513 27.6398 25.9229L29.3518 27.6349C33.1283 24.3032 38.0532 22.572 43.0837 22.808C48.1143 23.044 52.8556 25.2285 56.3036 28.8991C59.7517 32.5696 61.6359 37.4381 61.5572 42.4735C61.4785 47.509 59.4432 52.3162 55.8821 55.8773C52.3211 59.4383 47.5139 61.4737 42.4784 61.5523C37.4429 61.631 32.5745 59.7469 28.9039 56.2988C25.2333 52.8507 23.0488 48.1095 22.8129 43.0789C22.5769 38.0483 24.308 33.1234 27.6398 29.3469L25.9278 27.6349C22.6124 31.3465 20.6712 36.0833 20.4283 41.054C20.1854 46.0248 21.6556 50.9283 24.5932 54.9454C27.5309 58.9626 31.7581 61.8499 36.5686 63.1252C41.3791 64.4004 46.4815 63.9863 51.0234 61.952C55.5653 59.9177 59.2715 56.3864 61.5229 51.9481C63.7743 47.5098 64.4345 42.4334 63.3932 37.5669C62.3519 32.7004 59.6721 28.3386 55.8017 25.2102C51.9312 22.0819 47.1044 20.3765 42.1278 20.3789Z" fill="#E21016"/>
<path d="M19.9996 18.2432L18.3036 16.5312L17.9836 16.2192L16.2396 14.5072L12.5996 10.8672L16.2476 14.4992L17.9516 16.2112L18.2716 16.5152L19.9756 18.2272L21.7196 19.9952L19.9996 18.2432ZM19.9996 18.2432L18.3036 16.5312L17.9836 16.2192L16.2396 14.5072L12.5996 10.8672L16.2476 14.4992L17.9516 16.2112L18.2716 16.5152L19.9756 18.2272L21.7196 19.9952L19.9996 18.2432Z" fill="#E21016"/>
<path d="M16.6075 18.2993L16.2395 17.9233L14.5275 16.2193L10.9355 12.6113L14.5355 16.2113L16.2475 17.9153L16.6155 18.2913L18.3115 19.9953L16.6075 18.2993Z" fill="#E21016"/>
<path d="M42.9837 41.2671L27.6396 25.9231L24.1356 22.3951V13.0191C24.1366 12.7766 24.0641 12.5395 23.9276 12.3391C23.8838 12.2724 23.8329 12.2107 23.7756 12.1551L23.5516 11.9391L21.7836 10.1951L18.0556 6.5231L16.2876 4.7951L11.7596 0.339096C11.5924 0.178453 11.3828 0.0689689 11.1554 0.0235526C10.928 -0.0218637 10.6924 -0.00131865 10.4763 0.0827655C10.2602 0.16685 10.0726 0.310967 9.93573 0.498126C9.79884 0.685285 9.71831 0.907682 9.70365 1.1391L9.22365 9.2271L1.13565 9.6991C0.902567 9.72079 0.680185 9.80719 0.493594 9.94854C0.307003 10.0899 0.163629 10.2806 0.0796488 10.4991C-0.00276323 10.7154 -0.0216991 10.9508 0.0250671 11.1776C0.0718333 11.4043 0.182358 11.613 0.343649 11.7791L5.07165 16.5791L6.82365 18.3711L10.1916 21.7951L11.9436 23.5711L12.1596 23.7951C12.3453 23.9863 12.591 24.1078 12.8556 24.1391C12.9114 24.1467 12.9679 24.1467 13.0237 24.1391H22.3996L25.8956 27.6431L30.8956 32.6431L30.9356 32.6911L32.9356 34.6831L41.2716 42.9791C41.4994 43.2048 41.807 43.3314 42.1277 43.3314C42.4483 43.3314 42.7559 43.2048 42.9837 42.9791C43.0964 42.8669 43.1858 42.7335 43.2468 42.5866C43.3079 42.4397 43.3393 42.2822 43.3393 42.1231C43.3393 41.964 43.3079 41.8065 43.2468 41.6596C43.1858 41.5127 43.0964 41.3793 42.9837 41.2671ZM13.5276 21.7151L13.3116 21.4911L11.5916 19.7391L8.13565 16.2271L6.39965 14.4671L3.94365 11.9951L8.54365 11.7151L9.85565 11.6351L10.9036 12.6751L14.4957 16.2831L16.2076 17.9871L16.5756 18.3631L18.3196 19.9951L19.9996 21.7151H13.5276ZM21.7196 19.9951L19.9517 18.2511L18.2476 16.5391L17.9276 16.2351L16.2236 14.5231L12.5756 10.8911L11.5996 9.8591L11.6876 8.3951L11.9996 3.9311L14.3276 6.2191L15.9996 7.9311L19.7196 11.5871L21.4636 13.3071L21.6877 13.5231L21.7196 19.9951Z" fill="#E21016"/>
</svg>
