<svg width="80" height="72" viewBox="0 0 80 72" fill="none" xmlns="http://www.w3.org/2000/svg">
<path d="M78.7762 11.1998H56.9282V9.1198C56.9156 6.9088 56.0283 4.79268 54.4604 3.23374C52.8925 1.6748 50.7713 0.799768 48.5602 0.799805H31.4402C29.2237 0.799801 27.0977 1.67923 25.5288 3.24508C23.96 4.81092 23.0765 6.93525 23.0722 9.1518V11.1998H1.22424C1.06146 11.1998 0.900309 11.2322 0.75022 11.2952C0.600132 11.3582 0.464118 11.4505 0.35014 11.5667C0.236161 11.683 0.146508 11.8207 0.086427 11.972C0.0263458 12.1233 -0.00295639 12.2851 0.000235334 12.4478V69.9758C0.000235334 70.3004 0.129192 70.6118 0.358737 70.8413C0.588281 71.0708 0.89961 71.1998 1.22424 71.1998H78.7762C79.1009 71.1998 79.4122 71.0708 79.6417 70.8413C79.8713 70.6118 80.0002 70.3004 80.0002 69.9758V12.4478C80.0034 12.2851 79.9741 12.1233 79.914 11.972C79.854 11.8207 79.7643 11.683 79.6503 11.5667C79.5364 11.4505 79.4003 11.3582 79.2503 11.2952C79.1002 11.2322 78.939 11.1998 78.7762 11.1998ZM25.5202 9.1518C25.5245 7.58376 26.1498 6.08127 27.2593 4.97324C28.3688 3.86521 29.8722 3.24192 31.4402 3.2398H48.5602C50.1283 3.24192 51.6316 3.86521 52.7412 4.97324C53.8507 6.08127 54.476 7.58376 54.4802 9.1518V11.1998H25.5202V9.1518ZM77.2642 13.6718L66.4722 38.7278H52.5762V34.1838C52.5762 33.8592 52.4473 33.5479 52.2177 33.3183C51.9882 33.0888 51.6769 32.9598 51.3522 32.9598H28.6482C28.3236 32.9598 28.0123 33.0888 27.7827 33.3183C27.5532 33.5479 27.4242 33.8592 27.4242 34.1838V38.7278H12.1522L2.68824 13.6718H77.2642ZM29.8722 35.4078H50.1282V44.5838H29.8722V35.4078ZM77.5522 68.7998H2.44824V19.8478L10.1922 40.3678C10.2758 40.6006 10.4287 40.8021 10.6304 40.9452C10.8322 41.0883 11.0729 41.166 11.3202 41.1678H27.4242V45.8238C27.4242 46.1484 27.5532 46.4598 27.7827 46.6893C28.0123 46.9188 28.3236 47.0478 28.6482 47.0478H51.3522C51.6769 47.0478 51.9882 46.9188 52.2177 46.6893C52.4473 46.4598 52.5762 46.1484 52.5762 45.8238V41.1438H67.2722C67.5071 41.1429 67.7366 41.0736 67.9327 40.9443C68.1288 40.815 68.2829 40.6313 68.3762 40.4158L77.5522 19.0878V68.7998Z" fill="#E21016"/>
</svg>
