<svg width="70" height="71" viewBox="0 0 70 71" fill="none" xmlns="http://www.w3.org/2000/svg">
<g clip-path="url(#clip0_893_1889)">
<path d="M67.4804 16.3966H63.8824L63.7984 16.1359C63.5221 15.2512 63.1684 14.3929 62.7414 13.5711L62.6084 13.3245L65.1564 10.7596C65.2677 10.6477 65.3561 10.5148 65.4163 10.3685C65.4766 10.2222 65.5076 10.0654 65.5076 9.90703C65.5076 9.74866 65.4766 9.59184 65.4163 9.44555C65.3561 9.29925 65.2677 9.16635 65.1564 9.05444L59.6754 3.52313C59.4479 3.29975 59.1427 3.17472 58.8249 3.17472C58.5071 3.17472 58.2019 3.29975 57.9744 3.52313L55.4404 6.08796L55.1954 5.96113C54.3719 5.55124 53.5176 5.20726 52.6404 4.93238L52.3814 4.84078V1.21196C52.3823 1.05313 52.352 0.895693 52.2923 0.748693C52.2326 0.601692 52.1445 0.468031 52.0333 0.355397C51.9221 0.242764 51.7898 0.15338 51.6441 0.0923877C51.4984 0.0313951 51.3422 -2.71565e-06 51.1844 1.76169e-10L43.4004 1.76169e-10C43.2426 -2.71565e-06 43.0864 0.0313951 42.9407 0.0923877C42.795 0.15338 42.6628 0.242764 42.5515 0.355397C42.4403 0.468031 42.3522 0.601692 42.2925 0.748693C42.2328 0.895693 42.2025 1.05313 42.2034 1.21196V4.80555L42.0004 4.93238C41.1217 5.21738 40.2673 5.5732 39.4454 5.99636L39.2004 6.08796L36.6314 3.52313C36.5214 3.40905 36.3897 3.31844 36.2442 3.2567C36.0987 3.19496 35.9423 3.16335 35.7844 3.16377C35.4637 3.165 35.1566 3.29424 34.9304 3.52313L29.4564 9.04035C29.2333 9.26726 29.1081 9.57365 29.1081 9.89294C29.1081 10.2122 29.2333 10.5186 29.4564 10.7455L31.9974 13.3104L31.8714 13.557C31.4388 14.3828 31.0804 15.2459 30.8004 16.1359L30.7094 16.3966H27.1394C26.9813 16.3976 26.8249 16.4298 26.6792 16.4916C26.5335 16.5533 26.4012 16.6434 26.2901 16.7566C26.1789 16.8698 26.091 17.0039 26.0314 17.1513C25.9717 17.2987 25.9415 17.4565 25.9424 17.6156V25.4088C25.9442 25.7278 26.0709 26.0332 26.295 26.2588C26.5191 26.4843 26.8225 26.6119 27.1394 26.6137H30.7304L30.8214 26.8744C31.0975 27.7592 31.4512 28.6176 31.8784 29.4393L32.0044 29.6859L29.4564 32.2437C29.344 32.3557 29.2548 32.489 29.1939 32.636C29.133 32.7829 29.1017 32.9406 29.1017 33.0998C29.1017 33.259 29.133 33.4166 29.1939 33.5636C29.2548 33.7105 29.344 33.8439 29.4564 33.9559L34.9304 39.459C35.1577 39.6853 35.4647 39.812 35.7844 39.8113C35.9419 39.8135 36.0983 39.7834 36.2439 39.7228C36.3895 39.6622 36.5213 39.5725 36.6314 39.459L39.2004 36.8942L39.4454 37.0281C40.2642 37.4579 41.1192 37.8139 42.0004 38.0921L42.2524 38.1837V41.8054C42.2593 42.1117 42.3818 42.4039 42.5951 42.6225C42.8083 42.8411 43.0963 42.9697 43.4004 42.9822H51.1844C51.3419 42.9831 51.4979 42.9526 51.6436 42.8923C51.7892 42.8321 51.9215 42.7434 52.0329 42.6313C52.1442 42.5193 52.2324 42.3861 52.2922 42.2394C52.352 42.0928 52.3823 41.9357 52.3814 41.7772V38.1837L52.6404 38.0921C53.5201 37.8129 54.3749 37.4593 55.1954 37.0351L55.4404 36.9083L57.9744 39.459C58.201 39.6841 58.5066 39.8103 58.8249 39.8103C59.1432 39.8103 59.4488 39.6841 59.6754 39.459L65.1564 33.9348C65.2677 33.8229 65.3561 33.69 65.4163 33.5437C65.4766 33.3974 65.5076 33.2405 65.5076 33.0822C65.5076 32.9238 65.4766 32.767 65.4163 32.6207C65.3561 32.4744 65.2677 32.3415 65.1564 32.2296L62.6084 29.6788L62.7344 29.4322C63.1669 28.6121 63.523 27.7535 63.7984 26.8674L63.8824 26.6067H67.4804C67.7973 26.6048 68.1007 26.4773 68.3248 26.2517C68.5489 26.0261 68.6756 25.7207 68.6774 25.4017V17.6156C68.6783 17.4565 68.6481 17.2987 68.5884 17.1513C68.5288 17.0039 68.4409 16.8698 68.3297 16.7566C68.2186 16.6434 68.0863 16.5533 67.9406 16.4916C67.7949 16.4298 67.6385 16.3976 67.4804 16.3966ZM66.2764 24.1968H62.9584C62.6918 24.1972 62.433 24.2877 62.2235 24.4538C62.0141 24.6199 61.8661 24.852 61.8034 25.1129C61.6331 25.799 61.4156 26.4724 61.1524 27.1281C61.1104 27.2197 61.0894 27.2901 61.0544 27.3536C60.7842 28.0118 60.4635 28.6478 60.0954 29.2561C59.9509 29.4848 59.8887 29.7565 59.9193 30.0258C59.9498 30.2952 60.0713 30.5458 60.2634 30.7358L62.6154 33.1174L58.8354 36.9224L56.4764 34.5266C56.2969 34.3434 56.062 34.2254 55.8087 34.1909C55.5553 34.1565 55.2978 34.2077 55.0764 34.3364C54.4648 34.7042 53.8313 35.0337 53.1794 35.3229L52.9064 35.4286C52.2607 35.6941 51.5962 35.9108 50.9184 36.0768C50.6574 36.14 50.4251 36.2897 50.2587 36.5019C50.0924 36.714 50.0018 36.9763 50.0014 37.2465V40.5864H44.6324V37.2535C44.6332 36.983 44.5431 36.7201 44.3766 36.5077C44.2101 36.2953 43.977 36.1459 43.7154 36.0839C43.0332 35.9145 42.3641 35.6955 41.7134 35.4286C41.6203 35.3964 41.5291 35.3587 41.4404 35.3158C40.7907 35.0369 40.1615 34.7119 39.5574 34.3434C39.3357 34.2159 39.0784 34.1654 38.8254 34.1998C38.5723 34.2342 38.3376 34.3515 38.1574 34.5337L35.7984 36.9012L32.0044 33.1174L34.3564 30.7499C34.5468 30.5605 34.6677 30.3118 34.6995 30.0443C34.7313 29.7768 34.672 29.5064 34.5314 29.2772C34.1736 28.6702 33.8623 28.0365 33.6004 27.3817L33.5654 27.3042C33.5355 27.2426 33.5098 27.1791 33.4884 27.114C33.2255 26.4637 33.0102 25.7948 32.8444 25.1129C32.7814 24.8508 32.6324 24.6178 32.4215 24.4516C32.2107 24.2854 31.9502 24.1956 31.6824 24.1968H28.3434V18.8135H31.6544C31.9204 18.8148 32.1791 18.7258 32.3886 18.5608C32.5982 18.3959 32.7464 18.1647 32.8094 17.9045C32.978 17.2156 33.1955 16.5398 33.4604 15.8823C33.4954 15.7977 33.5304 15.6991 33.5794 15.6004C33.8505 14.9574 34.1687 14.3357 34.5314 13.7402C34.672 13.511 34.7313 13.2406 34.6995 12.9731C34.6677 12.7056 34.5468 12.4569 34.3564 12.2675L32.0044 9.89999L35.7844 6.09501L38.1294 8.45551C38.3186 8.64768 38.5669 8.7697 38.8339 8.80169C39.1008 8.83367 39.3706 8.77374 39.5994 8.63166C40.1907 8.26416 40.8085 7.94149 41.4474 7.66633L41.6154 7.60291L41.7344 7.55359C42.3781 7.28913 43.0402 7.07246 43.7154 6.90533C43.977 6.84326 44.2101 6.69387 44.3766 6.48148C44.5431 6.26909 44.6332 6.00621 44.6324 5.73565V2.41687H49.9804V5.73565C49.9808 6.00589 50.0714 6.26814 50.2378 6.48028C50.4041 6.69242 50.6364 6.84212 50.8974 6.90533C51.5782 7.07158 52.2452 7.29067 52.8924 7.56063C52.9895 7.58795 53.0834 7.62575 53.1724 7.67337C53.8105 7.94768 54.4281 8.26794 55.0204 8.63166C55.2485 8.77196 55.5168 8.83088 55.7822 8.79892C56.0476 8.76696 56.2946 8.64599 56.4834 8.45551L58.8354 6.08796L62.6154 9.89294L60.2634 12.2605C60.0713 12.4505 59.9498 12.7011 59.9193 12.9704C59.8887 13.2397 59.9509 13.5115 60.0954 13.7402C60.4554 14.3372 60.7735 14.9588 61.0474 15.6004L61.1594 15.8893C61.4262 16.5406 61.6416 17.2121 61.8034 17.8975C61.8677 18.1655 62.0219 18.403 62.24 18.5699C62.458 18.7368 62.7266 18.8228 63.0004 18.8135H66.3114L66.2764 24.1968Z" fill="#E21016"/>
<path d="M47.3061 12.2109C45.4803 12.2123 43.6958 12.7586 42.1784 13.7807C40.661 14.8028 39.4786 16.2548 38.7809 17.9532C38.0831 19.6515 37.9013 21.52 38.2583 23.3224C38.6154 25.1248 39.4953 26.7802 40.7868 28.0793C42.0784 29.3784 43.7235 30.2628 45.5144 30.6209C47.3052 30.9789 49.1613 30.7945 50.848 30.0908C52.5347 29.3872 53.9763 28.1959 54.9905 26.6677C56.0048 25.1395 56.5461 23.3428 56.5461 21.5049C56.5424 19.0399 55.5675 16.6771 53.8352 14.9347C52.103 13.1924 49.7549 12.2128 47.3061 12.2109ZM47.3061 28.375C45.9545 28.375 44.6334 27.9715 43.5097 27.2156C42.386 26.4596 41.5104 25.3851 40.9935 24.128C40.4766 22.871 40.3417 21.4879 40.6059 20.1536C40.8701 18.8194 41.5214 17.594 42.4776 16.6325C43.4338 15.671 44.6518 15.0166 45.9775 14.752C47.3033 14.4875 48.6772 14.6247 49.9254 15.1463C51.1737 15.6679 52.2402 16.5504 52.9901 17.6823C53.74 18.8142 54.1395 20.1445 54.1381 21.5049C54.1362 23.3277 53.4156 25.0751 52.1346 26.3633C50.8535 27.6515 49.1168 28.375 47.3061 28.375Z" fill="#E21016"/>
<path d="M58.9962 44.5389L58.5342 44.4332C57.3852 44.1571 56.1751 44.3282 55.1462 44.9124L40.9502 52.9169C40.5514 53.1417 40.105 53.2673 39.6482 53.2833C40.0838 52.7449 40.3795 52.1059 40.5086 51.4239C40.6378 50.7418 40.5964 50.0381 40.388 49.3762C40.1797 48.7142 39.8111 48.1149 39.3153 47.6321C38.8196 47.1493 38.2123 46.7982 37.5482 46.6105L26.2922 43.489C24.2455 42.9285 22.0617 43.2046 20.2162 44.2571L10.7732 49.6756L9.94718 48.2664C9.77964 47.9723 9.55602 47.7145 9.28916 47.5078C9.02231 47.3011 8.71748 47.1494 8.39222 47.0617C8.06696 46.974 7.72767 46.9518 7.39387 46.9965C7.06006 47.0412 6.73833 47.1519 6.44718 47.3222L2.60418 49.5206C2.31207 49.6893 2.05595 49.9144 1.85057 50.183C1.64518 50.4516 1.49457 50.7584 1.4074 51.0858C1.32023 51.4133 1.29822 51.7548 1.34263 52.0908C1.38704 52.4268 1.497 52.7507 1.66618 53.0437L10.9202 69.1726C11.0855 69.4675 11.3084 69.7257 11.5755 69.9316C11.8425 70.1374 12.1482 70.2867 12.4742 70.3705C12.6904 70.4325 12.9143 70.4633 13.1392 70.4621C13.5886 70.4602 14.0299 70.3413 14.4202 70.1168L18.2632 67.8832C18.5549 67.7134 18.8103 67.4872 19.0145 67.2175C19.2188 66.9478 19.3679 66.6399 19.4532 66.3118C19.5433 65.9861 19.5674 65.6455 19.5241 65.3102C19.4808 64.9749 19.371 64.6518 19.2012 64.36L18.5012 63.1903L19.0052 62.9015C19.7781 62.4584 20.6925 62.337 21.5532 62.5632L34.8532 66.0159C35.8046 66.2599 36.7945 66.3127 37.7662 66.1712C38.7379 66.0298 39.6724 65.6968 40.5162 65.1915L60.3542 53.2622C60.9546 52.9016 61.4677 52.411 61.8563 51.826C62.245 51.241 62.4994 50.5762 62.6012 49.88C62.7682 48.6978 62.4913 47.4954 61.8247 46.5078C61.158 45.5201 60.1495 44.8181 58.9962 44.5389ZM17.3042 65.734C17.2824 65.8221 17.2271 65.8981 17.1502 65.9454L13.3002 68.1791C13.2594 68.1971 13.2153 68.2065 13.1707 68.2065C13.1261 68.2065 13.082 68.1971 13.0412 68.1791C12.9985 68.1689 12.9584 68.1499 12.9234 68.1232C12.8885 68.0965 12.8594 68.0627 12.8382 68.0241L3.59118 51.9234C3.55875 51.8396 3.55875 51.7465 3.59118 51.6627C3.60325 51.5742 3.64829 51.4936 3.71718 51.4372L7.56018 49.2035C7.61073 49.1721 7.66878 49.1551 7.72818 49.1542H7.81918C7.86287 49.1643 7.90376 49.1841 7.93889 49.2121C7.97401 49.2402 8.00246 49.2757 8.02218 49.3163L17.2762 65.4804C17.2989 65.5181 17.3132 65.5603 17.318 65.6041C17.3228 65.6479 17.3181 65.6923 17.3042 65.734ZM60.4032 49.5277C60.3485 49.8968 60.2127 50.2491 60.0056 50.5587C59.7985 50.8683 59.5254 51.1275 59.2062 51.3174L39.3962 63.2749C38.2037 63.9882 36.7787 64.196 35.4342 63.8527L22.1342 60.4C20.7158 60.0248 19.2078 60.2247 17.9342 60.9567L17.4162 61.2526L11.9002 51.6134L21.3362 46.2018C22.6644 45.4425 24.237 45.2424 25.7112 45.6452L36.9602 48.7737C37.3072 48.8687 37.6207 49.0599 37.8649 49.3256C38.1091 49.5912 38.2742 49.9207 38.3413 50.2763C38.4085 50.6318 38.375 50.9993 38.2446 51.3366C38.1143 51.674 37.8924 51.9676 37.6042 52.1841C37.3821 52.3502 37.1272 52.4664 36.8567 52.5247C36.5862 52.5831 36.3064 52.5822 36.0362 52.5223L30.6252 51.2751C30.3399 51.2095 30.0405 51.2596 29.7916 51.4145C29.5428 51.5694 29.3645 51.8168 29.2955 52.103C29.2265 52.3893 29.2722 52.6914 29.4228 52.9439C29.5734 53.1965 29.8168 53.3791 30.1002 53.4524L38.3812 55.3901C39.6212 55.6806 40.9242 55.4947 42.0352 54.8687L56.2312 46.8642C56.7771 46.5605 57.4152 46.4702 58.0232 46.6105L58.4922 46.7232C59.1033 46.8697 59.638 47.2407 59.9915 47.7634C60.345 48.2861 60.4918 48.9228 60.4032 49.5488V49.5277Z" fill="#E21016"/>
</g>
<defs>
<clipPath id="clip0_893_1889">
<rect width="70" height="70.4626" fill="white"/>
</clipPath>
</defs>
</svg>
