<svg width="90" height="88" viewBox="0 0 90 88" fill="none" xmlns="http://www.w3.org/2000/svg">
<path d="M83.9431 11.9075V58.5455H81.1621V11.9075C81.1598 11.3831 80.9504 10.8808 80.5796 10.51C80.2088 10.1392 79.7065 9.92985 79.1821 9.92748H10.8001C10.2757 9.92985 9.77348 10.1392 9.40267 10.51C9.03186 10.8808 8.8225 11.3831 8.82013 11.9075V58.5455H6.05713V11.9075C6.05712 10.6479 6.55625 9.43964 7.44522 8.5473C8.33419 7.65495 9.54055 7.15125 10.8001 7.14648H79.2001C80.4597 7.15125 81.6661 7.65495 82.555 8.5473C83.444 9.43964 83.9431 10.6479 83.9431 11.9075Z" fill="#E21016"/>
<path d="M86.787 58.5449H3.213C2.36232 58.5496 1.54782 58.8897 0.946288 59.4912C0.344755 60.0927 0.00472612 60.9072 0 61.7579L0 66.3119C0.00237494 67.1633 0.341649 67.9792 0.943689 68.5812C1.54573 69.1833 2.36159 69.5225 3.213 69.5249H86.787C87.6384 69.5225 88.4543 69.1833 89.0563 68.5812C89.6583 67.9792 89.9976 67.1633 90 66.3119V61.7579C89.9953 60.9072 89.6552 60.0927 89.0537 59.4912C88.4522 58.8897 87.6377 58.5496 86.787 58.5449ZM87.219 66.3119C87.2202 66.369 87.2099 66.4257 87.1886 66.4787C87.1673 66.5316 87.1356 66.5798 87.0952 66.6201C87.0548 66.6605 87.0067 66.6923 86.9538 66.7135C86.9008 66.7348 86.8441 66.7451 86.787 66.7439H3.213C3.15593 66.7451 3.09921 66.7348 3.04624 66.7135C2.99327 66.6923 2.94516 66.6605 2.9048 66.6201C2.86443 66.5798 2.83266 66.5316 2.81138 66.4787C2.79011 66.4257 2.77977 66.369 2.781 66.3119V61.7579C2.781 61.6433 2.82651 61.5335 2.90753 61.4524C2.98855 61.3714 3.09843 61.3259 3.213 61.3259H86.787C86.9016 61.3259 87.0115 61.3714 87.0925 61.4524C87.1735 61.5335 87.219 61.6433 87.219 61.7579V66.3119Z" fill="#E21016"/>
<path d="M49.167 0.431652H40.833C40.3465 0.430468 39.8645 0.525272 39.4147 0.710634C38.9649 0.895996 38.556 1.16827 38.2116 1.51188C37.8672 1.85548 37.5939 2.26365 37.4074 2.71302C37.221 3.16239 37.125 3.64413 37.125 4.13065V7.14565H39.906V4.13065C39.906 3.89196 40.0008 3.66304 40.1696 3.49426C40.3384 3.32547 40.5673 3.23065 40.806 3.23065H49.14C49.3787 3.23065 49.6076 3.32547 49.7764 3.49426C49.9452 3.66304 50.04 3.89196 50.04 4.13065V7.14565H52.821V4.13065C52.8211 3.15736 52.4375 2.22326 51.7535 1.53085C51.0696 0.838428 50.1402 0.443492 49.167 0.431652Z" fill="#E21016"/>
<path d="M36.8999 20.2578C37.1583 20.519 37.3031 20.8715 37.3031 21.2388C37.3031 21.6061 37.1583 21.9586 36.8999 22.2198C36.7716 22.3492 36.6188 22.4518 36.4503 22.5213C36.2818 22.5909 36.1012 22.626 35.9189 22.6248C35.7365 22.6276 35.5553 22.5931 35.3867 22.5235C35.218 22.4538 35.0653 22.3505 34.9379 22.2198L32.6339 19.9068L30.2939 22.2198C30.1656 22.3492 30.0128 22.4518 29.8443 22.5213C29.6759 22.5909 29.4952 22.626 29.3129 22.6248C29.1305 22.6276 28.9493 22.5931 28.7807 22.5235C28.612 22.4538 28.4593 22.3505 28.3319 22.2198C28.2019 22.0917 28.0986 21.939 28.0281 21.7705C27.9576 21.6021 27.9213 21.4214 27.9213 21.2388C27.9213 21.0562 27.9576 20.8755 28.0281 20.707C28.0986 20.5386 28.2019 20.3859 28.3319 20.2578L30.5999 17.9448L28.2959 15.6408C28.1659 15.5127 28.0626 15.36 27.9921 15.1915C27.9216 15.0231 27.8853 14.8424 27.8853 14.6598C27.8853 14.4772 27.9216 14.2965 27.9921 14.128C28.0626 13.9596 28.1659 13.8069 28.2959 13.6788C28.5571 13.4205 28.9096 13.2756 29.2769 13.2756C29.6443 13.2756 29.9968 13.4205 30.2579 13.6788L32.5709 15.9828L34.8749 13.6788C35.0038 13.5458 35.1575 13.4395 35.3274 13.366C35.4973 13.2925 35.68 13.2531 35.8652 13.2502C36.0503 13.2473 36.2342 13.2808 36.4063 13.349C36.5784 13.4171 36.7355 13.5185 36.8684 13.6473C37.0014 13.7761 37.1077 13.9299 37.1812 14.0998C37.2548 14.2697 37.2941 14.4524 37.2971 14.6375C37.3 14.8226 37.2664 15.0065 37.1983 15.1787C37.1301 15.3508 37.0288 15.5078 36.8999 15.6408L34.5959 17.9448L36.8999 20.2578Z" fill="#E21016"/>
<path d="M27.9629 38.5283C28.093 38.6564 28.1963 38.8091 28.2668 38.9776C28.3373 39.146 28.3736 39.3267 28.3736 39.5093C28.3736 39.6919 28.3373 39.8726 28.2668 40.0411C28.1963 40.2095 28.093 40.3622 27.9629 40.4903C27.702 40.7493 27.3495 40.8948 26.9819 40.8953C26.7997 40.8961 26.6192 40.8606 26.4508 40.7911C26.2824 40.7216 26.1295 40.6194 26.0009 40.4903L23.6879 38.1863L21.3839 40.4903C21.1228 40.7486 20.7702 40.8935 20.4029 40.8935C20.0356 40.8935 19.6831 40.7486 19.4219 40.4903C19.2918 40.3622 19.1885 40.2095 19.118 40.0411C19.0475 39.8726 19.0112 39.6919 19.0112 39.5093C19.0112 39.3267 19.0475 39.146 19.118 38.9776C19.1885 38.8091 19.2918 38.6564 19.4219 38.5283L21.7259 36.2153L19.4219 33.9113C19.1617 33.6511 19.0156 33.2983 19.0156 32.9303C19.0156 32.5624 19.1617 32.2095 19.4219 31.9493C19.6821 31.6891 20.035 31.543 20.4029 31.543C20.7709 31.543 21.1237 31.6891 21.3839 31.9493L23.6879 34.2533L26.0009 31.9493C26.2611 31.6891 26.614 31.543 26.9819 31.543C27.3499 31.543 27.7027 31.6891 27.9629 31.9493C28.2231 32.2095 28.3693 32.5624 28.3693 32.9303C28.3693 33.2983 28.2231 33.6511 27.9629 33.9113L25.6589 36.2153L27.9629 38.5283Z" fill="#E21016"/>
<path d="M70.5781 36.6745C70.7082 36.8026 70.8115 36.9553 70.882 37.1237C70.9525 37.2921 70.9888 37.4729 70.9888 37.6555C70.9888 37.838 70.9525 38.0188 70.882 38.1872C70.8115 38.3556 70.7082 38.5083 70.5781 38.6365C70.317 38.8948 69.9645 39.0397 69.5971 39.0397C69.2298 39.0397 68.8773 38.8948 68.6161 38.6365L66.3121 36.3325L63.9991 38.6005C63.8718 38.7312 63.7191 38.8345 63.5504 38.9041C63.3817 38.9738 63.2006 39.0082 63.0181 39.0055C62.8357 39.0077 62.6548 38.973 62.4862 38.9034C62.3176 38.8338 62.1648 38.7307 62.0371 38.6005C61.9071 38.4723 61.8038 38.3196 61.7333 38.1512C61.6628 37.9828 61.6265 37.802 61.6265 37.6195C61.6265 37.4369 61.6628 37.2561 61.7333 37.0877C61.8038 36.9193 61.9071 36.7666 62.0371 36.6385L64.3411 34.3255L62.0371 32.0215C61.9071 31.8933 61.8038 31.7406 61.7333 31.5722C61.6628 31.4038 61.6265 31.223 61.6265 31.0405C61.6265 30.8579 61.6628 30.6771 61.7333 30.5087C61.8038 30.3403 61.9071 30.1876 62.0371 30.0595C62.2983 29.8011 62.6508 29.6562 63.0181 29.6562C63.3855 29.6562 63.738 29.8011 63.9991 30.0595L66.3121 32.3635L68.6161 30.0595C68.8773 29.8011 69.2298 29.6562 69.5971 29.6562C69.9645 29.6562 70.317 29.8011 70.5781 30.0595C70.7082 30.1876 70.8115 30.3403 70.882 30.5087C70.9525 30.6771 70.9888 30.8579 70.9888 31.0405C70.9888 31.223 70.9525 31.4038 70.882 31.5722C70.8115 31.7406 70.7082 31.8933 70.5781 32.0215L68.2741 34.3255L70.5781 36.6745Z" fill="#E21016"/>
<path d="M55.3858 50.7498C55.6138 51.0163 55.733 51.3588 55.7197 51.7092C55.7065 52.0596 55.5618 52.3922 55.3144 52.6407C55.067 52.8892 54.7351 53.0355 54.3848 53.0503C54.0344 53.0651 53.6913 52.9475 53.4238 52.7208L51.1108 50.4078L48.8068 52.7208C48.5393 52.9475 48.1962 53.0651 47.8459 53.0503C47.4955 53.0355 47.1636 52.8892 46.9162 52.6407C46.6689 52.3922 46.5241 52.0596 46.5109 51.7092C46.4977 51.3588 46.6169 51.0163 46.8448 50.7498L49.1488 48.4458L46.8448 46.1418C46.716 46.013 46.6138 45.86 46.5441 45.6917C46.4744 45.5234 46.4385 45.343 46.4385 45.1608C46.4385 44.9786 46.4744 44.7982 46.5441 44.6299C46.6138 44.4615 46.716 44.3086 46.8448 44.1798C46.9736 44.051 47.1266 43.9488 47.2949 43.879C47.4632 43.8093 47.6436 43.7734 47.8258 43.7734C48.008 43.7734 48.1884 43.8093 48.3567 43.879C48.5251 43.9488 48.678 44.051 48.8068 44.1798L51.1108 46.4838L53.4238 44.1798C53.5526 44.051 53.7056 43.9488 53.8739 43.879C54.0422 43.8093 54.2226 43.7734 54.4048 43.7734C54.587 43.7734 54.7674 43.8093 54.9357 43.879C55.1041 43.9488 55.257 44.051 55.3858 44.1798C55.5146 44.3086 55.6168 44.4615 55.6866 44.6299C55.7563 44.7982 55.7922 44.9786 55.7922 45.1608C55.7922 45.343 55.7563 45.5234 55.6866 45.6917C55.6168 45.86 55.5146 46.013 55.3858 46.1418L53.0998 48.4458L55.3858 50.7498Z" fill="#E21016"/>
<path d="M50.7151 27.8001V33.7311C50.7306 33.9231 50.7061 34.1163 50.6433 34.2984C50.5804 34.4804 50.4805 34.6475 50.3499 34.7891C50.2192 34.9307 50.0607 35.0437 49.8843 35.1209C49.7078 35.1982 49.5173 35.2381 49.3246 35.2381C49.132 35.2381 48.9415 35.1982 48.765 35.1209C48.5886 35.0437 48.43 34.9307 48.2994 34.7891C48.1688 34.6475 48.0689 34.4804 48.006 34.2984C47.9431 34.1163 47.9187 33.9231 47.9341 33.7311V31.0941L47.8441 31.2021L39.9691 39.2031V51.1101C39.9668 51.477 39.82 51.8282 39.5606 52.0876C39.3012 52.347 38.95 52.4938 38.5831 52.4961H31.7791C31.4297 52.468 31.1036 52.3093 30.8659 52.0516C30.6281 51.794 30.4961 51.4562 30.4961 51.1056C30.4961 50.755 30.6281 50.4173 30.8659 50.1596C31.1036 49.902 31.4297 49.7433 31.7791 49.7151H37.1791V38.6001C37.2008 38.261 37.3447 37.9412 37.5841 37.7001L45.9001 29.2491C45.9349 29.2114 45.9742 29.1782 46.0171 29.1501H43.5151C43.1657 29.122 42.8396 28.9633 42.6019 28.7056C42.3641 28.448 42.2321 28.1102 42.2321 27.7596C42.2321 27.409 42.3641 27.0713 42.6019 26.8136C42.8396 26.556 43.1657 26.3973 43.5151 26.3691H49.3291C49.5146 26.3703 49.6981 26.4084 49.8686 26.4813C50.0392 26.5542 50.1936 26.6603 50.3226 26.7936C50.4517 26.9268 50.5529 27.0845 50.6203 27.2573C50.6877 27.4302 50.7199 27.6147 50.7151 27.8001Z" fill="#E21016"/>
<path d="M56.826 26.361C55.665 26.361 54.5302 26.0166 53.565 25.3714C52.5998 24.7263 51.8477 23.8093 51.4038 22.7365C50.96 21.6637 50.8443 20.4834 51.0714 19.3449C51.2986 18.2064 51.8583 17.1608 52.6799 16.3405C53.5014 15.5202 54.5479 14.9621 55.6867 14.7367C56.8256 14.5113 58.0058 14.6288 59.0778 15.0743C60.1499 15.5198 61.0657 16.2733 61.7094 17.2395C62.3531 18.2056 62.6958 19.341 62.694 20.502C62.6892 22.056 62.0692 23.5449 60.9695 24.6429C59.8698 25.7409 58.38 26.3586 56.826 26.361ZM56.826 17.406C56.2133 17.4042 55.6138 17.5843 55.1035 17.9234C54.5932 18.2625 54.195 18.7454 53.9593 19.311C53.7236 19.8765 53.661 20.4993 53.7794 21.1005C53.8978 21.7016 54.192 22.2541 54.6246 22.688C55.0572 23.1219 55.6089 23.4176 56.2097 23.5378C56.8105 23.658 57.4335 23.5972 57.9997 23.3632C58.566 23.1291 59.05 22.7323 59.3906 22.223C59.7312 21.7137 59.913 21.1147 59.913 20.502C59.913 19.6824 59.5881 18.8963 59.0094 18.316C58.4307 17.7356 57.6456 17.4084 56.826 17.406Z" fill="#E21016"/>
<path d="M37.3772 69.5254L35.3252 75.3034L34.3352 78.0844L31.2932 86.6614C31.1938 86.9269 31.0154 87.1555 30.7821 87.3164C30.5488 87.4773 30.2717 87.5628 29.9882 87.5614H23.9222C23.702 87.5625 23.4846 87.5117 23.2876 87.4132C23.0906 87.3147 22.9195 87.1712 22.7882 86.9944C22.6612 86.8151 22.5786 86.6081 22.5473 86.3906C22.516 86.1731 22.5369 85.9512 22.6082 85.7434L28.0532 69.5434H30.9872L25.8572 84.8434H29.0072L34.4072 69.5434L37.3772 69.5254Z" fill="#E21016"/>
<path d="M67.212 87.0022C67.0807 87.179 66.9097 87.3225 66.7127 87.421C66.5157 87.5195 66.2983 87.5703 66.078 87.5692H60.012C59.7286 87.5706 59.4515 87.4851 59.2182 87.3242C58.9848 87.1633 58.8064 86.9347 58.707 86.6692L55.665 78.0922L54.675 75.3112L52.623 69.5332H55.575L60.975 84.8332H64.125L58.995 69.5332H61.929L67.329 85.7332C67.4103 85.9391 67.4421 86.1612 67.4217 86.3816C67.4014 86.6021 67.3296 86.8146 67.212 87.0022Z" fill="#E21016"/>
<path d="M55.665 78.0837H34.335L35.325 75.3027H54.675L55.665 78.0837Z" fill="#E21016"/>
</svg>
