<svg width="90" height="90" viewBox="0 0 90 90" fill="none" xmlns="http://www.w3.org/2000/svg">
<g clip-path="url(#clip0_809_3110)">
<path d="M83.9431 12.9075V59.5455H81.1621V12.9075C81.1598 12.3831 80.9504 11.8808 80.5796 11.51C80.2088 11.1392 79.7065 10.9299 79.1821 10.9275H10.8001C10.2757 10.9299 9.77348 11.1392 9.40267 11.51C9.03186 11.8808 8.8225 12.3831 8.82013 12.9075V59.5455H6.05713V12.9075C6.05712 11.6479 6.55625 10.4396 7.44522 9.5473C8.33419 8.65495 9.54055 8.15125 10.8001 8.14648H79.2001C80.4597 8.15125 81.6661 8.65495 82.555 9.5473C83.444 10.4396 83.9431 11.6479 83.9431 12.9075Z" fill="white"/>
<path d="M86.787 59.5449H3.213C2.36232 59.5496 1.54782 59.8897 0.946288 60.4912C0.344755 61.0927 0.00472612 61.9072 0 62.7579L0 67.3119C0.00237494 68.1633 0.341649 68.9792 0.943689 69.5812C1.54573 70.1833 2.36159 70.5225 3.213 70.5249H86.787C87.6384 70.5225 88.4543 70.1833 89.0563 69.5812C89.6583 68.9792 89.9976 68.1633 90 67.3119V62.7579C89.9953 61.9072 89.6552 61.0927 89.0537 60.4912C88.4522 59.8897 87.6377 59.5496 86.787 59.5449ZM87.219 67.3119C87.2202 67.369 87.2099 67.4257 87.1886 67.4787C87.1673 67.5316 87.1356 67.5798 87.0952 67.6201C87.0548 67.6605 87.0067 67.6923 86.9538 67.7135C86.9008 67.7348 86.8441 67.7451 86.787 67.7439H3.213C3.15593 67.7451 3.09921 67.7348 3.04624 67.7135C2.99327 67.6923 2.94516 67.6605 2.9048 67.6201C2.86443 67.5798 2.83266 67.5316 2.81138 67.4787C2.79011 67.4257 2.77977 67.369 2.781 67.3119V62.7579C2.781 62.6433 2.82651 62.5335 2.90753 62.4524C2.98855 62.3714 3.09843 62.3259 3.213 62.3259H86.787C86.9016 62.3259 87.0115 62.3714 87.0925 62.4524C87.1735 62.5335 87.219 62.6433 87.219 62.7579V67.3119Z" fill="white"/>
<path d="M49.167 1.43165H40.833C40.3465 1.43047 39.8645 1.52527 39.4147 1.71063C38.9649 1.896 38.556 2.16827 38.2116 2.51188C37.8672 2.85548 37.5939 3.26365 37.4074 3.71302C37.221 4.16239 37.125 4.64413 37.125 5.13065V8.14565H39.906V5.13065C39.906 4.89196 40.0008 4.66304 40.1696 4.49426C40.3384 4.32547 40.5673 4.23065 40.806 4.23065H49.14C49.3787 4.23065 49.6076 4.32547 49.7764 4.49426C49.9452 4.66304 50.04 4.89196 50.04 5.13065V8.14565H52.821V5.13065C52.8211 4.15736 52.4375 3.22326 51.7535 2.53085C51.0696 1.83843 50.1402 1.44349 49.167 1.43165Z" fill="white"/>
<path d="M36.8999 21.2578C37.1583 21.519 37.3031 21.8715 37.3031 22.2388C37.3031 22.6061 37.1583 22.9586 36.8999 23.2198C36.7716 23.3492 36.6188 23.4518 36.4503 23.5213C36.2818 23.5909 36.1012 23.626 35.9189 23.6248C35.7365 23.6276 35.5553 23.5931 35.3867 23.5235C35.218 23.4538 35.0653 23.3505 34.9379 23.2198L32.6339 20.9068L30.2939 23.2198C30.1656 23.3492 30.0128 23.4518 29.8443 23.5213C29.6759 23.5909 29.4952 23.626 29.3129 23.6248C29.1305 23.6276 28.9493 23.5931 28.7807 23.5235C28.612 23.4538 28.4593 23.3505 28.3319 23.2198C28.2019 23.0917 28.0986 22.939 28.0281 22.7705C27.9576 22.6021 27.9213 22.4214 27.9213 22.2388C27.9213 22.0562 27.9576 21.8755 28.0281 21.707C28.0986 21.5386 28.2019 21.3859 28.3319 21.2578L30.5999 18.9448L28.2959 16.6408C28.1659 16.5127 28.0626 16.36 27.9921 16.1915C27.9216 16.0231 27.8853 15.8424 27.8853 15.6598C27.8853 15.4772 27.9216 15.2965 27.9921 15.128C28.0626 14.9596 28.1659 14.8069 28.2959 14.6788C28.5571 14.4205 28.9096 14.2756 29.2769 14.2756C29.6443 14.2756 29.9968 14.4205 30.2579 14.6788L32.5709 16.9828L34.8749 14.6788C35.0038 14.5458 35.1575 14.4395 35.3274 14.366C35.4973 14.2925 35.68 14.2531 35.8652 14.2502C36.0503 14.2473 36.2342 14.2808 36.4063 14.349C36.5784 14.4171 36.7355 14.5185 36.8684 14.6473C37.0014 14.7761 37.1077 14.9299 37.1812 15.0998C37.2548 15.2697 37.2941 15.4524 37.2971 15.6375C37.3 15.8226 37.2664 16.0065 37.1983 16.1787C37.1301 16.3508 37.0288 16.5078 36.8999 16.6408L34.5959 18.9448L36.8999 21.2578Z" fill="white"/>
<path d="M27.9629 39.5283C28.093 39.6564 28.1963 39.8091 28.2668 39.9776C28.3373 40.146 28.3736 40.3267 28.3736 40.5093C28.3736 40.6919 28.3373 40.8726 28.2668 41.0411C28.1963 41.2095 28.093 41.3622 27.9629 41.4903C27.702 41.7493 27.3495 41.8948 26.9819 41.8953C26.7997 41.8961 26.6192 41.8606 26.4508 41.7911C26.2824 41.7216 26.1295 41.6194 26.0009 41.4903L23.6879 39.1863L21.3839 41.4903C21.1228 41.7486 20.7702 41.8935 20.4029 41.8935C20.0356 41.8935 19.6831 41.7486 19.4219 41.4903C19.2918 41.3622 19.1885 41.2095 19.118 41.0411C19.0475 40.8726 19.0112 40.6919 19.0112 40.5093C19.0112 40.3267 19.0475 40.146 19.118 39.9776C19.1885 39.8091 19.2918 39.6564 19.4219 39.5283L21.7259 37.2153L19.4219 34.9113C19.1617 34.6511 19.0156 34.2983 19.0156 33.9303C19.0156 33.5624 19.1617 33.2095 19.4219 32.9493C19.6821 32.6891 20.035 32.543 20.4029 32.543C20.7709 32.543 21.1237 32.6891 21.3839 32.9493L23.6879 35.2533L26.0009 32.9493C26.2611 32.6891 26.614 32.543 26.9819 32.543C27.3499 32.543 27.7027 32.6891 27.9629 32.9493C28.2231 33.2095 28.3693 33.5624 28.3693 33.9303C28.3693 34.2983 28.2231 34.6511 27.9629 34.9113L25.6589 37.2153L27.9629 39.5283Z" fill="white"/>
<path d="M70.5781 37.6745C70.7082 37.8026 70.8115 37.9553 70.882 38.1237C70.9525 38.2921 70.9888 38.4729 70.9888 38.6555C70.9888 38.838 70.9525 39.0188 70.882 39.1872C70.8115 39.3556 70.7082 39.5083 70.5781 39.6365C70.317 39.8948 69.9645 40.0397 69.5971 40.0397C69.2298 40.0397 68.8773 39.8948 68.6161 39.6365L66.3121 37.3325L63.9991 39.6005C63.8718 39.7312 63.7191 39.8345 63.5504 39.9041C63.3817 39.9738 63.2006 40.0082 63.0181 40.0055C62.8357 40.0077 62.6548 39.973 62.4862 39.9034C62.3176 39.8338 62.1648 39.7307 62.0371 39.6005C61.9071 39.4723 61.8038 39.3196 61.7333 39.1512C61.6628 38.9828 61.6265 38.802 61.6265 38.6195C61.6265 38.4369 61.6628 38.2561 61.7333 38.0877C61.8038 37.9193 61.9071 37.7666 62.0371 37.6385L64.3411 35.3255L62.0371 33.0215C61.9071 32.8933 61.8038 32.7406 61.7333 32.5722C61.6628 32.4038 61.6265 32.223 61.6265 32.0405C61.6265 31.8579 61.6628 31.6771 61.7333 31.5087C61.8038 31.3403 61.9071 31.1876 62.0371 31.0595C62.2983 30.8011 62.6508 30.6562 63.0181 30.6562C63.3855 30.6562 63.738 30.8011 63.9991 31.0595L66.3121 33.3635L68.6161 31.0595C68.8773 30.8011 69.2298 30.6562 69.5971 30.6562C69.9645 30.6562 70.317 30.8011 70.5781 31.0595C70.7082 31.1876 70.8115 31.3403 70.882 31.5087C70.9525 31.6771 70.9888 31.8579 70.9888 32.0405C70.9888 32.223 70.9525 32.4038 70.882 32.5722C70.8115 32.7406 70.7082 32.8933 70.5781 33.0215L68.2741 35.3255L70.5781 37.6745Z" fill="white"/>
<path d="M55.3858 51.7498C55.6138 52.0163 55.733 52.3588 55.7197 52.7092C55.7065 53.0596 55.5618 53.3922 55.3144 53.6407C55.067 53.8892 54.7351 54.0355 54.3848 54.0503C54.0344 54.0651 53.6913 53.9475 53.4238 53.7208L51.1108 51.4078L48.8068 53.7208C48.5393 53.9475 48.1962 54.0651 47.8459 54.0503C47.4955 54.0355 47.1636 53.8892 46.9162 53.6407C46.6689 53.3922 46.5241 53.0596 46.5109 52.7092C46.4977 52.3588 46.6169 52.0163 46.8448 51.7498L49.1488 49.4458L46.8448 47.1418C46.716 47.013 46.6138 46.86 46.5441 46.6917C46.4744 46.5234 46.4385 46.343 46.4385 46.1608C46.4385 45.9786 46.4744 45.7982 46.5441 45.6299C46.6138 45.4615 46.716 45.3086 46.8448 45.1798C46.9736 45.051 47.1266 44.9488 47.2949 44.879C47.4632 44.8093 47.6436 44.7734 47.8258 44.7734C48.008 44.7734 48.1884 44.8093 48.3567 44.879C48.5251 44.9488 48.678 45.051 48.8068 45.1798L51.1108 47.4838L53.4238 45.1798C53.5526 45.051 53.7056 44.9488 53.8739 44.879C54.0422 44.8093 54.2226 44.7734 54.4048 44.7734C54.587 44.7734 54.7674 44.8093 54.9357 44.879C55.1041 44.9488 55.257 45.051 55.3858 45.1798C55.5146 45.3086 55.6168 45.4615 55.6866 45.6299C55.7563 45.7982 55.7922 45.9786 55.7922 46.1608C55.7922 46.343 55.7563 46.5234 55.6866 46.6917C55.6168 46.86 55.5146 47.013 55.3858 47.1418L53.0998 49.4458L55.3858 51.7498Z" fill="white"/>
<path d="M50.7151 28.8001V34.7311C50.7306 34.9231 50.7061 35.1163 50.6433 35.2984C50.5804 35.4804 50.4805 35.6475 50.3499 35.7891C50.2192 35.9307 50.0607 36.0437 49.8843 36.1209C49.7078 36.1982 49.5173 36.2381 49.3246 36.2381C49.132 36.2381 48.9415 36.1982 48.765 36.1209C48.5886 36.0437 48.43 35.9307 48.2994 35.7891C48.1688 35.6475 48.0689 35.4804 48.006 35.2984C47.9431 35.1163 47.9187 34.9231 47.9341 34.7311V32.0941L47.8441 32.2021L39.9691 40.2031V52.1101C39.9668 52.477 39.82 52.8282 39.5606 53.0876C39.3012 53.347 38.95 53.4938 38.5831 53.4961H31.7791C31.4297 53.468 31.1036 53.3093 30.8659 53.0516C30.6281 52.794 30.4961 52.4562 30.4961 52.1056C30.4961 51.755 30.6281 51.4173 30.8659 51.1596C31.1036 50.902 31.4297 50.7433 31.7791 50.7151H37.1791V39.6001C37.2008 39.261 37.3447 38.9412 37.5841 38.7001L45.9001 30.2491C45.9349 30.2114 45.9742 30.1782 46.0171 30.1501H43.5151C43.1657 30.122 42.8396 29.9633 42.6019 29.7056C42.3641 29.448 42.2321 29.1102 42.2321 28.7596C42.2321 28.409 42.3641 28.0713 42.6019 27.8136C42.8396 27.556 43.1657 27.3973 43.5151 27.3691H49.3291C49.5146 27.3703 49.6981 27.4084 49.8686 27.4813C50.0392 27.5542 50.1936 27.6603 50.3226 27.7936C50.4517 27.9268 50.5529 28.0845 50.6203 28.2573C50.6877 28.4302 50.7199 28.6147 50.7151 28.8001Z" fill="white"/>
<path d="M56.826 27.361C55.665 27.361 54.5302 27.0166 53.565 26.3714C52.5998 25.7263 51.8477 24.8093 51.4038 23.7365C50.96 22.6637 50.8443 21.4834 51.0714 20.3449C51.2986 19.2064 51.8583 18.1608 52.6799 17.3405C53.5014 16.5202 54.5479 15.9621 55.6867 15.7367C56.8256 15.5113 58.0058 15.6288 59.0778 16.0743C60.1499 16.5198 61.0657 17.2733 61.7094 18.2395C62.3531 19.2056 62.6958 20.341 62.694 21.502C62.6892 23.056 62.0692 24.5449 60.9695 25.6429C59.8698 26.7409 58.38 27.3586 56.826 27.361ZM56.826 18.406C56.2133 18.4042 55.6138 18.5843 55.1035 18.9234C54.5932 19.2625 54.195 19.7454 53.9593 20.311C53.7236 20.8765 53.661 21.4993 53.7794 22.1005C53.8978 22.7016 54.192 23.2541 54.6246 23.688C55.0572 24.1219 55.6089 24.4176 56.2097 24.5378C56.8105 24.658 57.4335 24.5972 57.9997 24.3632C58.566 24.1291 59.05 23.7323 59.3906 23.223C59.7312 22.7137 59.913 22.1147 59.913 21.502C59.913 20.6824 59.5881 19.8963 59.0094 19.316C58.4307 18.7356 57.6456 18.4084 56.826 18.406Z" fill="white"/>
<path d="M37.3772 70.5254L35.3252 76.3034L34.3352 79.0844L31.2932 87.6614C31.1938 87.9269 31.0154 88.1555 30.7821 88.3164C30.5488 88.4773 30.2717 88.5628 29.9882 88.5614H23.9222C23.702 88.5625 23.4846 88.5117 23.2876 88.4132C23.0906 88.3147 22.9195 88.1712 22.7882 87.9944C22.6612 87.8151 22.5786 87.6081 22.5473 87.3906C22.516 87.1731 22.5369 86.9512 22.6082 86.7434L28.0532 70.5434H30.9872L25.8572 85.8434H29.0072L34.4072 70.5434L37.3772 70.5254Z" fill="white"/>
<path d="M67.212 88.0022C67.0807 88.179 66.9097 88.3225 66.7127 88.421C66.5157 88.5195 66.2983 88.5703 66.078 88.5692H60.012C59.7286 88.5706 59.4515 88.4851 59.2182 88.3242C58.9848 88.1633 58.8064 87.9347 58.707 87.6692L55.665 79.0922L54.675 76.3112L52.623 70.5332H55.575L60.975 85.8332H64.125L58.995 70.5332H61.929L67.329 86.7332C67.4103 86.9391 67.4421 87.1612 67.4217 87.3816C67.4014 87.6021 67.3296 87.8146 67.212 88.0022Z" fill="white"/>
<path d="M55.665 79.0837H34.335L35.325 76.3027H54.675L55.665 79.0837Z" fill="white"/>
</g>
<defs>
<clipPath id="clip0_809_3110">
<rect width="90" height="90" fill="white"/>
</clipPath>
</defs>
</svg>
