<svg width="91" height="91" viewBox="0 0 91 91" fill="none" xmlns="http://www.w3.org/2000/svg">
<path d="M90.3879 35.6866C90.1454 35.5165 89.8562 35.4254 89.56 35.4256H79.966C79.2907 32.9579 78.3492 30.5708 77.158 28.3066L78.5979 26.8666L82.063 23.4016L83.8629 21.6016C83.9619 21.5035 84.0414 21.3874 84.0969 21.2596C84.223 21.0572 84.2886 20.823 84.2859 20.5846C84.2857 20.2002 84.1337 19.8315 83.8629 19.5586L77.563 13.2586C77.3924 13.0911 77.1817 12.9702 76.951 12.9076C68.3654 4.89611 57.004 0.531907 45.2629 0.73532C33.5217 0.938732 22.3184 5.69387 14.0154 13.998C5.7125 22.3021 0.958944 33.506 0.757183 45.2472C0.555421 56.9884 4.92123 68.3492 12.9339 76.9336C12.9966 77.1643 13.1174 77.3751 13.2849 77.5456L19.5849 83.8456C19.7995 84.0683 20.0813 84.2144 20.3869 84.2615C20.6925 84.3087 21.0052 84.2543 21.2769 84.1066C21.4072 84.039 21.5257 83.9509 21.6279 83.8456L29.0709 76.4026C31.1061 77.4706 33.2401 78.3387 35.4429 78.9946V89.5516C35.4384 89.8513 35.5298 90.1446 35.7039 90.3886C35.8354 90.58 36.0113 90.7365 36.2167 90.8447C36.4221 90.9529 36.6508 91.0095 36.8829 91.0096H54.2529C54.4964 91.0078 54.7352 90.9426 54.9459 90.8206C55.1761 90.6986 55.3683 90.5158 55.5016 90.292C55.635 90.0682 55.7042 89.8121 55.7019 89.5516V78.9766C57.9018 78.3206 60.0328 77.4525 62.0649 76.3846L69.5079 83.8006C69.6422 83.939 69.8031 84.0487 69.9811 84.123C70.159 84.1972 70.3502 84.2345 70.5429 84.2326C70.7326 84.2311 70.92 84.1922 71.0945 84.118C71.2691 84.0439 71.4272 83.936 71.56 83.8006L83.8449 71.5516C84.1125 71.2766 84.2639 70.9092 84.2679 70.5256C84.2612 70.1425 84.1101 69.7761 83.8449 69.4996L82.6479 68.3026L79.1559 64.8196L76.5999 62.2816C77.7806 60.1864 78.7513 57.9797 79.4979 55.6936H89.56C89.8163 55.6926 90.0676 55.6227 90.2876 55.4913C90.5077 55.3599 90.6884 55.1718 90.811 54.9466C90.9342 54.7364 90.9994 54.4973 90.9999 54.2536V36.8746C91 36.6422 90.9445 36.413 90.8381 36.2064C90.7316 35.9997 90.5773 35.8215 90.3879 35.6866ZM3.86194 46.3156C3.85607 38.1492 6.20669 30.1546 10.6318 23.2911C15.0568 16.4275 21.3684 10.9866 28.809 7.62114C36.2497 4.2557 44.5034 3.1087 52.5798 4.3178C60.6561 5.52689 68.2121 9.04071 74.3409 14.4376L70.9659 17.8126C63.7522 11.6594 54.484 8.45174 45.01 8.82938C35.536 9.20703 26.5525 13.1423 19.8515 19.8501C13.1504 26.558 9.22435 35.5454 8.85633 45.0198C8.48831 54.4942 11.7054 63.7592 17.8659 70.9666L14.4909 74.3416C7.64587 66.6101 3.86534 56.6418 3.86194 46.3156ZM60.9219 29.9086C61.2639 30.2596 61.5879 30.6196 61.8849 30.9886C63.0406 32.3403 64.0232 33.8308 64.8099 35.4256C64.936 35.6866 65.0529 35.9476 65.1519 36.2176C65.466 36.9019 65.7365 37.6053 65.9619 38.3236C66.0609 38.6296 66.1419 38.9176 66.2229 39.2236C66.724 41.0319 66.9753 42.9002 66.9699 44.7766C66.9653 47.07 66.5978 49.3482 65.8809 51.5266C65.7279 51.9496 65.5749 52.3726 65.4039 52.7866C65.1876 53.3426 64.9413 53.8864 64.6659 54.4156C64.4685 54.854 64.2461 55.2807 63.9999 55.6936C62.0237 59.0399 59.1697 61.7819 55.7469 63.6226C55.2339 63.8926 54.7299 64.1626 54.1899 64.3876C53.6499 64.6126 53.2899 64.7566 52.8489 64.9186C52.4079 65.0806 51.7419 65.2966 51.1749 65.4496C47.5353 66.4336 43.6996 66.4336 40.0599 65.4496C39.4748 65.2967 38.898 65.1135 38.3319 64.9006C37.8819 64.7386 37.4319 64.5586 36.9819 64.3696C36.5319 64.1806 35.9379 63.8746 35.4429 63.6046C34.1309 62.9031 32.897 62.0644 31.7619 61.1026C31.3929 60.7966 31.0329 60.4636 30.6819 60.1216C30.4074 59.8507 30.0372 59.6987 29.6514 59.6987C29.2657 59.6987 28.8955 59.8507 28.6209 60.1216L27.6399 61.1116L21.6459 67.1056L19.8459 68.9056C14.1868 62.2382 11.2437 53.6854 11.6017 44.9474C11.9597 36.2094 15.5926 27.9261 21.7781 21.7439C27.9637 15.5617 36.2491 11.9334 44.9873 11.5802C53.7255 11.227 62.2766 14.1748 68.9409 19.8376L60.9309 27.8476C60.6588 28.121 60.5052 28.4905 60.5035 28.8763C60.5019 29.262 60.6522 29.6329 60.9219 29.9086ZM88.1109 52.7956H77.311C77.0679 53.7856 76.771 54.7486 76.4109 55.6936C75.8733 57.2243 75.2173 58.7108 74.449 60.1396C74.0095 61.0243 73.5258 61.8864 72.9999 62.7226L75.0879 64.8016L77.644 67.3486L80.8029 70.5256L70.5429 80.7676L62.5599 72.7846C61.6599 73.3066 60.8139 73.7836 59.9139 74.2336C58.5499 74.8924 57.1426 75.4577 55.7019 75.9256C54.7507 76.2459 53.7834 76.5163 52.8039 76.7356V88.1116H38.3319V76.7356C37.3551 76.5176 36.3907 76.2472 35.4429 75.9256C34.0005 75.4624 32.593 74.897 31.2309 74.2336C30.3309 73.7836 29.4309 73.3336 28.5849 72.7846L20.6019 80.7676L16.3629 76.5196L16.4259 76.4566L29.7189 63.1636C31.2574 64.5158 32.967 65.6596 34.8039 66.5656C35.0109 66.6736 35.2269 66.7636 35.4429 66.8536C36.1753 67.1959 36.9266 67.4963 37.6929 67.7536C37.9089 67.8346 38.1159 67.8976 38.3319 67.9606C43.0448 69.4248 48.091 69.4248 52.8039 67.9606C53.0203 67.9025 53.2336 67.8334 53.4429 67.7536C54.2117 67.4948 54.9658 67.1943 55.7019 66.8536C55.9179 66.7636 56.1249 66.6736 56.3319 66.5656C60.7525 64.3654 64.4043 60.8799 66.808 56.5666C66.9767 56.2764 67.127 55.9758 67.2579 55.6666C67.5963 55.0494 67.8968 54.4122 68.158 53.7586C68.3045 53.4379 68.4278 53.107 68.5269 52.7686C69.4423 50.1977 69.9052 47.4876 69.895 44.7586C69.8824 42.5743 69.5797 40.4013 68.9949 38.2966C68.8599 37.8196 68.7159 37.3966 68.5539 36.8836C68.3919 36.3706 68.2029 35.8936 67.9959 35.3986C67.7889 34.9036 67.5819 34.4986 67.3479 33.9946C66.4387 32.1547 65.2919 30.4421 63.9369 28.9006L71.9829 20.8546L76.4829 16.3546L76.5639 16.2736L80.794 20.5306L73.5939 27.7306C74.1069 28.5856 74.6019 29.4856 75.0429 30.3856C75.8277 31.9837 76.475 33.6457 76.9779 35.3536C77.2705 36.3065 77.5139 37.2737 77.7069 38.2516H88.1469L88.1109 52.7956Z" fill="white"/>
<path d="M47.7997 40.9148V23.4998C47.8155 23.2981 47.7895 23.0953 47.7232 22.9041C47.6568 22.713 47.5517 22.5376 47.4144 22.3891C47.277 22.2405 47.1104 22.122 46.925 22.0409C46.7397 21.9598 46.5395 21.918 46.3372 21.918C46.1349 21.918 45.9347 21.9598 45.7494 22.0409C45.564 22.122 45.3974 22.2405 45.26 22.3891C45.1227 22.5376 45.0176 22.713 44.9512 22.9041C44.8849 23.0953 44.8589 23.2981 44.8747 23.4998V40.9598C43.9697 41.2084 43.1451 41.6886 42.4823 42.353C41.8194 43.0175 41.3412 43.8432 41.0947 44.7488H29.5747C29.188 44.7488 28.8172 44.9024 28.5437 45.1758C28.2703 45.4493 28.1167 45.8201 28.1167 46.2068C28.1167 46.5935 28.2703 46.9643 28.5437 47.2377C28.8172 47.5112 29.188 47.6648 29.5747 47.6648H41.0767C41.3401 48.575 41.8365 49.4007 42.5167 50.0603C43.197 50.7199 44.0376 51.1906 44.9555 51.4258C45.8734 51.661 46.8367 51.6526 47.7504 51.4014C48.664 51.1503 49.4963 50.665 50.165 49.9937C50.8337 49.3223 51.3156 48.4881 51.5631 47.5735C51.8106 46.6588 51.8151 45.6954 51.5762 44.7785C51.3373 43.8615 50.8633 43.0228 50.201 42.3452C49.5386 41.6676 48.7109 41.1745 47.7997 40.9148ZM46.3237 48.6998C45.8235 48.6998 45.3346 48.5515 44.9187 48.2736C44.5028 47.9957 44.1786 47.6007 43.9872 47.1386C43.7958 46.6765 43.7457 46.168 43.8433 45.6774C43.9409 45.1868 44.1817 44.7362 44.5354 44.3825C44.8891 44.0288 45.3397 43.788 45.8303 43.6904C46.3209 43.5928 46.8294 43.6429 47.2915 43.8343C47.7536 44.0257 48.1486 44.3499 48.4265 44.7657C48.7044 45.1816 48.8527 45.6706 48.8527 46.1708C48.8527 46.8415 48.5863 47.4848 48.112 47.9591C47.6377 48.4333 46.9944 48.6998 46.3237 48.6998Z" fill="white"/>
</svg>
