<svg width="90" height="83" viewBox="0 0 90 83" fill="none" xmlns="http://www.w3.org/2000/svg">
<path d="M78.6469 1.27051H25.0363C18.3106 1.27051 12.8432 6.4067 12.8432 12.7463V70.1326H2.3352C2.16258 70.1326 1.99702 70.2021 1.87496 70.326C1.75289 70.4498 1.68433 70.6178 1.68433 70.7929C1.68624 73.6063 2.78862 76.3038 4.74935 78.2932C6.71008 80.2825 9.36885 81.4009 12.1417 81.4029H59.4605C61.8871 81.3406 64.2207 80.4427 66.0778 78.8568C66.1417 78.799 66.1936 78.7288 66.2305 78.6504C66.2673 78.572 66.2884 78.4869 66.2924 78.4001C66.2965 78.3133 66.2834 78.2266 66.254 78.145C66.2246 78.0634 66.1794 77.9886 66.1212 77.9249C66.004 77.7974 65.8424 77.7214 65.6708 77.7132C65.4991 77.705 65.3312 77.7652 65.2027 77.8809C63.5451 79.264 61.4761 80.0396 59.3303 80.0822C56.9001 80.0802 54.5699 79.1004 52.8507 77.3576C51.1316 75.6148 50.164 73.2513 50.1602 70.7856C50.1602 70.6105 50.0916 70.4425 49.9696 70.3186C49.8475 70.1948 49.6819 70.1252 49.5093 70.1252H14.1378V12.7463C14.1378 7.14044 19.0338 2.57655 25.0363 2.57655H73.787C72.2781 3.4449 71.0232 4.70385 70.1504 6.22491C69.2775 7.74596 68.818 9.47468 68.8187 11.2347V19.9223C68.8187 20.0975 68.8873 20.2654 69.0093 20.3893C69.1314 20.5131 69.2969 20.5827 69.4696 20.5827C69.6422 20.5827 69.8077 20.5131 69.9298 20.3893C70.0519 20.2654 70.1204 20.0975 70.1204 19.9223V12.8784H87.8171C87.9028 12.8794 87.9879 12.8629 88.0673 12.8301C88.1467 12.7973 88.2188 12.7487 88.2795 12.6871C88.3401 12.6256 88.388 12.5524 88.4204 12.4719C88.4527 12.3913 88.4689 12.305 88.4679 12.218V11.2347C88.466 8.59265 87.4307 6.05936 85.5893 4.19112C83.7479 2.32287 81.251 1.27245 78.6469 1.27051ZM48.8874 71.4533C48.9981 73.237 49.5506 74.9636 50.4936 76.4732C51.4367 77.9827 52.7398 79.2266 54.2824 80.0895H12.1417C9.82626 80.0846 7.59818 79.1918 5.90422 77.5901C4.21026 75.9885 3.17564 73.7964 3.00778 71.4533H48.8874ZM87.1662 11.5576H70.1132V11.2347C70.08 10.078 70.2759 8.92624 70.6892 7.84767C71.1026 6.76909 71.7251 5.78562 72.5198 4.95549C73.3145 4.12537 74.2653 3.46545 75.3159 3.01481C76.3664 2.56418 77.4955 2.33199 78.6361 2.33199C79.7767 2.33199 80.9057 2.56418 81.9563 3.01481C83.0069 3.46545 83.9577 4.12537 84.7524 4.95549C85.5471 5.78562 86.1696 6.76909 86.5829 7.84767C86.9963 8.92624 87.1922 10.078 87.159 11.2347L87.1662 11.5576Z" fill="white" stroke="white" stroke-width="1.5" stroke-miterlimit="10"/>
<path d="M48.0124 45.5082C47.0128 45.5009 46.0376 45.1936 45.2098 44.6248C44.3821 44.056 43.7389 43.2514 43.3613 42.3122C42.9836 41.3731 42.8885 40.3415 43.0879 39.3476C43.2873 38.3537 43.7723 37.442 44.4817 36.7273C45.1911 36.0127 46.0932 35.5271 47.0742 35.3319C48.0552 35.1366 49.0712 35.2405 49.9941 35.6303C50.9171 36.0201 51.7056 36.6784 52.2602 37.5223C52.8149 38.3661 53.1109 39.3577 53.111 40.3719C53.0995 41.7369 52.5575 43.0421 51.6028 44.0039C50.6481 44.9657 49.3578 45.5063 48.0124 45.5082ZM48.0124 36.4758C47.2598 36.4743 46.5236 36.6994 45.8971 37.1226C45.2705 37.5458 44.7818 38.1481 44.4928 38.8532C44.2038 39.5583 44.1274 40.3345 44.2734 41.0837C44.4193 41.8329 44.7811 42.5212 45.3128 43.0617C45.8445 43.6022 46.5223 43.9706 47.2604 44.1201C47.9985 44.2696 48.7637 44.1936 49.4592 43.9017C50.1548 43.6098 50.7493 43.1151 51.1676 42.4803C51.5859 41.8454 51.8092 41.0989 51.8092 40.3353C51.8092 39.3123 51.4097 38.3309 50.698 37.6062C49.9864 36.8814 49.0207 36.4723 48.0124 36.4684V36.4758Z" fill="white" stroke="white" stroke-width="1.5" stroke-miterlimit="10"/>
<path d="M48.0918 50.2404C41.0262 50.2404 30.359 40.8631 29.9106 40.4669C29.8383 40.4033 29.7808 40.3242 29.742 40.2354C29.7033 40.1467 29.6843 40.0503 29.6864 39.9532C29.6887 39.8576 29.7111 39.7636 29.7523 39.6775C29.7935 39.5914 29.8524 39.5153 29.9251 39.4543C30.3807 39.0874 41.0406 30.4146 48.0918 30.4146C55.143 30.4146 65.651 39.0874 66.0994 39.4617C66.1699 39.5236 66.2264 39.6003 66.2651 39.6863C66.3038 39.7724 66.3239 39.866 66.3239 39.9606C66.3239 40.0552 66.3038 40.1488 66.2651 40.2349C66.2264 40.3209 66.1699 40.3975 66.0994 40.4595C65.6727 40.8558 55.1574 50.2404 48.0918 50.2404ZM31.3643 39.9679C33.7219 41.9417 42.4219 48.905 48.0918 48.905C53.7617 48.905 62.3532 41.9344 64.6602 39.9679C62.3243 38.1262 53.7617 31.706 48.0918 31.706C42.4219 31.706 33.7436 38.1702 31.3643 39.9899V39.9679Z" fill="white" stroke="white" stroke-width="1.5" stroke-miterlimit="10"/>
<path d="M81.9157 73.1701L72.6949 61.6503C72.2593 61.1033 71.7213 60.6492 71.1118 60.3142C70.5024 59.9792 69.8336 59.77 69.144 59.6986C67.9606 59.5661 66.7687 59.8567 65.7739 60.5204L63.4091 57.9816C68.106 53.8211 70.9994 47.9516 71.4634 41.6431C71.9274 35.3346 69.9246 29.0943 65.8884 24.2726C61.8521 19.4509 56.107 16.4354 49.8961 15.8786C43.6852 15.3218 37.508 17.2685 32.701 21.2975C27.8939 25.3264 24.8437 31.1136 24.2102 37.4069C23.5767 43.7002 25.411 49.9936 29.316 54.9252C33.2211 59.8569 38.883 63.0303 45.0766 63.7589C51.2702 64.4874 57.4975 62.7124 62.4111 58.8181L64.7687 61.3788C63.9662 62.227 63.4716 63.3265 63.3657 64.4973C63.2904 65.1952 63.3533 65.9013 63.5508 66.5741C63.7482 67.247 64.0763 67.873 64.5156 68.4154L73.7291 79.9133C74.1626 80.462 74.7002 80.9168 75.3102 81.2508C75.9201 81.5849 76.59 81.7912 77.28 81.8577C77.4606 81.8686 77.6418 81.8686 77.8224 81.8577C78.8181 81.8573 79.7933 81.5705 80.6348 81.0305C81.4763 80.4905 82.1496 79.7195 82.5767 78.8069C83.0037 77.8943 83.1669 76.8776 83.0473 75.8747C82.9278 74.8718 82.5304 73.9238 81.9012 73.1408L81.9157 73.1701ZM26.0632 40.3277C26.0632 35.9232 27.3505 31.6177 29.7623 27.9556C32.1741 24.2934 35.602 21.4391 39.6127 19.7536C43.6234 18.0681 48.0366 17.6271 52.2943 18.4864C56.552 19.3456 60.4629 21.4666 63.5325 24.581C66.6022 27.6954 68.6926 31.6633 69.5395 35.9831C70.3864 40.3029 69.9517 44.7806 68.2905 48.8497C66.6292 52.9189 63.8159 56.3969 60.2064 58.8438C56.5969 61.2908 52.3533 62.5968 48.0122 62.5968C42.1927 62.591 36.6133 60.2429 32.4983 56.0679C28.3833 51.8929 26.0689 46.232 26.0632 40.3277ZM81.7494 76.9563C81.6654 77.7467 81.3533 78.4944 80.852 79.1055C80.3507 79.7166 79.6827 80.1639 78.9318 80.3912C78.181 80.6185 77.3806 80.6157 76.6313 80.3832C75.8819 80.1506 75.217 79.6987 74.7199 79.0841L65.4919 67.5864C64.8282 66.756 64.5164 65.6924 64.6248 64.629C64.7333 63.5656 65.2532 62.5893 66.0705 61.9145C66.7704 61.3459 67.6399 61.0354 68.5366 61.034C68.6763 61.0266 68.8163 61.0266 68.956 61.034C69.4745 61.0867 69.9775 61.2436 70.4357 61.4955C70.8939 61.7475 71.298 62.0894 71.6246 62.5014L80.8526 74.0066C81.1931 74.4108 81.4504 74.8799 81.6093 75.3865C81.7683 75.8931 81.8258 76.4268 81.7783 76.9563H81.7494Z" fill="white" stroke="white" stroke-width="1.5" stroke-miterlimit="10"/>
</svg>
