<svg width="16" height="20" viewBox="0 0 16 20" fill="none" xmlns="http://www.w3.org/2000/svg">
<path d="M6.84619 18.8462C6.84619 19.3985 7.29391 19.8462 7.84619 19.8462C8.39848 19.8462 8.84619 19.3985 8.84619 18.8462L6.84619 18.8462ZM8.5533 0.831392C8.16277 0.440868 7.52961 0.440868 7.13908 0.831392L0.775123 7.19535C0.384599 7.58588 0.384599 8.21904 0.775123 8.60957C1.16565 9.00009 1.79881 9.00009 2.18934 8.60957L7.84619 2.95271L13.503 8.60957C13.8936 9.00009 14.5267 9.00009 14.9173 8.60957C15.3078 8.21904 15.3078 7.58588 14.9173 7.19535L8.5533 0.831392ZM8.84619 18.8462L8.84619 1.5385L6.84619 1.5385L6.84619 18.8462L8.84619 18.8462Z" fill="#090909"/>
</svg>
