<svg width="16" height="16" viewBox="0 0 16 16" fill="none" xmlns="http://www.w3.org/2000/svg">
<path d="M1.23071 6.72876C0.678428 6.72876 0.230713 7.17647 0.230713 7.72876C0.230713 8.28104 0.678428 8.72876 1.23071 8.72876L1.23071 6.72876ZM15.3994 8.43587C15.7899 8.04534 15.7899 7.41218 15.3994 7.02165L9.0354 0.657692C8.64487 0.267168 8.01171 0.267168 7.62118 0.657692C7.23066 1.04822 7.23066 1.68138 7.62118 2.07191L13.278 7.72876L7.62118 13.3856C7.23066 13.7761 7.23066 14.4093 7.62118 14.7998C8.01171 15.1904 8.64487 15.1904 9.0354 14.7998L15.3994 8.43587ZM1.23071 8.72876L14.6923 8.72876V6.72876L1.23071 6.72876L1.23071 8.72876Z" fill="#090909"/>
</svg>
