<svg width="16" height="16" viewBox="0 0 16 16" fill="none" xmlns="http://www.w3.org/2000/svg">
<path d="M14.7693 9.19019C15.3216 9.19019 15.7693 8.74247 15.7693 8.19019C15.7693 7.6379 15.3216 7.19019 14.7693 7.19019L14.7693 9.19019ZM0.600641 7.48308C0.210116 7.8736 0.210116 8.50677 0.600641 8.89729L6.9646 15.2613C7.35513 15.6518 7.98829 15.6518 8.37882 15.2613C8.76934 14.8707 8.76934 14.2376 8.37882 13.847L2.72196 8.19018L8.37882 2.53333C8.76934 2.14281 8.76934 1.50964 8.37882 1.11912C7.98829 0.728593 7.35513 0.728593 6.9646 1.11912L0.600641 7.48308ZM14.7693 7.19019L1.30775 7.19018L1.30775 9.19018L14.7693 9.19019L14.7693 7.19019Z" fill="#090909"/>
</svg>
