<svg width="75" height="76" viewBox="0 0 75 76" fill="none" xmlns="http://www.w3.org/2000/svg">
<path d="M24.21 24.8848C24.18 25.2298 24.165 25.5748 24.165 25.9198C24.165 26.1973 24.165 26.4748 24.165 26.7448C24.165 26.4073 24.2175 26.0698 24.2175 25.7173C24.2175 25.3648 24.2325 25.1548 24.21 24.8848Z" fill="#E21016"/>
<path d="M66.2025 33.5615C67.5397 32.5638 68.5998 31.2411 69.2824 29.7188C69.965 28.1965 70.2475 26.5251 70.1031 24.863C69.9586 23.2009 69.3921 21.6033 68.4571 20.2216C67.5221 18.8399 66.2497 17.7199 64.7605 16.9678C63.2713 16.2157 61.6147 15.8564 59.9477 15.9241C58.2807 15.9917 56.6587 16.484 55.2353 17.3543C53.812 18.2246 52.6345 19.444 51.8145 20.897C50.9946 22.3499 50.5593 23.9882 50.55 25.6565V25.709C50.55 25.7915 50.55 25.8665 50.55 25.949C50.5832 27.4403 50.9582 28.9042 51.646 30.2278C52.3338 31.5515 53.3162 32.6997 54.5175 33.584C51.7449 34.053 49.2484 35.5434 47.52 37.7615C48.25 37.9889 48.964 38.2645 49.6575 38.5865C50.635 37.5812 51.8099 36.789 53.1084 36.2598C54.4069 35.7306 55.8008 35.4758 57.2025 35.5115H63.675C68.715 35.5115 72.8175 38.654 72.8175 42.524V49.0865C72.8175 49.4765 70.5 50.9465 63.1425 51.2915C62.8825 51.335 62.6468 51.4708 62.4789 51.6741C62.3109 51.8774 62.222 52.1344 62.2284 52.398C62.2348 52.6616 62.3361 52.9141 62.5136 53.109C62.6912 53.3039 62.9332 53.4282 63.195 53.459H63.2475C68.61 53.2115 75 52.2515 75 49.0715V42.524C75 38.159 71.25 34.4915 66.2025 33.5615ZM52.7325 25.709C52.734 24.2037 53.1817 22.7326 54.0191 21.4818C54.8565 20.2309 56.0459 19.2563 57.437 18.6813C58.8282 18.1063 60.3586 17.9566 61.8347 18.2512C63.3109 18.5458 64.6666 19.2714 65.7305 20.3363C66.7944 21.4012 67.5187 22.7576 67.8118 24.2341C68.1049 25.7106 67.9537 27.2408 67.3773 28.6314C66.8009 30.022 65.8252 31.2104 64.5735 32.0466C63.3218 32.8827 61.8503 33.329 60.345 33.329C58.3254 33.327 56.3891 32.5233 54.9617 31.0945C53.5343 29.6657 52.7325 27.7286 52.7325 25.709Z" fill="#E21016"/>
<path d="M24.21 24.8848C24.18 25.2298 24.165 25.5748 24.165 25.9198C24.165 26.1973 24.165 26.4748 24.165 26.7448C24.165 26.4073 24.2175 26.0698 24.2175 25.7173C24.2175 25.3648 24.2325 25.1548 24.21 24.8848Z" fill="#E21016"/>
<path d="M20.325 33.5547C21.4036 32.7466 22.3039 31.7247 22.9698 30.553C23.6356 29.3813 24.0527 28.0848 24.195 26.7447C24.195 26.4747 24.195 26.1972 24.195 25.9197C24.195 25.6422 24.195 25.2297 24.24 24.8847C24.0993 23.2553 23.5528 21.6872 22.6505 20.3233C21.7482 18.9593 20.5187 17.843 19.0743 17.0762C17.6298 16.3094 16.0164 15.9164 14.3811 15.9331C12.7458 15.9499 11.1407 16.3758 9.71225 17.172C8.28381 17.9683 7.07746 19.1095 6.20326 20.4916C5.32906 21.8738 4.81482 23.4528 4.70747 25.0846C4.60011 26.7165 4.90305 28.3492 5.58865 29.834C6.27425 31.3187 7.32068 32.6081 8.6325 33.5847C3.6825 34.5747 0 38.2047 0 42.5247V49.0872C0 52.2147 6.24 53.1897 11.475 53.4597H11.535C11.81 53.4445 12.0692 53.3262 12.2609 53.1285C12.4525 52.9307 12.5627 52.668 12.5693 52.3927C12.5759 52.1173 12.4786 51.8496 12.2966 51.6429C12.1146 51.4361 11.8614 51.3055 11.5875 51.2772C4.4325 50.9022 2.1825 49.4622 2.1825 49.0797V42.5247C2.1825 38.6547 6.285 35.5122 11.325 35.5122H17.7975C19.1992 35.4765 20.5932 35.7312 21.8917 36.2604C23.1901 36.7896 24.3651 37.5818 25.3425 38.5872C26.036 38.2652 26.75 37.9896 27.48 37.7622C25.7185 35.4989 23.1591 33.9939 20.325 33.5547ZM14.4525 33.3297C12.9472 33.3297 11.4757 32.8834 10.224 32.0472C8.9723 31.2111 7.99658 30.0226 7.42019 28.6321C6.8438 27.2415 6.69261 25.7113 6.98573 24.2348C7.27885 22.7583 8.00313 21.4019 9.067 20.337C10.1309 19.272 11.4866 18.5464 12.9628 18.2518C14.439 17.9573 15.9694 18.107 17.3605 18.682C18.7516 19.257 19.941 20.2315 20.7784 21.4824C21.6158 22.7333 22.0635 24.2044 22.065 25.7097C22.065 27.7293 21.2632 29.6664 19.8358 31.0952C18.4084 32.524 16.4722 33.3277 14.4525 33.3297Z" fill="#E21016"/>
<path d="M49.6572 38.5868C48.9638 38.2648 48.2497 37.9892 47.5197 37.7618C46.4958 37.4384 45.4437 37.2124 44.3772 37.0868C46.2641 35.9052 47.8206 34.2645 48.9014 32.3181C49.9821 30.3717 50.5518 28.1831 50.5573 25.9568C50.5573 25.8743 50.5573 25.7993 50.5573 25.7168V25.6568C50.481 22.2752 49.1088 19.0522 46.7242 16.6534C44.3395 14.2546 41.1246 12.8633 37.7436 12.7671C34.3625 12.6708 31.0737 13.8768 28.5564 16.1361C26.0392 18.3953 24.4858 21.5351 24.2172 24.9068C24.2172 25.1768 24.2172 25.4618 24.2172 25.7393C24.2172 26.0168 24.2172 26.4293 24.1647 26.7668C24.3031 28.8611 24.9394 30.8922 26.0208 32.6911C27.1022 34.49 28.5975 36.0047 30.3822 37.1093C29.3984 37.2463 28.4276 37.4646 27.4797 37.7618C26.7498 37.9892 26.0357 38.2648 25.3422 38.5868C20.7597 40.7093 17.6772 44.7293 17.6772 49.2968V58.4243C17.6772 60.5018 19.8747 61.9943 24.3822 62.9993C28.7026 63.8428 33.0982 64.2399 37.4997 64.1843C40.8072 64.1843 57.3222 63.9068 57.3222 58.4243V49.2968C57.3222 44.7293 54.2397 40.7093 49.6572 38.5868ZM26.3547 25.9193C26.3607 23.743 27.0114 21.6173 28.2248 19.8107C29.4382 18.004 31.1598 16.5975 33.1721 15.7688C35.1845 14.9401 37.3973 14.7263 39.531 15.1545C41.6648 15.5827 43.6238 16.6337 45.1605 18.1746C46.6973 19.7156 47.7429 21.6775 48.1653 23.8124C48.5877 25.9473 48.368 28.1595 47.5338 30.1695C46.6996 32.1796 45.2884 33.8974 43.4784 35.1058C41.6685 36.3143 39.541 36.9593 37.3647 36.9593C35.9166 36.9583 34.4829 36.6719 33.1456 36.1163C31.8083 35.5608 30.5937 34.7471 29.5711 33.7217C28.5485 32.6964 27.7381 31.4795 27.1862 30.1407C26.6343 28.8019 26.3518 27.3674 26.3547 25.9193ZM55.1322 58.4243C55.1322 59.8868 48.8547 62.0018 37.4997 62.0018C26.1447 62.0018 19.8672 59.8868 19.8672 58.4243V49.2968C19.8672 45.2618 22.9047 41.7968 27.3147 40.1168L27.4722 40.0643C29.2456 39.4289 31.116 39.1066 32.9997 39.1118H41.9997C43.8835 39.1066 45.7539 39.4289 47.5272 40.0643L47.6847 40.1168C52.0947 41.7668 55.1322 45.2618 55.1322 49.2968V58.4243Z" fill="#E21016"/>
</svg>
