<svg width="52" height="60" viewBox="0 0 52 60" fill="none" xmlns="http://www.w3.org/2000/svg">
<path d="M23.5792 38.4455C20.6756 38.4455 17.8372 37.5844 15.423 35.9711C13.0087 34.3579 11.1272 32.0648 10.0163 29.3821C8.90539 26.6994 8.61502 23.7475 9.18191 20.8997C9.74881 18.052 11.1475 15.4363 13.2011 13.3835C15.2547 11.3307 17.8709 9.93307 20.7189 9.36731C23.5669 8.80154 26.5187 9.09307 29.201 10.205C31.8832 11.317 34.1755 13.1995 35.7878 15.6143C37.4002 18.0291 38.2602 20.8679 38.259 23.7715C38.2544 27.6629 36.7061 31.3935 33.954 34.1446C31.2018 36.8957 27.4706 38.4425 23.5792 38.4455ZM23.5792 10.8491C21.0232 10.848 18.5242 11.6049 16.3983 13.0241C14.2725 14.4434 12.6153 16.4612 11.6363 18.8223C10.6574 21.1835 10.4007 23.7819 10.8986 26.289C11.3966 28.7961 12.6269 31.0992 14.4339 32.907C16.2409 34.7148 18.5434 35.9461 21.0503 36.4452C23.5571 36.9443 26.1557 36.6887 28.5173 35.7108C30.8789 34.7329 32.8974 33.0767 34.3176 30.9514C35.7378 28.8262 36.4958 26.3276 36.4958 23.7715C36.4912 20.3467 35.1291 17.0634 32.7079 14.6412C30.2867 12.2189 27.004 10.8553 23.5792 10.8491Z" fill="url(#paint0_linear_519_500)" stroke="#E21016" stroke-width="0.5"/>
<path d="M20.4183 22.1169C20.1962 22.1028 19.9882 22.003 19.8383 21.8385C19.6709 21.6675 19.471 21.5317 19.2504 21.4389C19.0298 21.3462 18.7929 21.2984 18.5536 21.2984C18.3143 21.2984 18.0774 21.3462 17.8568 21.4389C17.6362 21.5317 17.4363 21.6675 17.2689 21.8385C17.0935 21.9594 16.8801 22.0122 16.6686 21.9871C16.4571 21.962 16.262 21.8607 16.1198 21.7022C15.9776 21.5436 15.898 21.3387 15.896 21.1257C15.894 20.9127 15.9697 20.7063 16.1089 20.5451C17.0021 19.7157 19.2003 18.6601 21.1085 20.5451C21.2675 20.6645 21.3815 20.8341 21.4319 21.0264C21.4823 21.2188 21.4663 21.4225 21.3864 21.6045C21.3064 21.7866 21.1673 21.9363 20.9915 22.0293C20.8158 22.1223 20.6138 22.1532 20.4183 22.1169Z" fill="url(#paint1_linear_519_500)" stroke="#E21016" stroke-width="0.5"/>
<path d="M29.9242 22.1169C29.8065 22.1147 29.6904 22.0889 29.5828 22.0411C29.4753 21.9933 29.3783 21.9244 29.2978 21.8385C29.1309 21.6677 28.9315 21.5319 28.7114 21.4393C28.4913 21.3466 28.2548 21.2989 28.016 21.2989C27.7772 21.2989 27.5408 21.3466 27.3206 21.4393C27.1005 21.5319 26.9011 21.6677 26.7342 21.8385C26.5589 21.9594 26.3455 22.0122 26.134 21.9871C25.9225 21.962 25.7273 21.8607 25.5851 21.7022C25.4429 21.5436 25.3634 21.3387 25.3614 21.1257C25.3594 20.9127 25.435 20.7063 25.5742 20.5451C26.4674 19.7157 28.6598 18.6601 30.5738 20.5451C30.696 20.6684 30.7791 20.8249 30.8126 20.9952C30.8462 21.1655 30.8287 21.3419 30.7625 21.5023C30.6962 21.6627 30.5841 21.8 30.4401 21.897C30.2961 21.9939 30.1268 22.0462 29.9532 22.0473L29.9242 22.1169Z" fill="url(#paint2_linear_519_500)" stroke="#E21016" stroke-width="0.5"/>
<path d="M23.2252 30.945C22.2407 30.9635 21.2824 30.6265 20.5261 29.9959C19.7698 29.3653 19.2661 28.4832 19.1072 27.5114C19.0688 27.2806 19.1235 27.0441 19.2595 26.8537C19.3955 26.6634 19.6015 26.5348 19.8322 26.4964C20.063 26.4579 20.2995 26.5127 20.4899 26.6487C20.6802 26.7846 20.8088 26.9906 20.8472 27.2214C20.9407 27.7814 21.2335 28.2889 21.6715 28.6502C22.1095 29.0115 22.6634 29.2023 23.231 29.1876C23.8466 29.1779 24.4431 28.9726 24.9342 28.6014C25.4253 28.2302 25.7856 27.7124 25.9628 27.1228C26.0336 26.9034 26.187 26.7202 26.3906 26.612C26.5941 26.5037 26.8317 26.4789 27.0532 26.5428C27.2717 26.6111 27.4548 26.7623 27.5632 26.9639C27.6716 27.1656 27.6967 27.4016 27.6332 27.6216C27.3513 28.5746 26.7708 29.4118 25.9772 30.0101C25.1837 30.6084 24.219 30.9361 23.2252 30.945Z" fill="url(#paint3_linear_519_500)" stroke="#E21016" stroke-width="0.5"/>
<path d="M27.5176 58.7736C27.4371 58.7739 27.3569 58.7621 27.2798 58.7388C27.1685 58.7086 27.0642 58.6567 26.9729 58.586C26.8817 58.5154 26.8053 58.4274 26.7482 58.3272C26.6911 58.2269 26.6543 58.1164 26.64 58.0019C26.6258 57.8874 26.6342 57.7712 26.665 57.66L28.7356 50.207C28.8065 49.9889 28.9589 49.8067 29.1611 49.6986C29.3633 49.5905 29.5995 49.5648 29.8202 49.627C30.0387 49.6953 30.2218 49.8465 30.3302 50.0481C30.4386 50.2498 30.4637 50.4858 30.4002 50.7058L28.3644 58.1298C28.3126 58.3147 28.2019 58.4776 28.0491 58.5938C27.8962 58.71 27.7096 58.7731 27.5176 58.7736Z" fill="url(#paint4_linear_519_500)" stroke="#E21016" stroke-width="0.5"/>
<path d="M4.25937 58.959C4.16698 58.9593 4.07507 58.9456 3.98677 58.9184C3.87575 58.884 3.77262 58.8281 3.68332 58.7537C3.59401 58.6793 3.52028 58.5881 3.46638 58.4851C3.41248 58.3822 3.37946 58.2696 3.36923 58.1538C3.359 58.038 3.37176 57.9214 3.40677 57.8106C7.61177 44.8534 5.44257 40.312 3.15157 35.5038C1.75377 32.569 0.30957 29.5414 0.30957 24.6404C0.315718 18.3586 2.81508 12.336 7.25863 7.89575C11.7022 3.45545 17.7265 0.960518 24.0084 0.958984C37.3136 0.958984 46.9822 10.355 47.046 23.3238L50.9204 37.122C50.957 37.2528 50.9629 37.3904 50.9376 37.5239C50.9123 37.6574 50.8565 37.7833 50.7745 37.8917C50.6926 38 50.5866 38.088 50.465 38.1487C50.3434 38.2093 50.2095 38.2411 50.0736 38.2414H44.7782V43.3802C44.6564 46.1584 42.9744 51.3378 37.4876 51.3378H29.1994C29.008 51.3378 23.5618 51.5234 19.67 47.823C19.5167 47.6588 19.432 47.4422 19.433 47.2176C19.434 46.993 19.5207 46.7772 19.6754 46.6143C19.8301 46.4515 20.0411 46.3538 20.2654 46.3413C20.4897 46.3288 20.7103 46.4024 20.8822 46.547C24.223 49.7254 29.1182 49.5804 29.1646 49.5804H37.4876C42.6554 49.5804 43.0034 43.5948 43.0208 43.3396V37.3598C43.0223 37.127 43.1159 36.9042 43.281 36.7402C43.4462 36.5761 43.6696 36.484 43.9024 36.484H48.9194L45.3234 23.6834C45.3 23.6063 45.2883 23.5261 45.2886 23.4456C45.2828 11.4338 36.3392 2.69898 24.0084 2.69898C18.1961 2.70666 12.6241 5.01897 8.51424 9.12885C4.40435 13.2387 2.09204 18.8107 2.08437 24.623C2.08437 29.1238 3.38357 31.844 4.75817 34.7266C7.07817 39.6392 9.51997 44.7142 5.09457 58.3326C5.04103 58.5128 4.93092 58.671 4.78051 58.7838C4.6301 58.8966 4.44738 58.9581 4.25937 58.959Z" fill="url(#paint5_linear_519_500)" stroke="#E21016" stroke-width="0.5"/>
<defs>
<linearGradient id="paint0_linear_519_500" x1="38.259" y1="23.7657" x2="10.1533" y2="23.4342" gradientUnits="userSpaceOnUse">
<stop stop-color="#E21016"/>
<stop offset="1" stop-color="#EE2B2B"/>
</linearGradient>
<linearGradient id="paint1_linear_519_500" x1="21.4608" y1="20.8115" x2="16.1362" y2="20.6791" gradientUnits="userSpaceOnUse">
<stop stop-color="#E21016"/>
<stop offset="1" stop-color="#EE2B2B"/>
</linearGradient>
<linearGradient id="paint2_linear_519_500" x1="30.8293" y1="20.8041" x2="25.5973" y2="20.6755" gradientUnits="userSpaceOnUse">
<stop stop-color="#E21016"/>
<stop offset="1" stop-color="#EE2B2B"/>
</linearGradient>
<linearGradient id="paint3_linear_519_500" x1="27.6676" y1="28.715" x2="19.4644" y2="28.5291" gradientUnits="userSpaceOnUse">
<stop stop-color="#E21016"/>
<stop offset="1" stop-color="#EE2B2B"/>
</linearGradient>
<linearGradient id="paint4_linear_519_500" x1="30.4346" y1="54.1837" x2="26.7952" y2="54.1659" gradientUnits="userSpaceOnUse">
<stop stop-color="#E21016"/>
<stop offset="1" stop-color="#EE2B2B"/>
</linearGradient>
<linearGradient id="paint5_linear_519_500" x1="50.9531" y1="29.959" x2="2.47086" y2="29.4596" gradientUnits="userSpaceOnUse">
<stop stop-color="#E21016"/>
<stop offset="1" stop-color="#EE2B2B"/>
</linearGradient>
</defs>
</svg>
