<svg width="46" height="61" viewBox="0 0 46 61" fill="none" xmlns="http://www.w3.org/2000/svg">
<path d="M28.442 22.8349C30.7352 21.6223 32.5565 19.677 33.6157 17.309C34.6748 14.941 34.9109 12.2866 34.2862 9.76887C33.6615 7.25115 32.212 5.01497 30.1688 3.41674C28.1255 1.8185 25.6061 0.950195 23.012 0.950195C20.418 0.950195 17.8985 1.8185 15.8553 3.41674C13.8121 5.01497 12.3626 7.25115 11.7379 9.76887C11.1132 12.2866 11.3492 14.941 12.4084 17.309C13.4675 19.677 15.2888 21.6223 17.582 22.8349C14.8655 23.7301 12.4146 25.2876 10.4505 27.3669C8.48643 29.4462 7.07103 31.9818 6.33203 34.7449H8.64203C9.60009 31.6864 11.5093 29.0135 14.0917 27.1153C16.6741 25.2171 19.795 24.1926 23 24.1909H23.042C26.252 24.193 29.3779 25.217 31.9669 27.1145C34.5559 29.012 36.4736 31.6846 37.442 34.7449H39.752C39.0005 31.9784 37.5736 29.4419 35.5996 27.3631C33.6255 25.2843 31.166 23.7283 28.442 22.8349ZM23 21.9589C20.5147 21.9534 18.1331 20.9614 16.3787 19.201C14.6242 17.4407 13.6403 15.0558 13.643 12.5704C13.6458 10.0851 14.6351 7.70242 16.3935 5.94598C18.1519 4.18953 20.5357 3.20294 23.021 3.20294C25.5064 3.20294 27.8902 4.18953 29.6486 5.94598C31.407 7.70242 32.3962 10.0851 32.399 12.5704C32.4018 15.0558 31.4179 17.4407 29.6634 19.201C27.9089 20.9614 25.5274 21.9534 23.042 21.9589H23Z" fill="#E21016"/>
<path d="M44.7259 36.7854C44.2051 36.1414 43.5455 35.6234 42.7964 35.2702C42.0473 34.9169 41.2281 34.7375 40.3999 34.7454H5.59989C4.7567 34.7363 3.92289 34.9228 3.16395 35.2903C2.40501 35.6578 1.74162 36.1963 1.22589 36.8634C0.796034 37.4309 0.505784 38.0916 0.378618 38.7921C0.251452 39.4925 0.290941 40.2131 0.49389 40.8954L5.49789 57.6954C5.8234 58.6596 6.44693 59.4954 7.27843 60.0821C8.10993 60.6688 9.10638 60.976 10.1239 60.9594H36.5959C37.6449 60.9903 38.6744 60.6717 39.5227 60.0537C40.3709 59.4357 40.9897 58.5534 41.2819 57.5454L45.5659 40.7454C45.7407 40.0653 45.7558 39.3539 45.6101 38.667C45.4644 37.98 45.1618 37.3361 44.7259 36.7854ZM43.3999 40.1754L39.1099 56.9754C38.9363 57.5029 38.5948 57.9591 38.1376 58.2744C37.6804 58.5897 37.1327 58.7467 36.5779 58.7214H10.1239C9.5829 58.7457 9.04822 58.5972 8.5973 58.2973C8.14639 57.9974 7.80265 57.5617 7.61589 57.0534L2.59989 40.2654C2.49332 39.9149 2.47258 39.5438 2.53941 39.1836C2.60624 38.8234 2.75868 38.4844 2.98389 38.1954C3.29339 37.7997 3.69114 37.4819 4.14535 37.2673C4.59957 37.0527 5.09767 36.9473 5.59989 36.9594H40.3999C40.8892 36.9514 41.3739 37.0553 41.8169 37.2633C42.2599 37.4713 42.6495 37.7778 42.9559 38.1594C43.1816 38.4378 43.3392 38.765 43.4163 39.1149C43.4934 39.4649 43.4878 39.828 43.3999 40.1754Z" fill="#E21016"/>
<path d="M28.724 48.9593H17.276C16.9816 48.9593 16.6993 48.8423 16.4911 48.6341C16.283 48.426 16.166 48.1436 16.166 47.8493C16.166 47.5549 16.283 47.2725 16.4911 47.0644C16.6993 46.8562 16.9816 46.7393 17.276 46.7393H28.724C29.0184 46.7393 29.3007 46.8562 29.5089 47.0644C29.7171 47.2725 29.834 47.5549 29.834 47.8493C29.834 48.1436 29.7171 48.426 29.5089 48.6341C29.3007 48.8423 29.0184 48.9593 28.724 48.9593Z" fill="#E21016"/>
</svg>
