<svg width="31" height="55" viewBox="0 0 31 55" fill="none" xmlns="http://www.w3.org/2000/svg">
<path d="M30.3172 39.9945H10.0835C9.95079 40.0163 9.81497 40.0089 9.68543 39.9729C9.55589 39.9369 9.43572 39.8732 9.33326 39.7862C9.23079 39.6991 9.14848 39.5909 9.09203 39.4688C9.03559 39.3468 9.00635 39.214 9.00635 39.0795C9.00635 38.9451 9.03559 38.8123 9.09203 38.6902C9.14848 38.5682 9.23079 38.4599 9.33326 38.3729C9.43572 38.2859 9.55589 38.2221 9.68543 38.1862C9.81497 38.1502 9.95079 38.1428 10.0835 38.1645H30.3172C30.5342 38.2001 30.7315 38.3116 30.8739 38.4793C31.0163 38.6469 31.0944 38.8596 31.0944 39.0795C31.0944 39.2995 31.0163 39.5122 30.8739 39.6798C30.7315 39.8474 30.5342 39.959 30.3172 39.9945Z" fill="#E21016"/>
<path d="M11.2181 32.9486H10.0835C9.95079 32.9704 9.81497 32.963 9.68543 32.927C9.55589 32.8911 9.43572 32.8273 9.33326 32.7403C9.23079 32.6533 9.14848 32.545 9.09203 32.4229C9.03559 32.3009 9.00635 32.1681 9.00635 32.0336C9.00635 31.8992 9.03559 31.7664 9.09203 31.6443C9.14848 31.5223 9.23079 31.414 9.33326 31.327C9.43572 31.24 9.55589 31.1762 9.68543 31.1403C9.81497 31.1043 9.95079 31.0969 10.0835 31.1186H11.2181C11.4351 31.1542 11.6324 31.2657 11.7748 31.4334C11.9172 31.601 11.9953 31.8137 11.9953 32.0336C11.9953 32.2536 11.9172 32.4663 11.7748 32.6339C11.6324 32.8015 11.4351 32.9131 11.2181 32.9486Z" fill="#E21016"/>
<path d="M56.0468 29.3315C57.5945 27.8207 58.8287 26.0191 59.6787 24.0303C60.5287 22.0414 60.9777 19.9043 61 17.7415C61 7.98152 51.85 0.0515249 40.6626 0.0515249C36.1723 0.0147258 31.777 1.34439 28.06 3.86402C23.302 7.14582 20.5021 12.0075 20.3374 17.284C20.9474 17.284 21.5574 17.284 22.1674 17.3572C22.2449 15.0932 22.873 12.8822 23.9974 10.9156C25.2625 8.71937 27.0131 6.84151 29.1153 5.42563C32.5263 3.12031 36.5581 1.90759 40.6748 1.94863C50.8557 1.90593 59.17 9.01243 59.17 17.7537C59.1469 19.6734 58.7448 21.5696 57.9869 23.3334C57.229 25.0973 56.1302 26.6941 54.7536 28.0322C52.8687 29.9232 54.4059 33.4124 55.9736 35.7182C53.619 35.2485 50.7703 33.1318 49.6662 32.1558C49.496 32.0108 49.2798 31.9309 49.0562 31.9301C48.9346 31.9309 48.8143 31.9558 48.7024 32.0033C46.1582 33.0683 43.4268 33.6138 40.6687 33.6076H40.6199C40.6626 34.0529 40.6809 34.5043 40.6809 34.9618C40.6809 35.1265 40.6809 35.2851 40.6809 35.4559C43.4918 35.4616 46.2789 34.9402 48.8976 33.9187C50.1786 34.974 53.741 37.6519 56.8642 37.6519C57.2761 37.6531 57.6863 37.5997 58.0842 37.4933C58.2358 37.4539 58.3749 37.3767 58.4885 37.269C58.6022 37.1613 58.6867 37.0265 58.7342 36.8773C58.7817 36.7281 58.7907 36.5692 58.7602 36.4156C58.7297 36.262 58.6609 36.1186 58.56 35.9988C56.7971 34.1139 54.9488 30.4356 56.0468 29.3315Z" fill="#E21016"/>
<path d="M40.6138 33.6075C40.2146 29.4369 38.2535 25.5714 35.1238 22.7861C34.4365 22.1648 33.7068 21.592 32.94 21.072L32.7326 20.9378C29.5848 18.8422 25.9459 17.6019 22.1735 17.3388C21.5635 17.29 20.9535 17.2656 20.3435 17.2656C9.1134 17.2656 0 25.2017 0 34.9617C0.0222855 37.1245 0.471294 39.2616 1.32128 41.2505C2.17126 43.2393 3.40549 45.0409 4.9532 46.5517C6.0512 47.6497 4.2029 51.3402 2.4705 53.1824C2.36206 53.2991 2.28553 53.4418 2.24828 53.5968C2.21104 53.7517 2.21434 53.9136 2.25786 54.0668C2.30139 54.2201 2.38367 54.3595 2.49678 54.4717C2.60989 54.584 2.75 54.6651 2.9036 54.7074C3.3015 54.8138 3.71172 54.8672 4.1236 54.866C7.2407 54.866 10.8336 52.1942 12.0902 51.1328C14.7109 52.1549 17.5001 52.6764 20.313 52.67C31.3357 52.67 40.3454 44.9962 40.6443 35.4619C40.6443 35.2911 40.6443 35.1325 40.6443 34.9678C40.6748 34.5042 40.6565 34.0528 40.6138 33.6075ZM38.8143 35.3887C38.5642 43.9287 30.3719 50.8339 20.3374 50.8339C17.5793 50.8406 14.8477 50.2951 12.3037 49.2296C12.1438 49.1603 11.9674 49.1384 11.7955 49.1665C11.6235 49.1946 11.4633 49.2716 11.3338 49.3882C10.2297 50.3398 7.381 52.4687 5.0264 52.9262C6.6185 50.6204 8.1496 47.1373 6.2464 45.2402C4.86976 43.9021 3.77097 42.3053 3.01308 40.5414C2.25519 38.7776 1.85314 36.8814 1.83 34.9617C1.83 26.2204 10.126 19.1017 20.3191 19.1017H20.3679C20.9779 19.1017 21.5879 19.1017 22.2345 19.1871C23.6652 19.3084 25.0797 19.5762 26.4557 19.9862C27.6407 20.3487 28.7902 20.8183 29.89 21.3892C30.5808 21.7555 31.2489 22.1629 31.8908 22.6092L32.1653 22.8044C35.99 25.5006 38.3141 29.3436 38.7472 33.5587C38.8013 34.0346 38.8278 34.5133 38.8265 34.9922C38.8265 35.102 38.8265 35.2362 38.8143 35.3887Z" fill="#E21016"/>
<path d="M31.2381 32.0464C31.2333 32.2875 31.1341 32.5171 30.9619 32.6859C30.7897 32.8547 30.5581 32.9492 30.317 32.9492H15.2866C15.0695 32.9136 14.8722 32.8021 14.7298 32.6345C14.5874 32.4668 14.5093 32.2541 14.5093 32.0342C14.5093 31.8142 14.5874 31.6015 14.7298 31.4339C14.8722 31.2663 15.0695 31.1547 15.2866 31.1192H30.317C30.4387 31.1183 30.5593 31.1418 30.6718 31.1882C30.7844 31.2346 30.8865 31.3029 30.9723 31.3893C31.0581 31.4756 31.1257 31.5782 31.1714 31.691C31.217 31.8039 31.2397 31.9247 31.2381 32.0464Z" fill="#E21016"/>
<path d="M45.7136 15.759H30.6832C30.5542 15.7739 30.4234 15.7613 30.2996 15.7222C30.1757 15.683 30.0616 15.6181 29.9646 15.5317C29.8676 15.4453 29.79 15.3393 29.7369 15.2208C29.6837 15.1023 29.6562 14.9738 29.6562 14.844C29.6562 14.7141 29.6837 14.5856 29.7369 14.4671C29.79 14.3486 29.8676 14.2426 29.9646 14.1562C30.0616 14.0698 30.1757 14.0049 30.2996 13.9657C30.4234 13.9266 30.5542 13.914 30.6832 13.929H45.7136C45.8426 13.914 45.9733 13.9266 46.0972 13.9657C46.221 14.0049 46.3352 14.0698 46.4322 14.1562C46.5292 14.2426 46.6068 14.3486 46.6599 14.4671C46.713 14.5856 46.7405 14.7141 46.7405 14.844C46.7405 14.9738 46.713 15.1023 46.6599 15.2208C46.6068 15.3393 46.5292 15.4453 46.4322 15.5317C46.3352 15.6181 46.221 15.683 46.0972 15.7222C45.9733 15.7613 45.8426 15.7739 45.7136 15.759Z" fill="#E21016"/>
</svg>
