<svg width="60" height="51" viewBox="0 0 60 51" fill="none" xmlns="http://www.w3.org/2000/svg">
<path d="M59.9946 17.3629C60.0018 17.3295 60.0018 17.2949 59.9946 17.2615C59.9873 17.2048 59.9716 17.1495 59.9479 17.0975C59.9162 17.013 59.8715 16.934 59.8155 16.8633L49.6888 1.49301C49.6269 1.38461 49.5509 1.28487 49.4629 1.19637L49.3461 1.1027L49.276 1.05587C49.2141 1.02077 49.1489 0.991999 49.0812 0.969997H48.9644C48.8689 0.955313 48.7717 0.955313 48.6762 0.969997H10.5066C10.2994 0.971908 10.0959 1.02557 9.91455 1.12612C9.7391 1.23308 9.5942 1.38366 9.49391 1.56326L0.185202 16.879C0.141275 16.9422 0.104688 17.0103 0.076146 17.0819C0.0435158 17.1487 0.019938 17.2196 0.00603849 17.2927C-0.00201283 17.3679 -0.00201283 17.4438 0.00603849 17.5191C-0.00161661 17.5943 -0.00161661 17.6702 0.00603849 17.7454C0.0394809 17.8958 0.100211 18.0387 0.185202 18.167C0.204005 18.197 0.224826 18.2257 0.247519 18.2528C0.266656 18.2824 0.290315 18.3087 0.317627 18.3309L28.5787 50.5782C28.6327 50.6365 28.6928 50.6888 28.7579 50.7343C28.821 50.7783 28.889 50.815 28.9604 50.8436L29.1084 50.8982C29.216 50.9359 29.3294 50.9544 29.4434 50.9529C29.508 50.961 29.5735 50.961 29.6381 50.9529C29.8026 50.9274 29.9595 50.8661 30.0977 50.7733C30.16 50.7332 30.2175 50.6861 30.2691 50.6328L59.6207 18.3934C59.6739 18.3417 59.7209 18.2841 59.7609 18.2216C59.8459 18.0933 59.9067 17.9504 59.9401 17.8001C59.9478 17.7274 59.9478 17.6542 59.9401 17.5815C59.9653 17.5106 59.9835 17.4374 59.9946 17.3629ZM46.6041 3.21817L39.3285 15.3333L31.5778 3.21817H46.6041ZM37.2565 16.4106H21.677L29.4667 4.21736L37.2565 16.4106ZM37.8017 18.7524L29.4667 45.8554L21.124 18.6978L37.8017 18.7524ZM27.3401 3.21817L19.5972 15.3177L12.4618 3.21817H27.3401ZM10.4209 4.32665L17.5173 16.4106H3.19982L10.4209 4.32665ZM3.70615 18.6978H18.7014L26.7637 44.9811L3.70615 18.6978ZM32.0841 45.1919L40.2088 18.6978H56.2166L32.0841 45.1919ZM41.4084 16.4106L48.684 4.28762L56.684 16.4106H41.4084Z" fill="#E21016"/>
</svg>
