<svg width="211" height="336" viewBox="0 0 211 336" fill="none" xmlns="http://www.w3.org/2000/svg">
<g opacity="0.3">
<mask id="mask0_710_1170" style="mask-type:alpha" maskUnits="userSpaceOnUse" x="-125" y="0" width="336" height="336">
<g clip-path="url(#clip0_710_1170)">
<g opacity="0.5">
<path d="M205.859 63.8402H114.098V55.1042C114.044 45.8179 110.318 36.9302 103.733 30.3827C97.1474 23.8351 88.2384 20.16 78.952 20.1602H7.048C-2.26156 20.1601 -11.1908 23.8537 -17.78 30.4303C-24.3691 37.0068 -28.0798 45.929 -28.0976 55.2386V63.8402H-119.859C-120.543 63.84 -121.22 63.9763 -121.85 64.2409C-122.48 64.5055 -123.052 64.8932 -123.53 65.3813C-124.009 65.8694 -124.386 66.4481 -124.638 67.0835C-124.89 67.7189 -125.013 68.3982 -125 69.0818V310.699C-125 312.063 -124.458 313.37 -123.494 314.334C-122.53 315.299 -121.223 315.84 -119.859 315.84H205.859C207.223 315.84 208.53 315.299 209.494 314.334C210.458 313.37 211 312.063 211 310.699V69.0818C211.013 68.3982 210.89 67.7189 210.638 67.0835C210.386 66.4481 210.009 65.8694 209.53 65.3813C209.052 64.8932 208.48 64.5055 207.85 64.2409C207.22 63.9763 206.543 63.84 205.859 63.8402ZM-17.816 55.2386C-17.7982 48.6528 -15.1719 42.3423 -10.5118 37.6886C-5.85181 33.0349 0.462204 30.417 7.048 30.4082H78.952C85.5378 30.417 91.8519 33.0349 96.5119 37.6886C101.172 42.3423 103.798 48.6528 103.816 55.2386V63.8402H-17.816V55.2386ZM199.509 74.2226L154.182 179.458H95.8192V160.373C95.8192 159.01 95.2776 157.702 94.3135 156.738C93.3494 155.774 92.0419 155.232 90.6784 155.232H-4.67838C-6.04181 155.232 -7.3494 155.774 -8.31349 156.738C-9.27758 157.702 -9.8192 159.01 -9.8192 160.373V179.458H-73.9616L-113.71 74.2226H199.509ZM0.46241 165.514H85.5376V204.053H0.46241V165.514ZM200.718 305.76H-114.718V100.162L-82.1936 186.346C-81.8428 187.323 -81.2004 188.17 -80.3532 188.771C-79.5059 189.372 -78.4947 189.698 -77.456 189.706H-9.8192V209.261C-9.8192 210.624 -9.27758 211.932 -8.31349 212.896C-7.3494 213.86 -6.04181 214.402 -4.67838 214.402H90.6784C92.0419 214.402 93.3494 213.86 94.3135 212.896C95.2776 211.932 95.8192 210.624 95.8192 209.261V189.605H157.542C158.529 189.601 159.493 189.31 160.316 188.767C161.14 188.224 161.787 187.453 162.179 186.547L200.718 96.9697V305.76Z" fill="#141418"/>
</g>
</g>
</mask>
<g mask="url(#mask0_710_1170)">
<rect x="22" y="-8" width="198" height="365" fill="#141418"/>
</g>
</g>
<defs>
<clipPath id="clip0_710_1170">
<rect width="336" height="336" fill="white" transform="translate(-125)"/>
</clipPath>
</defs>
</svg>
